<?xml version="1.0" encoding="UTF-8"?>
<svg id="Layer_2" data-name="Layer 2" xmlns="http://www.w3.org/2000/svg" viewBox="0 0 15.42 15.44">
  <defs>
    <style>
      .cls-1 {
        fill: #bfb47b;
      }
    </style>
  </defs>
  <g id="Layer_2-2" data-name="Layer 2">
    <g id="_3" data-name=" 3">
      <g>
        <path class="cls-1" d="M7.71,15.43C3.46,15.43,0,11.97,0,7.72S3.46,0,7.71,0s7.71,3.46,7.71,7.72-3.46,7.72-7.71,7.72h0ZM7.71.59C3.79.59.59,3.79.59,7.72s3.2,7.12,7.12,7.12,7.12-3.2,7.12-7.12S11.64.59,7.71.59Z"/>
        <path class="cls-1" d="M7.72,2.01c-.43,0-1.14.11-1.01.1,2.66.48,4.69,2.8,4.69,5.61s-2.02,5.13-4.69,5.61c.33.06.67.1,1.01.1,3.15,0,5.7-2.55,5.7-5.7S10.86,1.91,7.72,2.01Z"/>
      </g>
    </g>
  </g>
</svg>