<?xml version="1.0" encoding="UTF-8"?>
<svg id="Layer_2" data-name="Layer 2" xmlns="http://www.w3.org/2000/svg" viewBox="0 0 15.43 15.44">
  <defs>
    <style>
      .cls-1 {
        fill: #bfb47b;
      }
    </style>
  </defs>
  <g id="Layer_2-2" data-name="Layer 2">
    <g id="_3" data-name=" 3">
      <g>
        <path class="cls-1" d="M7.68,1.93c-.62,0-1.23.1-1.79.28,2.32.75,4,2.93,4,5.5s-1.68,4.75-4,5.5c.56.18,1.16.28,1.79.28,3.2,0,5.79-2.59,5.79-5.79S10.88,1.91,7.68,1.91v.02Z"/>
        <path class="cls-1" d="M7.71,15.43C3.46,15.43,0,11.97,0,7.71S3.46,0,7.71,0s7.72,3.46,7.72,7.72-3.46,7.72-7.72,7.72h0ZM7.71.59C3.78.59.59,3.79.59,7.71s3.2,7.12,7.12,7.12,7.12-3.2,7.12-7.12S11.64.59,7.71.59Z"/>
      </g>
    </g>
  </g>
</svg>