<?xml version="1.0" encoding="UTF-8"?>
<svg id="Layer_2" data-name="Layer 2" xmlns="http://www.w3.org/2000/svg" viewBox="0 0 15.42 15.44">
  <defs>
    <style>
      .cls-1 {
        fill: #bfb47b;
      }
    </style>
  </defs>
  <g id="Layer_2-2" data-name="Layer 2">
    <g id="_3" data-name=" 3">
      <g>
        <path class="cls-1" d="M7.71,15.44C3.46,15.44,0,11.98,0,7.72S3.46,0,7.71,0s7.71,3.46,7.71,7.72-3.46,7.72-7.71,7.72ZM7.71.6C3.78.6.59,3.8.59,7.72s3.2,7.12,7.12,7.12,7.12-3.2,7.12-7.12S11.63.6,7.71.6Z"/>
        <path class="cls-1" d="M7.57,1.88c-1.04,0-2.02.27-2.86.75,1.78,1,2.98,2.91,2.98,5.09s-1.2,4.09-2.98,5.09c.85.48,1.82.75,2.86.75,3.23,0,5.85-2.62,5.85-5.84S10.8,1.88,7.57,1.88Z"/>
      </g>
    </g>
  </g>
</svg>