<?xml version="1.0" encoding="UTF-8"?>
<svg id="Layer_2" data-name="Layer 2" xmlns="http://www.w3.org/2000/svg" viewBox="0 0 15.42 15.44">
  <defs>
    <style>
      .cls-1 {
        fill: #bfb47b;
      }
    </style>
  </defs>
  <g id="Layer_2-2" data-name="Layer 2">
    <g id="_3" data-name=" 3">
      <g>
        <path class="cls-1" d="M13.37,7.73c0,3.12-2.53,5.65-5.65,5.65s-5.65-2.53-5.65-5.65S4.6,2.08,7.72,2.08s5.65,2.53,5.65,5.65Z"/>
        <path class="cls-1" d="M7.71,15.44C3.46,15.44,0,11.98,0,7.72S3.46,0,7.71,0s7.71,3.46,7.71,7.72-3.46,7.72-7.71,7.72ZM7.71.6C3.78.6.59,3.8.59,7.72s3.2,7.12,7.12,7.12,7.12-3.2,7.12-7.12S11.63.6,7.71.6Z"/>
      </g>
    </g>
  </g>
</svg>