<?xml version="1.0" encoding="UTF-8"?>
<svg id="Layer_2" data-name="Layer 2" xmlns="http://www.w3.org/2000/svg" viewBox="0 0 15.42 15.44">
  <defs>
    <style>
      .cls-1 {
        fill: #bfb47b;
      }
    </style>
  </defs>
  <g id="Layer_2-2" data-name="Layer 2">
    <g id="_3" data-name=" 3">
      <g>
        <path class="cls-1" d="M7.71,15.44C3.46,15.44,0,11.98,0,7.72S3.46,0,7.71,0s7.71,3.46,7.71,7.72-3.46,7.72-7.71,7.72ZM7.71.6C3.78.6.59,3.8.59,7.72s3.2,7.12,7.12,7.12,7.12-3.2,7.12-7.12S11.63.6,7.71.6Z"/>
        <path class="cls-1" d="M7.71,2.02c.43,0,1.14.11,1.01.1-2.66.48-4.69,2.8-4.69,5.61s2.02,5.13,4.69,5.61c-.33.06-.67.1-1.01.1-3.15,0-5.7-2.55-5.7-5.7S4.56,1.93,7.71,2.04v-.02Z"/>
      </g>
    </g>
  </g>
</svg>