<?xml version="1.0" encoding="UTF-8"?>
<svg id="Layer_2" data-name="Layer 2" xmlns="http://www.w3.org/2000/svg" viewBox="0 0 567.13 567.27">
  <defs>
    <style>
      .cls-1 {
        fill: #bfb47b;
      }
    </style>
  </defs>
  <g id="Layer_1-2" data-name="Layer 1">
    <g>
      <g>
        <g>
          <path class="cls-1" d="M346.23,447.86c-5.01,0-346.23,4-346.23,4,0,0,341.22,4,346.23,4s5.02-4,5.02-4c0,0-.01-4-5.02-4Z"/>
          <g>
            <path class="cls-1" d="M347.78,459.42c-1.65,1.65-30.07,32.71-30.07,32.71,0,0,31.06-28.42,32.71-30.07,1.65-1.66.33-2.98.33-2.98,0,0-1.32-1.32-2.98.34Z"/>
            <path class="cls-1" d="M347.78,444.3c-1.65-1.65-30.07-32.71-30.07-32.71,0,0,31.06,28.42,32.71,30.07,1.65,1.66.33,2.98.33,2.98,0,0-1.32,1.31-2.98-.34Z"/>
          </g>
        </g>
        <path class="cls-1" d="M380,451.86c0,7.37-5.97,13.34-13.34,13.34s-13.34-5.97-13.34-13.34,5.98-13.34,13.34-13.34,13.34,5.97,13.34,13.34Z"/>
      </g>
      <g>
        <g>
          <path class="cls-1" d="M447.72,346.23c0-5.01,4-346.23,4-346.23,0,0,4,341.22,4,346.23s-4,5.02-4,5.02c0,0-4-.01-4-5.02Z"/>
          <g>
            <path class="cls-1" d="M459.28,347.78c1.65-1.65,32.71-30.07,32.71-30.07,0,0-28.42,31.05-30.07,32.71-1.66,1.65-2.98.34-2.98.34,0,0-1.32-1.32.34-2.98Z"/>
            <path class="cls-1" d="M444.16,347.78c-1.66-1.65-32.71-30.07-32.71-30.07,0,0,28.42,31.05,30.07,32.71,1.65,1.65,2.98.34,2.98.34,0,0,1.32-1.32-.34-2.98Z"/>
          </g>
        </g>
        <path class="cls-1" d="M451.72,380c7.37,0,13.34-5.98,13.34-13.34s-5.97-13.34-13.34-13.34-13.34,5.98-13.34,13.34,5.97,13.34,13.34,13.34Z"/>
      </g>
      <g>
        <g>
          <path class="cls-1" d="M435.04,435.18c9.21-9.21,24.14-9.21,33.35,0,9.21,9.21,9.21,24.14,0,33.35-9.21,9.21-24.14,9.21-33.35,0-9.21-9.21-9.21-24.14,0-33.35Z"/>
          <path class="cls-1" d="M414.9,473.15l-1.02-2.01-.75-1.47-.65-1.55-.62-1.51-.53-1.63-.69-2.14-31.59,12.63,27.52-6.96-27.51,13.45,28.06-9.62-47.58,26.5,55.37-25.68ZM445.08,493.81l-2.23-.35-4.18,40.84,8.63-40.13-2.22-.35ZM409.77,458.5l-.35-2.22-40.13,8.63,40.84-4.18-.35-2.23ZM440.74,492.95l-2.14-.7-1.6-.51-1.54-.64-1.54-.64-1.48-.76-2.01-1.02-25.68,55.37,26.51-47.6-9.63,28.07,13.45-27.51-6.96,27.52,12.62-31.58ZM428.58,487.54l-1.83-1.32-1.35-.98-1.27-1.08-1.26-1.08-1.19-1.19-1.21-1.21-1.06-1.24-1.08-1.28-.98-1.35-1.32-1.82-31.94,25.98,29.35-18.95-26.1,24.81,27.72-21.22-51.13,54.03,54.04-51.14-21.23,27.73,24.81-26.1-18.95,29.34,25.99-31.95ZM458.37,409.91l2.22.35,4.19-40.84-8.63,40.13,2.22.35ZM488.55,430.57l1.02,2.01.76,1.49.64,1.53.65,1.57.51,1.56.69,2.14,31.58-12.62-27.51,6.96,27.5-13.45-28.07,9.63,47.59-26.5-55.37,25.68ZM493.68,445.21l.35,2.22,40.13-8.63-40.84,4.19.36,2.22ZM462.71,410.77l2.14.69,1.61.52,1.52.63,1.54.64,1.49.76,2.01,1.02,25.68-55.37-26.5,47.58,9.63-28.05-13.45,27.5,6.96-27.51-12.63,31.58ZM474.87,416.17l1.82,1.33,1.36.98,1.27,1.08,1.23,1.06,1.21,1.21,1.16,1.16,1.1,1.29,1.08,1.26.99,1.35,1.33,1.82,31.94-25.99-29.35,18.96,26.1-24.81-27.72,21.22,51.13-54.03-54.03,51.13,21.23-27.72-24.81,26.1,18.96-29.35-25.98,31.94ZM493.67,458.5l-.35,2.22,40.84,4.19-40.13-8.64-.35,2.22ZM488.37,485.61l27.73,21.24-26.09-24.8,29.34,18.95-31.95-25.99-1.32,1.82-.98,1.35-1.09,1.27-1.08,1.26-1.19,1.19-1.21,1.2-1.23,1.06-1.27,1.09-1.35.98-1.82,1.32,25.99,31.94-18.96-29.35,24.81,26.1-21.23-27.72,81.65,78.75-78.76-81.66ZM458.37,493.81l-2.23.35,8.64,40.13-4.19-40.84-2.22.35ZM473.01,488.68l-2,1.02-1.48.76-1.54.64-1.51.62-1.62.53-2.14.7,12.63,31.58-6.96-27.52,13.45,27.51-9.63-28.07,26.5,47.6-25.69-55.37ZM492.81,462.85l-.7,2.14-.52,1.6-.64,1.54-.64,1.55-.75,1.48-1.03,2.01,55.37,25.69-47.59-26.51,28.06,9.63-27.5-13.45,27.51,6.96-31.58-12.62ZM409.77,445.21l.35-2.22-40.84-4.19,40.13,8.64.35-2.23ZM445.07,409.91l2.23-.35-8.64-40.13,4.19,40.84,2.22-.35ZM430.44,415.04l2-1.02,1.49-.76,1.54-.64,1.57-.65,1.56-.51,2.14-.7-12.62-31.58,6.96,27.5-13.45-27.5,9.62,28.06-26.5-47.59,25.68,55.37ZM410.63,440.88l.69-2.14.52-1.61.63-1.52.64-1.54.76-1.49,1.02-2-55.37-25.68,47.59,26.5-28.07-9.63,27.51,13.45-27.51-6.97,31.58,12.63ZM387.34,396.87l26.11,24.81-29.36-18.96,31.94,25.98,1.33-1.82.98-1.36,1.09-1.26,1.05-1.23,1.21-1.21,1.16-1.17,1.28-1.1,1.26-1.08,1.36-.99,1.82-1.32-25.99-31.95,18.96,29.35-24.81-26.1,21.22,27.72-54.03-51.13,51.14,54.03-27.73-21.23Z"/>
        </g>
        <path class="cls-1" d="M425.9,475.95c-.33-.35-.31-.91.04-1.24h0c.35-.33.92-.31,1.24.04h0c.27.28.53.56.81.83h0c.31.31.62.6.93.9h0c.36.33.38.89.05,1.25h0c-.33.35-.89.37-1.24.05h0c-.33-.32-.66-.62-.98-.94h0c-.29-.29-.57-.58-.85-.88h0ZM422.67,471.94c-.49-.7-.96-1.43-1.39-2.17h0c-.25-.42-.11-.96.31-1.2h0c.42-.25.96-.11,1.2.3h0c.42.7.85,1.38,1.33,2.06h0c.27.4.17.95-.23,1.23h0c-.35.24-.82.2-1.12-.1h0s-.07-.08-.1-.13h0ZM431.52,479.76c.28-.4.82-.5,1.23-.23h0c.68.46,1.37.91,2.07,1.31h0c.42.25.56.78.31,1.21h0c-.25.42-.79.56-1.2.31h0c-.74-.42-1.47-.89-2.18-1.38h0s-.08-.06-.12-.1h0c-.3-.3-.35-.77-.11-1.12h0ZM418.99,465.15c-.32-.8-.62-1.6-.89-2.43h0c-.14-.46.11-.95.57-1.1h0c.46-.16.96.1,1.11.57h0c.25.77.53,1.54.83,2.3h0c.18.45-.04.96-.49,1.15h0c-.34.14-.71.05-.95-.2h0c-.08-.08-.15-.18-.19-.29h0ZM438.06,483.49c.19-.45.69-.67,1.15-.49h0c.76.3,1.52.58,2.3.82h0c.46.15.71.65.57,1.11h0c-.16.46-.65.72-1.11.57h0c-.81-.26-1.62-.56-2.43-.87h0c-.11-.05-.21-.11-.29-.19h0c-.24-.25-.33-.62-.2-.96h0ZM416.89,457.72c-.14-.85-.26-1.7-.34-2.55h0c-.05-.48.31-.91.8-.96h0c.48-.05.92.31.96.79h0c.07.81.18,1.63.31,2.42h0c.08.48-.25.94-.72,1.02h0c-.29.05-.57-.05-.77-.25h0c-.12-.12-.21-.28-.25-.47h0ZM445.25,485.69c.08-.48.53-.81,1.01-.73h0c.81.14,1.62.24,2.43.31h0c.49.04.84.47.8.96h0c-.04.48-.47.84-.96.8h0c-.85-.07-1.71-.18-2.55-.32h0c-.19-.03-.36-.12-.48-.25h0c-.19-.19-.29-.48-.24-.77h0ZM416.45,450.01c.04-.86.12-1.71.23-2.57h0c.06-.48.5-.82.98-.76h0c.48.06.83.5.77.99h0c-.11.81-.18,1.62-.22,2.43h0c-.02.48-.44.86-.92.83h0c-.23-.01-.43-.11-.58-.26h0c-.17-.17-.27-.4-.25-.66h0ZM452.75,486.28c-.02-.48.35-.89.83-.92h0c.82-.04,1.63-.12,2.45-.22h0c.48-.07.92.28.98.75h0c.06.48-.28.93-.76.99h0c-.86.11-1.72.18-2.57.24h0c-.25.01-.5-.09-.67-.26h0c-.15-.15-.24-.35-.26-.58h0ZM417.68,442.4c.23-.82.49-1.64.78-2.46h0c.16-.45.67-.7,1.13-.53h0c.45.16.69.66.53,1.12h0c-.28.76-.53,1.54-.75,2.33h0c-.13.46-.62.74-1.08.61h0c-.15-.04-.29-.12-.39-.23h0c-.22-.22-.31-.54-.23-.86h0ZM460.22,485.24c-.13-.46.14-.96.6-1.08h0c.78-.22,1.57-.48,2.33-.75h0c.46-.16.96.08,1.13.53h0c.17.46-.07.96-.52,1.13h0c-.82.29-1.64.55-2.46.79h0c-.32.09-.65,0-.87-.22h0c-.1-.1-.18-.24-.22-.39h0ZM420.55,435.23c.4-.75.84-1.49,1.3-2.22h0c.26-.41.8-.53,1.21-.28h0c.41.26.54.8.27,1.22h0c-.43.69-.85,1.39-1.22,2.12h0c-.23.42-.76.59-1.19.36h0c-.08-.04-.15-.09-.21-.15h0c-.27-.27-.34-.69-.16-1.04h0ZM467.26,482.6c-.23-.43-.07-.96.36-1.19h0c.71-.38,1.42-.79,2.11-1.24h0c.42-.26.95-.14,1.21.27h0c.27.41.14.96-.27,1.21h0c-.72.47-1.47.89-2.23,1.31h0c-.35.18-.77.11-1.04-.16h0c-.06-.06-.11-.13-.15-.21h0ZM424.9,428.87c.56-.65,1.14-1.28,1.76-1.89h0c.34-.34.9-.35,1.24,0h0c.34.34.34.9,0,1.25h0c-.58.58-1.13,1.18-1.66,1.8h0c-.32.36-.88.41-1.24.09h0s-.03-.02-.04-.04h0c-.33-.33-.35-.85-.05-1.2h0ZM473.57,478.49c-.32-.37-.29-.93.09-1.25h0c.61-.52,1.21-1.08,1.8-1.67h0c.34-.34.9-.34,1.25,0h0c.34.34.34.9,0,1.24h0c-.62.62-1.25,1.2-1.88,1.76h0c-.36.31-.88.27-1.21-.05h0s-.02-.03-.04-.04h0ZM477.28,473.6c.53-.62,1.04-1.26,1.52-1.92h0c.28-.38.83-.47,1.23-.18h0c.39.29.48.84.19,1.23h0c-.5.68-1.04,1.36-1.6,2.02h0c-.31.36-.88.41-1.24.09h0s-.04-.03-.05-.05h0c-.32-.32-.35-.84-.05-1.19h0ZM430.36,424.82c-.28-.39-.21-.94.18-1.23h0c.69-.52,1.4-1.01,2.11-1.47h0c.41-.26.96-.15,1.22.27h0c.27.4.14.95-.27,1.21h0c-.68.44-1.35.9-2,1.4h-.01c-.35.26-.84.22-1.14-.08h0s-.06-.06-.08-.09h0ZM481.4,467.54c.39-.72.74-1.46,1.06-2.21h0c.19-.45.71-.65,1.16-.45h0c.45.19.65.71.45,1.16h0c-.34.78-.72,1.56-1.12,2.32h0c-.23.43-.76.59-1.19.37h0c-.08-.04-.14-.1-.21-.16h0c-.27-.27-.35-.69-.16-1.03h0ZM436.74,420.83c-.2-.45,0-.97.44-1.17h0c.79-.35,1.58-.68,2.39-.97h0c.45-.17.96.06,1.12.52h0c.17.46-.07.96-.52,1.13h0c-.76.27-1.52.58-2.27.93h0c-.34.14-.74.06-.99-.19h0c-.07-.07-.13-.16-.17-.25h0ZM484.09,460.73c.21-.79.4-1.59.56-2.38h0c.09-.48.56-.8,1.04-.7h0c.48.1.79.56.69,1.03h0c-.17.85-.36,1.68-.59,2.51h0c-.13.47-.61.75-1.08.62h0c-.16-.04-.29-.12-.4-.23h0c-.22-.22-.32-.54-.23-.85h0ZM443.85,418.31c-.1-.47.21-.94.68-1.03h0c.84-.18,1.69-.32,2.54-.44h0c.48-.07.93.27.99.76h0c.06.47-.27.92-.76.99h0c-.81.1-1.62.23-2.41.41h0c-.3.06-.59-.04-.8-.24h0c-.12-.12-.2-.27-.24-.45h0ZM485.23,453.49c.05-.82.06-1.64.04-2.45h0c-.02-.49.37-.89.85-.9h0c.49-.02.89.37.9.86h0c.02.86.01,1.72-.02,2.57h0c-.02.49-.44.86-.93.83h0c-.22,0-.43-.11-.58-.25h0c-.17-.17-.27-.41-.26-.66h0ZM451.32,417.41c.01-.49.41-.88.89-.87h0c.86,0,1.71.06,2.57.13h0c.48.04.85.46.8.95h0c-.05.48-.47.84-.95.8h0c-.82-.08-1.63-.11-2.45-.13h0c-.24,0-.45-.11-.6-.26h0c-.16-.16-.26-.39-.26-.63h0ZM484.79,446.16c-.14-.8-.31-1.6-.5-2.4h0c-.12-.47.16-.95.64-1.07h0c.47-.12.94.17,1.06.65h0c.21.83.39,1.67.53,2.52h0c.08.49-.24.94-.72,1.02h0c-.29.05-.58-.05-.77-.24h0c-.12-.12-.22-.29-.25-.48h0ZM458.81,418.14c.11-.47.59-.77,1.06-.65h0c.83.2,1.66.42,2.48.68h0c.46.15.72.64.57,1.1h0c-.14.46-.63.72-1.1.58h0c-.77-.25-1.56-.47-2.36-.65h0c-.16-.04-.31-.13-.42-.24h0c-.21-.21-.31-.51-.24-.82h0ZM482.77,439.11c-.31-.75-.65-1.5-1.01-2.23h0c-.22-.43-.04-.96.39-1.18h0c.44-.21.97-.04,1.19.4h0c.39.77.74,1.55,1.06,2.34h0c.19.45-.03.96-.48,1.15h0c-.34.13-.72.05-.96-.2h0c-.08-.08-.14-.18-.19-.29h0ZM465.96,420.48c.21-.45.75-.63,1.18-.42h0c.77.38,1.53.78,2.27,1.21h0c.43.24.57.78.32,1.2h0c-.24.41-.78.55-1.2.32h0c-.72-.41-1.43-.8-2.16-1.15h0c-.09-.04-.17-.1-.24-.17h0c-.26-.26-.34-.66-.17-1h0ZM479.26,432.67c-.47-.67-.96-1.32-1.48-1.95h0c-.31-.38-.24-.94.13-1.24h0c.38-.3.93-.25,1.23.13h0c.54.67,1.06,1.36,1.56,2.06h0c.28.39.18.95-.22,1.22h0c-.36.25-.84.19-1.13-.1h0s-.07-.08-.1-.12h0ZM472.43,424.33c.3-.38.85-.45,1.24-.14h0c.66.53,1.31,1.1,1.95,1.68h0c.36.33.38.89.05,1.25h0c-.33.35-.89.38-1.24.05h0c-.6-.56-1.23-1.09-1.87-1.6h0s-.05-.04-.08-.07h0c-.31-.31-.34-.81-.06-1.16h0Z"/>
      </g>
      <g>
        <path class="cls-1" d="M316.45,474.42c0,3.48-2.82,6.3-6.3,6.3s-6.3-2.82-6.3-6.3,2.82-6.3,6.3-6.3,6.3,2.82,6.3,6.3Z"/>
        <path class="cls-1" d="M282.54,472.64c0,3.21-2.6,5.82-5.81,5.82s-5.82-2.6-5.82-5.82,2.6-5.81,5.82-5.81,5.81,2.6,5.81,5.81Z"/>
        <path class="cls-1" d="M248.62,470.85c0,2.94-2.38,5.33-5.33,5.33s-5.33-2.38-5.33-5.33,2.38-5.33,5.33-5.33,5.33,2.38,5.33,5.33Z"/>
        <path class="cls-1" d="M214.7,469.07c0,2.68-2.17,4.84-4.84,4.84s-4.84-2.17-4.84-4.84,2.17-4.84,4.84-4.84,4.84,2.17,4.84,4.84Z"/>
        <path class="cls-1" d="M180.78,467.29c0,2.41-1.95,4.36-4.36,4.36s-4.35-1.95-4.35-4.36,1.95-4.35,4.35-4.35,4.36,1.95,4.36,4.35Z"/>
        <path class="cls-1" d="M146.86,465.5c0,2.14-1.73,3.87-3.87,3.87s-3.87-1.73-3.87-3.87,1.73-3.87,3.87-3.87,3.87,1.73,3.87,3.87Z"/>
        <path class="cls-1" d="M112.94,463.72c0,1.87-1.51,3.38-3.38,3.38s-3.38-1.51-3.38-3.38,1.51-3.38,3.38-3.38,3.38,1.52,3.38,3.38Z"/>
        <path class="cls-1" d="M79.02,461.93c0,1.6-1.3,2.9-2.9,2.9s-2.9-1.3-2.9-2.9,1.3-2.9,2.9-2.9,2.9,1.3,2.9,2.9Z"/>
        <path class="cls-1" d="M45.1,460.15c0,1.33-1.08,2.41-2.41,2.41s-2.41-1.08-2.41-2.41,1.08-2.41,2.41-2.41,2.41,1.08,2.41,2.41Z"/>
      </g>
      <g>
        <path class="cls-1" d="M475.67,316.94c3.48,0,6.3-2.82,6.3-6.3s-2.82-6.3-6.3-6.3-6.3,2.82-6.3,6.3,2.82,6.3,6.3,6.3Z"/>
        <path class="cls-1" d="M473.89,283.02c3.21,0,5.81-2.6,5.81-5.82s-2.6-5.81-5.81-5.81-5.82,2.6-5.82,5.81,2.6,5.82,5.82,5.82Z"/>
        <path class="cls-1" d="M472.1,249.1c2.94,0,5.33-2.38,5.33-5.33s-2.38-5.33-5.33-5.33-5.33,2.39-5.33,5.33,2.39,5.33,5.33,5.33Z"/>
        <path class="cls-1" d="M470.32,215.18c2.67,0,4.84-2.17,4.84-4.84s-2.17-4.84-4.84-4.84-4.84,2.17-4.84,4.84,2.17,4.84,4.84,4.84Z"/>
        <path class="cls-1" d="M468.53,181.27c2.41,0,4.36-1.95,4.36-4.36s-1.95-4.36-4.36-4.36-4.35,1.95-4.35,4.36,1.95,4.36,4.35,4.36Z"/>
        <path class="cls-1" d="M466.75,147.35c2.14,0,3.87-1.73,3.87-3.87s-1.73-3.87-3.87-3.87-3.87,1.73-3.87,3.87,1.73,3.87,3.87,3.87Z"/>
        <path class="cls-1" d="M464.97,113.43c1.87,0,3.38-1.52,3.38-3.38s-1.51-3.38-3.38-3.38-3.38,1.51-3.38,3.38,1.51,3.38,3.38,3.38Z"/>
        <path class="cls-1" d="M463.18,79.51c1.6,0,2.9-1.3,2.9-2.9s-1.29-2.9-2.9-2.9-2.89,1.3-2.89,2.9,1.3,2.9,2.89,2.9Z"/>
        <path class="cls-1" d="M461.4,45.59c1.33,0,2.41-1.08,2.41-2.41s-1.08-2.41-2.41-2.41-2.41,1.08-2.41,2.41,1.08,2.41,2.41,2.41Z"/>
      </g>
    </g>
  </g>
</svg>