<?xml version="1.0" encoding="UTF-8"?>
<svg id="Layer_2" data-name="Layer 2" xmlns="http://www.w3.org/2000/svg" viewBox="0 0 616.69 616.69">
  <defs>
    <style>
      .cls-1 {
        fill: #bfb47b;
      }
    </style>
  </defs>
  <g id="Layer_1-2" data-name="Layer 1">
    <g>
      <g>
        <g>
          <path class="cls-1" d="M269.58,509.72c-11.15-.01-20.29,4.29-24.11,6.42h0c-1.27.71-1.9,1.15-1.9,1.15h0l-1.98-2.89c.15-.09,11.92-8.16,27.99-8.18h0c13.28-.04,29.44,5.72,43.55,25.75h0l-2.86,2.02c-13.64-19.23-28.41-24.23-40.7-24.27h0Z"/>
          <path class="cls-1" d="M269.58,525.47c-16-.02-27.73-8.02-27.99-8.18h0l1.97-2.89s.64.44,1.91,1.15h0c1.27.71,3.13,1.66,5.47,2.62h0c4.66,1.91,11.2,3.81,18.64,3.8h0c12.28-.04,27.06-5.03,40.7-24.26h0l2.86,2.02c-14.06,19.97-30.16,25.75-43.43,25.75h-.13ZM241.59,517.29h0,0Z"/>
          <path class="cls-1" d="M310.28,531.97c14.11-20.03,30.27-25.79,43.56-25.75h0c16.07.03,27.84,8.09,27.99,8.18h0l-1.97,2.89s-.64-.44-1.92-1.15h0c-1.27-.71-3.13-1.66-5.46-2.61h0c-4.66-1.91-11.2-3.81-18.64-3.81h0c-12.28.04-27.06,5.03-40.7,24.27h0l-2.86-2.02h0Z"/>
          <path class="cls-1" d="M310.28,499.72l2.86-2.02c13.64,19.23,28.42,24.23,40.7,24.26h0c11.15.01,20.3-4.28,24.11-6.42h0c1.27-.71,1.91-1.14,1.91-1.14h0s0,0,0,0l1.97,2.89c-.15.09-11.92,8.16-27.99,8.18h-.13c-13.26,0-29.36-5.78-43.43-25.75h0Z"/>
          <path class="cls-1" d="M310.31,499.77c-.06-.14-3.98-5.06-4.05-10.78h0c0-1.87.48-3.59,1.37-4.96h0c.86-1.34,2.29-2.44,4.07-2.45h0c1.79,0,3.21,1.1,4.08,2.45h0c.89,1.37,1.37,3.09,1.37,4.96h0c-.08,5.46-3.98,10.6-4.02,10.75h0l-1.38,1.92-1.43-1.88h0ZM310.56,485.95c-.45.68-.8,1.79-.8,3.04h0c-.02,2.2.99,4.67,1.92,6.4h0c.1-.19.21-.39.31-.6h0c.87-1.72,1.68-3.98,1.67-5.8h0c0-1.25-.34-2.36-.8-3.04h0c-.47-.7-.89-.87-1.15-.86h-.01c-.25,0-.67.18-1.13.86h0Z"/>
          <path class="cls-1" d="M307.63,547.65c-.89-1.36-1.37-3.08-1.37-4.95h0c.07-5.73,4-10.64,4.05-10.79h0l1.44-1.88,1.38,1.92c.04.15,3.94,5.29,4.02,10.75h0c0,1.87-.48,3.59-1.37,4.95h0c-.87,1.35-2.29,2.45-4.08,2.45h0c-1.79,0-3.21-1.1-4.07-2.45h0ZM312.86,545.74c.45-.68.8-1.79.79-3.04h0c.03-2.05-1.02-4.6-1.97-6.4h0c-.09.16-.17.33-.26.5h0c-.86,1.68-1.67,3.91-1.66,5.9h0c0,1.25.35,2.36.8,3.04h0c.47.7.89.87,1.14.86h0c.25,0,.68-.16,1.15-.86h0Z"/>
        </g>
        <path class="cls-1" d="M411.13,496.35c5.77,9.08-1.13,19.85-9.4,22.29-8.26,3.09-16.24,0-20.45-3.03,2.73,4.29,11,10.06,21.77,7.52,5.15-1.29,10.69-4.42,14-10.26,3.38-5.7,3.42-13.64-.41-19.9-3.52-6.41-11.76-9.88-18.37-8.09-6.58,1.54-11.79,7.4-11.61,13.53-.13,6.04,3.98,10.58,8.31,11.75,4.54,1.29,7.88-1.42,9.52-3.24-4.23,3.79-14.42.57-13.15-8.24.38-8.17,14.92-11.93,19.79-2.33Z"/>
        <path class="cls-1" d="M416.65,538.73c3.83-6.27,3.78-14.21.41-19.9-3.31-5.84-8.85-8.97-14-10.26-10.77-2.54-19.04,3.23-21.77,7.52,4.2-3.04,12.19-6.12,20.45-3.03,8.27,2.44,15.17,13.21,9.4,22.29-4.87,9.6-19.41,5.84-19.79-2.33-1.27-8.8,8.92-12.03,13.15-8.24-1.64-1.81-4.97-4.52-9.52-3.23-4.33,1.18-8.44,5.71-8.31,11.75-.18,6.12,5.04,11.99,11.61,13.53,6.61,1.79,14.85-1.67,18.37-8.08Z"/>
        <path class="cls-1" d="M231.92,506.74c-2.7,4.24.53,9.27,4.39,10.41,3.86,1.44,7.59,0,9.55-1.42-1.28,2-5.14,4.7-10.17,3.51-2.41-.61-5-2.06-6.54-4.8-1.58-2.66-1.6-6.37.19-9.29,1.65-3,5.49-4.61,8.58-3.78,3.07.72,5.51,3.46,5.42,6.32.06,2.82-1.86,4.94-3.88,5.49-2.12.6-3.68-.67-4.44-1.51,1.97,1.77,6.73.27,6.14-3.85-.18-3.81-6.97-5.57-9.24-1.09Z"/>
        <path class="cls-1" d="M229.34,526.53c-1.79-2.93-1.76-6.63-.19-9.29,1.54-2.73,4.13-4.19,6.54-4.79,5.03-1.19,8.89,1.51,10.17,3.51-1.96-1.42-5.69-2.86-9.55-1.41-3.86,1.14-7.09,6.17-4.39,10.41,2.28,4.48,9.06,2.72,9.24-1.09.59-4.11-4.17-5.62-6.14-3.85.76-.85,2.32-2.11,4.44-1.51,2.02.55,3.94,2.67,3.88,5.49.09,2.86-2.35,5.6-5.42,6.32-3.09.83-6.93-.78-8.58-3.78Z"/>
        <path class="cls-1" d="M387.37,515.84c0,2.62-2.12,4.74-4.74,4.74s-4.74-2.12-4.74-4.74,2.13-4.74,4.74-4.74,4.74,2.12,4.74,4.74Z"/>
        <path class="cls-1" d="M0,515.85l242.9,2.01v-4.11l-242.9,1.88v.22ZM380.73,512.66v6.36h.65s0-6.36,0-6.36h-.65Z"/>
      </g>
      <g>
        <g>
          <path class="cls-1" d="M509.72,269.58c0-11.15,4.29-20.3,6.42-24.11h0c.71-1.27,1.14-1.91,1.15-1.91h0l-2.89-1.98c-.09.15-8.16,11.92-8.18,27.99h0c-.04,13.28,5.72,29.44,25.75,43.55h0l2.02-2.86c-19.23-13.64-24.23-28.41-24.27-40.69h0Z"/>
          <path class="cls-1" d="M525.47,269.58c-.02-16-8.02-27.73-8.18-27.99h0l-2.89,1.97s.44.64,1.15,1.91h0c.71,1.27,1.66,3.13,2.61,5.47h0c1.91,4.66,3.81,11.2,3.81,18.64h0c-.04,12.28-5.03,27.06-24.26,40.69h0l2.02,2.86c19.97-14.06,25.75-30.16,25.75-43.42h0v-.13h0ZM517.29,241.59h0s0,0,0,0h0Z"/>
          <path class="cls-1" d="M531.97,310.28c-20.03,14.11-25.79,30.27-25.75,43.56h0c.03,16.07,8.09,27.84,8.18,27.99h0l2.89-1.97s-.44-.64-1.15-1.91h0c-.71-1.27-1.66-3.13-2.61-5.46h0c-1.91-4.67-3.81-11.2-3.81-18.64h0c.04-12.28,5.04-27.06,24.27-40.7h0l-2.02-2.86h0Z"/>
          <path class="cls-1" d="M499.72,310.28l-2.02,2.86c19.23,13.64,24.23,28.42,24.26,40.7h0c.01,11.15-4.28,20.3-6.42,24.11h0c-.71,1.27-1.14,1.91-1.14,1.91h0s0,0,0,0l2.89,1.97c.09-.15,8.15-11.92,8.18-27.99h0v-.13h0c0-13.26-5.78-29.37-25.75-43.43h0Z"/>
          <path class="cls-1" d="M499.77,310.31c-.14-.06-5.06-3.98-10.78-4.05h0c-1.87,0-3.59.48-4.96,1.37h0c-1.35.86-2.44,2.29-2.45,4.07h0c0,1.79,1.1,3.21,2.45,4.08h0c1.37.89,3.09,1.37,4.96,1.37h0c5.46-.08,10.6-3.98,10.75-4.03h0l1.92-1.38-1.88-1.43h0ZM485.95,310.56c.68-.45,1.79-.8,3.04-.8h0c2.2-.03,4.67.99,6.4,1.92h0c-.19.1-.39.21-.6.31h0c-1.72.87-3.98,1.68-5.8,1.66h0c-1.25,0-2.36-.35-3.04-.8h0c-.7-.47-.87-.89-.86-1.15h0c0-.27.18-.68.86-1.15h0Z"/>
          <path class="cls-1" d="M547.65,307.63c-1.36-.89-3.08-1.37-4.95-1.37h0c-5.73.07-10.64,4-10.79,4.05h0l-1.88,1.44,1.92,1.38c.15.04,5.29,3.94,10.75,4.03h0c1.87-.01,3.59-.48,4.95-1.37h0c1.35-.87,2.45-2.29,2.45-4.08h0c0-1.79-1.1-3.21-2.45-4.07h0ZM545.74,312.86c-.68.45-1.79.8-3.04.79h0c-2.05.03-4.6-1.02-6.4-1.97h0c.16-.09.33-.17.5-.26h0c1.68-.86,3.91-1.67,5.9-1.66h0c1.25,0,2.36.35,3.04.8h0c.7.47.87.89.86,1.15h0c0,.25-.16.68-.86,1.15h0Z"/>
        </g>
        <path class="cls-1" d="M496.35,411.13c9.08,5.77,19.85-1.13,22.29-9.4,3.09-8.26,0-16.24-3.04-20.45,4.29,2.73,10.06,11,7.52,21.77-1.29,5.15-4.42,10.69-10.26,14-5.7,3.38-13.64,3.42-19.91-.41-6.41-3.52-9.88-11.76-8.09-18.37,1.54-6.58,7.41-11.79,13.53-11.62,6.04-.13,10.58,3.98,11.75,8.31,1.29,4.54-1.42,7.88-3.24,9.52,3.79-4.23.57-14.42-8.24-13.15-8.17.38-11.93,14.92-2.33,19.79Z"/>
        <path class="cls-1" d="M538.73,416.65c-6.27,3.83-14.21,3.78-19.9.41-5.84-3.31-8.97-8.85-10.26-14-2.54-10.77,3.23-19.04,7.52-21.77-3.04,4.2-6.12,12.19-3.03,20.45,2.44,8.27,13.21,15.17,22.29,9.4,9.6-4.87,5.84-19.41-2.33-19.79-8.8-1.27-12.03,8.92-8.24,13.15-1.81-1.64-4.52-4.97-3.23-9.52,1.18-4.33,5.71-8.44,11.75-8.31,6.12-.18,11.99,5.04,13.53,11.62,1.79,6.61-1.67,14.85-8.09,18.37Z"/>
        <path class="cls-1" d="M506.74,231.93c4.24-2.7,9.27.53,10.41,4.39,1.44,3.86,0,7.59-1.41,9.55,2-1.28,4.7-5.14,3.51-10.17-.6-2.41-2.06-5-4.79-6.54-2.66-1.58-6.37-1.6-9.29.19-3,1.65-4.61,5.49-3.78,8.58.72,3.07,3.46,5.51,6.32,5.42,2.82.06,4.94-1.86,5.49-3.88.6-2.12-.66-3.68-1.51-4.44,1.77,1.97.26,6.73-3.85,6.14-3.81-.18-5.57-6.97-1.09-9.24Z"/>
        <path class="cls-1" d="M526.53,229.34c-2.93-1.79-6.63-1.76-9.29-.19-2.73,1.54-4.19,4.13-4.79,6.54-1.19,5.03,1.51,8.89,3.51,10.17-1.42-1.96-2.86-5.69-1.41-9.55,1.14-3.86,6.17-7.09,10.41-4.39,4.48,2.28,2.72,9.06-1.09,9.24-4.11.59-5.62-4.17-3.85-6.14-.84.76-2.11,2.32-1.51,4.44.55,2.02,2.67,3.94,5.49,3.88,2.86.09,5.6-2.35,6.32-5.42.83-3.09-.78-6.94-3.78-8.58Z"/>
        <path class="cls-1" d="M515.84,387.37c2.62,0,4.74-2.12,4.74-4.74s-2.12-4.74-4.74-4.74-4.74,2.12-4.74,4.74,2.12,4.74,4.74,4.74Z"/>
        <path class="cls-1" d="M515.85,0l2.01,242.9h-4.11l1.88-242.9h.21ZM512.66,380.73h6.36v.66s-6.36,0-6.36,0v-.66Z"/>
      </g>
      <g>
        <g>
          <g>
            <g>
              <polygon class="cls-1" points="444.54 587.15 476.5 558.6 474.8 556.89 473.09 555.19 444.54 587.15"/>
              <polygon class="cls-1" points="440.23 500.8 458.45 506.89 458.91 504.53 459.39 502.15 440.23 500.8"/>
              <polygon class="cls-1" points="415 515.84 457.79 518.25 457.8 515.84 457.8 513.43 415 515.84"/>
              <polygon class="cls-1" points="440.23 530.88 459.39 529.54 458.91 527.16 458.43 524.8 440.23 530.88"/>
              <polygon class="cls-1" points="428.83 551.89 463.14 540.29 462.21 538.06 461.29 535.83 428.83 551.89"/>
              <polygon class="cls-1" points="451.71 558.7 468.92 550.1 467.57 548.1 466.24 546.08 451.71 558.7"/>
            </g>
            <g>
              <polygon class="cls-1" points="472.98 579.98 485.6 565.45 483.59 564.11 481.58 562.77 472.98 579.98"/>
              <polygon class="cls-1" points="479.8 602.86 495.86 570.4 493.62 569.48 491.4 568.56 479.8 602.86"/>
              <polygon class="cls-1" points="500.8 591.47 506.88 573.25 504.52 572.78 502.15 572.3 500.8 591.47"/>
              <polygon class="cls-1" points="515.85 616.69 518.26 573.9 515.84 573.9 513.43 573.9 515.85 616.69"/>
              <polygon class="cls-1" points="530.89 591.46 529.54 572.31 527.17 572.79 524.8 573.25 530.89 591.46"/>
            </g>
          </g>
          <g>
            <g>
              <polygon class="cls-1" points="587.15 444.54 555.19 473.09 556.9 474.79 558.6 476.5 587.15 444.54"/>
              <polygon class="cls-1" points="500.8 440.22 502.16 459.39 504.52 458.91 506.89 458.44 500.8 440.22"/>
              <polygon class="cls-1" points="515.84 415 513.43 457.8 515.84 457.8 518.26 457.79 515.84 415"/>
              <polygon class="cls-1" points="530.89 440.23 524.8 458.43 527.17 458.9 529.54 459.39 530.89 440.23"/>
              <polygon class="cls-1" points="551.89 428.82 535.83 461.29 538.06 462.21 540.29 463.14 551.89 428.82"/>
              <polygon class="cls-1" points="558.7 451.71 546.09 466.24 548.09 467.58 550.1 468.92 558.7 451.71"/>
            </g>
            <g>
              <polygon class="cls-1" points="579.97 472.98 562.77 481.59 564.11 483.59 565.45 485.6 579.97 472.98"/>
              <polygon class="cls-1" points="602.87 479.8 568.56 491.4 569.48 493.62 570.4 495.86 602.87 479.8"/>
              <polygon class="cls-1" points="591.47 500.8 572.31 502.15 572.78 504.52 573.25 506.88 591.47 500.8"/>
              <polygon class="cls-1" points="616.69 515.84 573.9 513.43 573.9 515.84 573.9 518.26 616.69 515.84"/>
              <polygon class="cls-1" points="591.47 530.88 573.25 524.8 572.78 527.17 572.31 529.54 591.47 530.88"/>
            </g>
          </g>
        </g>
        <path class="cls-1" d="M519.4,532.5c10.51,1.27,21.2,8.1,33.65,20.55-12.46-12.46-19.29-23.15-20.56-33.66,5.82-2.46,13.37-3.54,22.98-3.55-9.62,0-17.17-1.08-22.98-3.54,1.26-10.51,8.1-21.2,20.55-33.65-12.45,12.45-23.14,19.3-33.65,20.56-2.47-5.82-3.55-13.37-3.54-22.99,0,9.62-1.09,17.16-3.55,22.98-10.51-1.27-21.2-8.1-33.66-20.56,12.46,12.46,19.29,23.15,20.55,33.65-5.81,2.47-13.36,3.55-22.97,3.56,9.61,0,17.16,1.08,22.98,3.54-1.26,10.52-8.1,21.2-20.55,33.65,12.45-12.45,23.14-19.28,33.66-20.54,2.46,5.82,3.54,13.36,3.54,22.97,0-9.61,1.08-17.16,3.55-22.97Z"/>
      </g>
      <g>
        <path class="cls-1" d="M569.8,566.1c1.81-5.04,9.37-13.06,9.37-13.06,0,0-8.01,7.56-13.06,9.36-5.04-1.81-13.06-9.36-13.06-9.36,0,0,7.56,8.01,9.36,13.06-1.81,5.04-9.36,13.06-9.36,13.06,0,0,8.01-7.56,13.06-9.37,5.04,1.81,13.06,9.37,13.06,9.37,0,0-7.56-8.02-9.37-13.06Z"/>
        <path class="cls-1" d="M567.81,567.81c3.17-1.49,21.44-1.71,21.44-1.71,0,0-18.27-.21-21.44-1.71-1.49-3.17-1.71-21.44-1.71-21.44,0,0-.21,18.27-1.71,21.44-3.17,1.49-21.44,1.71-21.44,1.71,0,0,18.27.21,21.44,1.71,1.5,3.17,1.71,21.44,1.71,21.44,0,0,.21-18.27,1.71-21.44Z"/>
      </g>
      <g>
        <path class="cls-1" d="M469.28,465.58c1.81-5.04,9.37-13.06,9.37-13.06,0,0-8.01,7.56-13.06,9.36-5.04-1.81-13.06-9.36-13.06-9.36,0,0,7.55,8.01,9.36,13.06-1.81,5.05-9.36,13.06-9.36,13.06,0,0,8.01-7.56,13.06-9.37,5.05,1.81,13.06,9.37,13.06,9.37,0,0-7.55-8.02-9.37-13.06Z"/>
        <path class="cls-1" d="M467.29,467.29c3.17-1.49,21.44-1.71,21.44-1.71,0,0-18.27-.21-21.44-1.71-1.49-3.17-1.71-21.44-1.71-21.44,0,0-.21,18.27-1.71,21.44-3.17,1.5-21.44,1.71-21.44,1.71,0,0,18.27.21,21.44,1.71,1.49,3.17,1.71,21.44,1.71,21.44,0,0,.21-18.27,1.71-21.44Z"/>
      </g>
    </g>
  </g>
</svg>