<?xml version="1.0" encoding="UTF-8"?>
<svg id="Layer_2" data-name="Layer 2" xmlns="http://www.w3.org/2000/svg" viewBox="0 0 494.66 494.67">
  <defs>
    <style>
      .cls-1 {
        fill: #bfb47b;
      }
    </style>
  </defs>
  <g id="Layer_1-2" data-name="Layer 1">
    <g>
      <g>
        <path class="cls-1" d="M295.31,409.87c5.31-4.17,13.22-5.91,24.46-5.91-11.24,0-19.15-1.74-24.46-5.91,1.51-3.74,4.43-7.63,8.77-11.97-4.34,4.34-8.23,7.26-11.97,8.77-4.17-5.31-5.91-13.22-5.91-24.46,0,11.24-1.74,19.15-5.91,24.46-3.74-1.51-7.63-4.43-11.97-8.77,4.34,4.34,7.25,8.23,8.77,11.97-5.31,4.17-13.22,5.91-24.46,5.91,11.24,0,19.15,1.74,24.46,5.91-1.51,3.74-4.43,7.63-8.77,11.97,4.34-4.34,8.23-7.25,11.97-8.77,4.18,5.31,5.91,13.22,5.91,24.46,0-11.24,1.74-19.15,5.91-24.46,3.73,1.51,7.63,4.43,11.96,8.77-4.33-4.34-7.25-8.23-8.76-11.97Z"/>
        <path class="cls-1" d="M144.32,399.7c-5.69,0-144.32,4.26-144.32,4.26,0,0,138.63,4.25,144.32,4.25s5.7-4.25,5.7-4.25c0,0-.01-4.26-5.7-4.26Z"/>
        <path class="cls-1" d="M184.25,403.96c0,5.82,4.72,10.54,10.54,10.54s10.55-4.72,10.55-10.54-4.72-10.55-10.55-10.55-10.54,4.72-10.54,10.55Z"/>
        <path class="cls-1" d="M157.65,403.96c0,3.63,2.94,6.58,6.58,6.58s6.57-2.95,6.57-6.58-2.94-6.58-6.57-6.58-6.58,2.95-6.58,6.58Z"/>
        <path class="cls-1" d="M239.72,407.86c3.51-2.76,8.73-3.9,16.16-3.9-7.43,0-12.65-1.15-16.16-3.91,1-2.47,2.93-5.04,5.79-7.91-2.87,2.87-5.44,4.79-7.91,5.79-2.75-3.51-3.9-8.73-3.9-16.16,0,7.43-1.15,12.65-3.91,16.16-2.47-1-5.04-2.92-7.91-5.79,2.87,2.87,4.79,5.44,5.79,7.91-3.51,2.75-8.74,3.91-16.16,3.91,7.42,0,12.65,1.15,16.16,3.9-1,2.47-2.93,5.04-5.79,7.91,2.87-2.86,5.44-4.79,7.91-5.79,2.76,3.51,3.91,8.74,3.91,16.16,0-7.42,1.15-12.65,3.9-16.16,2.47,1,5.04,2.92,7.9,5.79-2.87-2.87-4.79-5.44-5.79-7.91Z"/>
        <path class="cls-1" d="M196.9,385.97c0,1.16-.94,2.1-2.1,2.1s-2.1-.94-2.1-2.1.94-2.1,2.1-2.1,2.1.94,2.1,2.1Z"/>
        <path class="cls-1" d="M189.85,386.53c.44,1.07-.06,2.3-1.14,2.75-1.07.44-2.3-.07-2.74-1.14-.44-1.07.06-2.3,1.14-2.74,1.07-.45,2.3.06,2.74,1.13Z"/>
        <path class="cls-1" d="M183.56,389.75c.82.82.82,2.15,0,2.97-.82.82-2.15.82-2.97,0-.82-.82-.82-2.15,0-2.97.82-.82,2.15-.82,2.97,0Z"/>
        <path class="cls-1" d="M178.98,395.14c1.07.44,1.58,1.67,1.14,2.74-.45,1.07-1.67,1.58-2.75,1.14-1.07-.44-1.58-1.67-1.14-2.74.44-1.07,1.67-1.58,2.74-1.13Z"/>
        <path class="cls-1" d="M177.38,408.9c1.07-.45,2.3.06,2.74,1.13.44,1.07-.07,2.3-1.14,2.75-1.07.44-2.3-.07-2.74-1.14-.44-1.07.06-2.3,1.14-2.74Z"/>
        <path class="cls-1" d="M180.6,415.19c.82-.82,2.15-.82,2.96,0,.82.83.82,2.16,0,2.98-.82.82-2.15.82-2.97,0-.82-.82-.82-2.15,0-2.97Z"/>
        <path class="cls-1" d="M185.98,419.77c.44-1.07,1.67-1.58,2.74-1.14,1.07.45,1.58,1.68,1.14,2.75-.45,1.07-1.67,1.58-2.74,1.14-1.07-.44-1.58-1.67-1.13-2.75Z"/>
        <path class="cls-1" d="M192.7,421.94c0-1.15.94-2.1,2.09-2.1,1.16,0,2.1.95,2.1,2.1,0,1.16-.94,2.1-2.1,2.1-1.16,0-2.1-.94-2.1-2.1Z"/>
        <path class="cls-1" d="M199.75,421.38c-.45-1.07.06-2.3,1.13-2.74,1.07-.44,2.31.07,2.75,1.14.44,1.07-.07,2.3-1.14,2.74-1.07.45-2.3-.06-2.74-1.14Z"/>
        <path class="cls-1" d="M206.03,418.16c-.82-.82-.82-2.15,0-2.97.82-.81,2.15-.81,2.97,0,.82.82.82,2.15,0,2.97-.82.82-2.15.82-2.97,0Z"/>
        <path class="cls-1" d="M210.61,412.77c-1.07-.44-1.58-1.67-1.14-2.74.45-1.07,1.68-1.58,2.75-1.13,1.07.45,1.58,1.67,1.14,2.74-.44,1.07-1.67,1.58-2.74,1.13Z"/>
        <path class="cls-1" d="M212.22,399.01c-1.07.45-2.3-.06-2.75-1.13-.44-1.07.07-2.3,1.14-2.74,1.07-.44,2.29.06,2.74,1.13.45,1.07-.06,2.3-1.14,2.74Z"/>
        <path class="cls-1" d="M209,392.72c-.82.82-2.15.83-2.97,0-.82-.82-.82-2.15,0-2.97.82-.82,2.15-.82,2.97,0,.82.82.82,2.15,0,2.97Z"/>
        <path class="cls-1" d="M203.62,388.14c-.44,1.07-1.67,1.59-2.74,1.14-1.07-.45-1.58-1.68-1.13-2.75.45-1.07,1.67-1.58,2.74-1.13,1.07.44,1.59,1.67,1.13,2.74Z"/>
      </g>
      <g>
        <path class="cls-1" d="M409.87,295.31c-4.18,5.31-5.91,13.22-5.91,24.46,0-11.24-1.74-19.15-5.91-24.46-3.74,1.51-7.63,4.43-11.97,8.77,4.34-4.34,7.26-8.23,8.77-11.97-5.31-4.17-13.22-5.91-24.46-5.91,11.24,0,19.15-1.74,24.46-5.91-1.51-3.74-4.43-7.63-8.77-11.97,4.34,4.34,8.23,7.25,11.97,8.77,4.17-5.31,5.91-13.22,5.91-24.47,0,11.24,1.74,19.15,5.91,24.46,3.74-1.51,7.63-4.43,11.97-8.77-4.34,4.34-7.26,8.23-8.77,11.97,5.31,4.18,13.22,5.92,24.46,5.92-11.24,0-19.15,1.74-24.46,5.91,1.51,3.74,4.43,7.63,8.77,11.97-4.34-4.34-8.23-7.25-11.96-8.76Z"/>
        <path class="cls-1" d="M399.7,144.32c0-5.69,4.26-144.32,4.26-144.32,0,0,4.25,138.63,4.25,144.32s-4.25,5.7-4.25,5.7c0,0-4.26-.01-4.26-5.7Z"/>
        <path class="cls-1" d="M403.96,184.25c5.82,0,10.54,4.72,10.54,10.54s-4.72,10.55-10.54,10.55-10.55-4.72-10.55-10.55,4.72-10.54,10.55-10.54Z"/>
        <path class="cls-1" d="M403.96,157.65c3.63,0,6.57,2.94,6.57,6.58s-2.95,6.57-6.57,6.57-6.58-2.94-6.58-6.57,2.94-6.58,6.58-6.58Z"/>
        <path class="cls-1" d="M407.86,239.72c-2.76,3.51-3.9,8.73-3.9,16.16,0-7.43-1.15-12.65-3.91-16.16-2.47,1-5.04,2.93-7.91,5.79,2.87-2.87,4.79-5.44,5.79-7.91-3.51-2.75-8.73-3.9-16.16-3.9,7.43,0,12.65-1.15,16.16-3.91-1-2.47-2.93-5.04-5.79-7.91,2.87,2.87,5.44,4.79,7.91,5.79,2.75-3.51,3.91-8.74,3.91-16.17,0,7.43,1.15,12.65,3.9,16.16,2.47-1,5.04-2.92,7.91-5.79-2.86,2.87-4.79,5.44-5.79,7.91,3.51,2.76,8.74,3.91,16.16,3.91-7.42,0-12.65,1.15-16.16,3.91,1,2.47,2.93,5.04,5.79,7.9-2.87-2.87-5.44-4.79-7.91-5.79Z"/>
        <path class="cls-1" d="M385.97,196.9c1.16,0,2.1-.94,2.1-2.1s-.94-2.1-2.1-2.1-2.1.94-2.1,2.1.94,2.1,2.1,2.1Z"/>
        <path class="cls-1" d="M386.53,189.85c1.07.44,2.3-.07,2.75-1.14.44-1.07-.06-2.3-1.14-2.74-1.07-.44-2.3.06-2.74,1.14-.45,1.07.06,2.3,1.13,2.75Z"/>
        <path class="cls-1" d="M389.75,183.56c.82.82,2.15.82,2.97,0,.82-.82.82-2.15,0-2.97-.82-.82-2.15-.82-2.97,0-.82.82-.82,2.15,0,2.97Z"/>
        <path class="cls-1" d="M395.14,178.98c.44,1.07,1.67,1.58,2.74,1.14,1.07-.45,1.58-1.68,1.14-2.75-.45-1.07-1.67-1.58-2.75-1.14-1.07.44-1.58,1.68-1.13,2.75Z"/>
        <path class="cls-1" d="M408.9,177.38c-.45,1.07.06,2.3,1.13,2.74,1.07.44,2.3-.07,2.75-1.14.44-1.07-.07-2.3-1.14-2.74-1.07-.45-2.3.06-2.74,1.14Z"/>
        <path class="cls-1" d="M415.19,180.6c-.82.82-.82,2.15,0,2.96.83.82,2.16.82,2.98,0,.82-.82.82-2.15,0-2.97-.82-.82-2.15-.82-2.97,0Z"/>
        <path class="cls-1" d="M419.77,185.98c-1.07.44-1.58,1.67-1.14,2.74.45,1.07,1.68,1.58,2.75,1.14,1.07-.45,1.58-1.67,1.14-2.75-.44-1.07-1.67-1.58-2.75-1.14Z"/>
        <path class="cls-1" d="M421.94,192.7c-1.15,0-2.1.94-2.1,2.1,0,1.16.94,2.1,2.1,2.1,1.16,0,2.1-.94,2.1-2.1,0-1.16-.94-2.1-2.1-2.1Z"/>
        <path class="cls-1" d="M421.38,199.75c-1.07-.45-2.3.06-2.74,1.13-.44,1.07.07,2.3,1.14,2.75,1.07.44,2.3-.07,2.74-1.14.45-1.07-.06-2.3-1.14-2.74Z"/>
        <path class="cls-1" d="M418.16,206.03c-.82-.82-2.15-.82-2.97,0-.81.83-.81,2.16,0,2.98.82.81,2.15.82,2.97,0,.82-.82.82-2.15,0-2.97Z"/>
        <path class="cls-1" d="M412.78,210.61c-.44-1.07-1.67-1.58-2.74-1.14-1.07.45-1.58,1.67-1.13,2.74.45,1.07,1.67,1.58,2.74,1.14,1.08-.45,1.58-1.68,1.14-2.75Z"/>
        <path class="cls-1" d="M399.01,212.22c.44-1.07-.06-2.3-1.13-2.74-1.07-.44-2.3.07-2.74,1.14-.44,1.07.06,2.3,1.13,2.74,1.08.45,2.31-.06,2.74-1.14Z"/>
        <path class="cls-1" d="M392.72,209c.82-.82.83-2.15,0-2.97-.82-.82-2.15-.82-2.97,0-.82.82-.82,2.15,0,2.96.82.83,2.15.83,2.97,0Z"/>
        <path class="cls-1" d="M388.14,203.62c1.07-.45,1.59-1.67,1.14-2.74-.45-1.07-1.68-1.58-2.75-1.14-1.07.45-1.58,1.67-1.13,2.74.44,1.08,1.67,1.59,2.74,1.14Z"/>
      </g>
      <g>
        <path class="cls-1" d="M428.69,463.66l-13.18-40.35c.32-.19.65-.38.97-.59l78.19,71.95-71.94-78.2c.21-.31.39-.64.58-.97l40.36,13.18-37.85-19.21c.1-.4.21-.8.29-1.21l62.03-4.31-62.03-4.31c-.08-.41-.19-.82-.3-1.22l37.85-19.21-40.35,13.19c-.19-.33-.38-.66-.59-.97l58.95-65.2-65.2,58.95c-.32-.21-.65-.4-.97-.59l13.18-40.35-19.21,37.85c-.4-.1-.81-.22-1.22-.3l-4.3-62.02-4.32,62.03c-.41.08-.81.19-1.21.29l-19.21-37.85,13.18,40.35c-.33.19-.65.38-.97.59l-65.21-58.95,58.95,65.2c-.21.32-.39.65-.59.97l-40.35-13.18,37.85,19.21c-.1.41-.21.81-.3,1.22l-62.03,4.31,62.03,4.3c.08.41.2.81.3,1.21l-37.85,19.21,40.35-13.18c.19.33.37.65.58.96l-58.95,65.2,65.21-58.95c.31.22.64.4.97.59l-13.18,40.36,19.21-37.86c.41.1.81.22,1.22.3l4.3,62.04,4.32-62.04c.41-.08.81-.19,1.21-.29l19.21,37.85ZM405.54,425.95l-1.59,22.79-1.58-22.79-.14-2.09-2.06-.4c-.29-.06-.59-.14-.88-.22l-2.14-.56-1.16,1.93-3.16,6.21,2.17-6.63.68-2.09-2.11-1.23c-.19-.12-.38-.23-.58-.37l-1.8-1.24-1.61,1.48-29.85,27.46,27.47-29.85,1.47-1.59-1.22-1.79c-.12-.2-.25-.39-.36-.59l-1.11-1.89-2.22.45-6.62,2.17,6.21-3.16,1.97-1.01-.62-2.37c-.08-.26-.15-.52-.2-.78l-.4-2.06-2.1-.14-22.82-1.58,22.82-1.59,2.09-.14.4-2.07c.06-.28.14-.58.21-.87l.57-2.14-1.93-1.17-6.22-3.16,6.62,2.17,2.08.67,1.12-1.87.19-.32.35-.58,1.14-1.78-1.43-1.55-27.5-29.9,29.9,27.51,1.6,1.47,1.79-1.22c.24-.15.48-.29.71-.43l1.93-1.11-.61-2.14-2.14-6.57,3.12,6.15,1.01,1.98,2.34-.63c.25-.07.51-.14.76-.18l2.13-.37.14-2.14,1.58-22.79,1.58,22.78.14,2.07,2.03.41c.36.08.72.18,1.07.27l2.13.55,1.01-1.97,3.12-6.17-2.14,6.58-.67,2.07,2.15,1.29c.18.11.36.21.55.34l1.79,1.22,1.6-1.47,29.9-27.51-27.51,29.9-1.47,1.6,1.22,1.79c.15.24.29.47.43.71l1.11,1.93,2.15-.61,6.56-2.15-6.15,3.12-1.97,1.01.6,2.3c.07.29.16.59.22.88l.4,2.06,2.09.14,22.78,1.58-22.79,1.58-2.14.14-.37,2.12c-.04.25-.11.51-.18.77l-.57,2.14,1.92,1.21,6.15,3.12-6.57-2.14-2.11-.69-1.16,2.02c-.15.25-.28.5-.45.76l-1.16,1.77,1.45,1.57,27.45,29.85-29.84-27.46-1.56-1.43-1.78,1.14-.58.35-.32.19-1.87,1.12.67,2.07,2.17,6.63-3.16-6.21-1.01-1.98-2.34.63c-.25.07-.51.14-.76.18l-2.13.37-.14,2.13Z"/>
        <path class="cls-1" d="M418,418c-10.47-10.47-10.47-17.63,0-28.1-10.47,10.47-17.63,10.47-28.1,0,10.47,10.47,10.47,17.64,0,28.1,10.46-10.46,17.63-10.47,28.1,0Z"/>
        <path class="cls-1" d="M441.09,351.48c-.52.78-1.57.99-2.34.47-.78-.52-.99-1.57-.47-2.34.52-.78,1.57-.99,2.34-.47.77.52.98,1.57.46,2.34Z"/>
        <path class="cls-1" d="M418.18,341.26c-.18.91-1.07,1.51-1.98,1.33-.92-.18-1.51-1.08-1.33-1.98.18-.92,1.07-1.52,1.98-1.34.92.18,1.51,1.08,1.33,1.99Z"/>
        <path class="cls-1" d="M393.11,340.59c.18.92-.42,1.81-1.34,1.98-.91.19-1.8-.41-1.98-1.32-.18-.92.41-1.81,1.32-1.99.92-.19,1.81.41,1.99,1.32Z"/>
        <path class="cls-1" d="M369.68,349.56c.52.78.32,1.83-.46,2.34-.78.52-1.82.31-2.33-.46-.52-.78-.32-1.82.46-2.33.77-.53,1.82-.32,2.34.46Z"/>
        <path class="cls-1" d="M351.48,366.82c.78.52.99,1.57.47,2.34-.52.78-1.56.99-2.33.46-.78-.52-.99-1.56-.47-2.34.52-.79,1.57-.98,2.34-.46Z"/>
        <path class="cls-1" d="M341.26,389.72c.93.18,1.52,1.08,1.33,1.98-.18.92-1.07,1.51-1.98,1.33-.92-.18-1.51-1.07-1.32-1.98.18-.92,1.07-1.51,1.97-1.33Z"/>
        <path class="cls-1" d="M340.59,414.8c.93-.19,1.82.41,1.98,1.32.19.92-.41,1.8-1.32,1.99-.91.18-1.8-.41-1.98-1.32-.19-.92.41-1.81,1.32-1.99Z"/>
        <path class="cls-1" d="M349.56,438.22c.79-.53,1.84-.32,2.35.46.52.78.31,1.82-.47,2.34-.78.52-1.82.31-2.33-.46-.53-.77-.32-1.83.45-2.34Z"/>
        <path class="cls-1" d="M366.82,456.43c.52-.79,1.58-1,2.34-.47.78.51.98,1.56.47,2.33-.53.78-1.57.99-2.34.47-.78-.52-.99-1.57-.48-2.33Z"/>
        <path class="cls-1" d="M389.72,466.65c.18-.93,1.08-1.53,1.99-1.33.93.18,1.51,1.07,1.33,1.98-.18.92-1.06,1.51-1.98,1.33-.92-.18-1.52-1.07-1.34-1.98Z"/>
        <path class="cls-1" d="M414.8,467.32c-.19-.92.41-1.82,1.33-1.99.92-.19,1.8.41,1.98,1.32.19.92-.4,1.81-1.31,1.98-.93.19-1.81-.4-2-1.31Z"/>
        <path class="cls-1" d="M438.23,458.35c-.53-.79-.32-1.84.46-2.34.79-.53,1.82-.31,2.34.46.53.78.32,1.82-.45,2.33-.78.53-1.83.32-2.34-.45Z"/>
        <path class="cls-1" d="M456.44,441.09c-.79-.52-1.01-1.58-.47-2.34.52-.79,1.56-.99,2.34-.47.78.52.99,1.56.47,2.33-.52.79-1.57,1-2.34.48Z"/>
        <path class="cls-1" d="M466.66,418.18c-.93-.18-1.53-1.08-1.34-1.98.19-.93,1.06-1.51,1.98-1.33.92.18,1.51,1.06,1.33,1.97-.18.92-1.08,1.52-1.97,1.34Z"/>
        <path class="cls-1" d="M467.33,393.11c-.92.18-1.82-.41-1.99-1.33-.19-.93.4-1.8,1.32-1.98.92-.18,1.8.4,1.98,1.32.19.93-.41,1.82-1.31,2Z"/>
        <path class="cls-1" d="M458.35,369.68c-.78.53-1.83.33-2.34-.46-.54-.78-.32-1.82.46-2.33.78-.52,1.82-.32,2.33.45.53.79.31,1.85-.46,2.35Z"/>
      </g>
    </g>
  </g>
</svg>