<?xml version="1.0" encoding="UTF-8"?>
<svg id="Layer_2" data-name="Layer 2" xmlns="http://www.w3.org/2000/svg" viewBox="0 0 488.07 488.07">
  <defs>
    <style>
      .cls-1 {
        fill: #bfb47b;
      }
    </style>
  </defs>
  <g id="Layer_1-2" data-name="Layer 1">
    <g>
      <g>
        <g>
          <g>
            <path class="cls-1" d="M235.74,457.76c0,7.24,5.87,13.1,13.1,13.1s13.11-5.87,13.11-13.1-5.87-13.11-13.11-13.11-13.1,5.87-13.1,13.11Z"/>
            <polygon class="cls-1" points="214.02 459.41 25.04 457.95 25.04 457.57 214.02 456.12 214.02 459.41"/>
            <path class="cls-1" d="M231.38,457.76c0-4.09,1.42-7.85,3.78-10.83-23.8,9.35-60.53,10.83-60.53,10.83,0,0,36.73,1.47,60.53,10.83-2.36-2.98-3.78-6.73-3.78-10.83Z"/>
          </g>
          <path class="cls-1" d="M488.07,457.76c0,16.73-13.57,30.3-30.3,30.3s-30.3-13.57-30.3-30.3,13.57-30.3,30.3-30.3,30.3,13.57,30.3,30.3Z"/>
          <path class="cls-1" d="M335.07,457.75c.04-8.94,5.38-16.6,13.03-20.06-2.79-1.29-5.89-2.02-9.16-2.03-12.21-.05-22.15,9.8-22.2,22.01-.05,12.21,9.8,22.14,22.01,22.2,3.27.01,6.38-.69,9.18-1.95-7.62-3.52-12.89-11.24-12.85-20.17Z"/>
          <path class="cls-1" d="M283.3,457.75c.02-8.6,6.47-15.68,14.79-16.7-1.73-.57-3.58-.89-5.51-.89-9.72-.02-17.62,7.85-17.64,17.57-.02,9.73,7.85,17.62,17.57,17.64,1.93,0,3.78-.31,5.52-.87-8.32-1.05-14.74-8.16-14.73-16.75Z"/>
          <path class="cls-1" d="M408.93,447.55c5.82,12.26.9,26.77-10.99,32.42-11.89,5.64-26.24.28-32.06-11.98-5.81-12.26-.9-26.78,10.99-32.42,11.89-5.64,26.24-.28,32.06,11.99Z"/>
        </g>
        <path class="cls-1" d="M27.59,459.66c3.51-1.66,23.8-1.89,23.8-1.89,0,0-20.28-.24-23.8-1.89-1.66-3.52-1.89-23.8-1.89-23.8,0,0-.24,20.29-1.89,23.8-3.51,1.66-23.8,1.89-23.8,1.89,0,0,20.29.23,23.8,1.89,1.66,3.52,1.89,23.8,1.89,23.8,0,0,.24-20.29,1.89-23.8Z"/>
      </g>
      <g>
        <g>
          <g>
            <path class="cls-1" d="M457.76,235.74c7.24,0,13.1,5.87,13.1,13.1s-5.86,13.11-13.1,13.11-13.11-5.87-13.11-13.11,5.87-13.1,13.11-13.1Z"/>
            <polygon class="cls-1" points="459.41 214.02 457.95 25.04 457.57 25.04 456.12 214.02 459.41 214.02"/>
            <path class="cls-1" d="M457.76,231.38c-4.09,0-7.85,1.42-10.83,3.78,9.35-23.8,10.83-60.53,10.83-60.53,0,0,1.47,36.73,10.82,60.53-2.97-2.35-6.73-3.77-10.82-3.77Z"/>
          </g>
          <path class="cls-1" d="M457.75,335.07c-8.94.04-16.6,5.38-20.06,13.02-1.29-2.79-2.02-5.89-2.03-9.16-.05-12.21,9.8-22.14,22.01-22.2,12.21-.05,22.15,9.8,22.2,22.01.01,3.27-.69,6.38-1.95,9.18-3.52-7.62-11.24-12.89-20.17-12.85Z"/>
          <path class="cls-1" d="M457.75,283.3c-8.6.02-15.68,6.47-16.7,14.79-.57-1.73-.89-3.58-.9-5.51-.02-9.72,7.85-17.62,17.57-17.64,9.73-.02,17.62,7.85,17.64,17.57,0,1.92-.31,3.78-.87,5.52-1.05-8.32-8.15-14.75-16.75-14.73Z"/>
          <path class="cls-1" d="M447.55,408.93c12.26,5.82,26.77.9,32.41-10.99,5.64-11.89.28-26.24-11.99-32.06-12.26-5.82-26.78-.9-32.41,10.99-5.64,11.89-.28,26.24,11.99,32.06Z"/>
        </g>
        <path class="cls-1" d="M459.66,27.59c-1.66,3.51-1.9,23.8-1.9,23.8,0,0-.23-20.29-1.89-23.8-3.52-1.66-23.8-1.9-23.8-1.9,0,0,20.28-.23,23.8-1.89,1.66-3.51,1.89-23.8,1.89-23.8,0,0,.24,20.29,1.9,23.8,3.51,1.66,23.8,1.89,23.8,1.89,0,0-20.29.24-23.8,1.9Z"/>
      </g>
    </g>
  </g>
</svg>