<?xml version="1.0" encoding="UTF-8"?>
<svg id="Layer_2" data-name="Layer 2" xmlns="http://www.w3.org/2000/svg" viewBox="0 0 521.4 521.39">
  <defs>
    <style>
      .cls-1 {
        fill: #bfb47b;
      }
    </style>
  </defs>
  <g id="Layer_1-2" data-name="Layer 1">
    <g>
      <g>
        <g>
          <path class="cls-1" d="M192.23,427.77c-5.07,0-192.23,3.79-192.23,3.79,0,0,187.17,3.79,192.23,3.79s5.08-3.79,5.08-3.79c0,0-.01-3.79-5.08-3.79Z"/>
          <g>
            <g>
              <g>
                <polygon class="cls-1" points="254.09 431.51 245.86 430.42 245.86 431.51 245.86 432.61 254.09 431.51"/>
                <g>
                  <polygon class="cls-1" points="234.7 402.99 233.6 420.35 234.7 420.35 235.8 420.35 234.7 402.99"/>
                  <polygon class="cls-1" points="249.25 428.62 245.44 428.26 245.65 429.34 245.86 430.42 249.25 428.62"/>
                  <polygon class="cls-1" points="251.43 424.58 244.59 426.23 245.01 427.24 245.44 428.26 251.43 424.58"/>
                  <polygon class="cls-1" points="247.03 423.28 243.37 424.4 243.98 425.31 244.59 426.23 247.03 423.28"/>
                  <polygon class="cls-1" points="248.41 417.8 241.82 422.84 242.59 423.62 243.37 424.4 248.41 417.8"/>
                  <polygon class="cls-1" points="242.94 419.19 239.99 421.62 240.9 422.23 241.82 422.84 242.94 419.19"/>
                  <polygon class="cls-1" points="241.63 414.78 237.95 420.78 238.97 421.2 239.99 421.62 241.63 414.78"/>
                  <polygon class="cls-1" points="237.6 416.96 235.8 420.35 236.88 420.56 237.96 420.78 237.6 416.96"/>
                </g>
                <g>
                  <polygon class="cls-1" points="215.31 431.51 223.54 432.61 223.54 431.51 223.54 430.42 215.31 431.51"/>
                  <polygon class="cls-1" points="231.81 416.96 231.45 420.78 232.52 420.56 233.6 420.35 231.81 416.96"/>
                  <polygon class="cls-1" points="227.77 414.78 229.41 421.62 230.43 421.2 231.45 420.78 227.77 414.78"/>
                  <polygon class="cls-1" points="226.46 419.19 227.58 422.84 228.5 422.23 229.41 421.62 226.46 419.19"/>
                  <polygon class="cls-1" points="220.99 417.8 226.03 424.4 226.81 423.62 227.58 422.84 220.99 417.8"/>
                  <polygon class="cls-1" points="222.37 423.28 224.81 426.23 225.42 425.31 226.03 424.4 222.37 423.28"/>
                  <polygon class="cls-1" points="217.97 424.58 223.96 428.26 224.39 427.24 224.81 426.22 217.97 424.58"/>
                  <polygon class="cls-1" points="220.15 428.62 223.54 430.42 223.75 429.34 223.97 428.26 220.15 428.62"/>
                </g>
              </g>
              <g>
                <g>
                  <polygon class="cls-1" points="234.7 460.03 235.8 442.68 234.7 442.68 233.6 442.68 234.7 460.03"/>
                  <polygon class="cls-1" points="249.25 434.41 245.86 432.61 245.65 433.69 245.44 434.77 249.25 434.41"/>
                  <polygon class="cls-1" points="251.43 438.45 245.44 434.77 245.01 435.79 244.59 436.8 251.43 438.45"/>
                  <polygon class="cls-1" points="247.03 439.75 244.59 436.8 243.98 437.72 243.37 438.63 247.03 439.75"/>
                  <polygon class="cls-1" points="248.41 445.23 243.37 438.63 242.59 439.41 241.82 440.19 248.41 445.23"/>
                  <polygon class="cls-1" points="242.94 443.84 241.82 440.19 240.9 440.8 239.99 441.41 242.94 443.84"/>
                  <polygon class="cls-1" points="241.63 448.25 239.99 441.41 238.97 441.83 237.95 442.25 241.63 448.25"/>
                  <polygon class="cls-1" points="237.6 446.06 237.96 442.25 236.88 442.46 235.8 442.67 237.6 446.06"/>
                </g>
                <g>
                  <polygon class="cls-1" points="231.81 446.06 233.6 442.67 232.52 442.46 231.45 442.25 231.81 446.06"/>
                  <polygon class="cls-1" points="227.77 448.25 231.45 442.25 230.43 441.83 229.41 441.41 227.77 448.25"/>
                  <polygon class="cls-1" points="226.46 443.84 229.41 441.41 228.5 440.8 227.58 440.19 226.46 443.84"/>
                  <polygon class="cls-1" points="220.99 445.23 227.58 440.19 226.81 439.41 226.03 438.63 220.99 445.23"/>
                  <polygon class="cls-1" points="222.37 439.75 226.03 438.63 225.42 437.72 224.81 436.8 222.37 439.75"/>
                  <polygon class="cls-1" points="217.97 438.45 224.81 436.8 224.39 435.79 223.96 434.77 217.97 438.45"/>
                  <polygon class="cls-1" points="220.15 434.41 223.97 434.77 223.75 433.69 223.54 432.61 220.15 434.41"/>
                </g>
              </g>
            </g>
            <path class="cls-1" d="M225.3,431.56c0,5.19,4.2,9.39,9.39,9.39s9.4-4.21,9.4-9.39-4.21-9.39-9.4-9.39-9.39,4.21-9.39,9.39Z"/>
          </g>
          <g>
            <path class="cls-1" d="M201.7,431.56c0,3.23,2.62,5.86,5.86,5.86s5.85-2.62,5.85-5.86-2.62-5.86-5.85-5.86-5.86,2.62-5.86,5.86Z"/>
            <path class="cls-1" d="M255.99,431.56c0,3.23,2.62,5.86,5.86,5.86s5.85-2.62,5.85-5.86-2.62-5.86-5.85-5.86-5.86,2.62-5.86,5.86Z"/>
          </g>
        </g>
        <g>
          <path class="cls-1" d="M186.13,388.61c5.07,0,49.81,3.79,49.81,3.79,0,0-44.74,3.79-49.81,3.79s-5.08-3.79-5.08-3.79c0,0,.01-3.79,5.08-3.79Z"/>
          <path class="cls-1" d="M313.28,388.61c-5.07,0-49.81,3.79-49.81,3.79,0,0,44.74,3.79,49.81,3.79s5.08-3.79,5.08-3.79c0,0-.01-3.79-5.08-3.79Z"/>
          <path class="cls-1" d="M234.46,392.41c12.03,0,16.14-4.12,16.14-16.14,0,12.03,4.12,16.14,16.14,16.14-12.03,0-16.14,4.12-16.14,16.14,0-12.02-4.11-16.14-16.14-16.14Z"/>
        </g>
      </g>
      <g>
        <path class="cls-1" d="M427.6,192.23c0-5.07,3.79-192.23,3.79-192.23,0,0,3.79,187.17,3.79,192.23s-3.79,5.08-3.79,5.08c0,0-3.79-.01-3.79-5.08Z"/>
        <g>
          <g>
            <g>
              <polygon class="cls-1" points="431.35 254.09 430.24 245.86 431.35 245.86 432.44 245.86 431.35 254.09"/>
              <g>
                <polygon class="cls-1" points="402.82 234.7 420.18 233.6 420.18 234.7 420.18 235.8 402.82 234.7"/>
                <polygon class="cls-1" points="428.45 249.25 428.09 245.43 429.17 245.65 430.25 245.86 428.45 249.25"/>
                <polygon class="cls-1" points="424.41 251.43 426.06 244.59 427.07 245.01 428.09 245.43 424.41 251.43"/>
                <polygon class="cls-1" points="423.11 247.03 424.23 243.37 425.14 243.98 426.06 244.59 423.11 247.03"/>
                <polygon class="cls-1" points="417.63 248.41 422.67 241.81 423.45 242.59 424.23 243.37 417.63 248.41"/>
                <polygon class="cls-1" points="419.02 242.94 421.45 239.99 422.06 240.9 422.67 241.81 419.02 242.94"/>
                <polygon class="cls-1" points="414.61 241.63 420.61 237.95 421.03 238.97 421.45 239.99 414.61 241.63"/>
                <polygon class="cls-1" points="416.79 237.6 420.18 235.8 420.39 236.88 420.61 237.96 416.79 237.6"/>
              </g>
              <g>
                <polygon class="cls-1" points="431.35 215.3 432.44 223.53 431.35 223.53 430.24 223.53 431.35 215.3"/>
                <polygon class="cls-1" points="416.79 231.81 420.61 231.45 420.39 232.53 420.18 233.6 416.79 231.81"/>
                <polygon class="cls-1" points="414.61 227.77 421.45 229.41 421.03 230.43 420.61 231.44 414.61 227.77"/>
                <polygon class="cls-1" points="419.02 226.46 422.67 227.58 422.06 228.5 421.45 229.41 419.02 226.46"/>
                <polygon class="cls-1" points="417.63 220.99 424.23 226.03 423.45 226.8 422.67 227.58 417.63 220.99"/>
                <polygon class="cls-1" points="423.11 222.37 426.06 224.81 425.14 225.42 424.23 226.03 423.11 222.37"/>
                <polygon class="cls-1" points="424.41 217.96 428.09 223.96 427.07 224.38 426.05 224.8 424.41 217.96"/>
                <polygon class="cls-1" points="428.45 220.15 430.25 223.54 429.17 223.75 428.09 223.97 428.45 220.15"/>
              </g>
            </g>
            <g>
              <g>
                <polygon class="cls-1" points="459.86 234.7 442.51 235.8 442.51 234.7 442.51 233.6 459.86 234.7"/>
                <polygon class="cls-1" points="434.24 249.25 432.44 245.86 433.52 245.65 434.6 245.43 434.24 249.25"/>
                <polygon class="cls-1" points="438.27 251.43 434.6 245.43 435.62 245.01 436.63 244.59 438.27 251.43"/>
                <polygon class="cls-1" points="439.58 247.03 436.63 244.59 437.55 243.98 438.46 243.37 439.58 247.03"/>
                <polygon class="cls-1" points="445.06 248.41 438.46 243.37 439.24 242.59 440.01 241.81 445.06 248.41"/>
                <polygon class="cls-1" points="443.67 242.94 440.01 241.81 440.63 240.9 441.24 239.99 443.67 242.94"/>
                <polygon class="cls-1" points="448.08 241.63 441.24 239.99 441.66 238.97 442.08 237.95 448.08 241.63"/>
                <polygon class="cls-1" points="445.89 237.6 442.08 237.96 442.29 236.88 442.51 235.8 445.89 237.6"/>
              </g>
              <g>
                <polygon class="cls-1" points="445.89 231.81 442.51 233.6 442.29 232.53 442.08 231.45 445.89 231.81"/>
                <polygon class="cls-1" points="448.08 227.77 442.08 231.44 441.66 230.43 441.24 229.41 448.08 227.77"/>
                <polygon class="cls-1" points="443.67 226.46 441.24 229.41 440.63 228.5 440.01 227.58 443.67 226.46"/>
                <polygon class="cls-1" points="445.06 220.99 440.01 227.58 439.24 226.8 438.46 226.03 445.06 220.99"/>
                <polygon class="cls-1" points="439.58 222.37 438.46 226.03 437.55 225.42 436.63 224.81 439.58 222.37"/>
                <polygon class="cls-1" points="438.27 217.96 436.63 224.81 435.62 224.38 434.6 223.96 438.27 217.96"/>
                <polygon class="cls-1" points="434.24 220.15 434.6 223.97 433.52 223.75 432.44 223.54 434.24 220.15"/>
              </g>
            </g>
          </g>
          <path class="cls-1" d="M431.39,225.3c5.19,0,9.39,4.2,9.39,9.39s-4.21,9.4-9.39,9.4-9.39-4.21-9.39-9.4,4.21-9.39,9.39-9.39Z"/>
        </g>
        <g>
          <path class="cls-1" d="M431.39,201.7c3.23,0,5.86,2.62,5.86,5.86s-2.62,5.85-5.86,5.85-5.86-2.62-5.86-5.85,2.62-5.86,5.86-5.86Z"/>
          <path class="cls-1" d="M431.39,255.99c3.23,0,5.86,2.62,5.86,5.86s-2.62,5.85-5.86,5.85-5.86-2.62-5.86-5.85,2.62-5.86,5.86-5.86Z"/>
        </g>
      </g>
      <g>
        <path class="cls-1" d="M388.44,186.12c0,5.07,3.79,49.81,3.79,49.81,0,0,3.79-44.74,3.79-49.81s-3.79-5.08-3.79-5.08c0,0-3.79.01-3.79,5.08Z"/>
        <path class="cls-1" d="M388.44,313.28c0-5.07,3.79-49.81,3.79-49.81,0,0,3.79,44.74,3.79,49.81s-3.79,5.08-3.79,5.08c0,0-3.79-.01-3.79-5.08Z"/>
        <path class="cls-1" d="M392.24,234.46c0,12.03-4.12,16.14-16.14,16.14,12.03,0,16.14,4.12,16.14,16.14,0-12.03,4.12-16.14,16.14-16.14-12.02,0-16.14-4.12-16.14-16.14Z"/>
      </g>
      <path class="cls-1" d="M359.76,392.23c0-17.94,14.52-32.47,32.47-32.47s32.47,14.54,32.47,32.47-14.54,32.46-32.47,32.46-32.47-14.54-32.47-32.46Z"/>
      <path class="cls-1" d="M402.26,342.12l-5.87,11.06c2.43.26,4.78.75,7.06,1.43l-1.18-12.5ZM367.15,362.05l-22.29-17.05,17.05,22.31c1.57-1.92,3.33-3.67,5.24-5.26ZM388.49,353.15c1.24-.12,2.48-.19,3.74-.19s2.53.08,3.78.19l-3.76-30.86-3.75,30.86ZM380.64,354.7l-12.35-20.14,5.52,23.01c2.16-1.16,4.44-2.12,6.82-2.86ZM353.17,396.14c-.12-1.28-.19-2.59-.19-3.91,0-1.2.07-2.39.18-3.56l-27.93,3.73,27.95,3.74ZM341.97,402.41l12.7,1.2c-.7-2.31-1.21-4.7-1.47-7.17l-11.23,5.97ZM334.41,368.45l20.25,12.4c.73-2.39,1.68-4.69,2.84-6.86l-23.08-5.54ZM361.68,367.62l-12.04-3.69,8.02,9.71c1.15-2.13,2.5-4.14,4.02-6.03ZM341.97,382.41l11.19,5.93c.24-2.46.74-4.84,1.4-7.14l-12.6,1.21ZM363.77,435.01l9.92-8.2c-2.18-1.17-4.24-2.55-6.15-4.1l-3.77,12.3ZM367.46,361.79c1.86-1.51,3.85-2.86,5.97-4.03l-9.65-7.97,3.68,12ZM382.26,342.12l-1.2,12.48c2.28-.69,4.63-1.17,7.05-1.42l-5.86-11.06ZM403.48,429.82c-2.35.69-4.77,1.2-7.28,1.46l6.06,11.4,1.22-12.86ZM382.26,442.69l6.04-11.41c-2.5-.24-4.92-.75-7.26-1.45l1.23,12.87ZM416.94,422.69c-1.92,1.56-3.97,2.94-6.16,4.11l9.93,8.21-3.77-12.32ZM420.72,349.8l-9.66,7.99c2.12,1.16,4.12,2.51,5.98,4.03l3.68-12.02ZM450.07,416.36l-20.35-12.47c-.75,2.4-1.73,4.71-2.9,6.89l23.26,5.59ZM442.53,402.41l-11.28-5.98c-.26,2.47-.77,4.88-1.46,7.19l12.74-1.2ZM429.79,380.87l20.28-12.42-23.1,5.54c1.15,2.18,2.1,4.48,2.82,6.88ZM431.3,396.14l56.42-3.74-56.42-3.73c.11,1.16.18,2.36.18,3.56,0,1.31-.07,2.62-.19,3.91ZM442.53,382.41l-12.65-1.21c.68,2.31,1.16,4.7,1.41,7.16l11.23-5.95ZM410.67,357.58l5.53-23.02-12.34,20.15c2.37.74,4.64,1.71,6.81,2.87ZM426.81,373.67l8.05-9.75-12.08,3.71c1.52,1.87,2.88,3.89,4.03,6.04ZM422.57,367.34l17.07-22.34-22.31,17.06c1.91,1.59,3.67,3.36,5.24,5.28ZM373.9,426.9l-5.61,23.33,12.54-20.46c-2.42-.73-4.73-1.7-6.93-2.87ZM362.05,417.29l-17.2,22.51,22.52-17.21c-1.95-1.59-3.72-3.36-5.33-5.29ZM354.74,403.89l-20.33,12.47,23.23-5.58c-1.17-2.18-2.15-4.48-2.9-6.89ZM422.57,417.11l12.3,3.76-8.17-9.87c-1.19,2.17-2.57,4.21-4.13,6.11ZM357.78,411.02l-8.14,9.85,12.26-3.76c-1.56-1.89-2.94-3.93-4.12-6.1ZM417.1,422.57l22.54,17.23-17.21-22.52c-1.61,1.93-3.38,3.7-5.33,5.29ZM403.66,429.77l12.54,20.47-5.6-23.34c-2.21,1.16-4.52,2.14-6.94,2.87ZM392.23,431.47c-1.27,0-2.53-.07-3.76-.19l3.77,59.69,3.79-59.7c-1.26.12-2.52.2-3.81.2Z"/>
      <path class="cls-1" d="M313.56,392.41c0,1.32,1.08,2.4,2.39,2.4s2.4-1.08,2.4-2.4-1.07-2.4-2.4-2.4-2.39,1.08-2.39,2.4Z"/>
      <path class="cls-1" d="M316.8,407.41c.17.83.98,1.38,1.81,1.21.83-.16,1.37-.98,1.2-1.81-.17-.83-.97-1.38-1.81-1.21-.83.16-1.38.98-1.21,1.8ZM314.27,407.92c-.14-.76-.89-1.25-1.65-1.1-.77.16-1.26.89-1.1,1.65.14.77.89,1.27,1.66,1.11.76-.15,1.24-.89,1.1-1.66ZM308.72,409.02c-.13-.7-.82-1.15-1.51-1.01-.7.14-1.14.82-1,1.51.13.69.81,1.14,1.49,1.01.7-.14,1.15-.81,1.01-1.51ZM303.17,410.12c-.12-.63-.73-1.03-1.35-.91-.62.12-1.04.73-.92,1.36.13.62.74,1.02,1.37.9.62-.13,1.03-.73.9-1.36ZM297.62,411.22c-.11-.55-.65-.9-1.21-.8-.56.12-.91.65-.8,1.21.11.55.66.91,1.2.81.56-.11.92-.65.81-1.21ZM292.08,412.33c-.11-.49-.58-.8-1.06-.7-.48.09-.81.56-.71,1.05.1.49.57.8,1.06.71.48-.1.8-.57.71-1.06ZM286.53,413.43c-.08-.4-.49-.68-.91-.6-.42.08-.68.49-.61.9.09.42.49.7.9.61.42-.08.69-.49.61-.91Z"/>
      <path class="cls-1" d="M328.35,435.13c.46.71,1.42.89,2.13.42.71-.47.89-1.43.43-2.14-.47-.69-1.43-.89-2.12-.43-.72.48-.91,1.43-.43,2.14ZM326.21,436.55c-.43-.64-1.31-.81-1.96-.38-.65.42-.82,1.3-.39,1.94.43.66,1.31.82,1.96.4.64-.43.81-1.32.38-1.96ZM321.49,439.7c-.38-.59-1.18-.75-1.77-.36-.59.39-.75,1.19-.35,1.78.39.59,1.19.75,1.77.35.59-.39.76-1.18.35-1.77ZM316.8,442.85c-.35-.54-1.07-.68-1.59-.32-.53.35-.68,1.06-.33,1.59.36.53,1.07.66,1.61.32.52-.35.67-1.07.31-1.59ZM312.09,445.99c-.31-.48-.94-.6-1.43-.28-.47.31-.6.95-.29,1.42.32.49.96.6,1.43.29.47-.31.6-.95.28-1.42ZM307.38,449.13c-.27-.42-.83-.53-1.23-.25-.41.27-.53.83-.25,1.24.28.42.83.52,1.25.25.41-.27.52-.83.24-1.24ZM302.69,452.27c-.23-.34-.72-.45-1.07-.21-.35.23-.44.71-.2,1.07.23.35.71.44,1.05.21.36-.23.46-.72.22-1.07Z"/>
      <path class="cls-1" d="M349.63,456.3c.7.47,1.65.28,2.13-.43.48-.7.28-1.66-.43-2.13-.7-.47-1.65-.29-2.13.42-.47.71-.28,1.66.43,2.14ZM348.2,458.44c-.64-.43-1.51-.25-1.95.4-.44.65-.26,1.53.39,1.95.64.43,1.52.26,1.96-.38.43-.65.25-1.52-.4-1.96ZM345.04,463.15c-.57-.39-1.38-.23-1.77.35-.39.59-.23,1.38.35,1.78.59.39,1.39.23,1.78-.35.39-.59.24-1.39-.36-1.78ZM341.91,467.85c-.54-.35-1.24-.21-1.6.32-.36.53-.22,1.24.31,1.6.53.35,1.24.21,1.6-.32.35-.52.22-1.25-.32-1.6ZM338.77,472.56c-.47-.32-1.1-.18-1.43.28-.31.47-.19,1.1.28,1.42.48.32,1.11.19,1.42-.28.33-.47.21-1.1-.27-1.42ZM335.62,477.27c-.41-.28-.97-.17-1.25.25-.27.4-.16.97.25,1.24.42.28.97.17,1.25-.25.27-.4.16-.96-.25-1.24ZM332.48,481.97c-.34-.24-.83-.13-1.07.22-.23.35-.14.82.22,1.06.35.24.83.14,1.06-.2.23-.36.13-.84-.22-1.08Z"/>
      <path class="cls-1" d="M377.39,467.72c.84.18,1.64-.37,1.81-1.21.18-.82-.37-1.63-1.22-1.8-.82-.16-1.64.37-1.8,1.2-.17.84.37,1.65,1.21,1.81ZM376.89,470.25c-.75-.16-1.5.35-1.67,1.11-.13.76.35,1.52,1.12,1.65.76.15,1.51-.35,1.66-1.11.14-.77-.35-1.5-1.12-1.66ZM375.78,475.8c-.68-.14-1.37.32-1.5,1.01-.14.7.32,1.35,1.01,1.51.69.14,1.37-.31,1.51-1.01.13-.68-.31-1.37-1.01-1.51ZM374.69,481.36c-.64-.13-1.23.27-1.35.9-.13.63.28,1.24.9,1.37.61.12,1.23-.27,1.35-.9.13-.63-.27-1.23-.9-1.36ZM373.58,486.91c-.55-.12-1.1.24-1.2.81-.12.53.23,1.09.79,1.2.57.11,1.1-.26,1.21-.81.12-.55-.25-1.1-.81-1.2ZM372.49,492.46c-.5-.11-.97.22-1.06.7-.1.47.22.96.7,1.05.49.09.97-.22,1.06-.71.1-.47-.22-.96-.7-1.04ZM371.37,498c-.41-.09-.82.19-.91.6-.08.41.19.83.61.9.41.09.82-.19.91-.6.09-.41-.2-.82-.61-.91Z"/>
      <path class="cls-1" d="M407.41,467.64c.84-.15,1.38-.97,1.21-1.81-.16-.83-.96-1.36-1.81-1.19-.83.15-1.38.97-1.2,1.8.16.83.98,1.38,1.8,1.2ZM407.92,470.18c-.76.14-1.25.9-1.1,1.67.17.76.9,1.26,1.66,1.1.76-.15,1.26-.89,1.11-1.65-.15-.78-.9-1.25-1.67-1.11ZM409.02,475.74c-.68.13-1.14.81-1,1.51.13.69.82,1.13,1.51,1,.69-.14,1.15-.82,1-1.5-.14-.69-.8-1.15-1.51-1.01ZM410.13,481.28c-.63.12-1.03.73-.9,1.35.12.64.72,1.03,1.36.91.6-.13,1.02-.72.9-1.36-.12-.61-.73-1.02-1.35-.9ZM411.24,486.84c-.56.11-.92.64-.8,1.2.11.55.64.92,1.2.82.57-.11.92-.67.81-1.21-.1-.56-.64-.93-1.2-.81ZM412.35,492.39c-.5.1-.81.57-.72,1.05.1.48.57.81,1.05.71.49-.12.81-.57.71-1.07-.1-.47-.56-.8-1.05-.69ZM413.45,497.92c-.42.08-.7.5-.61.91.08.41.49.69.91.59.41-.07.68-.5.61-.9-.09-.41-.5-.68-.91-.61Z"/>
      <path class="cls-1" d="M435.13,456.09c.71-.46.9-1.42.42-2.13-.47-.71-1.42-.9-2.13-.41-.7.46-.91,1.42-.43,2.12.47.71,1.43.9,2.14.42ZM436.56,458.25c-.64.41-.81,1.3-.38,1.96.44.64,1.31.82,1.95.38.65-.43.83-1.32.4-1.96-.44-.64-1.32-.81-1.97-.37ZM439.69,462.95c-.57.38-.74,1.19-.35,1.77.39.6,1.19.73,1.79.35.59-.39.73-1.19.34-1.77-.39-.58-1.18-.75-1.78-.35ZM442.85,467.66c-.53.35-.67,1.07-.31,1.59.35.54,1.06.67,1.61.33.51-.35.67-1.06.31-1.6-.36-.52-1.06-.67-1.6-.31ZM446,472.36c-.48.3-.6.94-.28,1.42.3.47.94.6,1.42.29.47-.33.58-.96.28-1.42-.31-.49-.95-.62-1.42-.29ZM449.15,477.06c-.44.28-.53.84-.26,1.26.28.4.83.52,1.25.24.4-.29.53-.84.24-1.25-.27-.4-.83-.52-1.23-.25ZM452.28,481.76c-.34.23-.45.73-.21,1.08.23.35.72.45,1.07.2.35-.21.44-.72.21-1.05-.23-.36-.71-.43-1.07-.22Z"/>
      <path class="cls-1" d="M456.31,434.82c.47-.7.28-1.66-.44-2.14-.69-.48-1.64-.27-2.11.45-.48.69-.3,1.65.42,2.11.71.48,1.66.28,2.14-.42ZM458.44,436.25c-.43.62-.24,1.52.4,1.96.66.42,1.53.26,1.94-.39.44-.66.27-1.54-.38-1.97-.65-.42-1.52-.24-1.97.4ZM463.16,439.42c-.4.56-.24,1.38.33,1.76.6.41,1.38.23,1.8-.35.39-.59.23-1.39-.35-1.77-.59-.39-1.4-.24-1.77.37ZM467.87,442.54c-.38.54-.23,1.24.3,1.6.54.36,1.24.22,1.61-.32.34-.51.22-1.23-.32-1.59-.52-.35-1.23-.21-1.59.32ZM472.57,445.69c-.32.46-.2,1.09.27,1.42.46.32,1.11.2,1.43-.28.32-.47.18-1.11-.29-1.42-.46-.34-1.11-.21-1.42.28ZM477.29,448.82c-.3.42-.18.98.23,1.26.41.26.97.17,1.25-.25.26-.42.17-.98-.25-1.26-.41-.26-.97-.15-1.23.25ZM481.97,451.97c-.25.35-.14.84.21,1.07.35.22.84.14,1.07-.23.23-.33.12-.83-.21-1.06-.36-.25-.83-.14-1.07.21Z"/>
      <path class="cls-1" d="M467.72,407.06c.18-.83-.36-1.64-1.22-1.81-.82-.18-1.62.38-1.79,1.21-.17.82.36,1.65,1.21,1.8.83.17,1.64-.37,1.8-1.21ZM470.25,407.57c-.16.73.36,1.49,1.11,1.65.78.13,1.51-.35,1.65-1.1.15-.78-.35-1.53-1.11-1.67-.77-.16-1.5.36-1.65,1.13ZM475.82,408.67c-.15.67.3,1.36.99,1.5.71.15,1.36-.32,1.51-1.01.15-.7-.32-1.38-1.01-1.5-.69-.14-1.38.31-1.49,1.01ZM481.36,409.76c-.13.63.27,1.24.9,1.36.64.14,1.23-.28,1.36-.92.11-.6-.26-1.21-.91-1.34-.62-.14-1.22.28-1.35.89ZM486.92,410.87c-.12.55.24,1.09.81,1.2.54.12,1.09-.24,1.21-.8.1-.56-.27-1.1-.81-1.21-.57-.13-1.11.23-1.2.8ZM492.47,411.96c-.11.51.22.98.69,1.07.48.09.97-.22,1.06-.71.07-.48-.22-.96-.72-1.06-.47-.09-.95.22-1.04.69ZM498,413.06c-.09.42.2.84.61.92.41.07.83-.2.89-.62.09-.4-.2-.81-.59-.9-.42-.08-.83.19-.92.6Z"/>
      <path class="cls-1" d="M467.65,377.04c-.16-.84-.97-1.39-1.83-1.21-.82.14-1.35.96-1.18,1.81.16.82.96,1.38,1.8,1.2.84-.15,1.37-.97,1.21-1.8ZM470.18,376.54c.14.74.9,1.24,1.66,1.1.77-.17,1.27-.9,1.1-1.66-.16-.77-.91-1.28-1.66-1.12-.77.16-1.24.91-1.1,1.67ZM475.76,375.43c.11.68.81,1.15,1.48,1.01.71-.14,1.14-.82,1.01-1.52-.14-.69-.82-1.15-1.5-.99-.69.14-1.15.8-.99,1.5ZM481.29,374.32c.11.64.72,1.04,1.35.91.63-.11,1.04-.72.91-1.36-.13-.6-.71-1.03-1.34-.89-.63.11-1.03.73-.91,1.34ZM486.84,373.22c.11.55.64.91,1.2.8.55-.1.92-.65.82-1.21-.11-.56-.66-.91-1.21-.8-.57.1-.94.64-.81,1.2ZM492.39,372.1c.1.52.58.82,1.06.72.46-.09.81-.57.69-1.05-.11-.5-.56-.8-1.06-.71-.47.1-.79.57-.69,1.04ZM497.93,371c.07.43.51.7.91.62.43-.09.7-.5.6-.92-.07-.4-.49-.67-.89-.6-.42.08-.68.49-.61.89Z"/>
      <path class="cls-1" d="M456.11,349.33c-.47-.72-1.43-.91-2.16-.42-.7.44-.88,1.4-.4,2.11.46.7,1.42.91,2.12.43.71-.47.9-1.42.43-2.13ZM458.24,347.9c.41.62,1.31.81,1.96.39.64-.45.82-1.33.38-1.96-.43-.65-1.33-.82-1.96-.39-.65.44-.8,1.31-.38,1.96ZM462.97,344.75c.36.57,1.18.75,1.75.35.61-.4.75-1.18.36-1.79-.4-.6-1.2-.74-1.77-.34-.58.39-.76,1.18-.34,1.77ZM467.66,341.6c.35.54,1.06.68,1.6.31.53-.35.67-1.05.31-1.6-.35-.52-1.05-.68-1.58-.32-.53.36-.68,1.07-.32,1.6ZM472.37,338.45c.3.48.93.59,1.41.28.48-.3.62-.95.3-1.42-.32-.48-.96-.58-1.42-.28-.5.31-.62.94-.29,1.41ZM477.06,335.3c.29.45.84.55,1.24.25.41-.25.54-.83.25-1.24-.29-.4-.82-.52-1.25-.24-.4.26-.52.82-.24,1.22ZM481.76,332.17c.23.37.74.45,1.08.22.36-.24.46-.72.21-1.07-.22-.36-.71-.43-1.05-.22-.36.25-.44.72-.23,1.07Z"/>
      <path class="cls-1" d="M434.83,328.16c-.69-.5-1.66-.3-2.14.43-.48.68-.27,1.64.44,2.1.68.48,1.65.32,2.12-.42.48-.69.28-1.64-.42-2.11ZM436.26,326.01c.61.42,1.51.24,1.96-.4.42-.66.26-1.53-.39-1.95-.67-.43-1.55-.26-1.97.39-.43.66-.25,1.51.4,1.96ZM439.42,321.29c.55.4,1.38.24,1.75-.33.41-.6.24-1.37-.35-1.78-.6-.4-1.39-.23-1.77.36-.39.58-.25,1.38.36,1.76ZM442.55,316.58c.53.37,1.23.23,1.59-.31.36-.53.22-1.24-.32-1.6-.53-.34-1.23-.23-1.58.32-.37.51-.22,1.25.31,1.58ZM445.69,311.88c.46.33,1.09.19,1.42-.28.31-.45.19-1.11-.27-1.43-.48-.32-1.11-.17-1.42.29-.35.47-.22,1.11.27,1.41ZM448.82,307.17c.43.29.99.18,1.25-.24.27-.4.17-.97-.25-1.23-.42-.26-.96-.17-1.25.25-.27.4-.15.96.25,1.23ZM451.96,302.48c.35.25.84.14,1.08-.2.22-.36.14-.85-.23-1.08-.33-.24-.82-.12-1.05.2-.25.37-.14.84.19,1.07Z"/>
      <path class="cls-1" d="M407.07,316.73c-.84-.18-1.66.36-1.82,1.22-.18.81.38,1.62,1.22,1.78.82.18,1.64-.35,1.8-1.2.17-.83-.37-1.62-1.2-1.8ZM407.56,314.2c.74.15,1.5-.36,1.67-1.12.14-.77-.35-1.51-1.12-1.65-.77-.14-1.53.34-1.66,1.1-.15.79.35,1.5,1.11,1.67ZM408.67,308.63c.67.16,1.37-.3,1.5-.97.14-.73-.3-1.37-1.01-1.53-.7-.14-1.38.32-1.5,1.02-.13.69.3,1.37,1,1.48ZM409.77,303.08c.62.15,1.23-.26,1.35-.88.14-.63-.27-1.23-.91-1.36-.62-.12-1.23.25-1.34.9-.14.62.28,1.23.89,1.34ZM410.88,297.54c.55.12,1.08-.25,1.2-.8.12-.54-.24-1.1-.8-1.22-.56-.11-1.09.28-1.19.82-.14.56.22,1.1.79,1.2ZM411.96,291.98c.52.11.99-.2,1.07-.7.1-.45-.22-.96-.7-1.04-.49-.08-.96.22-1.06.72-.09.46.23.94.7,1.02ZM413.06,286.45c.43.1.84-.21.92-.6.09-.43-.19-.84-.62-.91-.39-.09-.8.21-.88.6-.1.43.19.82.58.91Z"/>
      <path class="cls-1" d="M377.05,316.81c-.84.15-1.39.96-1.22,1.82.14.82.97,1.35,1.81,1.17.83-.14,1.38-.94,1.2-1.8-.15-.82-.96-1.35-1.79-1.19ZM376.54,314.28c.73-.16,1.24-.91,1.1-1.68-.17-.77-.9-1.26-1.66-1.1-.76.16-1.27.91-1.1,1.66.17.77.89,1.24,1.67,1.12ZM375.43,308.7c.67-.12,1.15-.81,1-1.49-.14-.71-.8-1.14-1.51-1.02-.7.15-1.16.83-.99,1.51.14.69.79,1.15,1.5.99ZM374.32,303.16c.63-.12,1.04-.72.91-1.35-.12-.64-.71-1.03-1.36-.9-.61.13-1.03.7-.88,1.34.12.62.73,1.03,1.34.91ZM373.22,297.61c.56-.11.9-.63.81-1.2-.1-.54-.66-.93-1.22-.82-.55.11-.9.67-.78,1.2.08.58.62.93,1.19.82ZM372.1,292.06c.53-.09.83-.56.71-1.06-.08-.46-.57-.8-1.05-.69-.48.11-.8.57-.7,1.07.09.47.57.79,1.04.69ZM371,286.53c.43-.07.69-.51.62-.91-.08-.43-.5-.7-.92-.6-.4.07-.66.49-.59.89.09.43.5.68.9.62Z"/>
      <path class="cls-1" d="M349.34,328.35c-.72.46-.91,1.42-.42,2.15.44.7,1.41.88,2.11.38.71-.45.92-1.4.42-2.12-.45-.7-1.41-.88-2.11-.42ZM347.91,326.21c.61-.41.79-1.32.38-1.97-.46-.64-1.32-.82-1.96-.38-.65.44-.83,1.33-.39,1.95.45.66,1.3.82,1.97.39ZM344.75,321.49c.58-.37.77-1.19.36-1.76-.4-.59-1.17-.75-1.78-.37-.6.41-.75,1.21-.35,1.79.4.59,1.18.76,1.77.35ZM341.6,316.8c.55-.35.68-1.06.33-1.6-.35-.54-1.06-.67-1.6-.3-.53.35-.69,1.04-.31,1.58.33.53,1.06.67,1.57.32ZM338.46,312.08c.48-.3.58-.93.28-1.41-.3-.46-.96-.6-1.42-.3-.48.32-.57.97-.27,1.42.3.5.94.63,1.41.29ZM335.3,307.38c.46-.28.56-.84.26-1.24-.27-.4-.84-.54-1.25-.24-.39.29-.52.82-.23,1.25.25.41.82.51,1.21.24ZM332.18,302.7c.36-.23.43-.74.22-1.08-.25-.36-.74-.46-1.08-.2-.34.21-.43.7-.21,1.05.24.37.72.44,1.07.23Z"/>
      <path class="cls-1" d="M328.17,349.62c-.49.71-.3,1.67.42,2.15.68.48,1.65.28,2.11-.45.48-.68.31-1.65-.43-2.12-.69-.48-1.63-.28-2.11.42ZM326.02,348.2c.4-.61.24-1.52-.4-1.96-.67-.43-1.53-.27-1.96.4-.42.65-.26,1.54.39,1.95.66.43,1.51.25,1.97-.39ZM321.29,345.05c.39-.57.25-1.39-.35-1.77-.59-.4-1.36-.25-1.79.34-.39.61-.22,1.41.37,1.77.59.4,1.38.25,1.76-.35ZM316.59,341.92c.36-.54.22-1.24-.31-1.61-.53-.36-1.23-.21-1.59.33-.36.53-.25,1.22.32,1.58.51.35,1.23.21,1.58-.31ZM311.88,338.76c.33-.47.18-1.08-.28-1.42-.45-.32-1.12-.19-1.43.27-.32.48-.17,1.12.29,1.41.47.35,1.1.23,1.42-.27ZM307.17,335.63c.31-.44.19-.98-.24-1.24-.39-.27-.97-.18-1.24.24-.25.43-.16.97.25,1.25.4.28.95.15,1.23-.25ZM302.48,332.48c.25-.35.12-.85-.2-1.07-.37-.24-.85-.15-1.08.23-.24.33-.12.81.21,1.05.37.25.83.13,1.07-.21Z"/>
      <path class="cls-1" d="M316.73,377.38c-.17.85.37,1.66,1.22,1.83.8.18,1.62-.38,1.79-1.23.17-.81-.35-1.63-1.22-1.79-.81-.17-1.62.38-1.79,1.2ZM314.21,376.88c.13-.72-.37-1.5-1.12-1.66-.78-.14-1.52.35-1.65,1.12-.14.76.34,1.53,1.11,1.66.77.14,1.49-.35,1.67-1.12ZM308.64,375.79c.15-.68-.3-1.38-.98-1.51-.71-.14-1.36.29-1.53,1-.12.71.32,1.38,1.02,1.51.69.13,1.37-.31,1.49-1ZM303.09,374.69c.14-.63-.28-1.23-.9-1.36-.63-.14-1.22.28-1.35.91-.13.63.24,1.23.91,1.35.6.12,1.21-.29,1.34-.9ZM297.54,373.57c.12-.55-.24-1.07-.8-1.2-.53-.12-1.1.25-1.22.81-.11.55.28,1.08.82,1.17.57.14,1.1-.21,1.2-.78ZM291.99,372.48c.12-.52-.2-.98-.7-1.06-.47-.1-.97.21-1.05.71-.07.49.22.95.71,1.06.48.11.94-.24,1.04-.7ZM286.45,371.38c.1-.42-.21-.84-.59-.91-.44-.1-.85.17-.91.62-.1.39.19.8.59.89.44.09.82-.19.91-.6Z"/>
      <path class="cls-1" d="M319.62,422.5c.5,1.23,1.91,1.81,3.14,1.3,1.22-.51,1.79-1.91,1.29-3.14-.5-1.22-1.91-1.8-3.13-1.29-1.22.51-1.8,1.9-1.3,3.14ZM315.91,424.04c-.46-1.13-1.75-1.66-2.87-1.2-1.12.47-1.65,1.75-1.2,2.88.47,1.12,1.75,1.65,2.87,1.18,1.12-.46,1.66-1.75,1.2-2.86ZM307.76,427.41c-.42-1.02-1.59-1.51-2.61-1.09-1.02.42-1.5,1.6-1.08,2.61.42,1.02,1.6,1.5,2.62,1.08,1.01-.42,1.5-1.59,1.07-2.61ZM299.61,430.78c-.37-.92-1.43-1.35-2.34-.97-.92.38-1.36,1.43-.99,2.34.39.93,1.44,1.36,2.36.98.91-.38,1.35-1.43.96-2.35ZM291.47,434.15c-.34-.81-1.27-1.2-2.09-.86-.81.34-1.21,1.27-.87,2.08.34.82,1.28,1.21,2.09.87.82-.34,1.2-1.28.87-2.09ZM283.33,437.53c-.3-.72-1.11-1.05-1.82-.75-.72.29-1.05,1.11-.76,1.82.3.72,1.11,1.06,1.83.77.72-.3,1.05-1.12.75-1.83ZM275.19,440.9c-.25-.61-.96-.9-1.57-.64-.6.24-.9.96-.65,1.56.25.61.96.9,1.57.66.62-.26.91-.96.65-1.58Z"/>
      <path class="cls-1" d="M336.74,447.98c.93.94,2.46.95,3.39,0,.94-.93.94-2.45,0-3.39-.93-.93-2.46-.93-3.39,0-.94.94-.94,2.46,0,3.4ZM333.89,450.82c-.86-.85-2.25-.85-3.11,0-.85.86-.85,2.25,0,3.11.86.86,2.25.86,3.11,0,.86-.85.86-2.25,0-3.11ZM327.65,457.05c-.77-.77-2.04-.79-2.82,0-.78.78-.78,2.05,0,2.83.79.78,2.05.77,2.83,0,.78-.78.79-2.04,0-2.83ZM321.43,463.29c-.7-.71-1.84-.71-2.54,0-.7.7-.71,1.84,0,2.54.7.71,1.84.71,2.55,0,.7-.69.7-1.83,0-2.54ZM315.19,469.52c-.63-.62-1.64-.62-2.26,0-.63.63-.63,1.64,0,2.26.62.62,1.64.62,2.26,0,.63-.63.63-1.64,0-2.26ZM308.95,475.75c-.55-.55-1.43-.54-1.97,0-.54.54-.54,1.42,0,1.97.54.55,1.43.55,1.98,0,.55-.56.54-1.43,0-1.99ZM302.72,481.99c-.46-.47-1.22-.47-1.69,0-.47.46-.47,1.23,0,1.7.47.46,1.23.46,1.69,0,.47-.48.47-1.24,0-1.7Z"/>
      <path class="cls-1" d="M362.29,464.96c1.22.51,2.63-.06,3.14-1.29.51-1.23-.07-2.62-1.3-3.13-1.22-.51-2.62.08-3.14,1.29-.5,1.22.08,2.63,1.3,3.13ZM360.75,468.68c-1.11-.46-2.4.07-2.86,1.2-.46,1.11.07,2.41,1.18,2.87,1.13.47,2.42-.07,2.88-1.19.46-1.11-.08-2.41-1.2-2.87ZM357.38,476.83c-1.01-.42-2.19.06-2.61,1.07-.43,1.02.06,2.2,1.09,2.62,1.02.42,2.18-.07,2.61-1.09.41-1.01-.06-2.18-1.09-2.6ZM354.01,484.96c-.92-.37-1.97.07-2.35.98-.38.92.05,1.98.97,2.35.93.39,1.97-.05,2.35-.98.38-.91-.05-1.96-.97-2.35ZM350.64,493.12c-.82-.34-1.75.05-2.09.87-.33.81.05,1.75.86,2.09.83.34,1.76-.04,2.1-.87.34-.8-.05-1.74-.87-2.08ZM347.26,501.26c-.71-.29-1.54.06-1.82.77-.29.7.04,1.53.74,1.82.73.3,1.54-.04,1.84-.75.31-.73-.04-1.54-.76-1.84ZM343.88,509.41c-.6-.26-1.31.04-1.56.65-.25.6.04,1.32.65,1.56.61.26,1.31-.04,1.57-.63.26-.62-.04-1.33-.66-1.58Z"/>
      <path class="cls-1" d="M392.4,470.89c1.34,0,2.41-1.07,2.41-2.4s-1.07-2.41-2.4-2.4c-1.32,0-2.39,1.07-2.4,2.4,0,1.31,1.08,2.4,2.39,2.4ZM392.41,474.9c-1.21,0-2.19.98-2.19,2.2,0,1.21.99,2.19,2.19,2.19,1.22,0,2.21-.98,2.21-2.19s-.99-2.2-2.21-2.2ZM392.41,483.73c-1.1,0-2,.88-2,1.99,0,1.1.9,2,2,2s2-.9,2-2c0-1.11-.88-2-2-1.99ZM392.42,492.53c-1,0-1.8.82-1.8,1.8s.8,1.81,1.79,1.8c1,0,1.8-.8,1.8-1.8s-.81-1.79-1.79-1.8ZM392.42,501.36c-.89,0-1.61.71-1.61,1.6s.71,1.6,1.59,1.6,1.61-.72,1.6-1.6c0-.88-.7-1.6-1.58-1.6ZM392.4,510.17c-.77,0-1.4.63-1.39,1.39-.01.77.62,1.4,1.39,1.4s1.41-.62,1.41-1.39-.63-1.4-1.41-1.41ZM392.41,518.99c-.66,0-1.19.54-1.19,1.2s.53,1.19,1.19,1.19,1.2-.54,1.21-1.19c0-.66-.54-1.2-1.21-1.2Z"/>
      <path class="cls-1" d="M422.5,464.84c1.23-.51,1.82-1.92,1.3-3.14-.5-1.23-1.9-1.8-3.13-1.29-1.22.5-1.8,1.91-1.3,3.13.51,1.22,1.91,1.8,3.13,1.3ZM424.04,468.54c-1.12.47-1.66,1.76-1.19,2.88.47,1.12,1.75,1.65,2.87,1.19,1.12-.47,1.66-1.76,1.2-2.88-.46-1.13-1.75-1.65-2.87-1.19ZM427.42,476.7c-1.02.41-1.51,1.58-1.09,2.6.42,1.02,1.59,1.51,2.62,1.09,1.02-.43,1.5-1.6,1.08-2.61-.42-1.02-1.58-1.51-2.6-1.07ZM430.79,484.83c-.91.38-1.35,1.45-.97,2.34.38.93,1.43,1.38,2.36.99.91-.39,1.35-1.44.97-2.35-.37-.92-1.43-1.36-2.35-.98ZM434.17,492.98c-.82.34-1.21,1.27-.87,2.09.34.81,1.26,1.2,2.07.87.82-.34,1.22-1.28.87-2.1-.33-.81-1.27-1.21-2.07-.87ZM437.53,501.13c-.71.29-1.04,1.1-.75,1.82.29.7,1.11,1.05,1.82.76.71-.31,1.06-1.12.76-1.83-.3-.73-1.11-1.05-1.83-.76ZM440.91,509.28c-.62.24-.9.95-.64,1.57.25.59.96.89,1.56.64.62-.25.9-.96.65-1.57-.25-.61-.96-.91-1.57-.64Z"/>
      <path class="cls-1" d="M447.98,447.73c.94-.95.94-2.46,0-3.4-.94-.95-2.46-.94-3.39,0-.93.93-.93,2.45,0,3.39.93.93,2.45.93,3.39,0ZM450.83,450.56c-.86.85-.86,2.24,0,3.1.85.87,2.25.86,3.1.01.87-.88.87-2.26,0-3.12-.86-.86-2.25-.86-3.1,0ZM457.06,456.8c-.78.79-.78,2.04,0,2.82.78.78,2.05.78,2.83,0,.78-.78.77-2.04,0-2.82-.78-.78-2.04-.78-2.82,0ZM463.29,463.02c-.71.71-.69,1.86,0,2.55.71.7,1.85.72,2.55,0,.7-.71.7-1.85-.01-2.54-.69-.71-1.83-.71-2.54-.01ZM469.54,469.25c-.63.63-.63,1.65,0,2.27.61.62,1.63.63,2.25,0,.63-.63.63-1.65,0-2.27-.61-.62-1.63-.64-2.25-.01ZM475.76,475.5c-.54.54-.53,1.43,0,1.98.54.53,1.43.54,1.97,0,.55-.56.55-1.44,0-1.98-.55-.55-1.43-.54-1.98,0ZM482,481.74c-.48.46-.47,1.23,0,1.7.46.46,1.23.46,1.69,0,.47-.47.46-1.24,0-1.7-.47-.47-1.24-.48-1.7,0Z"/>
      <path class="cls-1" d="M464.98,422.17c.5-1.23-.07-2.64-1.29-3.14-1.23-.52-2.63.07-3.13,1.3-.52,1.22.08,2.62,1.29,3.13,1.22.51,2.63-.06,3.13-1.29ZM468.68,423.7c-.45,1.12.08,2.41,1.2,2.87,1.12.47,2.41-.07,2.86-1.18.46-1.13-.06-2.42-1.18-2.88-1.13-.47-2.39.08-2.88,1.19ZM476.84,427.08c-.42,1.02.05,2.19,1.07,2.6,1.03.42,2.2-.06,2.61-1.08.43-1.02-.07-2.18-1.08-2.62-1.03-.41-2.19.07-2.61,1.1ZM484.98,430.44c-.38.92.07,1.98.97,2.34.93.39,1.98-.04,2.35-.96.38-.92-.06-1.97-.97-2.35-.92-.38-1.97.05-2.35.97ZM493.13,433.81c-.33.82.05,1.76.87,2.09.8.35,1.75-.04,2.08-.86.35-.81-.04-1.75-.87-2.09-.81-.34-1.74.04-2.08.86ZM501.27,437.2c-.29.71.05,1.53.76,1.82.71.29,1.52-.04,1.81-.75.3-.71-.04-1.53-.75-1.82-.72-.31-1.53.04-1.83.76ZM509.42,440.57c-.26.61.03,1.31.66,1.57.6.24,1.31-.05,1.56-.66.26-.61-.05-1.31-.65-1.57-.61-.26-1.32.04-1.57.66Z"/>
      <path class="cls-1" d="M470.9,392.04c0-1.33-1.08-2.4-2.4-2.4-1.33,0-2.41,1.07-2.39,2.41-.01,1.31,1.07,2.38,2.39,2.39,1.32,0,2.4-1.07,2.4-2.4ZM474.92,392.04c0,1.21.98,2.2,2.19,2.2,1.22.01,2.2-.99,2.2-2.19,0-1.23-.99-2.21-2.19-2.21s-2.19.99-2.2,2.2ZM483.75,392.05c0,1.1.88,2,1.98,2s2-.91,2-2-.9-1.99-2-2c-1.1,0-2,.89-1.98,2.01ZM492.54,392.03c0,1,.82,1.8,1.79,1.8s1.81-.8,1.81-1.79-.81-1.8-1.81-1.8-1.79.8-1.79,1.79ZM501.36,392.03c0,.89.71,1.61,1.61,1.6.87,0,1.59-.71,1.59-1.58.01-.9-.7-1.61-1.6-1.61s-1.6.71-1.59,1.59ZM510.18,392.05c0,.77.64,1.39,1.4,1.39.76,0,1.39-.62,1.39-1.39s-.62-1.4-1.39-1.4-1.4.63-1.41,1.4ZM518.99,392.05c0,.66.55,1.2,1.21,1.2.64-.01,1.19-.55,1.19-1.21,0-.66-.55-1.2-1.19-1.2s-1.21.54-1.21,1.21Z"/>
      <path class="cls-1" d="M464.83,361.95c-.5-1.22-1.9-1.8-3.13-1.29-1.24.5-1.8,1.9-1.29,3.13.49,1.22,1.9,1.79,3.13,1.29,1.22-.51,1.81-1.9,1.29-3.13ZM468.55,360.41c.47,1.12,1.75,1.66,2.87,1.2,1.13-.46,1.66-1.75,1.2-2.86-.47-1.13-1.76-1.66-2.87-1.21-1.13.47-1.65,1.75-1.2,2.87ZM476.7,357.04c.42,1.02,1.58,1.51,2.6,1.08,1.02-.42,1.5-1.6,1.09-2.61-.43-1.02-1.6-1.5-2.62-1.09-1.02.43-1.5,1.59-1.07,2.62ZM484.83,353.66c.39.92,1.45,1.35,2.35.97.93-.38,1.37-1.43.99-2.34-.39-.93-1.44-1.36-2.37-.98-.91.38-1.34,1.43-.97,2.35ZM492.98,350.28c.35.82,1.27,1.22,2.09.87.82-.33,1.21-1.27.87-2.08-.33-.82-1.27-1.22-2.1-.87-.81.33-1.21,1.27-.86,2.07ZM501.14,346.93c.29.7,1.11,1.03,1.82.75.71-.3,1.04-1.11.74-1.83-.29-.71-1.1-1.05-1.81-.75-.73.3-1.05,1.12-.75,1.84ZM509.28,343.55c.25.61.97.91,1.58.65.59-.25.89-.96.65-1.57-.25-.6-.97-.9-1.57-.65-.61.26-.92.96-.65,1.58Z"/>
      <path class="cls-1" d="M447.73,336.48c-.93-.93-2.45-.94-3.39,0-.95.94-.95,2.45,0,3.39.92.93,2.45.92,3.39,0,.93-.94.94-2.45,0-3.38ZM450.56,333.63c.86.85,2.25.85,3.12,0,.86-.87.85-2.26,0-3.11-.87-.86-2.26-.86-3.11,0-.86.87-.85,2.25,0,3.11ZM456.82,327.39c.77.78,2.03.78,2.81,0,.78-.78.78-2.05,0-2.83-.78-.78-2.04-.77-2.83,0-.79.78-.79,2.05.02,2.83ZM463.02,321.16c.72.7,1.86.69,2.54,0,.71-.71.71-1.85,0-2.55-.7-.7-1.84-.7-2.55,0-.7.69-.7,1.83,0,2.54ZM469.26,314.92c.63.63,1.64.63,2.27,0,.62-.61.63-1.63,0-2.24-.62-.64-1.64-.64-2.27,0-.62.62-.62,1.63,0,2.24ZM475.52,308.7c.54.54,1.42.53,1.97,0,.53-.55.53-1.43-.01-1.97-.54-.55-1.42-.56-1.98-.01-.55.55-.53,1.43.02,1.99ZM481.74,302.46c.47.47,1.23.47,1.7-.01.45-.45.45-1.22,0-1.7-.48-.47-1.25-.45-1.7,0-.47.48-.47,1.23,0,1.71Z"/>
      <path class="cls-1" d="M422.17,319.48c-1.22-.5-2.63.08-3.14,1.3-.52,1.24.07,2.64,1.3,3.13,1.22.51,2.62-.08,3.14-1.3.5-1.21-.08-2.62-1.3-3.13ZM423.69,315.76c1.12.46,2.42-.07,2.88-1.18.47-1.13-.07-2.41-1.17-2.87-1.14-.47-2.42.06-2.89,1.17-.46,1.13.07,2.4,1.18,2.88ZM427.09,307.61c1.02.42,2.19-.05,2.6-1.07.42-1.02-.07-2.2-1.08-2.62-1.02-.41-2.18.08-2.61,1.09-.42,1.01.06,2.19,1.1,2.6ZM430.44,299.48c.93.37,1.97-.07,2.34-.97.39-.93-.04-1.98-.96-2.35-.92-.39-1.97.06-2.36.98-.37.91.06,1.96.98,2.35ZM433.81,291.32c.83.33,1.76-.05,2.1-.87.34-.79-.04-1.74-.87-2.08-.81-.35-1.75.04-2.09.87-.33.81.05,1.75.86,2.08ZM437.22,283.19c.69.29,1.51-.04,1.81-.76.28-.72-.06-1.52-.76-1.82-.7-.3-1.53.04-1.82.75-.3.73.05,1.54.77,1.83ZM440.58,275.04c.6.26,1.31-.04,1.56-.65.24-.6-.05-1.31-.65-1.58-.61-.25-1.32.05-1.57.65-.25.62.03,1.33.66,1.57Z"/>
      <path class="cls-1" d="M361.97,319.62c-1.22.51-1.82,1.91-1.31,3.14.51,1.25,1.91,1.81,3.14,1.3,1.2-.5,1.78-1.91,1.29-3.14-.51-1.22-1.91-1.8-3.13-1.29ZM360.41,315.91c1.12-.47,1.65-1.75,1.2-2.88-.48-1.12-1.76-1.65-2.87-1.19-1.13.47-1.66,1.76-1.2,2.87.47,1.13,1.75,1.65,2.87,1.2ZM357.04,307.75c1.02-.42,1.51-1.58,1.08-2.6-.42-1.02-1.6-1.5-2.61-1.08-1.02.43-1.5,1.6-1.09,2.61.43,1.02,1.59,1.51,2.61,1.07ZM353.67,299.63c.92-.39,1.35-1.45.97-2.35-.37-.93-1.44-1.37-2.34-.99-.92.38-1.35,1.43-.98,2.36.37.91,1.43,1.35,2.35.97ZM350.28,291.47c.83-.35,1.22-1.27.87-2.09-.32-.81-1.26-1.21-2.08-.87-.81.33-1.2,1.27-.87,2.09.34.82,1.27,1.21,2.08.87ZM346.94,283.31c.7-.29,1.04-1.1.74-1.83-.31-.7-1.12-1.03-1.83-.75-.7.3-1.04,1.12-.75,1.83.31.72,1.11,1.05,1.84.75ZM343.55,275.18c.61-.25.9-.97.65-1.58-.26-.58-.96-.87-1.58-.65-.6.27-.88.98-.64,1.58.25.61.95.91,1.57.65Z"/>
      <path class="cls-1" d="M336.48,336.73c-.93.94-.94,2.46,0,3.4.95.95,2.46.93,3.39-.01.94-.93.92-2.45,0-3.4-.93-.93-2.46-.94-3.39,0ZM333.63,333.89c.87-.86.86-2.25,0-3.12-.86-.86-2.26-.86-3.1,0-.86.87-.86,2.26-.01,3.11.87.85,2.25.85,3.11.01ZM327.39,327.64c.78-.79.79-2.04.01-2.82-.78-.78-2.05-.78-2.83,0-.77.78-.76,2.05,0,2.82.78.79,2.04.79,2.82,0ZM321.16,321.43c.7-.72.7-1.86,0-2.55-.7-.7-1.85-.71-2.54,0-.7.71-.7,1.85,0,2.56.69.7,1.83.69,2.54,0ZM314.92,315.2c.64-.64.64-1.64,0-2.27-.6-.61-1.62-.62-2.24,0-.63.62-.63,1.64,0,2.27.63.61,1.63.63,2.24,0ZM308.72,308.94c.53-.54.53-1.43-.01-1.98-.56-.53-1.44-.52-1.98.01-.54.54-.54,1.43,0,1.97.56.56,1.43.55,1.99,0ZM302.47,302.72c.47-.47.47-1.24,0-1.71-.46-.44-1.23-.44-1.7.01-.46.47-.45,1.24.01,1.7.47.47,1.23.47,1.7,0Z"/>
      <path class="cls-1" d="M319.49,362.28c-.51,1.23.06,2.64,1.28,3.15,1.24.51,2.62-.08,3.14-1.31.51-1.22-.09-2.62-1.31-3.13-1.21-.51-2.62.08-3.12,1.29ZM315.77,360.75c.47-1.11-.07-2.4-1.19-2.88-1.12-.45-2.41.07-2.86,1.19-.47,1.13.06,2.42,1.17,2.88,1.13.46,2.41-.07,2.88-1.19ZM307.62,357.37c.42-1.02-.04-2.19-1.08-2.6-1.01-.42-2.19.06-2.61,1.08-.41,1.03.08,2.19,1.08,2.61,1.02.42,2.2-.05,2.6-1.09ZM299.49,354.01c.37-.93-.08-1.98-.98-2.35-.91-.38-1.97.05-2.34.96-.38.93.06,1.97.98,2.36.9.38,1.96-.06,2.35-.97ZM291.33,350.64c.34-.84-.04-1.77-.87-2.1-.79-.34-1.74.04-2.07.86-.34.81.05,1.75.87,2.1.82.33,1.76-.04,2.08-.86ZM283.19,347.25c.29-.71-.05-1.53-.76-1.83-.72-.28-1.52.06-1.83.76-.29.71.05,1.54.76,1.83.73.3,1.53-.05,1.83-.77ZM275.04,343.88c.25-.61-.04-1.32-.65-1.57-.6-.23-1.31.07-1.57.66-.25.62.06,1.33.65,1.57.6.25,1.32-.04,1.56-.65Z"/>
    </g>
  </g>
</svg>