<?xml version="1.0" encoding="UTF-8"?>
<svg id="Layer_2" data-name="Layer 2" xmlns="http://www.w3.org/2000/svg" viewBox="0 0 550.57 550.57">
  <g id="Layer_1-2" data-name="Layer 1">
    <g>
      <g>
        <g>
          <g>
            <polygon fill="#BFB47B" points="289.97 466.69 281.74 467.79 281.74 466.69 281.74 465.59 289.97 466.69"/>
            <g>
              <polygon fill="#BFB47B" points="270.58 438.17 271.67 455.53 270.58 455.53 269.47 455.53 270.58 438.17"/>
              <polygon fill="#BFB47B" points="285.12 463.8 281.74 465.59 281.52 464.51 281.31 463.44 285.12 463.8"/>
              <polygon fill="#BFB47B" points="287.31 459.76 281.31 463.44 280.89 462.42 280.47 461.4 287.31 459.76"/>
              <polygon fill="#BFB47B" points="282.91 458.46 280.47 461.4 279.86 460.49 279.24 459.57 282.91 458.46"/>
              <polygon fill="#BFB47B" points="284.29 452.98 279.24 459.57 278.47 458.8 277.69 458.02 284.29 452.98"/>
              <polygon fill="#BFB47B" points="278.81 454.36 277.69 458.02 276.78 457.41 275.86 456.8 278.81 454.36"/>
              <polygon fill="#BFB47B" points="277.51 449.96 275.86 456.8 274.85 456.38 273.83 455.96 277.51 449.96"/>
              <polygon fill="#BFB47B" points="273.47 452.14 273.83 455.96 272.75 455.74 271.67 455.53 273.47 452.14"/>
            </g>
            <g>
              <polygon fill="#BFB47B" points="251.18 466.69 259.41 465.59 259.41 466.69 259.41 467.79 251.18 466.69"/>
              <polygon fill="#BFB47B" points="267.68 452.14 269.48 455.53 268.4 455.74 267.32 455.96 267.68 452.14"/>
              <polygon fill="#BFB47B" points="263.64 449.96 267.32 455.96 266.3 456.38 265.29 456.8 263.64 449.96"/>
              <polygon fill="#BFB47B" points="262.34 454.36 265.29 456.8 264.37 457.41 263.46 458.02 262.34 454.36"/>
              <polygon fill="#BFB47B" points="256.86 452.98 263.46 458.02 262.68 458.8 261.9 459.57 256.86 452.98"/>
              <polygon fill="#BFB47B" points="258.25 458.46 261.9 459.57 261.29 460.49 260.68 461.4 258.25 458.46"/>
              <polygon fill="#BFB47B" points="253.84 459.76 260.68 461.4 260.26 462.42 259.84 463.44 253.84 459.76"/>
              <polygon fill="#BFB47B" points="256.03 463.8 259.84 463.44 259.63 464.51 259.41 465.59 256.03 463.8"/>
            </g>
          </g>
          <g>
            <g>
              <polygon fill="#BFB47B" points="270.58 495.22 269.47 477.85 270.58 477.85 271.67 477.85 270.58 495.22"/>
              <polygon fill="#BFB47B" points="285.12 469.58 281.31 469.95 281.52 468.87 281.74 467.79 285.12 469.58"/>
              <polygon fill="#BFB47B" points="287.31 473.62 280.47 471.98 280.89 470.96 281.31 469.95 287.31 473.62"/>
              <polygon fill="#BFB47B" points="282.91 474.93 279.24 473.81 279.86 472.89 280.47 471.98 282.91 474.93"/>
              <polygon fill="#BFB47B" points="284.29 480.41 277.69 475.36 278.47 474.58 279.24 473.81 284.29 480.41"/>
              <polygon fill="#BFB47B" points="278.81 479.02 275.86 476.58 276.78 475.97 277.69 475.36 278.81 479.02"/>
              <polygon fill="#BFB47B" points="277.51 483.43 273.83 477.43 274.85 477.01 275.86 476.59 277.51 483.43"/>
              <polygon fill="#BFB47B" points="273.47 481.24 271.67 477.85 272.75 477.64 273.83 477.43 273.47 481.24"/>
            </g>
            <g>
              <polygon fill="#BFB47B" points="267.68 481.24 267.32 477.43 268.4 477.64 269.48 477.85 267.68 481.24"/>
              <polygon fill="#BFB47B" points="263.64 483.43 265.29 476.59 266.3 477.01 267.32 477.43 263.64 483.43"/>
              <polygon fill="#BFB47B" points="262.34 479.02 263.46 475.36 264.37 475.97 265.29 476.58 262.34 479.02"/>
              <polygon fill="#BFB47B" points="256.86 480.41 261.9 473.81 262.68 474.58 263.46 475.36 256.86 480.41"/>
              <polygon fill="#BFB47B" points="258.25 474.93 260.68 471.98 261.29 472.89 261.9 473.81 258.25 474.93"/>
              <polygon fill="#BFB47B" points="253.84 473.62 259.84 469.95 260.26 470.96 260.68 471.98 253.84 473.62"/>
              <polygon fill="#BFB47B" points="256.03 469.58 259.41 467.79 259.63 468.87 259.84 469.95 256.03 469.58"/>
            </g>
          </g>
        </g>
        <path fill="#BFB47B" d="M230.16,462.95c-5.07,0-230.16,3.79-230.16,3.79,0,0,225.1,3.79,230.16,3.79s5.08-3.79,5.08-3.79c0,0-.01-3.79-5.08-3.79Z"/>
        <path fill="#BFB47B" d="M310.27,462.95c5.07,0,49.81,3.79,49.81,3.79,0,0-44.74,3.79-49.81,3.79s-5.08-3.79-5.08-3.79c0,0,.01-3.79,5.08-3.79Z"/>
        <path fill="#BFB47B" d="M261.17,466.74c0,5.19,4.21,9.4,9.39,9.4s9.4-4.21,9.4-9.4-4.21-9.39-9.4-9.39-9.39,4.21-9.39,9.39Z"/>
        <g>
          <path fill="#BFB47B" d="M241.68,466.74c0,3.24,2.62,5.86,5.86,5.86s5.85-2.62,5.85-5.86-2.62-5.86-5.85-5.86-5.86,2.62-5.86,5.86Z"/>
          <path fill="#BFB47B" d="M287.75,466.74c0,3.24,2.62,5.86,5.86,5.86s5.85-2.62,5.85-5.86-2.62-5.86-5.85-5.86-5.86,2.62-5.86,5.86Z"/>
        </g>
      </g>
      <g>
        <g>
          <g>
            <polygon fill="#BFB47B" points="466.7 289.97 465.6 281.74 466.7 281.74 467.8 281.74 466.7 289.97"/>
            <g>
              <polygon fill="#BFB47B" points="438.18 270.58 455.54 269.48 455.54 270.58 455.54 271.68 438.18 270.58"/>
              <polygon fill="#BFB47B" points="463.81 285.12 463.45 281.31 464.52 281.52 465.6 281.74 463.81 285.12"/>
              <polygon fill="#BFB47B" points="459.77 287.31 461.41 280.47 462.43 280.89 463.45 281.31 459.77 287.31"/>
              <polygon fill="#BFB47B" points="458.46 282.91 459.58 279.25 460.5 279.86 461.41 280.47 458.46 282.91"/>
              <polygon fill="#BFB47B" points="452.98 284.29 458.03 277.69 458.81 278.47 459.58 279.25 452.98 284.29"/>
              <polygon fill="#BFB47B" points="454.37 278.81 456.81 275.86 457.42 276.78 458.03 277.69 454.37 278.81"/>
              <polygon fill="#BFB47B" points="449.96 277.51 455.97 273.83 456.39 274.85 456.81 275.86 449.96 277.51"/>
              <polygon fill="#BFB47B" points="452.15 273.47 455.54 271.68 455.75 272.75 455.96 273.83 452.15 273.47"/>
            </g>
            <g>
              <polygon fill="#BFB47B" points="466.7 251.18 467.8 259.41 466.7 259.41 465.6 259.41 466.7 251.18"/>
              <polygon fill="#BFB47B" points="452.15 267.69 455.96 267.32 455.75 268.4 455.54 269.48 452.15 267.69"/>
              <polygon fill="#BFB47B" points="449.96 263.64 456.81 265.29 456.39 266.3 455.97 267.32 449.96 263.64"/>
              <polygon fill="#BFB47B" points="454.37 262.34 458.03 263.46 457.42 264.37 456.81 265.29 454.37 262.34"/>
              <polygon fill="#BFB47B" points="452.98 256.86 459.58 261.91 458.81 262.68 458.03 263.46 452.98 256.86"/>
              <polygon fill="#BFB47B" points="458.46 258.25 461.41 260.68 460.5 261.29 459.58 261.91 458.46 258.25"/>
              <polygon fill="#BFB47B" points="459.77 253.84 463.44 259.84 462.42 260.26 461.41 260.68 459.77 253.84"/>
              <polygon fill="#BFB47B" points="463.81 256.03 465.6 259.41 464.52 259.63 463.45 259.84 463.81 256.03"/>
            </g>
          </g>
          <g>
            <g>
              <polygon fill="#BFB47B" points="495.22 270.58 477.86 271.68 477.86 270.58 477.86 269.48 495.22 270.58"/>
              <polygon fill="#BFB47B" points="469.59 285.12 467.8 281.74 468.88 281.52 469.96 281.31 469.59 285.12"/>
              <polygon fill="#BFB47B" points="473.63 287.31 469.95 281.31 470.97 280.89 471.99 280.47 473.63 287.31"/>
              <polygon fill="#BFB47B" points="474.94 282.91 471.99 280.47 472.9 279.86 473.82 279.25 474.94 282.91"/>
              <polygon fill="#BFB47B" points="480.41 284.29 473.82 279.25 474.59 278.47 475.37 277.69 480.41 284.29"/>
              <polygon fill="#BFB47B" points="479.03 278.81 475.37 277.69 475.98 276.78 476.59 275.86 479.03 278.81"/>
              <polygon fill="#BFB47B" points="483.43 277.51 476.59 275.86 477.01 274.85 477.44 273.83 483.43 277.51"/>
              <polygon fill="#BFB47B" points="481.25 273.47 477.43 273.83 477.65 272.75 477.86 271.68 481.25 273.47"/>
            </g>
            <g>
              <polygon fill="#BFB47B" points="481.25 267.69 477.86 269.48 477.65 268.4 477.43 267.32 481.25 267.69"/>
              <polygon fill="#BFB47B" points="483.43 263.64 477.44 267.32 477.01 266.3 476.59 265.29 483.43 263.64"/>
              <polygon fill="#BFB47B" points="479.03 262.34 476.59 265.29 475.98 264.37 475.37 263.46 479.03 262.34"/>
              <polygon fill="#BFB47B" points="480.41 256.86 475.37 263.46 474.59 262.68 473.82 261.91 480.41 256.86"/>
              <polygon fill="#BFB47B" points="474.94 258.25 473.82 261.91 472.9 261.29 471.99 260.68 474.94 258.25"/>
              <polygon fill="#BFB47B" points="473.63 253.84 471.99 260.68 470.97 260.26 469.95 259.84 473.63 253.84"/>
              <polygon fill="#BFB47B" points="469.59 256.03 469.96 259.84 468.88 259.63 467.8 259.41 469.59 256.03"/>
            </g>
          </g>
        </g>
        <path fill="#BFB47B" d="M462.96,230.16c0-5.07,3.79-230.16,3.79-230.16,0,0,3.79,225.1,3.79,230.16s-3.79,5.08-3.79,5.08c0,0-3.79-.01-3.79-5.08Z"/>
        <path fill="#BFB47B" d="M462.96,310.27c0,5.07,3.79,49.81,3.79,49.81,0,0,3.79-44.74,3.79-49.81s-3.79-5.08-3.79-5.08c0,0-3.79.01-3.79,5.08Z"/>
        <path fill="#BFB47B" d="M466.75,261.18c5.18,0,9.39,4.2,9.39,9.39s-4.21,9.4-9.39,9.4-9.4-4.21-9.4-9.4,4.21-9.39,9.4-9.39Z"/>
        <g>
          <path fill="#BFB47B" d="M466.75,241.68c3.23,0,5.86,2.62,5.86,5.86s-2.62,5.86-5.86,5.86-5.86-2.62-5.86-5.86,2.62-5.86,5.86-5.86Z"/>
          <path fill="#BFB47B" d="M466.75,287.75c3.23,0,5.86,2.62,5.86,5.86s-2.62,5.85-5.86,5.85-5.86-2.62-5.86-5.85,2.62-5.86,5.86-5.86Z"/>
        </g>
      </g>
      <g>
        <path fill="#BFB47B" d="M365.99,491.2c-5.07,0-49.81,3.79-49.81,3.79,0,0,44.74,3.79,49.81,3.79s5.08-3.79,5.08-3.79c0,0-.01-3.79-5.08-3.79Z"/>
        <path fill="#BFB47B" d="M287.17,494.99c12.03,0,16.14-4.11,16.14-16.14,0,12.03,4.12,16.14,16.15,16.14-12.03,0-16.15,4.12-16.15,16.14,0-12.02-4.11-16.14-16.14-16.14Z"/>
      </g>
      <g>
        <path fill="#BFB47B" d="M491.2,365.99c0-5.07,3.79-49.81,3.79-49.81,0,0,3.79,44.74,3.79,49.81s-3.79,5.08-3.79,5.08c0,0-3.79-.01-3.79-5.08Z"/>
        <path fill="#BFB47B" d="M494.99,287.17c0,12.03-4.12,16.14-16.14,16.14,12.03,0,16.14,4.12,16.14,16.14,0-12.03,4.12-16.14,16.14-16.14-12.02,0-16.14-4.11-16.14-16.14Z"/>
      </g>
      <g>
        <path fill="#BFB47B" d="M389.02,440.11c1.92,5.07,4.9,9.83,8.98,13.91,15.47,15.47,40.55,15.47,56.02,0,15.47-15.47,15.48-40.55,0-56.02-4.08-4.08-8.84-7.06-13.91-8.98,12.89.07,25.76,5.03,35.6,14.86,19.84,19.83,19.83,52,0,71.83-19.83,19.83-51.99,19.83-71.83,0-9.84-9.83-14.79-22.71-14.86-35.6Z"/>
        <g>
          <polygon fill="#BFB47B" points="518.08 361.21 486.48 396.18 484.8 394.5 483.12 392.82 518.08 361.21"/>
          <g>
            <polygon fill="#BFB47B" points="518.08 518.08 483.12 486.48 484.81 484.79 486.48 483.12 518.08 518.08"/>
            <polygon fill="#BFB47B" points="510.2 392.51 494.05 406.14 492.73 404.17 491.42 402.19 510.2 392.51"/>
            <polygon fill="#BFB47B" points="535.36 400.01 499.55 417.4 498.64 415.21 497.73 413.02 535.36 400.01"/>
            <polygon fill="#BFB47B" points="522.82 423.1 502.73 429.52 502.27 427.19 501.81 424.86 522.82 423.1"/>
            <polygon fill="#BFB47B" points="550.57 439.64 503.5 442.02 503.5 439.64 503.5 437.27 550.57 439.64"/>
            <polygon fill="#BFB47B" points="522.82 456.19 501.81 454.43 502.27 452.1 502.73 449.77 522.82 456.19"/>
            <polygon fill="#BFB47B" points="535.36 479.29 497.73 466.27 498.64 464.08 499.54 461.89 535.36 479.29"/>
            <polygon fill="#BFB47B" points="510.19 486.78 491.42 477.09 492.74 475.12 494.05 473.15 510.19 486.78"/>
          </g>
          <g>
            <polygon fill="#BFB47B" points="361.22 518.08 392.82 483.11 394.5 484.79 396.18 486.47 361.22 518.08"/>
            <polygon fill="#BFB47B" points="486.79 510.19 473.15 494.05 475.12 492.73 477.09 491.42 486.79 510.19"/>
            <polygon fill="#BFB47B" points="479.29 535.36 461.89 499.55 464.08 498.64 466.27 497.73 479.29 535.36"/>
            <polygon fill="#BFB47B" points="456.2 522.83 449.78 502.73 452.1 502.27 454.44 501.81 456.2 522.83"/>
            <polygon fill="#BFB47B" points="439.65 550.57 437.27 503.5 439.65 503.5 442.02 503.5 439.65 550.57"/>
            <polygon fill="#BFB47B" points="423.11 522.83 424.86 501.81 427.19 502.28 429.52 502.73 423.11 522.83"/>
            <polygon fill="#BFB47B" points="400 535.36 413.03 497.73 415.22 498.64 417.41 499.54 400 535.36"/>
            <polygon fill="#BFB47B" points="392.52 510.19 402.2 491.42 404.17 492.74 406.15 494.06 392.52 510.19"/>
          </g>
        </g>
        <path fill="#BFB47B" d="M409.12,438.69c11.02-11.02,11.01-18.56,0-29.57,11.02,11.01,18.56,11.02,29.58,0-11.02,11.02-11.02,18.56,0,29.57-11.02-11.01-18.55-11.02-29.57,0Z"/>
      </g>
    </g>
  </g>
</svg>