<?xml version="1.0" encoding="UTF-8"?>
<svg id="Layer_2" data-name="Layer 2" xmlns="http://www.w3.org/2000/svg" viewBox="0 0 549.8 549.18">
  <defs>
    <style>
      .cls-1 {
        fill: #bfb47b;
      }
    </style>
  </defs>
  <g id="Layer_1-2" data-name="Layer 1">
    <g>
      <g>
        <g>
          <path class="cls-1" d="M476.57,449.63c0-.74-2.21-51.33-2.21-51.33,0,0-2.21,50.59-2.21,51.33s2.21.74,2.21.74c0,0,2.21,0,2.21-.74Z"/>
          <path class="cls-1" d="M458.88,455.13c-.53-.52-37.86-34.74-37.86-34.74,0,0,34.22,37.34,34.74,37.86.53.52,2.09-1.03,2.09-1.03,0,0,1.56-1.56,1.03-2.09Z"/>
          <path class="cls-1" d="M450.26,471.53c-.74,0-51.34,2.21-51.34,2.21,0,0,50.6,2.2,51.34,2.2s.74-2.21.74-2.21c0,0,0-2.21-.74-2.21Z"/>
          <path class="cls-1" d="M455.76,489.22c-.53.53-34.74,37.86-34.74,37.86,0,0,37.33-34.21,37.86-34.74.53-.52-1.03-2.08-1.03-2.08,0,0-1.56-1.56-2.09-1.04Z"/>
          <path class="cls-1" d="M472.15,497.84c0,.74,2.21,51.33,2.21,51.33,0,0,2.2-50.59,2.2-51.33s-2.21-.74-2.21-.74c0,0-2.21,0-2.21.74Z"/>
          <path class="cls-1" d="M489.84,492.34c.53.53,37.86,34.74,37.86,34.74,0,0-34.22-37.33-34.74-37.86-.52-.52-2.09,1.04-2.09,1.04,0,0-1.56,1.56-1.03,2.08Z"/>
          <path class="cls-1" d="M498.47,475.95c.74,0,51.33-2.21,51.33-2.21,0,0-50.59-2.2-51.33-2.2s-.74,2.21-.74,2.21c0,0,0,2.21.74,2.21Z"/>
          <path class="cls-1" d="M492.97,458.25c.53-.52,34.74-37.86,34.74-37.86,0,0-37.33,34.22-37.86,34.74-.52.52,1.03,2.09,1.03,2.09,0,0,1.56,1.56,2.09,1.03Z"/>
          <g>
            <path class="cls-1" d="M467.35,451.05c-.11-.27-9.67-17.57-9.67-17.57,0,0,5.48,18.99,5.59,19.26.11.26,2.15-.58,2.15-.58,0,0,2.04-.85,1.93-1.11Z"/>
            <path class="cls-1" d="M453.36,462.65c-.27-.11-19.25-5.59-19.25-5.59,0,0,17.3,9.55,17.56,9.66.27.11,1.11-1.93,1.11-1.93,0,0,.84-2.04.58-2.15Z"/>
            <path class="cls-1" d="M451.67,480.75c-.27.11-17.56,9.66-17.56,9.66,0,0,18.99-5.48,19.25-5.58.26-.11-.58-2.15-.58-2.15,0,0-.84-2.04-1.11-1.93Z"/>
            <path class="cls-1" d="M463.27,494.75c-.11.27-5.58,19.25-5.58,19.25,0,0,9.55-17.29,9.66-17.56.11-.27-1.93-1.11-1.93-1.11,0,0-2.04-.84-2.15-.58Z"/>
            <path class="cls-1" d="M481.37,496.44c.11.27,9.67,17.56,9.67,17.56,0,0-5.48-18.98-5.59-19.25-.11-.27-2.15.58-2.15.58,0,0-2.04.85-1.93,1.11Z"/>
            <path class="cls-1" d="M495.37,484.83c.27.11,19.25,5.58,19.25,5.58,0,0-17.3-9.55-17.56-9.66-.27-.11-1.11,1.93-1.11,1.93,0,0-.84,2.04-.58,2.15Z"/>
            <path class="cls-1" d="M497.06,466.73c.26-.11,17.56-9.67,17.56-9.67,0,0-18.99,5.48-19.25,5.59-.26.11.58,2.15.58,2.15,0,0,.84,2.04,1.11,1.93Z"/>
            <path class="cls-1" d="M485.45,452.74c.11-.27,5.58-19.26,5.58-19.26,0,0-9.55,17.3-9.66,17.57-.11.27,1.93,1.11,1.93,1.11,0,0,2.04.84,2.15.58Z"/>
          </g>
        </g>
        <path class="cls-1" d="M495.21,473.74c0,11.52-9.34,20.85-20.85,20.85s-20.86-9.34-20.86-20.85,9.34-20.86,20.86-20.86,20.85,9.34,20.85,20.86Z"/>
      </g>
      <g>
        <path class="cls-1" d="M268.33,469.95c-5.07,0-268.33,3.79-268.33,3.79,0,0,263.26,3.79,268.33,3.79s5.08-3.79,5.08-3.79c0,0-.01-3.79-5.08-3.79Z"/>
        <path class="cls-1" d="M368.02,492.03c10.1,0,18.3-8.19,18.3-18.3s-8.19-18.3-18.3-18.3c-4.37,0-8.37,1.53-11.51,4.09,4.26-5.54,10.94-9.12,18.47-9.12,12.88,0,23.33,10.44,23.33,23.33s-10.44,23.33-23.33,23.33c-7.53,0-14.21-3.58-18.47-9.12,3.14,2.55,7.15,4.09,11.51,4.09Z"/>
        <path class="cls-1" d="M333.77,486.48c7.04,0,12.74-5.71,12.74-12.74s-5.71-12.74-12.74-12.74c-3.04,0-5.83,1.07-8.02,2.85,2.97-3.86,7.62-6.35,12.87-6.35,8.97,0,16.25,7.28,16.25,16.25s-7.27,16.25-16.25,16.25c-5.24,0-9.89-2.49-12.87-6.35,2.19,1.78,4.98,2.84,8.02,2.84Z"/>
        <path class="cls-1" d="M298.99,473.74c0,5.19,4.2,9.4,9.39,9.4s9.4-4.21,9.4-9.4-4.21-9.39-9.4-9.39-9.39,4.21-9.39,9.39Z"/>
        <path class="cls-1" d="M280.2,473.74c0,3.24,2.62,5.86,5.85,5.86s5.85-2.62,5.85-5.86-2.62-5.86-5.85-5.86-5.85,2.62-5.85,5.86Z"/>
      </g>
      <g>
        <path class="cls-1" d="M478.15,268.33c0-5.07-3.79-268.33-3.79-268.33,0,0-3.79,263.26-3.79,268.33s3.79,5.08,3.79,5.08c0,0,3.79-.01,3.79-5.08Z"/>
        <path class="cls-1" d="M456.06,368.02c0,10.1,8.19,18.3,18.3,18.3s18.29-8.19,18.29-18.3c0-4.37-1.53-8.37-4.09-11.52,5.54,4.27,9.12,10.94,9.12,18.47,0,12.88-10.44,23.33-23.33,23.33s-23.33-10.45-23.33-23.33c0-7.53,3.58-14.2,9.12-18.47-2.55,3.14-4.09,7.15-4.09,11.52Z"/>
        <path class="cls-1" d="M461.62,333.77c0,7.04,5.71,12.74,12.74,12.74s12.74-5.71,12.74-12.74c0-3.04-1.07-5.83-2.85-8.02,3.86,2.97,6.35,7.62,6.35,12.87,0,8.97-7.28,16.25-16.25,16.25s-16.25-7.27-16.25-16.25c0-5.24,2.49-9.9,6.35-12.87-1.78,2.19-2.84,4.98-2.84,8.02Z"/>
        <path class="cls-1" d="M474.36,298.99c-5.19,0-9.4,4.2-9.4,9.39s4.21,9.4,9.4,9.4,9.39-4.21,9.39-9.4-4.21-9.39-9.39-9.39Z"/>
        <path class="cls-1" d="M474.36,280.2c-3.24,0-5.86,2.62-5.86,5.86s2.62,5.85,5.86,5.85,5.86-2.62,5.86-5.85-2.62-5.86-5.86-5.86Z"/>
      </g>
    </g>
  </g>
</svg>