<?xml version="1.0" encoding="UTF-8"?>
<svg id="Layer_2" data-name="Layer 2" xmlns="http://www.w3.org/2000/svg" viewBox="0 0 528.31 522.53">
  <defs>
    <style>
      .cls-1 {
        fill: #bfb47b;
      }
    </style>
  </defs>
  <g id="Layer_1-2" data-name="Layer 1">
    <g>
      <g>
        <polygon class="cls-1" points="476.01 378.26 482.11 367.09 472.53 375.46 467.6 363.73 468.17 376.44 455.93 372.99 466.21 380.46 455.88 387.88 468.14 384.49 467.5 397.2 472.5 385.5 482.03 393.93 476 382.73 488.53 380.53 476.01 378.26"/>
        <path class="cls-1" d="M478.96,305.04c0-3.02-2.37-50.9-4.3-89.49l-.82-168.05,6.03-19.02c-1.76-1.77-2.85-4.2-2.85-6.89,0-5.23,4.12-9.48,9.29-9.72h0c-1.13-5.69-6.92-4.2-6.92-4.2,0-.15.02-.31.02-.46,0-3.99-3.23-7.22-7.22-7.22s-7.22,3.23-7.22,7.22c0,.16.01.31.02.46h0s-5.79-1.49-6.91,4.19h0c5.17.24,9.29,4.5,9.29,9.72,0,2.69-1.09,5.12-2.85,6.89l6.03,19.01-.82,168.01c-1.93,38.6-4.3,86.51-4.3,89.53,0,5.11,3.03,9.25,6.75,9.25s6.76-4.14,6.76-9.25ZM479.62,332.05c0-3.74-3.03-6.77-6.77-6.77s-6.77,3.03-6.77,6.77,3.03,6.77,6.77,6.77,6.77-3.03,6.77-6.77Z"/>
      </g>
      <g>
        <g>
          <polygon class="cls-1" points="378.26 459.1 367.09 453.01 375.46 462.59 363.73 467.52 376.44 466.95 372.98 479.19 380.46 468.9 387.88 479.24 384.49 466.97 397.2 467.62 385.5 462.62 393.93 453.09 382.73 459.12 380.53 446.59 378.26 459.1"/>
          <path class="cls-1" d="M305.04,456.16c-3.02,0-50.9,2.37-89.49,4.3l-168.05.81-19.02-6.03c-1.77,1.76-4.2,2.85-6.89,2.85-5.23,0-9.48-4.12-9.72-9.29h0c-5.68,1.12-4.2,6.91-4.2,6.91-.15,0-.31-.02-.46-.02-3.99,0-7.22,3.23-7.22,7.22s3.23,7.22,7.22,7.22c.16,0,.31-.01.46-.02h0s-1.49,5.79,4.2,6.92h0c.23-5.17,4.49-9.29,9.72-9.29,2.69,0,5.12,1.09,6.89,2.85l19.01-6.03,168.01.81c38.6,1.93,86.51,4.3,89.53,4.3,5.11,0,9.25-3.03,9.25-6.75s-4.14-6.75-9.25-6.75ZM332.05,455.49c-3.74,0-6.77,3.03-6.77,6.77s3.03,6.77,6.77,6.77,6.77-3.03,6.77-6.77-3.03-6.77-6.77-6.77Z"/>
        </g>
        <path class="cls-1" d="M484.69,433.53l-.08.56c.1-.1.2-.19.3-.28l1.81-3.24h0l3.48-6.23,2.33-4.17-.28-.16-2.32,4.17h0l-3.49,6.24-1.74,3.12ZM477.03,414.63l-.32-.05-.8,4.7.32.05.81-4.7ZM484.49,418.23l.53-1.49-.31-.11-.82,2.33.48-.78.12.04ZM478.96,403.35l-.32-.05-1.16,6.76.32.06,1.16-6.77ZM474.25,430.8h0s.76-4.43.76-4.43l-.32-.06-.76,4.43-.28,1.63c.07.21.14.41.23.61l.38-2.19ZM468.49,411.43v-.11s.02-.08.02-.08c0-.05,0-.1.02-.15v-.09s0-.1,0-.1v-.09c.01-.06.02-.12.02-.18v-.23c0-.07.01-.15.01-.23v-.1s0-.04,0-.04c0-.11,0-.21,0-.32v-.08c0-.1-.01-.21-.02-.31h-.07v2.24-.04s0-.07.02-.1ZM495.5,439.16l.85-.75,5.36-4.71-.22-.25-4.6,4.05c-.49.54-.95,1.09-1.39,1.66ZM501.4,442.23l1.35-.45,3.38-2.08-.17-.28-4.56,2.81ZM501.5,433.46l.22.25,3.58-3.16,3.44-3.02-.22-.25-3.44,3.03-3.58,3.15ZM462.34,426.36h-.07s.02.15.02.15c.02-.05.03-.1.05-.15ZM494.76,416.17l-.28-.16-2.24,4,.29.16,2.23-4ZM506.54,415.91l-.26-.2-4.31,5.34.25.21,4.32-5.34ZM450.74,412.42l1.53,4.32.31-.11-1.52-4.32h0l-2.29-6.47-.31.11,2.29,6.47h0ZM435.56,433.7l2.67,2.35c-.05-.18-.1-.37-.14-.55l-2.32-2.04h0l-3.58-3.15-.21.24,3.58,3.15h0ZM432.2,430.31l-3.44-3.03-.21.25,3.44,3.02.21-.24ZM419.15,442.88l4.25,1.71,4.43,1.78.12-.3-4.43-1.78h0s-4.25-1.71-4.25-1.71l-.12.3ZM431.16,439.71l1.44.89,1.37.46-2.63-1.62-.17.28ZM415.39,450.95l-5.51-1.18-.07.32,4.64,1c.31-.05.62-.1.94-.13ZM460.25,414.63l.81,4.7.32-.05-.81-4.7-.29.05.29-.05-.77-4.51-.32.06.77,4.51h0ZM432.21,489.68c-.17,0-.34.02-.51.02l-2.31,1.71.19.26,2.7-2h-.07ZM452.75,434.49l.48.88-.13-.91-.08-.13-2.19-3.92-.28.16,2.19,3.92ZM506.12,439.71l4.06-2.5-.17-.28-4.06,2.5.17.28ZM445.03,420.01l-2.23-4-.28.16,2.23,4,.28-.16ZM432.4,417.96c.07.02.13.05.2.06l.06.02.06.02c.08.03.16.05.23.08l-1.97-2.44-.25.2,1.65,2.04s0,0,.01,0ZM447.08,424.34l.28-.16-2.33-4.17-.28.16,2.32,4.17ZM427.09,437.21l.17-.28-3.9-2.4-5.85-3.6-.17.28,5.85,3.6,3.9,2.4ZM464.75,506.34l.32.03.11-1.29-.23-1.14-.2,2.4ZM456.21,509.67l.31.08.79-3.03c-.15.14-.3.28-.44.41l-.66,2.53ZM463.96,515.66h0l-.58,6.83.32.03.58-6.84-.16-.02.16.02.39-4.56-.33-.03-.39,4.57ZM488.84,506.89l-.29.13,1.89,4.17h0s2.83,6.26,2.83,6.26l.3-.13-2.83-6.25-1.89-4.18ZM493.37,498.89v-.02s-.86-.68-.86-.68l.59.88,2.67,3.95h0l2.57,3.8.27-.18-2.57-3.8-2.67-3.95ZM444.02,517.46l2.03-4.49s0-.01,0-.01v-.07s.02-.04.02-.04c.02-.13.04-.28.07-.42v-.06c.04-.17.07-.32.11-.47,0,0,0-.04.01-.07.02-.09.04-.18.06-.27l-2.6,5.77.29.13ZM499.14,494.19l-.24.22,3.3,3.45h0l3.17,3.31.23-.22-3.17-3.31-3.3-3.45ZM434.83,512.33l.27.18,3.84-5.69-.27-.18-3.84,5.69ZM438.37,494.41l-.23-.22-3.3,3.45-3.17,3.31.24.22,3.17-3.31,3.3-3.45ZM445.17,497.02l-1.26,1.87.27.18,1.84-2.72-.85.67ZM443.91,498.89l-2.67,3.95.27.18,2.67-3.95-.27-.18ZM519.64,460.59l2.23-.1v-.32s-.96.04-.96.04c-.08.03-.16.05-.25.08-.02,0-.05.02-.08.02-.15.05-.29.09-.44.13h-.01s-.05.02-.05.02h.03c-.17.04-.32.08-.48.12ZM524.5,440.32l-.12-.3-6.37,2.56.13.3,6.37-2.56ZM510.8,453.34c.16.05.31.1.47.15.06.01.11.04.17.05l.17-.04,4.66-1,4.48-.96,6.71-1.45-.07-.32-6.71,1.44-4.48.97-4.66,1-.74.16ZM521.5,469.2h0l-4.55-.58h0s-4.73-.6-4.73-.6l-.02.11.02-.11-7.09-.9-1.12-.14,1.22.48,6.94.89h0s4.73.6,4.73.6l4.55.59,6.81.87.04-.32-6.81-.87ZM513.88,444.59l-.12-.3-4.43,1.78.12.3,4.43-1.78ZM503.73,448.67l5.72-2.29-.12-.3-4.86,1.95-.73.64ZM509.44,474.92l-1.03.02,2.17.67.1-.31-1.24-.38ZM512.54,495.26l4.36,3.22.19-.26-3.62-2.68c-.31-.08-.62-.18-.92-.28ZM514.08,434.8l-.17-.27-3.9,2.4.17.28,3.9-2.4ZM507.78,482.51l4.26,2.15,4.09,2.06.15-.29-4.09-2.06-4.26-2.15-.15.29ZM519.53,478.35l6.56,2.01.1-.31-6.56-2.01-.1.31ZM516.13,486.72l6.13,3.09.14-.29-6.13-3.09-.15.29ZM473.32,515.66l-.39-4.57h-.03s.02,0,.02,0l-.4-4.75-.32.03.4,4.75.39,4.56h0l.58,6.84.32-.03-.58-6.83h0ZM424.75,460.89l.45.02c-.15-.11-.29-.22-.43-.33v.31ZM420,460.37l-4.58-.19v.32s4.57.2,4.57.2v-.33ZM434.45,449.03l.32.13-.27-.24-.04.12ZM515.46,493.27c-.29-.16-.58-.33-.85-.5-.01,0-.02-.01-.02-.01-.15-.1-.28-.19-.42-.28h-.01c-.13-.1-.26-.19-.38-.29-.01,0-.02-.01-.03-.02-.11-.09-.22-.17-.33-.26-.02-.01-.04-.03-.06-.05-.11-.09-.23-.19-.34-.28-.02,0-.03-.02-.04-.04-.11-.1-.22-.2-.33-.29-.02-.02-.03-.03-.05-.05-.09-.08-.19-.18-.28-.26-.03-.03-.05-.05-.08-.08-.09-.09-.18-.19-.27-.28-.03-.03-.05-.05-.08-.08-.08-.08-.16-.17-.24-.25-.04-.04-.07-.07-.11-.11-.08-.08-.15-.17-.23-.26-.04-.04-.07-.08-.11-.12-.07-.08-.14-.16-.21-.24-.04-.05-.08-.09-.12-.14-.06-.07-.12-.15-.18-.23-.04-.05-.09-.11-.14-.17-.05-.07-.11-.14-.16-.21-.05-.06-.1-.13-.15-.19-.04-.06-.09-.12-.14-.18-.06-.08-.11-.15-.17-.23-.04-.04-.07-.09-.1-.14-.07-.09-.14-.19-.21-.28-.02-.03-.04-.05-.05-.07-.08-.12-.16-.23-.25-.35,0-.01-.02-.03-.03-.04-2.84-4.06-5.11-8.77-9.19-11.44h0c-.13-.09-.27-.18-.4-.26,0,0-.02-.01-.03-.02-.13-.08-.27-.16-.41-.23-.01,0-.03-.02-.04-.02-.13-.07-.26-.14-.4-.21-.02-.01-.04-.03-.06-.04-.13-.06-.27-.12-.4-.18-.03-.01-.05-.03-.08-.04-.13-.06-.26-.11-.39-.17-.03-.02-.06-.03-.1-.04-.13-.05-.26-.1-.39-.14-.04-.02-.08-.03-.12-.05-.13-.04-.26-.08-.39-.12-.04-.01-.09-.03-.13-.04-.13-.04-.26-.07-.39-.11h-.02c.04-.11.07-.22.11-.33l20.07-.5-15.37-6.1-3.23-1.28c.03-.46.04-.92.04-1.38,4.59-3.92,9.99-3.99,15.3-4.43-.01.02-.02.04-.02.07,0,.07.05.12.12.12s.12-.05.12-.12c0-.03,0-.06-.03-.08,1.97-.16,3.92-.4,5.82-.89h.01c.15-.04.3-.08.44-.12.01,0,.03,0,.04-.01.14-.04.28-.08.42-.13.02,0,.04,0,.06-.02.13-.04.27-.09.4-.13.03,0,.05-.02.08-.03.13-.04.25-.09.38-.14.03,0,.06-.02.09-.03.12-.05.24-.1.37-.15.04-.02.07-.03.11-.04.12-.05.23-.1.35-.15.04-.02.08-.04.12-.05.11-.05.22-.11.33-.16.04-.02.09-.04.13-.06.11-.05.21-.11.32-.16.05-.03.09-.05.14-.08.1-.05.2-.11.3-.17.05-.03.1-.06.15-.08.09-.06.19-.12.29-.18.06-.03.11-.06.16-.09.09-.06.19-.13.29-.19.05-.03.11-.07.16-.1.1-.07.19-.13.29-.2.05-.04.1-.07.15-.11.09-.07.18-.14.27-.21.05-.04.11-.08.17-.13.09-.07.18-.15.27-.22.06-.04.11-.09.16-.13.09-.08.19-.17.28-.25.05-.04.09-.08.14-.12.1-.09.19-.19.29-.28.04-.04.09-.08.13-.12.14-.14.28-.28.42-.43-1.06.64-2.11,1.09-3.16,1.39-1.23.35-2.47.51-3.69.51-3.1,0-6.18-.96-9.25-1.92-3.08-.96-6.15-1.92-9.26-1.92-1.85,0-3.7.34-5.58,1.22-.04-.11-.08-.22-.13-.33l15.03-13.26-18.96,6.29c-.29-.38-.58-.75-.89-1.11,1.48-8.77,9.68-12.25,13.71-19.01,0,0,0,0,0,0,.08-.14.16-.28.24-.41v-.02c.09-.13.16-.27.23-.4,0-.02.02-.03.02-.04.07-.13.13-.27.2-.4,0-.02.02-.04.02-.06.06-.13.12-.26.18-.39.01-.03.02-.05.03-.07.05-.13.11-.26.16-.39.01-.03.03-.06.04-.09.05-.12.1-.25.14-.38.02-.04.03-.07.04-.11.05-.12.09-.25.13-.37.02-.04.03-.08.04-.12.04-.12.08-.25.12-.37.02-.04.03-.09.04-.13.04-.12.07-.25.1-.38.01-.05.02-.1.04-.15.03-.12.06-.24.09-.37,0-.06.03-.11.04-.16.03-.12.05-.25.07-.38.01-.06.03-.11.03-.18.03-.13.04-.27.06-.41.01-.05.02-.1.02-.16.02-.14.04-.29.05-.43,0-.05.01-.1.02-.14.02-.2.03-.39.05-.59-.07.19-.13.37-.2.55-.02.04-.04.08-.05.12-.05.14-.11.28-.17.41,0,0,0,0,0,0-.07.18-.15.34-.23.5,0,0,0,0,0,0-.08.16-.16.33-.25.48,0,.01-.01.02-.02.04-.08.15-.16.29-.25.43,0,.02-.02.03-.02.03-.09.15-.18.29-.27.42,0,0,0,.01-.01.02-5.39,8.16-18.26,6.84-22.67,16.29-.11-.06-.21-.11-.32-.18l2.99-19.8-10.46,16.99c-.47-.11-.95-.2-1.43-.29-4.28-7.33-.77-14.91-1.57-22.36h0c-.02-.16-.04-.31-.06-.46,0-.01,0-.02,0-.04-.02-.15-.05-.3-.07-.45,0-.02,0-.03,0-.05-.02-.14-.05-.28-.07-.42,0-.03-.01-.05-.01-.08-.03-.13-.06-.27-.08-.4,0-.03-.01-.06-.02-.09-.03-.13-.06-.26-.09-.39,0-.04-.01-.08-.02-.11-.04-.12-.07-.25-.11-.37-.01-.04-.02-.08-.03-.11-.04-.12-.07-.24-.12-.37,0-.04-.02-.08-.04-.13-.04-.12-.08-.23-.12-.35-.02-.04-.03-.09-.05-.14-.04-.12-.09-.23-.13-.34-.02-.05-.04-.1-.06-.15-.04-.11-.09-.22-.14-.33-.02-.05-.04-.11-.07-.16-.05-.11-.1-.21-.15-.32-.03-.05-.05-.11-.08-.17-.05-.11-.11-.21-.17-.32-.03-.05-.06-.11-.09-.16-.06-.11-.12-.22-.18-.33-.03-.05-.06-.11-.09-.16-.06-.11-.13-.21-.19-.31-.04-.06-.07-.12-.11-.17-.08-.12-.15-.23-.23-.35-.03-.04-.06-.09-.09-.13-.11-.16-.23-.32-.35-.49.29.74.5,1.46.64,2.17h0c.11.53.18,1.05.21,1.55,0,.01,0,.02,0,.02.01.15.02.3.03.44,0,.03,0,.06,0,.09,0,.13,0,.27,0,.41v.11c0,.12,0,.23,0,.34,0,.06,0,.11,0,.17,0,.1-.02.2-.02.31,0,.06,0,.13-.01.2,0,.09-.02.18-.03.26,0,.08-.02.16-.02.24,0,.07-.02.14-.03.21-.01.09-.02.19-.04.28-.01.06-.02.13-.03.19-.02.1-.04.2-.05.3,0,.05-.02.11-.04.16-.02.11-.04.22-.07.33,0,.03-.01.06-.02.09-.03.13-.06.27-.1.4,0,0,0,.01,0,.02-1.91,7.38-8.7,13.75-6.5,22-.12.03-.24.05-.36.07l-10.43-17.08h0l2.62,17.83.28,1.91c-.43.22-.86.45-1.28.7-7.47-2.67-9.86-9.88-14.54-15.04h0c-.11-.12-.21-.24-.32-.35v-.02c-.12-.11-.22-.22-.33-.32-.01-.01-.02-.03-.04-.04-.1-.09-.2-.19-.3-.29-.02-.02-.04-.04-.06-.06-.09-.09-.19-.18-.29-.27-.03-.02-.05-.05-.08-.07-.09-.09-.18-.17-.28-.25-.03-.02-.06-.05-.09-.08-.09-.08-.19-.16-.28-.23-.04-.03-.07-.06-.11-.09-.09-.07-.19-.14-.28-.22-.04-.03-.08-.06-.12-.09-.09-.07-.18-.13-.27-.2-.04-.04-.09-.07-.14-.1-.09-.06-.17-.12-.26-.18-.06-.04-.11-.07-.16-.11-.09-.06-.17-.11-.26-.17-.06-.04-.11-.08-.18-.11-.08-.05-.17-.1-.26-.15-.06-.04-.12-.08-.19-.12-.08-.05-.17-.09-.25-.14-.07-.04-.13-.08-.21-.11-.08-.05-.17-.08-.25-.13-.07-.04-.14-.07-.22-.11-.08-.04-.17-.08-.26-.12-.08-.04-.15-.07-.23-.11-.09-.04-.18-.07-.27-.11-.08-.03-.15-.07-.24-.1-.09-.04-.19-.07-.28-.11-.08-.03-.16-.06-.24-.09-.1-.03-.2-.07-.3-.1-.08-.03-.16-.05-.24-.08-.11-.04-.22-.07-.33-.1-.08-.02-.15-.05-.23-.06-.19-.05-.38-.1-.58-.15,10.74,5.92,5.36,20.51,14.83,27.13-.08.09-.15.19-.22.28l-18.98-6.38,14.93,13.27c-.18.44-.36.89-.52,1.34-1.86.69-3.66.96-5.42.96-3.1,0-6.08-.83-9.06-1.66-2.98-.83-5.96-1.67-9.05-1.67-1.84,0-3.72.29-5.67,1.05-.45.18-.9.38-1.36.6.22-.04.45-.08.67-.11.66-.1,1.3-.15,1.92-.15,1.64,0,3.16.32,4.58.85,2.87,1.07,5.41,3,7.94,4.93,3.79,2.89,7.59,5.78,12.54,5.78.38,0,.77-.02,1.17-.05,0,.11,0,.23,0,.35l-18.68,7.33,10.65.3,9.34.27c.14.45.29.89.45,1.32-4.11,7.26-12.18,8.13-18.2,12.3,0,0,0,0,0,0-.13.09-.26.18-.38.27-.01,0-.02.01-.03.02-.12.08-.24.17-.36.26-.01.01-.03.02-.05.04-.11.09-.22.17-.33.26-.02.02-.04.03-.06.05-.11.08-.21.17-.31.26-.03.02-.05.04-.08.07-.1.09-.2.17-.29.26-.03.03-.05.05-.09.08-.09.08-.18.17-.27.25-.03.03-.06.06-.09.09-.09.08-.17.17-.25.25-.04.04-.07.07-.11.11-.08.09-.16.17-.24.26-.04.04-.07.08-.12.12-.07.08-.15.17-.22.26-.04.04-.08.09-.12.14-.07.09-.14.18-.21.26-.04.05-.08.09-.12.14-.07.09-.13.18-.2.27-.04.05-.08.11-.12.16-.07.09-.12.19-.19.27-.04.06-.08.11-.12.17-.06.09-.12.18-.18.28-.04.06-.08.12-.12.18-.06.1-.12.19-.17.29-.04.06-.08.13-.11.19-.06.1-.12.21-.17.31-.04.06-.07.12-.1.19-.06.12-.12.23-.18.35-.03.06-.06.12-.08.17-.09.18-.17.35-.25.54.13-.15.25-.3.38-.45.05-.06.11-.12.16-.17.08-.08.15-.17.23-.25.08-.08.15-.16.23-.23.05-.06.11-.11.16-.17.09-.08.18-.16.27-.25.04-.04.09-.09.13-.12.08-.07.15-.13.23-.19.06-.05.12-.11.19-.16.06-.05.13-.1.19-.15.08-.06.15-.12.22-.18.07-.05.13-.09.2-.14.08-.05.15-.11.22-.16.07-.05.14-.09.21-.13.08-.05.15-.1.23-.15.07-.04.13-.08.2-.12.08-.05.16-.1.24-.14.06-.04.13-.07.19-.11.08-.05.17-.09.25-.14.06-.03.12-.06.18-.08.09-.05.18-.1.28-.14.05-.02.11-.05.16-.07.1-.05.2-.09.3-.14.05-.02.11-.04.17-.06.1-.04.2-.09.3-.13.04-.01.07-.02.11-.04.12-.04.24-.09.36-.13.04-.01.07-.03.11-.04.12-.04.25-.08.37-.12.04-.01.07-.02.12-.03.12-.04.24-.08.37-.11.03,0,.07-.02.1-.03.13-.04.26-.07.39-.1.03,0,.05-.01.07-.02.14-.03.28-.06.42-.1,0,0,.01,0,.02,0,6.05-1.34,13,.05,18.5-3h.01c.14-.09.28-.17.42-.25h.02c.14-.1.28-.19.42-.28,0,0,.02,0,.03-.02.13-.09.26-.18.39-.28.01,0,.02-.02.03-.02.13-.1.26-.19.39-.29,0-.01.02-.02.04-.03.12-.1.25-.2.37-.31.02-.01.03-.02.05-.04.12-.1.24-.21.35-.32.02-.02.04-.03.05-.05.1-.1.21-.2.31-.3.07.09.15.17.22.26l-9.62,17.65,15.71-12.44c.38.25.76.48,1.16.71,1.55,8.22-4.09,14.09-6.02,21.16,0,0,0,0,0,.01-.04.15-.08.3-.12.45,0,.01,0,.02-.01.03-.04.14-.07.28-.1.42,0,.02,0,.05-.01.06-.03.14-.06.28-.08.42,0,.03-.01.05-.02.08-.02.13-.05.27-.07.4,0,.03-.01.06-.02.09-.02.13-.04.26-.06.39,0,.04,0,.07-.02.11-.01.12-.03.25-.04.37,0,.05-.01.09-.02.13,0,.12-.02.24-.03.36,0,.05,0,.1,0,.15,0,.12-.01.24-.02.35,0,.05,0,.11,0,.16,0,.12,0,.23,0,.35,0,.06,0,.11,0,.18,0,.11,0,.23,0,.34,0,.06,0,.12,0,.19,0,.11.01.22.02.33,0,.07,0,.14.01.2.01.11.02.22.03.33,0,.07,0,.14.02.21.01.11.03.22.04.33,0,.07.01.14.03.21.02.11.04.22.06.33.01.08.02.15.04.22.02.11.05.23.07.35.02.07.03.14.04.21.03.13.06.26.1.4.02.06.03.11.04.17.05.19.1.38.16.57,0-.2,0-.39,0-.59h0c0-.21.01-.39.02-.58h0c.01-.2.03-.38.05-.56h0c1.15-10.83,15.12-13.74,16.02-24.76.11.02.22.04.33.05l3.97,19.71,4.04-19.64c.45-.06.89-.12,1.33-.2,4.84,3.96,5.76,9.49,7.19,14.81-.03.02-.04.05-.04.09,0,.06.04.11.09.12.43,1.57.9,3.12,1.54,4.6v.03c.07.13.13.26.19.4,0,.02.01.04.03.06.05.12.11.25.18.37,0,.02.02.05.04.08.05.11.11.23.17.34.02.03.04.07.05.1.06.11.12.21.17.31.02.04.05.09.07.13.06.1.11.19.17.29.03.05.06.1.09.14.05.09.11.18.16.26.04.05.07.11.11.17.05.08.11.16.16.24.04.06.08.12.12.18.05.07.11.15.16.22.05.06.09.13.13.19.05.07.1.13.15.2.05.07.11.14.16.21.05.06.09.12.14.18.06.07.12.15.19.22.04.05.09.11.13.16.07.08.14.16.21.24.05.05.09.09.13.14.08.09.16.17.24.25.04.04.07.07.1.1.09.09.19.19.28.28.03.03.06.06.09.08.1.1.21.2.31.29.02.02.04.03.05.05.54.47,1.12.92,1.77,1.35h0c-1.57-1.79-2.45-3.69-2.9-5.64h0c-.04-.16-.07-.32-.1-.48,0,0,0-.02,0-.02-.03-.13-.04-.26-.07-.39,0-.04,0-.07-.02-.11-.02-.11-.03-.22-.04-.33,0-.06-.02-.11-.03-.17-.02-.09-.02-.18-.03-.27,0-.08-.02-.15-.02-.23,0-.07-.01-.14-.02-.22,0-.09-.02-.19-.03-.29,0-.05,0-.11,0-.17,0-.11-.02-.22-.02-.33,0-.04,0-.08,0-.12,0-.13,0-.26,0-.39v-.07c0-.14,0-.29,0-.44v-.02c.02-6.74,2.89-13.89-.82-20.1,0,0,0-.01,0-.01-.09-.15-.18-.29-.27-.44,0,0-.02-.02-.02-.03-.08-.12-.17-.25-.26-.37.1-.06.19-.12.29-.18l15.71,12.54-9.52-17.63c.3-.33.6-.67.89-1.01.06,0,.12,0,.19,0,5.43,0,9.35,2.81,13.27,5.62.47.34.94.67,1.41,1h0c-.07,0-.12.05-.12.12s.05.12.12.12c.07,0,.12-.05.12-.12,0-.02,0-.04-.01-.05,3.44,2.41,7.02,4.54,11.74,4.54h0c.22,0,.44,0,.67-.02.39-.02.79-.04,1.19-.09-1.56-.24-2.93-.71-4.14-1.36h0ZM417.65,478.04l-6.56,2.01.1.31,6.56-2.01-.1-.31ZM421.13,486.46c.12-.1.25-.19.37-.28l-.5.25.04.09s.03-.02.04-.02l-.02.02s.05-.04.07-.06ZM415.78,469.2l-6.81.87.04.32,6.81-.87-.04-.32ZM430.54,474.43l-1.02-.03-2.93.9.09.31,3.85-1.18ZM422.13,477.01l4.56-1.4-.09-.31-4.56,1.4.09.31ZM494.2,489.03l-.19-.2.13.25.06-.05Z"/>
      </g>
    </g>
  </g>
</svg>