<?xml version="1.0" encoding="UTF-8"?>
<svg id="Layer_2" data-name="Layer 2" xmlns="http://www.w3.org/2000/svg" viewBox="0 0 563.72 563.72">
  <defs>
    <style>
      .cls-1 {
        fill: #bfb47b;
      }
    </style>
  </defs>
  <g id="Layer_1-2" data-name="Layer 1">
    <g>
      <g>
        <g>
          <path class="cls-1" d="M382.21,479.82c-5.53,0-382.21,4.41-382.21,4.41,0,0,376.67,4.42,382.21,4.42s5.54-4.42,5.54-4.42c0,0-.01-4.41-5.54-4.41Z"/>
          <g>
            <path class="cls-1" d="M383.92,492.59c-1.83,1.83-33.2,36.11-33.2,36.11,0,0,34.28-31.37,36.11-33.19,1.83-1.83.37-3.29.37-3.29,0,0-1.46-1.45-3.28.38Z"/>
            <path class="cls-1" d="M383.92,475.89c-1.83-1.83-33.2-36.11-33.2-36.11,0,0,34.28,31.37,36.11,33.2s.37,3.29.37,3.29c0,0-1.46,1.45-3.28-.38Z"/>
          </g>
        </g>
        <path class="cls-1" d="M419.48,484.24c0,8.14-6.59,14.73-14.73,14.73s-14.73-6.59-14.73-14.73,6.59-14.73,14.73-14.73,14.73,6.59,14.73,14.73Z"/>
      </g>
      <g>
        <g>
          <path class="cls-1" d="M479.82,382.2c0-5.53,4.41-382.2,4.41-382.2,0,0,4.42,376.67,4.42,382.2s-4.42,5.55-4.42,5.55c0,0-4.41-.01-4.41-5.55Z"/>
          <g>
            <path class="cls-1" d="M492.59,383.92c1.83-1.83,36.11-33.19,36.11-33.19,0,0-31.37,34.28-33.19,36.11-1.83,1.83-3.29.37-3.29.37,0,0-1.45-1.46.37-3.28Z"/>
            <path class="cls-1" d="M475.89,383.92c-1.83-1.83-36.11-33.19-36.11-33.19,0,0,31.37,34.28,33.2,36.11,1.83,1.83,3.29.37,3.29.37,0,0,1.45-1.46-.37-3.28Z"/>
          </g>
        </g>
        <path class="cls-1" d="M484.24,419.48c8.14,0,14.73-6.59,14.73-14.73s-6.59-14.73-14.73-14.73-14.73,6.59-14.73,14.73,6.59,14.73,14.73,14.73Z"/>
      </g>
      <g>
        <path class="cls-1" d="M533.39,484.23c-36.62,0-49.14-12.53-49.14-49.15,0,36.62-12.54,49.15-49.16,49.15,36.62,0,49.16,12.54,49.16,49.15,0-36.61,12.52-49.15,49.14-49.15Z"/>
        <path class="cls-1" d="M485.56,458.84c0-.78-1.32-54.09-1.32-54.09,0,0-1.32,53.31-1.32,54.09s1.32.78,1.32.78c0,0,1.32,0,1.32-.78Z"/>
        <path class="cls-1" d="M467.21,465.34c-.55-.55-39.19-37.31-39.19-37.31,0,0,36.76,38.63,37.32,39.18.55.55,1.49-.38,1.49-.38,0,0,.93-.94.38-1.49Z"/>
        <path class="cls-1" d="M458.84,482.91c-.78,0-54.09,1.32-54.09,1.32,0,0,53.31,1.32,54.09,1.32s.79-1.32.79-1.32c0,0,0-1.32-.79-1.32Z"/>
        <path class="cls-1" d="M465.35,501.26c-.56.55-37.31,39.19-37.31,39.19,0,0,38.63-36.76,39.18-37.31.55-.55-.38-1.49-.38-1.49,0,0-.94-.93-1.49-.38Z"/>
        <path class="cls-1" d="M482.91,509.63c0,.78,1.33,54.09,1.33,54.09,0,0,1.32-53.31,1.32-54.09s-1.32-.79-1.32-.79c0,0-1.32,0-1.32.79Z"/>
        <path class="cls-1" d="M501.26,503.13c.55.55,39.18,37.31,39.18,37.31,0,0-36.76-38.63-37.31-39.18s-1.49.38-1.49.38c0,0-.93.94-.38,1.49Z"/>
        <path class="cls-1" d="M509.64,485.56c.78,0,54.09-1.33,54.09-1.33,0,0-53.31-1.32-54.09-1.32s-.79,1.32-.79,1.32c0,0,0,1.32.79,1.32Z"/>
        <path class="cls-1" d="M503.13,467.21c.55-.55,37.31-39.18,37.31-39.18,0,0-38.63,36.76-39.18,37.31-.55.55.38,1.49.38,1.49,0,0,.94.94,1.49.38Z"/>
        <g>
          <path class="cls-1" d="M475.92,460.71c-.12-.28-9.26-18.89-9.26-18.89,0,0,6.7,19.62,6.81,19.9.12.28,1.34-.23,1.34-.23,0,0,1.22-.51,1.11-.79Z"/>
          <path class="cls-1" d="M461.72,473.48c-.28-.12-19.9-6.81-19.9-6.81,0,0,18.61,9.14,18.89,9.26.28.12.79-1.11.79-1.11,0,0,.51-1.22.22-1.34Z"/>
          <path class="cls-1" d="M460.71,492.55c-.28.12-18.89,9.26-18.89,9.26,0,0,19.62-6.7,19.9-6.81.28-.12-.22-1.34-.22-1.34,0,0-.51-1.22-.79-1.11Z"/>
          <path class="cls-1" d="M473.48,506.75c-.11.28-6.81,19.9-6.81,19.9,0,0,9.14-18.61,9.25-18.89.11-.28-1.11-.79-1.11-.79,0,0-1.22-.51-1.34-.22Z"/>
          <path class="cls-1" d="M492.55,507.77c.11.28,9.26,18.88,9.26,18.88,0,0-6.69-19.62-6.81-19.9-.11-.28-1.34.22-1.34.22,0,0-1.22.51-1.11.79Z"/>
          <path class="cls-1" d="M506.75,495c.28.12,19.9,6.8,19.9,6.8,0,0-18.61-9.13-18.89-9.25-.28-.12-.79,1.11-.79,1.11,0,0-.5,1.22-.22,1.34Z"/>
          <path class="cls-1" d="M507.77,475.92c.28-.12,18.88-9.26,18.88-9.26,0,0-19.62,6.7-19.9,6.82-.28.11.22,1.34.22,1.34,0,0,.51,1.22.79,1.11Z"/>
          <path class="cls-1" d="M495,461.72c.12-.28,6.81-19.9,6.81-19.9,0,0-9.14,18.61-9.25,18.89-.12.28,1.11.79,1.11.79,0,0,1.22.5,1.34.22Z"/>
        </g>
      </g>
    </g>
  </g>
</svg>