<?xml version="1.0" encoding="UTF-8"?>
<svg id="Layer_2" data-name="Layer 2" xmlns="http://www.w3.org/2000/svg" viewBox="0 0 319.76 319.47">
  <defs>
    <style>
      .cls-1 {
        fill: #bfb47b;
      }
    </style>
  </defs>
  <g id="Layer_1-2" data-name="Layer 1">
    <g>
      <path class="cls-1" d="M232.19,158.44c0,39.46-32,71.46-71.46,71.46s-71.46-32-71.46-71.46,31.99-71.46,71.46-71.46,71.46,31.99,71.46,71.46Z"/>
      <g>
        <polygon class="cls-1" points="158.57 118.51 158.57 111.07 161.18 111.07 161.18 118.51 158.57 118.51 158.57 118.51"/>
        <polygon class="cls-1" points="158.57 111.07 158.57 90.01 161.18 90.01 161.18 111.07 158.57 111.07 158.57 111.07"/>
        <polygon class="cls-1" points="158.57 72.48 158.57 60.45 161.18 60.45 161.18 72.48 158.57 72.48 158.57 72.48"/>
        <polygon class="cls-1" points="158.57 41.32 158.57 28.55 161.18 28.55 161.18 41.32 158.57 41.32 158.57 41.32"/>
        <polygon class="cls-1" points="158.57 28.55 158.57 16.28 161.18 16.28 161.18 28.55 158.57 28.55 158.57 28.55"/>
        <polygon class="cls-1" points="151.76 119.31 154.34 118.87 156.6 132.05 154.02 132.49 151.76 119.31 151.76 119.31"/>
        <polygon class="cls-1" points="150.51 111.99 153.08 111.54 154.34 118.87 151.76 119.31 150.51 111.99 150.51 111.99"/>
        <polygon class="cls-1" points="143.98 73.95 146.56 73.5 149.52 90.78 146.94 91.22 143.98 73.95 143.98 73.95"/>
        <polygon class="cls-1" points="141.95 62.08 144.52 61.65 146.56 73.5 143.98 73.95 141.95 62.08 141.95 62.08"/>
        <polygon class="cls-1" points="136.56 30.64 139.13 30.2 141.3 42.79 138.72 43.23 136.56 30.64 136.56 30.64"/>
        <polygon class="cls-1" points="134.49 18.56 137.06 18.11 139.14 30.2 136.56 30.64 134.49 18.56 134.49 18.56"/>
        <polygon class="cls-1" points="135.69 94.38 138.15 93.51 145.17 113.37 142.71 114.25 135.69 94.38 135.69 94.38"/>
        <polygon class="cls-1" points="129.86 77.85 132.32 76.98 138.15 93.51 135.69 94.38 129.86 77.85 129.86 77.85"/>
        <polygon class="cls-1" points="119.47 48.47 121.93 47.61 128.3 65.64 125.84 66.51 119.47 48.47 119.47 48.47"/>
        <polygon class="cls-1" points="111.13 24.86 113.59 23.99 117.68 35.56 115.22 36.43 111.13 24.86 111.13 24.86"/>
        <polygon class="cls-1" points="105.01 7.54 107.46 6.66 113.59 23.99 111.13 24.86 105.01 7.54 105.01 7.54"/>
        <polygon class="cls-1" points="142.59 130.64 144.87 129.37 151.7 141.6 149.43 142.88 142.59 130.64 142.59 130.64"/>
        <polygon class="cls-1" points="135.41 117.79 137.69 116.52 141.31 123 139.04 124.27 135.41 117.79 135.41 117.79"/>
        <polygon class="cls-1" points="125.14 99.4 127.42 98.13 137.69 116.52 135.41 117.79 125.14 99.4 125.14 99.4"/>
        <polygon class="cls-1" points="116.59 84.09 118.86 82.82 127.42 98.13 125.14 99.4 116.59 84.09 116.59 84.09"/>
        <polygon class="cls-1" points="110.72 73.6 113 72.32 118.86 82.82 116.59 84.09 110.72 73.6 110.72 73.6"/>
        <polygon class="cls-1" points="95.16 45.75 97.44 44.47 103.67 55.62 101.39 56.89 95.16 45.75 95.16 45.75"/>
        <polygon class="cls-1" points="89.18 35.03 91.46 33.75 97.44 44.47 95.16 45.75 89.18 35.03 89.18 35.03"/>
        <polygon class="cls-1" points="128.81 122.51 130.83 120.88 135.51 126.66 133.48 128.3 128.81 122.51 128.81 122.51"/>
        <polygon class="cls-1" points="104.56 92.48 106.6 90.85 117.61 104.48 115.58 106.13 104.56 92.48 104.56 92.48"/>
        <polygon class="cls-1" points="84.99 68.25 87.02 66.6 99.03 81.48 97.01 83.12 84.99 68.25 84.99 68.25"/>
        <polygon class="cls-1" points="76.96 58.3 78.99 56.66 87.02 66.6 84.99 68.25 76.96 58.3 76.96 58.3"/>
        <polygon class="cls-1" points="57.71 34.46 59.74 32.82 71.29 47.12 69.26 48.76 57.71 34.46 57.71 34.46"/>
        <polygon class="cls-1" points="123.11 128.29 124.83 126.33 130.41 131.25 128.68 133.2 123.11 128.29 123.11 128.29"/>
        <polygon class="cls-1" points="107.28 114.38 109.02 112.41 124.83 126.33 123.11 128.3 107.28 114.38 107.28 114.38"/>
        <polygon class="cls-1" points="85.1 94.84 86.82 92.88 95.86 100.83 94.13 102.8 85.1 94.84 85.1 94.84"/>
        <polygon class="cls-1" points="70.74 82.21 72.46 80.25 86.83 92.88 85.1 94.84 70.74 82.21 70.74 82.21"/>
        <polygon class="cls-1" points="61.16 73.76 62.88 71.8 72.46 80.25 70.74 82.21 61.16 73.76 61.16 73.76"/>
        <polygon class="cls-1" points="51.95 65.66 53.67 63.7 62.87 71.81 61.16 73.76 51.95 65.66 51.95 65.66"/>
        <polygon class="cls-1" points="124.79 138.84 126.16 136.62 144.3 147.79 142.93 150.02 124.79 138.84 124.79 138.84"/>
        <polygon class="cls-1" points="118.46 134.94 119.83 132.72 126.16 136.62 124.79 138.84 118.46 134.94 118.46 134.94"/>
        <polygon class="cls-1" points="75.34 108.4 76.72 106.18 86.96 112.48 85.6 114.71 75.34 108.4 75.34 108.4"/>
        <polygon class="cls-1" points="59.05 98.38 60.43 96.15 76.72 106.18 75.34 108.4 59.05 98.38 59.05 98.38"/>
        <polygon class="cls-1" points="37.73 85.24 39.1 83.02 49.55 89.46 48.18 91.68 37.73 85.24 37.73 85.24"/>
        <polygon class="cls-1" points="22.08 75.61 23.46 73.38 39.1 83.02 37.73 85.24 22.08 75.61 22.08 75.61"/>
        <polygon class="cls-1" points="115 142.29 115.98 139.87 122.87 142.63 121.91 145.06 115 142.29 115 142.29"/>
        <polygon class="cls-1" points="79.2 127.9 80.17 125.48 96.42 132.02 95.45 134.43 79.2 127.9 79.2 127.9"/>
        <polygon class="cls-1" points="68.03 123.41 69 120.99 80.17 125.48 79.19 127.9 68.03 123.41 68.03 123.41"/>
        <polygon class="cls-1" points="38.42 111.52 39.4 109.1 51.25 113.86 50.27 116.29 38.42 111.52 38.42 111.52"/>
        <polygon class="cls-1" points="27.04 106.95 28.02 104.53 39.4 109.1 38.42 111.52 27.04 106.95 27.04 106.95"/>
        <polygon class="cls-1" points="120.1 151.68 120.65 149.13 134.33 152.08 133.79 154.63 120.1 151.68 120.1 151.68"/>
        <polygon class="cls-1" points="112.84 150.12 113.39 147.56 120.65 149.13 120.1 151.67 112.84 150.12 112.84 150.12"/>
        <polygon class="cls-1" points="92.25 145.67 92.79 143.12 113.39 147.56 112.84 150.12 92.25 145.67 92.25 145.67"/>
        <polygon class="cls-1" points="63.34 139.45 63.89 136.9 75.65 139.43 75.11 141.99 63.34 139.45 63.34 139.45"/>
        <polygon class="cls-1" points="44.65 135.43 45.2 132.87 63.89 136.9 63.34 139.45 44.65 135.43 44.65 135.43"/>
        <polygon class="cls-1" points="20.16 130.14 20.72 127.59 32.71 130.17 32.16 132.73 20.16 130.14 20.16 130.14"/>
        <polygon class="cls-1" points="2.2 126.27 2.75 123.73 20.72 127.59 20.16 130.14 2.2 126.27 2.2 126.27"/>
        <polygon class="cls-1" points="112.02 158.19 112.13 155.58 119.57 155.9 119.46 158.5 112.02 158.19 112.02 158.19"/>
        <polygon class="cls-1" points="73.46 156.55 73.57 153.95 91.08 154.69 90.98 157.29 73.46 156.55 73.46 156.55"/>
        <polygon class="cls-1" points="61.44 156.04 61.55 153.44 73.57 153.95 73.46 156.55 61.44 156.04 61.44 156.04"/>
        <polygon class="cls-1" points="42.33 155.24 42.44 152.62 61.55 153.44 61.44 156.04 42.33 155.24 42.33 155.24"/>
        <polygon class="cls-1" points="17.31 154.17 17.43 151.57 29.68 152.08 29.58 154.69 17.31 154.17 17.31 154.17"/>
        <polygon class="cls-1" points="134.87 160.81 140.76 160.05 141.1 162.64 135.2 163.4 134.87 160.81 134.87 160.81"/>
        <polygon class="cls-1" points="91.36 166.38 112.25 163.7 112.59 166.29 91.7 168.97 91.36 166.38 91.36 166.38"/>
        <polygon class="cls-1" points="73.98 168.61 91.36 166.38 91.7 168.97 74.32 171.19 73.98 168.61 73.98 168.61"/>
        <polygon class="cls-1" points="62.04 170.13 73.98 168.61 74.32 171.19 62.37 172.72 62.04 170.13 62.04 170.13"/>
        <polygon class="cls-1" points="0 178.08 18.23 175.74 18.56 178.33 .33 180.67 0 178.08 0 178.08"/>
        <polygon class="cls-1" points="120.86 169.5 131.89 166.13 132.65 168.63 121.62 172 120.86 169.5 120.86 169.5"/>
        <polygon class="cls-1" points="113.75 171.68 120.86 169.5 121.62 172 114.52 174.17 113.75 171.68 113.75 171.68"/>
        <polygon class="cls-1" points="93.61 177.84 113.75 171.68 114.52 174.17 94.38 180.35 93.61 177.84 93.61 177.84"/>
        <polygon class="cls-1" points="65.34 186.51 76.85 182.98 77.62 185.48 66.11 189 65.34 186.51 65.34 186.51"/>
        <polygon class="cls-1" points="47.06 192.1 65.34 186.51 66.11 189 47.82 194.6 47.06 192.1 47.06 192.1"/>
        <polygon class="cls-1" points="34.83 195.85 47.06 192.1 47.82 194.6 35.61 198.34 34.83 195.85 34.83 195.85"/>
        <polygon class="cls-1" points="5.53 204.82 23.11 199.44 23.88 201.94 6.31 207.32 5.53 204.82 5.53 204.82"/>
        <polygon class="cls-1" points="136.95 169.01 142.23 166.36 143.41 168.68 138.13 171.34 136.95 169.01 136.95 169.01"/>
        <polygon class="cls-1" points="116.57 179.29 123.21 175.94 124.38 178.27 117.75 181.62 116.57 179.29 116.57 179.29"/>
        <polygon class="cls-1" points="82.11 196.67 97.77 188.77 98.93 191.11 83.29 198.99 82.11 196.67 82.11 196.67"/>
        <polygon class="cls-1" points="71.37 202.08 82.11 196.67 83.29 198.99 72.54 204.42 71.37 202.08 71.37 202.08"/>
        <polygon class="cls-1" points="42.88 216.44 54.29 210.7 55.47 213.02 44.06 218.78 42.88 216.44 42.88 216.44"/>
        <polygon class="cls-1" points="31.92 221.97 42.88 216.44 44.05 218.78 33.1 224.3 31.92 221.97 31.92 221.97"/>
        <polygon class="cls-1" points="120.64 186.31 126.62 181.89 128.17 184 122.18 188.42 120.64 186.31 120.64 186.31"/>
        <polygon class="cls-1" points="103.7 198.85 120.64 186.31 122.18 188.42 105.26 200.94 103.7 198.85 103.7 198.85"/>
        <polygon class="cls-1" points="89.61 209.27 103.7 198.85 105.26 200.95 91.16 211.37 89.61 209.27 89.61 209.27"/>
        <polygon class="cls-1" points="64.56 227.8 79.93 216.43 81.48 218.53 66.11 229.89 64.56 227.8 64.56 227.8"/>
        <polygon class="cls-1" points="54.28 235.39 64.56 227.8 66.11 229.89 55.84 237.49 54.28 235.39 54.28 235.39"/>
        <polygon class="cls-1" points="137.99 179.88 141.83 175.86 143.72 177.67 139.87 181.68 137.99 179.88 137.99 179.88"/>
        <polygon class="cls-1" points="130.97 187.19 134.46 183.56 136.34 185.37 132.86 188.99 130.97 187.19 130.97 187.19"/>
        <polygon class="cls-1" points="111.26 207.76 125.83 192.56 127.71 194.36 113.14 209.58 111.26 207.76 111.26 207.76"/>
        <polygon class="cls-1" points="90.8 229.12 99.13 220.42 101.01 222.23 92.69 230.91 90.8 229.12 90.8 229.12"/>
        <polygon class="cls-1" points="68.73 252.14 77.57 242.92 79.45 244.73 70.62 253.94 68.73 252.14 68.73 252.14"/>
        <polygon class="cls-1" points="60.24 261 68.73 252.14 70.62 253.94 62.13 262.8 60.24 261 60.24 261"/>
        <polygon class="cls-1" points="144.8 178.91 148.1 174.01 150.26 175.47 146.96 180.36 144.8 178.91 144.8 178.91"/>
        <polygon class="cls-1" points="138.23 188.63 141.69 183.51 143.85 184.97 140.4 190.08 138.23 188.63 138.23 188.63"/>
        <polygon class="cls-1" points="120.21 215.28 132.01 197.83 134.17 199.29 122.37 216.74 120.21 215.28 120.21 215.28"/>
        <polygon class="cls-1" points="110.39 229.81 120.21 215.28 122.37 216.74 112.56 231.27 110.39 229.81 110.39 229.81"/>
        <polygon class="cls-1" points="92.95 255.62 103.66 239.77 105.82 241.23 95.12 257.08 92.95 255.62 92.95 255.62"/>
        <polygon class="cls-1" points="85.8 266.2 92.95 255.62 95.12 257.08 87.97 267.66 85.8 266.2 85.8 266.2"/>
        <polygon class="cls-1" points="68.63 291.6 78.93 276.36 81.09 277.83 70.8 293.06 68.63 291.6 68.63 291.6"/>
        <polygon class="cls-1" points="138.98 201.98 142.04 195.2 144.42 196.28 141.37 203.06 138.98 201.98 138.98 201.98"/>
        <polygon class="cls-1" points="123.09 237.15 130.31 221.18 132.68 222.25 125.47 238.22 123.09 237.15 123.09 237.15"/>
        <polygon class="cls-1" points="118.13 248.11 123.09 237.15 125.47 238.22 120.5 249.19 118.13 248.11 118.13 248.11"/>
        <polygon class="cls-1" points="104.99 277.18 110.25 265.54 112.63 266.62 107.38 278.25 104.99 277.18 104.99 277.18"/>
        <polygon class="cls-1" points="99.95 288.35 104.99 277.18 107.38 278.25 102.32 289.43 99.95 288.35 99.95 288.35"/>
        <polygon class="cls-1" points="92.37 305.1 99.95 288.35 102.32 289.43 94.75 306.19 92.37 305.1 92.37 305.1"/>
        <polygon class="cls-1" points="148.43 197.7 153.8 177.08 156.33 177.73 150.97 198.35 148.43 197.7 148.43 197.7"/>
        <polygon class="cls-1" points="146.56 204.89 148.43 197.69 150.97 198.35 149.09 205.55 146.56 204.89 146.56 204.89"/>
        <polygon class="cls-1" points="141.25 225.27 146.56 204.89 149.09 205.55 143.78 225.94 141.25 225.27 141.25 225.27"/>
        <polygon class="cls-1" points="136.83 242.24 141.25 225.27 143.78 225.94 139.36 242.9 136.83 242.24 136.83 242.24"/>
        <polygon class="cls-1" points="128.98 272.39 133.8 253.89 136.33 254.55 131.51 273.05 128.98 272.39 128.98 272.39"/>
        <polygon class="cls-1" points="125.77 284.75 128.98 272.39 131.51 273.05 128.29 285.42 125.77 284.75 125.77 284.75"/>
        <polygon class="cls-1" points="154.52 206.49 155.15 199.07 157.75 199.29 157.12 206.7 154.52 206.49 154.52 206.49"/>
        <polygon class="cls-1" points="152.73 227.48 154.52 206.48 157.13 206.7 155.34 227.68 152.73 227.48 152.73 227.48"/>
        <polygon class="cls-1" points="151.25 244.94 152.73 227.48 155.34 227.69 153.85 245.15 151.25 244.94 151.25 244.94"/>
        <polygon class="cls-1" points="150.23 256.92 151.25 244.94 153.85 245.15 152.83 257.14 150.23 256.92 150.23 256.92"/>
        <polygon class="cls-1" points="148.61 275.98 150.23 256.92 152.83 257.14 151.21 276.2 148.61 275.98 148.61 275.98"/>
        <polygon class="cls-1" points="146.48 300.93 147.52 288.71 150.12 288.93 149.08 301.16 146.48 300.93 146.48 300.93"/>
        <polygon class="cls-1" points="144.92 319.25 146.48 300.93 149.08 301.16 147.52 319.47 144.92 319.25 144.92 319.25"/>
        <polygon class="cls-1" points="162 199.29 164.61 199.07 165.24 206.49 162.64 206.7 162 199.29 162 199.29"/>
        <polygon class="cls-1" points="162.64 206.7 165.24 206.48 167.03 227.48 164.42 227.68 162.64 206.7 162.64 206.7"/>
        <polygon class="cls-1" points="168.56 276.2 171.15 275.98 172.24 288.71 169.63 288.93 168.56 276.2 168.56 276.2"/>
        <polygon class="cls-1" points="169.63 288.93 172.24 288.71 173.27 300.93 170.67 301.16 169.63 288.93 169.63 288.93"/>
        <polygon class="cls-1" points="170.67 301.16 173.27 300.93 174.84 319.25 172.24 319.47 170.67 301.16 170.67 301.16"/>
        <polygon class="cls-1" points="163.43 177.73 165.96 177.08 171.33 197.69 168.8 198.35 163.43 177.73 163.43 177.73"/>
        <polygon class="cls-1" points="168.8 198.35 171.33 197.69 173.2 204.89 170.67 205.55 168.8 198.35 168.8 198.35"/>
        <polygon class="cls-1" points="170.67 205.55 173.2 204.88 178.51 225.27 175.98 225.94 170.67 205.55 170.67 205.55"/>
        <polygon class="cls-1" points="175.98 225.94 178.51 225.27 182.92 242.24 180.39 242.9 175.98 225.94 175.98 225.94"/>
        <polygon class="cls-1" points="183.43 254.55 185.96 253.89 190.77 272.39 188.25 273.05 183.43 254.55 183.43 254.55"/>
        <polygon class="cls-1" points="188.25 273.05 190.77 272.39 193.99 284.75 191.47 285.42 188.25 273.05 188.25 273.05"/>
        <polygon class="cls-1" points="191.47 285.42 193.99 284.75 197.08 296.62 194.56 297.29 191.47 285.42 191.47 285.42"/>
        <polygon class="cls-1" points="166.56 176.87 168.93 175.79 177.71 195.2 175.34 196.28 166.56 176.87 166.56 176.87"/>
        <polygon class="cls-1" points="175.34 196.28 177.71 195.2 180.78 201.98 178.41 203.06 175.34 196.28 175.34 196.28"/>
        <polygon class="cls-1" points="178.4 203.06 180.78 201.98 189.45 221.18 187.07 222.25 178.4 203.06 178.4 203.06"/>
        <polygon class="cls-1" points="187.07 222.25 189.45 221.18 196.67 237.15 194.29 238.22 187.07 222.25 187.07 222.25"/>
        <polygon class="cls-1" points="194.29 238.22 196.67 237.15 201.63 248.11 199.25 249.19 194.29 238.22 194.29 238.22"/>
        <polygon class="cls-1" points="199.25 249.18 201.63 248.11 209.5 265.54 207.13 266.62 199.25 249.18 199.25 249.18"/>
        <polygon class="cls-1" points="212.39 278.25 214.77 277.18 219.82 288.35 217.44 289.43 212.39 278.25 212.39 278.25"/>
        <polygon class="cls-1" points="217.44 289.43 219.82 288.35 227.4 305.1 225.01 306.19 217.44 289.43 217.44 289.43"/>
        <polygon class="cls-1" points="181.43 193.13 183.59 191.66 187.75 197.83 185.59 199.29 181.43 193.13 181.43 193.13"/>
        <polygon class="cls-1" points="197.38 216.74 199.55 215.28 209.38 229.81 207.2 231.27 197.38 216.74 197.38 216.74"/>
        <polygon class="cls-1" points="213.94 241.23 216.1 239.77 226.81 255.62 224.65 257.08 213.94 241.23 213.94 241.23"/>
        <polygon class="cls-1" points="224.65 257.08 226.81 255.62 233.97 266.2 231.8 267.66 224.65 257.08 224.65 257.08"/>
        <polygon class="cls-1" points="231.8 267.66 233.97 266.2 240.84 276.36 238.67 277.83 231.8 267.66 231.8 267.66"/>
        <polygon class="cls-1" points="172.15 173.61 174.04 171.81 188.79 187.19 186.9 188.99 172.15 173.61 172.15 173.61"/>
        <polygon class="cls-1" points="192.05 194.36 193.92 192.56 208.5 207.76 206.61 209.58 192.05 194.36 192.05 194.36"/>
        <polygon class="cls-1" points="206.61 209.58 208.5 207.76 220.63 220.42 218.75 222.23 206.61 209.58 206.61 209.58"/>
        <polygon class="cls-1" points="218.75 222.23 220.63 220.42 228.96 229.12 227.07 230.91 218.75 222.23 218.75 222.23"/>
        <polygon class="cls-1" points="240.3 244.73 242.19 242.92 251.03 252.14 249.15 253.94 240.3 244.73 240.3 244.73"/>
        <polygon class="cls-1" points="249.15 253.94 251.03 252.14 259.53 261 257.64 262.8 249.15 253.94 249.15 253.94"/>
        <polygon class="cls-1" points="191.6 184 193.15 181.89 199.12 186.31 197.58 188.42 191.6 184 191.6 184"/>
        <polygon class="cls-1" points="197.57 188.42 199.12 186.31 216.06 198.85 214.51 200.94 197.57 188.42 197.57 188.42"/>
        <polygon class="cls-1" points="214.51 200.95 216.07 198.85 230.15 209.26 228.59 211.37 214.51 200.95 214.51 200.95"/>
        <polygon class="cls-1" points="238.28 218.53 239.83 216.43 255.2 227.8 253.65 229.89 238.28 218.53 238.28 218.53"/>
        <polygon class="cls-1" points="253.65 229.89 255.2 227.8 265.47 235.39 263.92 237.49 253.65 229.89 253.65 229.89"/>
        <polygon class="cls-1" points="273.78 244.79 275.34 242.69 290.12 253.61 288.56 255.71 273.78 244.79 273.78 244.79"/>
        <polygon class="cls-1" points="176.35 168.68 177.52 166.36 196.55 175.94 195.37 178.27 176.35 168.68 176.35 168.68"/>
        <polygon class="cls-1" points="202.01 181.62 203.19 179.29 222 188.77 220.83 191.11 202.01 181.62 202.01 181.62"/>
        <polygon class="cls-1" points="220.83 191.11 222 188.77 237.64 196.67 236.48 198.99 220.83 191.11 220.83 191.11"/>
        <polygon class="cls-1" points="236.48 198.99 237.64 196.67 248.39 202.08 247.22 204.42 236.48 198.99 236.48 198.99"/>
        <polygon class="cls-1" points="264.3 213.02 265.47 210.7 276.87 216.44 275.71 218.78 264.3 213.02 264.3 213.02"/>
        <polygon class="cls-1" points="275.71 218.77 276.87 216.44 287.84 221.97 286.66 224.3 275.71 218.77 275.71 218.77"/>
        <polygon class="cls-1" points="286.66 224.3 287.84 221.97 304.25 230.24 303.07 232.57 286.66 224.3 286.66 224.3"/>
        <polygon class="cls-1" points="177.76 165.76 178.53 163.27 198.9 169.5 198.14 172 177.76 165.76 177.76 165.76"/>
        <polygon class="cls-1" points="198.14 172 198.9 169.5 206.01 171.68 205.25 174.17 198.14 172 198.14 172"/>
        <polygon class="cls-1" points="205.25 174.17 206.01 171.68 226.15 177.84 225.38 180.35 205.25 174.17 205.25 174.17"/>
        <polygon class="cls-1" points="242.14 185.47 242.92 182.98 254.41 186.51 253.65 189 242.14 185.47 242.14 185.47"/>
        <polygon class="cls-1" points="253.65 189 254.41 186.51 272.7 192.1 271.94 194.6 253.65 189 253.65 189"/>
        <polygon class="cls-1" points="295.88 201.94 296.65 199.44 314.23 204.82 313.46 207.32 295.88 201.94 295.88 201.94"/>
        <polygon class="cls-1" points="199.79 165.34 200.13 162.76 207.5 163.7 207.17 166.29 199.79 165.34 199.79 165.34"/>
        <polygon class="cls-1" points="207.17 166.29 207.5 163.7 228.4 166.38 228.07 168.97 207.17 166.29 207.17 166.29"/>
        <polygon class="cls-1" points="245.45 171.19 245.79 168.6 257.72 170.13 257.39 172.72 245.45 171.19 245.45 171.19"/>
        <polygon class="cls-1" points="257.39 172.72 257.72 170.13 276.69 172.57 276.36 175.16 257.39 172.72 257.39 172.72"/>
        <polygon class="cls-1" points="276.36 175.16 276.69 172.57 289.36 174.18 289.03 176.78 276.36 175.16 276.36 175.16"/>
        <polygon class="cls-1" points="289.03 176.78 289.36 174.18 301.53 175.74 301.2 178.33 289.03 176.78 289.03 176.78"/>
        <polygon class="cls-1" points="301.19 178.33 301.53 175.74 319.76 178.08 319.42 180.67 301.19 178.33 301.19 178.33"/>
        <polygon class="cls-1" points="178.91 156.81 200.2 155.9 200.31 158.5 179.02 159.41 178.91 156.81 178.91 156.81"/>
        <polygon class="cls-1" points="200.2 155.9 207.63 155.58 207.73 158.19 200.31 158.5 200.2 155.9 200.2 155.9"/>
        <polygon class="cls-1" points="207.63 155.58 228.67 154.69 228.78 157.29 207.73 158.19 207.63 155.58 207.63 155.58"/>
        <polygon class="cls-1" points="228.67 154.69 246.18 153.95 246.29 156.55 228.78 157.29 228.67 154.69 228.67 154.69"/>
        <polygon class="cls-1" points="246.19 153.95 258.21 153.44 258.32 156.04 246.29 156.55 246.19 153.95 246.19 153.95"/>
        <polygon class="cls-1" points="277.32 152.62 290.08 152.08 290.19 154.69 277.42 155.24 277.32 152.62 277.32 152.62"/>
        <polygon class="cls-1" points="290.08 152.08 302.34 151.57 302.45 154.17 290.19 154.69 290.08 152.08 290.08 152.08"/>
        <polygon class="cls-1" points="199.11 149.13 206.38 147.56 206.93 150.12 199.66 151.67 199.11 149.13 199.11 149.13"/>
        <polygon class="cls-1" points="226.97 143.12 244.11 139.43 244.66 141.98 227.52 145.67 226.97 143.12 226.97 143.12"/>
        <polygon class="cls-1" points="244.11 139.43 255.86 136.9 256.42 139.45 244.66 141.98 244.11 139.43 244.11 139.43"/>
        <polygon class="cls-1" points="255.86 136.9 274.56 132.87 275.11 135.43 256.42 139.45 255.86 136.9 255.86 136.9"/>
        <polygon class="cls-1" points="274.56 132.87 287.05 130.17 287.59 132.73 275.12 135.43 274.56 132.87 274.56 132.87"/>
        <polygon class="cls-1" points="287.05 130.17 299.04 127.59 299.59 130.14 287.59 132.73 287.05 130.17 287.05 130.17"/>
        <polygon class="cls-1" points="299.04 127.59 317.01 123.73 317.56 126.27 299.59 130.14 299.04 127.59 299.04 127.59"/>
        <polygon class="cls-1" points="177.12 150.59 196.89 142.63 197.86 145.06 178.09 153.02 177.12 150.59 177.12 150.59"/>
        <polygon class="cls-1" points="196.89 142.63 203.79 139.87 204.76 142.29 197.86 145.06 196.89 142.63 196.89 142.63"/>
        <polygon class="cls-1" points="203.79 139.88 223.33 132.02 224.31 134.44 204.76 142.29 203.79 139.88 203.79 139.88"/>
        <polygon class="cls-1" points="239.6 125.48 250.76 120.99 251.74 123.41 240.57 127.9 239.6 125.48 239.6 125.48"/>
        <polygon class="cls-1" points="250.76 120.99 268.51 113.86 269.48 116.29 251.74 123.41 250.76 120.99 250.76 120.99"/>
        <polygon class="cls-1" points="268.51 113.86 280.37 109.1 281.34 111.52 269.48 116.29 268.51 113.86 268.51 113.86"/>
        <polygon class="cls-1" points="291.75 104.53 308.79 97.68 309.77 100.09 292.72 106.95 291.75 104.53 291.75 104.53"/>
        <polygon class="cls-1" points="193.61 136.62 199.94 132.72 201.3 134.95 194.98 138.84 193.61 136.62 193.61 136.62"/>
        <polygon class="cls-1" points="199.94 132.72 217.88 121.68 219.24 123.9 201.3 134.94 199.94 132.72 199.94 132.72"/>
        <polygon class="cls-1" points="217.88 121.68 232.81 112.48 234.17 114.71 219.24 123.9 217.88 121.68 217.88 121.68"/>
        <polygon class="cls-1" points="232.81 112.48 243.05 106.18 244.42 108.4 234.17 114.71 232.81 112.48 232.81 112.48"/>
        <polygon class="cls-1" points="243.04 106.18 259.33 96.15 260.71 98.38 244.42 108.4 243.04 106.18 243.04 106.18"/>
        <polygon class="cls-1" points="259.33 96.15 270.21 89.46 271.58 91.68 260.71 98.38 259.33 96.15 259.33 96.15"/>
        <polygon class="cls-1" points="270.21 89.46 280.66 83.02 282.03 85.24 271.58 91.68 270.21 89.46 270.21 89.46"/>
        <polygon class="cls-1" points="189.35 131.25 194.93 126.33 196.66 128.3 191.08 133.2 189.35 131.25 189.35 131.25"/>
        <polygon class="cls-1" points="194.93 126.33 210.75 112.41 212.47 114.38 196.66 128.3 194.93 126.33 194.93 126.33"/>
        <polygon class="cls-1" points="210.75 112.41 223.9 100.83 225.62 102.8 212.46 114.38 210.75 112.41 210.75 112.41"/>
        <polygon class="cls-1" points="223.9 100.83 232.94 92.88 234.66 94.84 225.63 102.8 223.9 100.83 223.9 100.83"/>
        <polygon class="cls-1" points="232.94 92.88 247.3 80.25 249.02 82.21 234.66 94.84 232.94 92.88 232.94 92.88"/>
        <polygon class="cls-1" points="247.3 80.25 256.88 71.81 258.61 73.76 249.02 82.21 247.3 80.25 247.3 80.25"/>
        <polygon class="cls-1" points="256.88 71.81 266.09 63.7 267.82 65.66 258.61 73.76 256.88 71.81 256.88 71.81"/>
        <polygon class="cls-1" points="170.87 143.24 184.25 126.66 186.28 128.3 172.9 144.88 170.87 143.24 170.87 143.24"/>
        <polygon class="cls-1" points="184.25 126.66 188.93 120.88 190.96 122.52 186.28 128.3 184.25 126.66 184.25 126.66"/>
        <polygon class="cls-1" points="188.92 120.88 202.16 104.49 204.19 106.13 190.95 122.51 188.92 120.88 188.92 120.88"/>
        <polygon class="cls-1" points="213.17 90.85 220.72 81.48 222.75 83.12 215.19 92.48 213.17 90.85 213.17 90.85"/>
        <polygon class="cls-1" points="248.47 47.12 260.02 32.82 262.04 34.46 250.5 48.75 248.47 47.12 248.47 47.12"/>
        <polygon class="cls-1" points="168.06 141.6 178.45 123 180.72 124.27 170.33 142.88 168.06 141.6 168.06 141.6"/>
        <polygon class="cls-1" points="178.45 123 182.07 116.52 184.36 117.79 180.72 124.27 178.45 123 178.45 123"/>
        <polygon class="cls-1" points="192.35 98.13 200.89 82.82 203.18 84.09 194.63 99.4 192.35 98.13 192.35 98.13"/>
        <polygon class="cls-1" points="200.89 82.82 206.76 72.32 209.04 73.6 203.18 84.09 200.89 82.82 200.89 82.82"/>
        <polygon class="cls-1" points="206.76 72.32 216.09 55.62 218.38 56.89 209.04 73.6 206.76 72.32 206.76 72.32"/>
        <polygon class="cls-1" points="216.09 55.62 222.32 44.47 224.6 45.75 218.38 56.89 216.09 55.62 216.09 55.62"/>
        <polygon class="cls-1" points="222.33 44.47 228.31 33.75 230.58 35.03 224.6 45.75 222.33 44.47 222.33 44.47"/>
        <polygon class="cls-1" points="172.11 120.38 174.59 113.37 177.06 114.25 174.57 121.25 172.11 120.38 172.11 120.38"/>
        <polygon class="cls-1" points="174.59 113.37 181.6 93.51 184.07 94.38 177.06 114.25 174.59 113.37 174.59 113.37"/>
        <polygon class="cls-1" points="187.45 76.98 191.45 65.64 193.92 66.51 189.91 77.85 187.45 76.98 187.45 76.98"/>
        <polygon class="cls-1" points="191.45 65.64 197.83 47.61 200.29 48.47 193.92 66.51 191.45 65.64 191.45 65.64"/>
        <polygon class="cls-1" points="197.83 47.61 202.08 35.56 204.54 36.43 200.29 48.47 197.83 47.61 197.83 47.61"/>
        <polygon class="cls-1" points="161.82 139.88 163.6 129.52 166.17 129.96 164.4 140.31 161.82 139.88 161.82 139.88"/>
        <polygon class="cls-1" points="165.42 118.87 166.68 111.54 169.25 111.99 167.99 119.31 165.42 118.87 165.42 118.87"/>
        <polygon class="cls-1" points="170.24 90.78 173.2 73.5 175.78 73.95 172.81 91.22 170.24 90.78 170.24 90.78"/>
        <polygon class="cls-1" points="173.2 73.5 175.24 61.65 177.81 62.08 175.78 73.95 173.2 73.5 173.2 73.5"/>
        <polygon class="cls-1" points="178.46 42.79 180.63 30.2 183.2 30.64 181.04 43.23 178.46 42.79 178.46 42.79"/>
        <polygon class="cls-1" points="182.71 18.11 185.8 0 188.38 .44 185.27 18.56 182.71 18.11 182.71 18.11"/>
      </g>
    </g>
  </g>
</svg>