<?xml version="1.0" encoding="UTF-8"?>
<svg id="Layer_2" data-name="Layer 2" xmlns="http://www.w3.org/2000/svg" viewBox="0 0 506.69 506.69">
  <defs>
    <style>
      .cls-1 {
        fill: #bfb47b;
      }
    </style>
  </defs>
  <g id="Layer_1-2" data-name="Layer 1">
    <g>
      <path class="cls-1" d="M371.26,302.18l-74.75-37.94c.18-.72.38-1.44.53-2.17l209.65-8.71-209.65-8.74c-.15-.73-.35-1.44-.55-2.17l74.77-37.95-79.68,26.03c-.43-.69-.82-1.41-1.28-2.1l80.61-92.64-92.63,80.61c-.68-.46-1.4-.87-2.12-1.28l26.03-79.68-37.92,74.74c-.72-.18-1.45-.38-2.18-.53L253.35,0l-8.73,209.65c-.74.15-1.46.34-2.18.53l-37.93-74.74,26.03,79.68c-.7.41-1.43.82-2.12,1.28l-92.61-80.61,80.59,92.64c-.46.68-.86,1.4-1.28,2.1l-79.68-26.03,74.75,37.94c-.18.72-.38,1.44-.53,2.17L0,253.34l209.65,8.72c.14.74.35,1.45.53,2.17l-74.74,37.94,79.67-26.03c.43.71.84,1.44,1.3,2.12l-80.6,92.63,92.63-80.61c.69.46,1.4.86,2.1,1.27l-26.03,79.68,37.95-74.76c.72.19,1.42.39,2.15.54l8.72,209.66,8.75-209.66c.74-.14,1.45-.34,2.17-.54l37.95,74.76-26.03-79.69c.71-.43,1.43-.83,2.11-1.28l92.63,80.62-80.61-92.66c.46-.67.86-1.4,1.28-2.1l79.68,26.03ZM286.28,281.85l29.61,34.04-34.02-29.62-3.12-2.73-3.44,2.33c-.48.32-1.01.62-1.52.91l-3.78,2.2,1.07,4.32,4.27,13.09-6.23-12.28-1.97-3.86-4.66,1.22c-.43.09-.86.21-1.33.29l-4.25.79-.18,4.32-3.35,80.04-3.32-80.04-.18-4.28-4.21-.79c-.45-.11-.89-.2-1.33-.32l-4.2-1.09-2.47,3.73-6.22,12.28,4.27-13.09,1.34-4.17-4.18-2.44c-.48-.25-.93-.51-1.37-.81l-3.43-2.32-3.13,2.72-34.07,29.66,29.65-34.08,2.73-3.12-2.33-3.44c-.31-.47-.62-1-.92-1.51l-2.19-3.78-4.33,1.07-13.09,4.27,12.28-6.22,3.83-1.97-1.04-4.16-.18-.71-.31-1.29-.89-4.07-4.17-.17-80.15-3.35,80.17-3.33,4.29-.19.79-4.2c.12-.55.26-1.07.4-1.59l1.15-4.25-3.85-2.15-12.16-6.18,12.95,4.23,4.17,1.35,2.39-4.14c.25-.44.52-.91.81-1.32l2.46-3.48-2.79-3.19-29.61-34.03,34.02,29.6,3.08,2.69,3.41-2.26c.62-.4,1.25-.75,1.89-1.12l3.75-2.2-1.34-4.15-4.25-12.98,6.19,12.17,1.96,3.84,4.81-1.21c.41-.09.81-.2,1.24-.29l4.21-.79.18-4.3,3.35-80.16,3.34,80.16.18,4.3,4.21.79c.54.12,1.07.24,1.6.39l4.25,1.15,2.15-3.86,6.17-12.16-4.23,12.95-1.35,4.15,4.05,2.37c.51.3,1.04.6,1.52.91l3.44,2.32,3.12-2.73,34.02-29.6-29.61,34.03-2.79,3.19,2.45,3.48c.29.4.55.88.81,1.32l2.2,3.79,4.37-1,12.94-4.23-12.16,6.18-3.9,1.98,1.2,4.45c.15.55.31,1.09.43,1.68l.85,4.1,4.22.17,80,3.35-80,3.32-4.17.17-.89,4.07-.32,1.29-.18.71-1.04,4.16,3.83,1.97,12.28,6.22-13.08-4.27-4.17-1.35-2.4,4.14c-.25.45-.52.9-.81,1.31l-2.45,3.49,2.79,3.18Z"/>
      <path class="cls-1" d="M292.58,253.34c-29.24,0-39.24-10-39.24-39.24,0,29.24-10,39.24-39.24,39.24,29.24,0,39.24,10.01,39.24,39.24,0-29.22,10.01-39.24,39.24-39.24Z"/>
      <path class="cls-1" d="M231.93,128.22c.35,1.81-.81,3.57-2.62,3.92-1.81.37-3.57-.82-3.92-2.62-.36-1.81.8-3.58,2.62-3.93,1.81-.35,3.57.82,3.92,2.63Z"/>
      <path class="cls-1" d="M185.68,145.94c1.02,1.52.62,3.6-.91,4.62-1.54,1.03-3.61.6-4.62-.92-1.03-1.54-.63-3.61.9-4.63,1.54-1.03,3.61-.6,4.63.93Z"/>
      <path class="cls-1" d="M149.73,180c1.53,1.03,1.95,3.11.91,4.63-1.02,1.54-3.08,1.94-4.61.92-1.54-1.02-1.96-3.09-.93-4.62,1.02-1.54,3.09-1.95,4.63-.93Z"/>
      <path class="cls-1" d="M129.54,225.25c1.81.36,2.99,2.11,2.62,3.92-.35,1.82-2.11,2.98-3.91,2.61-1.82-.35-3-2.1-2.62-3.9.35-1.81,2.11-2.99,3.91-2.63Z"/>
      <path class="cls-1" d="M128.22,274.77c1.81-.37,3.57.8,3.92,2.61.37,1.81-.81,3.55-2.62,3.91-1.81.37-3.57-.8-3.92-2.6-.37-1.82.82-3.57,2.62-3.91Z"/>
      <path class="cls-1" d="M145.93,321.02c1.54-1.04,3.63-.62,4.63.91,1.04,1.54.62,3.6-.91,4.62-1.53,1.03-3.6.61-4.61-.91-1.03-1.54-.62-3.61.9-4.62Z"/>
      <path class="cls-1" d="M180.01,356.97c1.03-1.56,3.11-1.96,4.61-.92,1.55,1.03,1.94,3.08.93,4.62-1.03,1.53-3.09,1.95-4.61.92-1.55-1.02-1.96-3.1-.94-4.62Z"/>
      <path class="cls-1" d="M225.25,377.15c.35-1.84,2.12-3,3.92-2.63,1.81.36,2.97,2.12,2.62,3.92-.35,1.81-2.11,2.98-3.9,2.61-1.83-.34-3-2.11-2.64-3.9Z"/>
      <path class="cls-1" d="M274.77,378.48c-.37-1.83.81-3.59,2.62-3.92,1.81-.37,3.55.8,3.91,2.6.36,1.83-.81,3.56-2.61,3.92-1.81.37-3.57-.8-3.93-2.6Z"/>
      <path class="cls-1" d="M321.02,360.77c-1.04-1.55-.62-3.64.92-4.64,1.55-1.04,3.6-.61,4.62.91,1.03,1.54.62,3.6-.91,4.62-1.54,1.03-3.62.63-4.63-.89Z"/>
      <path class="cls-1" d="M356.97,326.69c-1.55-1.03-1.97-3.12-.92-4.63,1.03-1.55,3.08-1.95,4.61-.92,1.55,1.03,1.96,3.09.93,4.6-1.03,1.56-3.1,1.97-4.62.96Z"/>
      <path class="cls-1" d="M377.16,281.44c-1.84-.36-3.02-2.13-2.63-3.91.35-1.84,2.11-2.98,3.91-2.63,1.83.36,2.99,2.09,2.62,3.89-.35,1.83-2.11,3.01-3.9,2.65Z"/>
      <path class="cls-1" d="M378.49,231.92c-1.84.37-3.61-.8-3.93-2.62-.38-1.83.79-3.56,2.61-3.91,1.82-.36,3.55.79,3.91,2.59.38,1.83-.8,3.59-2.59,3.94Z"/>
      <path class="cls-1" d="M360.77,185.66c-1.55,1.04-3.64.63-4.63-.91-1.05-1.56-.62-3.6.91-4.62,1.54-1.03,3.59-.63,4.61.9,1.04,1.54.62,3.63-.89,4.63Z"/>
      <path class="cls-1" d="M326.7,149.71c-1.04,1.55-3.12,1.97-4.63.92-1.56-1.03-1.96-3.08-.93-4.61,1.03-1.55,3.08-1.95,4.6-.93,1.56,1.03,1.97,3.12.96,4.62Z"/>
      <path class="cls-1" d="M281.44,129.53c-.35,1.83-2.1,3.02-3.91,2.62-1.84-.35-3-2.09-2.62-3.9.35-1.81,2.08-2.99,3.88-2.64,1.84.36,3.02,2.14,2.64,3.92Z"/>
    </g>
  </g>
</svg>