<?xml version="1.0" encoding="UTF-8"?>
<svg id="Layer_2" data-name="Layer 2" xmlns="http://www.w3.org/2000/svg" viewBox="0 0 405.19 405.19">
  <defs>
    <style>
      .cls-1 {
        fill: #bfb47b;
      }
    </style>
  </defs>
  <g id="Layer_1-2" data-name="Layer 1">
    <path class="cls-1" d="M274.4,186.28c-23.14-6.67-33.08-4.67-51.22,1.68-.24-.34-.46-.68-.73-1.02,47.07-53.8,134.63-3.64,182.74,15.68-51.94-22.6-136.58-73.52-190.28-22.11-.38-.21-.77-.38-1.14-.57,5.43-17.91,9.3-25.99,27.74-38.9-21.22,11.2-26.37,19.34-34.7,36.65-.46-.08-.91-.17-1.37-.22-2.52-27.24-2.93-40.57,28.06-68.87-34.84,27.09-36.35,41.47-37.68,69.66-.45.12-.89.29-1.33.44-8.83-16.5-12.28-25.27-8.22-47.89-6.66,23.14-4.64,33.09,1.72,51.22-.35.25-.7.48-1.03.75-53.79-47.08-3.66-134.63,15.65-182.75-22.59,51.94-73.52,136.6-22.08,190.28-.21.37-.38.77-.57,1.16-17.91-5.42-25.99-9.31-38.89-27.74,11.19,21.21,19.32,26.34,36.64,34.67-.07.47-.16.93-.22,1.4-27.23,2.51-40.58,2.92-68.88-28.07,27.11,34.84,41.48,36.36,69.65,37.69.12.45.29.89.44,1.33-16.5,8.84-25.3,12.26-47.93,8.19,23.14,6.66,33.11,4.66,51.25-1.7.25.35.49.69.75,1.03-47.08,53.8-134.65,3.66-182.77-15.66,52,22.62,136.56,73.48,190.31,22.08.37.21.74.38,1.12.56-5.42,17.91-9.3,25.98-27.74,38.88,21.22-11.18,26.37-19.32,34.7-36.64.46.08.92.18,1.39.24,2.51,27.23,2.91,40.57-28.07,68.88,34.83-27.11,36.35-41.49,37.69-69.67.45-.12.88-.28,1.32-.43,8.83,16.5,12.28,25.28,8.22,47.92,6.66-23.15,4.64-33.1-1.71-51.24.34-.24.69-.48,1.02-.74,53.78,47.11,3.65,134.61-15.67,182.75,22.59-51.93,73.53-136.6,22.11-190.29.21-.37.38-.76.57-1.14,17.9,5.42,25.99,9.29,38.89,27.74-11.18-21.24-19.31-26.37-36.62-34.71.07-.46.16-.92.21-1.39,27.24-2.51,40.59-2.9,68.89,28.09-27.1-34.84-41.49-36.37-69.67-37.7-.12-.45-.28-.89-.43-1.33,16.5-8.83,25.27-12.25,47.89-8.19Z"/>
  </g>
</svg>