<?xml version="1.0" encoding="UTF-8"?>
<svg id="Layer_2" data-name="Layer 2" xmlns="http://www.w3.org/2000/svg" viewBox="0 0 316.16 447.12">
  <defs>
    <style>
      .cls-1 {
        fill: #bfb47b;
      }
    </style>
  </defs>
  <g id="Layer_1-2" data-name="Layer 1">
    <g>
      <g>
        <g>
          <g>
            <polygon class="cls-1" points="158.08 447.12 163.42 352.25 158.08 352.25 152.74 352.25 158.08 447.12"/>
            <polygon class="cls-1" points="15.96 318.52 54.06 299.5 51.09 295.08 48.12 290.6 15.96 318.52"/>
            <polygon class="cls-1" points="0 381.65 70.85 318.34 67.08 314.56 63.3 310.77 0 381.65"/>
            <polygon class="cls-1" points="63.13 365.66 91.04 333.53 86.57 330.55 82.12 327.59 63.13 365.66"/>
            <polygon class="cls-1" points="78.17 416.48 113.78 344.5 108.83 342.47 103.89 340.41 78.17 416.48"/>
            <polygon class="cls-1" points="124.72 391.27 138.22 350.83 132.97 349.79 127.72 348.72 124.72 391.27"/>
          </g>
          <g>
            <polygon class="cls-1" points="191.42 391.28 188.43 348.72 183.18 349.79 177.93 350.83 191.42 391.28"/>
            <polygon class="cls-1" points="237.99 416.48 212.27 340.42 207.32 342.47 202.38 344.52 237.99 416.48"/>
            <polygon class="cls-1" points="253.05 365.69 234.02 327.59 229.57 330.56 225.13 333.53 253.05 365.69"/>
            <polygon class="cls-1" points="316.16 381.65 252.87 310.78 249.07 314.57 245.3 318.34 316.16 381.65"/>
            <polygon class="cls-1" points="300.2 318.52 268.06 290.62 265.09 295.08 262.12 299.51 300.2 318.52"/>
          </g>
        </g>
        <g>
          <g>
            <polygon class="cls-1" points="158.08 0 152.74 94.86 158.08 94.86 163.42 94.86 158.08 0"/>
            <polygon class="cls-1" points="15.96 128.6 48.12 156.52 51.09 152.06 54.06 147.61 15.96 128.6"/>
            <polygon class="cls-1" points="0 65.48 63.3 136.36 67.08 132.57 70.85 128.78 0 65.48"/>
            <polygon class="cls-1" points="63.13 81.45 82.12 119.54 86.57 116.56 91.04 113.59 63.13 81.45"/>
            <polygon class="cls-1" points="78.17 30.64 103.89 106.71 108.83 104.66 113.78 102.61 78.17 30.64"/>
            <polygon class="cls-1" points="124.72 55.85 127.72 98.39 132.97 97.34 138.22 96.3 124.72 55.85"/>
          </g>
          <g>
            <polygon class="cls-1" points="191.42 55.85 177.93 96.3 183.18 97.34 188.43 98.39 191.42 55.85"/>
            <polygon class="cls-1" points="237.99 30.64 202.38 102.61 207.32 104.66 212.27 106.71 237.99 30.64"/>
            <polygon class="cls-1" points="253.05 81.43 225.13 113.59 229.57 116.56 234.02 119.53 253.05 81.43"/>
            <polygon class="cls-1" points="316.16 65.47 245.3 128.78 249.07 132.56 252.87 136.34 316.16 65.47"/>
            <polygon class="cls-1" points="300.2 128.59 262.12 147.61 265.09 152.06 268.06 156.52 300.2 128.59"/>
          </g>
        </g>
      </g>
      <path class="cls-1" d="M189.75,244.09c18.46-14.48,45.93-20.53,84.96-20.53-39.06,0-66.53-6.05-84.99-20.54,5.27-12.98,15.4-26.51,30.47-41.59-15.07,15.09-28.61,25.23-41.58,30.48-14.49-18.46-20.53-45.93-20.53-84.96,0,39.03-6.02,66.53-20.52,84.96-12.99-5.25-26.51-15.39-41.58-30.48,15.07,15.09,25.2,28.61,30.46,41.59-18.46,14.49-45.94,20.54-84.99,20.54,39.05,0,66.52,6.05,84.96,20.53-5.24,12.99-15.37,26.51-30.44,41.59,15.07-15.08,28.59-25.21,41.58-30.46,14.52,18.46,20.53,45.93,20.53,84.96,0-39.03,6.04-66.5,20.55-84.96,12.98,5.25,26.49,15.38,41.56,30.44-15.07-15.06-25.2-28.59-30.45-41.57Z"/>
    </g>
  </g>
</svg>