<?xml version="1.0" encoding="UTF-8"?>
<svg id="Layer_2" data-name="Layer 2" xmlns="http://www.w3.org/2000/svg" viewBox="0 0 491.81 341.61">
  <defs>
    <style>
      .cls-1 {
        fill: #bfb47b;
      }
    </style>
  </defs>
  <g id="Layer_1-2" data-name="Layer 1">
    <g>
      <path class="cls-1" d="M326,17.06c4.93,10.96,7.73,23.08,7.73,35.88,0,48.5-39.31,87.81-87.81,87.81s-87.83-39.31-87.83-87.81c0-12.8,2.8-24.92,7.73-35.88-20.09,20.32-32.5,48.26-32.5,79.1,0,62.19,50.42,112.6,112.61,112.6s112.59-50.41,112.59-112.6c0-30.84-12.42-58.78-32.51-79.1Z"/>
      <g>
        <polygon class="cls-1" points="0 95.71 104.36 100.98 104.36 95.71 104.36 90.45 0 95.71"/>
        <g>
          <polygon class="cls-1" points="245.9 341.61 251.18 237.27 245.9 237.27 240.65 237.27 245.9 341.61"/>
          <polygon class="cls-1" points="61.43 132.4 108.11 128.47 107.09 123.31 106.05 118.15 61.43 132.4"/>
          <polygon class="cls-1" points="33.74 183.6 117.15 154.73 115.13 149.86 113.12 145.01 33.74 183.6"/>
          <polygon class="cls-1" points="89.59 200.15 131.14 178.72 128.21 174.35 125.3 169.98 89.59 200.15"/>
          <polygon class="cls-1" points="72.02 269.57 149.54 199.52 145.8 195.79 142.09 192.08 72.02 269.57"/>
          <polygon class="cls-1" points="141.47 252.02 171.64 216.32 167.26 213.4 162.89 210.47 141.47 252.02"/>
          <polygon class="cls-1" points="158.02 307.89 196.6 228.49 191.73 226.48 186.88 224.46 158.02 307.89"/>
          <polygon class="cls-1" points="209.2 280.17 223.45 235.56 218.29 234.53 213.13 233.5 209.2 280.17"/>
        </g>
        <g>
          <polygon class="cls-1" points="491.81 95.71 387.45 90.44 387.45 95.71 387.45 100.98 491.81 95.71"/>
          <polygon class="cls-1" points="282.59 280.18 278.68 233.5 273.52 234.53 268.36 235.56 282.59 280.18"/>
          <polygon class="cls-1" points="333.8 307.89 304.94 224.47 300.08 226.48 295.22 228.5 333.8 307.89"/>
          <polygon class="cls-1" points="350.35 252.03 328.91 210.48 324.55 213.4 320.17 216.33 350.35 252.03"/>
          <polygon class="cls-1" points="419.79 269.59 349.72 192.08 346 195.8 342.27 199.52 419.79 269.59"/>
          <polygon class="cls-1" points="402.23 200.16 366.53 169.98 363.62 174.36 360.68 178.72 402.23 200.16"/>
          <polygon class="cls-1" points="458.1 183.6 378.69 145.02 376.68 149.89 374.66 154.74 458.1 183.6"/>
          <polygon class="cls-1" points="430.37 132.4 385.77 118.16 384.75 123.32 383.72 128.49 430.37 132.4"/>
        </g>
      </g>
      <path class="cls-1" d="M292.27,46.37c-34.54,0-46.35-11.83-46.35-46.37,0,34.53-11.82,46.37-46.37,46.37,34.55,0,46.37,11.81,46.37,46.35,0-34.53,11.81-46.35,46.35-46.35Z"/>
    </g>
  </g>
</svg>