<?xml version="1.0" encoding="UTF-8"?>
<svg id="Layer_2" data-name="Layer 2" xmlns="http://www.w3.org/2000/svg" viewBox="0 0 572.7 572.7">
  <defs>
    <style>
      .cls-1 {
        fill: #bfb47b;
      }
    </style>
  </defs>
  <g id="Layer_1-2" data-name="Layer 1">
    <g>
      <path class="cls-1" d="M214.36,286.38c0-39.76,32.2-71.99,71.98-71.99s71.99,32.23,71.99,71.99-32.24,71.97-71.99,71.97-71.98-32.24-71.98-71.97Z"/>
      <path class="cls-1" d="M308.58,175.28l-13.02,24.52c5.38.57,10.6,1.67,15.64,3.18l-2.62-27.7ZM230.74,219.48l-49.42-37.8,37.8,49.47c3.48-4.25,7.37-8.13,11.62-11.66ZM278.05,199.74c2.74-.26,5.49-.42,8.29-.42s5.61.16,8.37.42l-8.35-131.52-8.32,131.52ZM260.64,203.19l-27.38-44.66,12.25,51c4.79-2.57,9.85-4.71,15.13-6.34ZM199.75,295.05c-.27-2.85-.43-5.75-.43-8.66,0-2.67.16-5.31.4-7.89l-61.92,8.27,61.96,8.28ZM174.93,308.94l28.14,2.67c-1.56-5.11-2.67-10.42-3.25-15.89l-24.89,13.23ZM158.17,233.66l44.89,27.49c1.61-5.3,3.72-10.4,6.29-15.22l-51.18-12.28ZM218.61,231.81l-26.69-8.18,17.78,21.54c2.55-4.73,5.55-9.19,8.91-13.36ZM174.93,264.6l24.82,13.14c.54-5.45,1.63-10.73,3.11-15.82l-27.92,2.68ZM223.26,381.22l22-18.17c-4.84-2.59-9.41-5.66-13.64-9.09l-8.36,27.26ZM231.43,218.91c4.11-3.35,8.53-6.35,13.23-8.93l-21.4-17.67,8.17,26.6ZM264.25,175.28l-2.65,27.67c5.05-1.52,10.26-2.59,15.64-3.15l-12.98-24.52ZM311.28,369.71c-5.2,1.53-10.57,2.66-16.13,3.23l13.43,25.27,2.7-28.51ZM264.25,398.24l13.38-25.3c-5.54-.54-10.92-1.65-16.11-3.22l2.73,28.52ZM341.13,353.9c-4.25,3.46-8.8,6.51-13.65,9.1l22.01,18.21-8.37-27.32ZM349.5,192.31l-21.42,17.72c4.69,2.57,9.14,5.57,13.25,8.94l8.16-26.65ZM414.58,339.87l-45.13-27.66c-1.66,5.33-3.84,10.43-6.44,15.27l51.56,12.39ZM397.86,308.94l-25-13.26c-.59,5.48-1.7,10.82-3.24,15.93l28.25-2.67ZM369.62,261.2l44.96-27.54-51.21,12.29c2.55,4.83,4.66,9.94,6.25,15.25ZM372.96,295.05l62.01-8.28-61.99-8.27c.24,2.58.41,5.22.41,7.89,0,2.91-.16,5.81-.43,8.66ZM397.86,264.6l-28.04-2.68c1.5,5.12,2.57,10.41,3.13,15.88l24.91-13.19ZM327.23,209.56l12.26-51.03-27.36,44.68c5.24,1.64,10.3,3.8,15.1,6.35ZM363.02,245.24l17.85-21.6-26.79,8.22c3.38,4.14,6.37,8.62,8.93,13.38ZM353.6,231.2l37.85-49.53-49.46,37.83c4.23,3.53,8.13,7.45,11.61,11.71ZM245.71,363.25l-12.44,51.73,27.79-45.36c-5.37-1.63-10.49-3.77-15.35-6.37ZM219.44,341.94l-38.12,49.89,49.93-38.16c-4.31-3.53-8.24-7.45-11.8-11.73ZM203.24,312.23l-45.07,27.64,51.49-12.37c-2.59-4.83-4.76-9.94-6.43-15.27ZM353.6,341.53l27.27,8.35-18.11-21.89c-2.64,4.81-5.69,9.33-9.16,13.54ZM209.97,328.04l-18.04,21.84,27.18-8.32c-3.47-4.19-6.52-8.72-9.14-13.52ZM341.48,353.63l49.96,38.2-38.15-49.92c-3.56,4.27-7.5,8.2-11.81,11.72ZM311.69,369.6l27.8,45.37-12.42-51.74c-4.89,2.57-10.02,4.74-15.38,6.37ZM286.34,373.37c-2.82,0-5.6-.16-8.34-.41l8.36,132.33,8.41-132.35c-2.8.28-5.58.43-8.43.43Z"/>
      <path class="cls-1" d="M111.95,286.77c0,2.93,2.39,5.33,5.31,5.33s5.32-2.4,5.32-5.33-2.37-5.32-5.32-5.32-5.31,2.4-5.31,5.32ZM103.04,286.77c0-2.68-2.18-4.88-4.86-4.88s-4.89,2.19-4.89,4.88,2.18,4.86,4.89,4.86,4.86-2.16,4.86-4.86ZM83.5,286.77c0-2.44-1.99-4.45-4.42-4.45s-4.45,2.01-4.45,4.45,2.01,4.44,4.45,4.44,4.42-2,4.42-4.44ZM63.96,286.77c0-2.21-1.77-3.98-3.98-3.98s-3.99,1.77-3.99,3.98,1.78,3.99,3.99,3.99,3.98-1.77,3.98-3.99ZM44.42,286.77c0-1.95-1.61-3.55-3.54-3.55s-3.55,1.6-3.55,3.55,1.59,3.56,3.55,3.56,3.54-1.6,3.54-3.56ZM24.86,286.77c0-1.72-1.39-3.1-3.1-3.1s-3.09,1.39-3.09,3.1,1.39,3.12,3.09,3.12,3.1-1.41,3.1-3.12ZM5.34,286.77c0-1.45-1.22-2.65-2.68-2.65s-2.66,1.2-2.66,2.65,1.2,2.67,2.66,2.67,2.68-1.21,2.68-2.67Z"/>
      <path class="cls-1" d="M119.12,320.03c.37,1.85,2.17,3.07,4.02,2.69,1.84-.36,3.04-2.16,2.67-4.01-.38-1.84-2.15-3.06-4.02-2.68-1.85.35-3.05,2.17-2.68,4ZM113.51,321.16c-.31-1.69-1.97-2.78-3.67-2.44-1.7.35-2.79,1.98-2.45,3.65.32,1.7,1.98,2.81,3.68,2.47,1.69-.34,2.76-1.98,2.44-3.67ZM101.21,323.61c-.3-1.55-1.81-2.54-3.34-2.24-1.56.31-2.54,1.81-2.22,3.35.29,1.54,1.79,2.54,3.31,2.23,1.55-.31,2.54-1.8,2.24-3.34ZM88.91,326.05c-.28-1.4-1.62-2.29-2.99-2.01-1.39.27-2.3,1.62-2.03,3.02.28,1.38,1.63,2.26,3.03,2,1.36-.29,2.27-1.61,2-3.01ZM76.6,328.48c-.23-1.21-1.44-2-2.68-1.78-1.23.26-2.03,1.44-1.78,2.68.23,1.23,1.45,2.02,2.66,1.79,1.24-.23,2.04-1.44,1.79-2.69ZM64.32,330.94c-.23-1.09-1.29-1.77-2.35-1.55-1.07.21-1.79,1.25-1.58,2.33.23,1.08,1.27,1.78,2.35,1.57,1.06-.22,1.77-1.25,1.57-2.35ZM52.01,333.37c-.19-.9-1.09-1.51-2.01-1.33-.93.18-1.51,1.09-1.34,2,.19.93,1.09,1.54,2,1.34.93-.17,1.52-1.09,1.35-2.02Z"/>
      <path class="cls-1" d="M144.74,381.48c1.03,1.57,3.15,1.98,4.72.94,1.58-1.05,1.98-3.16.95-4.74-1.05-1.53-3.16-1.97-4.71-.95-1.59,1.07-2.02,3.18-.96,4.76ZM139.99,384.64c-.95-1.43-2.91-1.79-4.34-.84-1.44.94-1.82,2.89-.86,4.31.96,1.46,2.9,1.82,4.35.89,1.43-.97,1.79-2.92.85-4.35ZM129.53,391.62c-.85-1.3-2.62-1.67-3.92-.79-1.31.86-1.65,2.64-.78,3.94.87,1.31,2.64,1.66,3.93.78,1.32-.87,1.69-2.63.78-3.93ZM119.12,398.61c-.78-1.21-2.37-1.51-3.53-.72-1.18.78-1.51,2.36-.73,3.54.8,1.17,2.36,1.47,3.57.71,1.15-.77,1.48-2.36.69-3.52ZM108.69,405.56c-.69-1.06-2.09-1.33-3.16-.63-1.04.68-1.33,2.09-.63,3.14.71,1.08,2.13,1.33,3.18.63,1.05-.68,1.33-2.1.62-3.14ZM98.25,412.52c-.6-.92-1.83-1.17-2.74-.55-.91.6-1.17,1.84-.56,2.76.62.92,1.84,1.16,2.77.54.9-.6,1.15-1.84.52-2.75ZM87.84,419.48c-.52-.76-1.6-1-2.38-.46-.78.52-.98,1.57-.44,2.37.52.78,1.57.98,2.33.48.8-.51,1.01-1.59.49-2.38Z"/>
      <path class="cls-1" d="M191.92,428.42c1.55,1.05,3.66.62,4.73-.95,1.06-1.56.61-3.68-.95-4.73-1.56-1.04-3.67-.65-4.72.93-1.04,1.58-.63,3.68.95,4.75ZM188.73,433.16c-1.41-.96-3.36-.55-4.32.88-.96,1.44-.58,3.38.87,4.32,1.41.96,3.36.58,4.34-.85.95-1.44.55-3.37-.89-4.35ZM181.74,443.6c-1.27-.86-3.07-.51-3.92.77-.88,1.32-.51,3.05.78,3.95,1.31.87,3.08.51,3.94-.78.86-1.3.53-3.08-.8-3.94ZM174.8,454.03c-1.19-.79-2.75-.47-3.54.7-.8,1.18-.48,2.75.7,3.55,1.17.78,2.76.47,3.55-.71.77-1.16.48-2.76-.71-3.55ZM167.83,464.47c-1.04-.7-2.45-.41-3.16.63-.69,1.04-.42,2.45.62,3.15,1.06.72,2.45.42,3.14-.63.74-1.04.45-2.45-.6-3.14ZM160.86,474.9c-.92-.62-2.16-.38-2.77.55-.59.88-.35,2.15.56,2.75.92.63,2.16.37,2.77-.55.59-.89.34-2.13-.56-2.75ZM153.89,485.32c-.76-.54-1.85-.3-2.37.48-.51.78-.31,1.83.48,2.35.78.54,1.84.3,2.36-.44.52-.79.3-1.87-.47-2.39Z"/>
      <path class="cls-1" d="M253.45,453.72c1.86.4,3.64-.81,4.02-2.68.4-1.83-.82-3.62-2.7-3.99-1.82-.36-3.64.82-3.99,2.66-.37,1.86.83,3.65,2.68,4ZM252.35,459.35c-1.67-.36-3.32.77-3.69,2.46-.29,1.69.78,3.36,2.48,3.66,1.68.34,3.34-.77,3.69-2.45.32-1.7-.78-3.32-2.48-3.67ZM249.88,471.65c-1.5-.31-3.04.72-3.33,2.23-.3,1.55.71,3,2.24,3.35,1.53.3,3.04-.69,3.34-2.24.3-1.52-.69-3.04-2.24-3.34ZM247.47,483.96c-1.41-.29-2.73.61-3,1.99-.28,1.4.61,2.74,2,3.02,1.35.27,2.73-.6,2.99-1.99.28-1.39-.6-2.73-1.99-3.02ZM245.01,496.28c-1.23-.27-2.43.52-2.66,1.79-.26,1.18.51,2.42,1.76,2.66,1.25.26,2.43-.57,2.69-1.79.26-1.23-.55-2.45-1.79-2.66ZM242.58,508.57c-1.11-.24-2.15.48-2.35,1.56-.22,1.05.49,2.13,1.56,2.33,1.09.21,2.15-.48,2.35-1.58.21-1.04-.49-2.12-1.55-2.31ZM240.11,520.87c-.9-.19-1.81.42-2.01,1.34-.17.92.42,1.83,1.35,1.99.92.2,1.83-.42,2.01-1.32.19-.91-.44-1.82-1.35-2.01Z"/>
      <path class="cls-1" d="M320,453.56c1.87-.33,3.07-2.14,2.68-4-.34-1.84-2.13-3.02-4-2.64-1.84.33-3.07,2.14-2.67,3.99.36,1.85,2.16,3.05,3.99,2.66ZM321.13,459.18c-1.68.31-2.76,1.99-2.45,3.69.36,1.68,1.99,2.79,3.68,2.43,1.68-.33,2.8-1.97,2.46-3.66-.34-1.73-1.98-2.78-3.69-2.46ZM323.56,471.5c-1.51.28-2.52,1.8-2.21,3.34.29,1.53,1.81,2.5,3.35,2.22,1.53-.3,2.54-1.82,2.21-3.32-.32-1.54-1.78-2.55-3.35-2.24ZM326.03,483.8c-1.4.27-2.29,1.61-2,2.99.26,1.41,1.6,2.29,3.02,2.02,1.34-.28,2.26-1.61,1.99-3.01-.26-1.35-1.62-2.26-3.01-2ZM328.48,496.11c-1.23.23-2.03,1.43-1.78,2.67.23,1.22,1.42,2.04,2.65,1.81,1.25-.25,2.03-1.48,1.79-2.69-.23-1.25-1.42-2.06-2.66-1.79ZM330.94,508.41c-1.11.21-1.8,1.27-1.59,2.32.22,1.06,1.26,1.8,2.33,1.58,1.1-.25,1.8-1.25,1.58-2.37-.21-1.04-1.25-1.77-2.32-1.54ZM333.38,520.69c-.92.18-1.55,1.11-1.35,2.03.18.9,1.09,1.53,2.01,1.32.92-.16,1.52-1.11,1.35-1.99-.19-.92-1.11-1.51-2.01-1.36Z"/>
      <path class="cls-1" d="M381.45,427.95c1.58-1.03,1.98-3.15.93-4.73-1.03-1.57-3.14-1.98-4.72-.91-1.56,1.02-2.01,3.15-.95,4.7,1.05,1.57,3.17,1.99,4.75.94ZM384.61,432.73c-1.43.9-1.8,2.88-.84,4.34.97,1.41,2.91,1.81,4.32.84,1.44-.95,1.84-2.92.88-4.35-.97-1.42-2.93-1.79-4.36-.83ZM391.57,443.16c-1.26.84-1.64,2.63-.78,3.93.87,1.33,2.64,1.62,3.96.78,1.31-.87,1.63-2.64.76-3.93-.86-1.29-2.62-1.67-3.94-.77ZM398.56,453.59c-1.18.79-1.48,2.36-.69,3.52.78,1.21,2.36,1.5,3.56.72,1.14-.77,1.48-2.35.69-3.55-.79-1.16-2.35-1.48-3.55-.69ZM405.54,464.02c-1.07.67-1.33,2.09-.63,3.15.67,1.04,2.09,1.34,3.15.65,1.04-.72,1.29-2.14.63-3.15-.69-1.09-2.11-1.37-3.15-.64ZM412.52,474.43c-.97.62-1.17,1.87-.58,2.79.62.9,1.85,1.15,2.77.54.9-.65,1.17-1.86.54-2.78-.61-.89-1.84-1.15-2.73-.55ZM419.46,484.85c-.76.51-.99,1.62-.46,2.38.52.77,1.59,1,2.37.44.78-.48.97-1.59.47-2.34-.51-.79-1.58-.96-2.37-.49Z"/>
      <path class="cls-1" d="M428.39,380.79c1.05-1.56.63-3.68-.97-4.75-1.53-1.06-3.65-.61-4.69.99-1.06,1.52-.66,3.66.93,4.68,1.57,1.07,3.67.63,4.73-.93ZM433.12,383.97c-.95,1.38-.52,3.37.89,4.33,1.46.93,3.4.57,4.31-.86.97-1.46.6-3.41-.84-4.37-1.45-.94-3.37-.54-4.36.9ZM443.6,390.98c-.89,1.24-.54,3.05.74,3.89,1.34.9,3.06.51,3.98-.79.87-1.31.5-3.08-.79-3.93-1.32-.86-3.1-.52-3.93.82ZM454.03,397.9c-.84,1.2-.5,2.76.68,3.54,1.19.81,2.75.48,3.56-.71.75-1.14.49-2.72-.72-3.53-1.16-.78-2.74-.46-3.52.71ZM464.46,404.89c-.72,1.03-.44,2.43.6,3.14,1.03.7,2.47.44,3.18-.61.7-1.05.4-2.47-.63-3.15-1.03-.76-2.47-.47-3.14.61ZM474.91,411.83c-.66.94-.4,2.18.52,2.79.9.59,2.14.38,2.77-.56.58-.94.38-2.16-.56-2.8-.9-.57-2.14-.33-2.73.57ZM485.3,418.81c-.55.77-.31,1.86.47,2.38.78.5,1.86.3,2.38-.5.52-.74.26-1.84-.47-2.35-.8-.55-1.84-.31-2.38.47Z"/>
      <path class="cls-1" d="M453.7,319.25c.41-1.85-.8-3.65-2.7-4.02-1.81-.4-3.6.84-3.97,2.69-.38,1.83.8,3.65,2.68,4,1.84.38,3.63-.83,3.99-2.67ZM459.31,320.39c-.35,1.63.8,3.3,2.47,3.65,1.72.29,3.36-.78,3.66-2.44.33-1.73-.77-3.38-2.46-3.71-1.7-.34-3.33.8-3.67,2.5ZM471.66,322.83c-.34,1.48.67,3.02,2.19,3.32,1.57.33,3.01-.7,3.36-2.23.32-1.56-.71-3.06-2.23-3.33-1.52-.31-3.05.69-3.31,2.24ZM483.94,325.24c-.29,1.4.6,2.75,1.99,3.02,1.41.3,2.72-.62,3.02-2.03.25-1.34-.57-2.69-2.01-2.97-1.38-.3-2.71.61-3,1.98ZM496.25,327.71c-.26,1.21.54,2.41,1.79,2.67,1.2.26,2.42-.53,2.69-1.76.23-1.24-.6-2.43-1.8-2.68-1.25-.29-2.47.52-2.67,1.78ZM508.56,330.12c-.25,1.12.48,2.18,1.54,2.38,1.06.21,2.14-.49,2.36-1.58.16-1.07-.5-2.12-1.6-2.34-1.04-.2-2.1.5-2.3,1.54ZM520.83,332.56c-.2.93.45,1.86,1.36,2.05.92.16,1.84-.44,1.98-1.38.21-.88-.45-1.8-1.3-1.99-.94-.18-1.83.43-2.04,1.32Z"/>
      <path class="cls-1" d="M453.55,252.7c-.36-1.86-2.15-3.08-4.05-2.68-1.81.32-2.99,2.14-2.62,4.01.35,1.82,2.12,3.06,3.99,2.66,1.86-.34,3.03-2.15,2.67-3.99ZM459.16,251.59c.31,1.63,1.99,2.76,3.68,2.45,1.71-.37,2.81-2,2.45-3.68-.36-1.7-2.01-2.83-3.69-2.47-1.71.36-2.75,2.01-2.43,3.71ZM471.52,249.13c.24,1.51,1.79,2.54,3.29,2.24,1.58-.32,2.53-1.81,2.24-3.37-.31-1.54-1.81-2.55-3.33-2.2-1.53.3-2.56,1.78-2.19,3.33ZM483.78,246.66c.25,1.41,1.59,2.29,2.98,2.01,1.41-.25,2.3-1.6,2.01-3.02-.29-1.34-1.57-2.29-2.98-1.98-1.39.25-2.29,1.61-2.02,2.98ZM496.09,244.23c.23,1.22,1.42,2.01,2.66,1.78,1.22-.22,2.04-1.44,1.81-2.67-.25-1.24-1.47-2.01-2.68-1.78-1.27.22-2.07,1.42-1.8,2.67ZM508.38,241.75c.22,1.14,1.28,1.82,2.36,1.59,1.03-.2,1.79-1.25,1.54-2.33-.25-1.1-1.24-1.78-2.36-1.58-1.04.22-1.76,1.27-1.54,2.31ZM520.67,239.31c.16.95,1.12,1.54,2.01,1.38.95-.2,1.55-1.11,1.33-2.04-.15-.89-1.09-1.48-1.98-1.32-.93.17-1.51,1.08-1.36,1.98Z"/>
      <path class="cls-1" d="M427.96,191.28c-1.03-1.59-3.18-2.02-4.78-.92-1.56.99-1.94,3.1-.89,4.69,1.02,1.56,3.14,2.02,4.71.95,1.58-1.05,1.99-3.16.96-4.72ZM432.69,188.1c.91,1.39,2.9,1.8,4.36.86,1.41-1,1.81-2.94.84-4.35-.97-1.44-2.95-1.83-4.35-.86-1.44.97-1.78,2.9-.84,4.35ZM443.17,181.12c.8,1.27,2.62,1.67,3.88.79,1.35-.88,1.66-2.61.8-3.96-.88-1.33-2.67-1.64-3.93-.75-1.3.86-1.69,2.62-.75,3.93ZM453.56,174.15c.78,1.19,2.36,1.5,3.54.69,1.18-.78,1.48-2.32.68-3.54-.77-1.15-2.32-1.51-3.5-.7-1.18.79-1.5,2.38-.72,3.55ZM464.01,167.16c.68,1.06,2.07,1.31,3.13.63,1.05-.66,1.36-2.11.66-3.15-.71-1.06-2.13-1.29-3.14-.61-1.11.68-1.39,2.07-.64,3.13ZM474.41,160.16c.64.99,1.87,1.22,2.75.57.91-.57,1.21-1.84.56-2.74-.64-.89-1.83-1.16-2.78-.53-.88.58-1.14,1.82-.53,2.7ZM484.81,153.22c.51.82,1.64,1,2.39.49.8-.53,1.02-1.61.45-2.38-.49-.79-1.58-.95-2.33-.48-.8.55-.97,1.6-.51,2.37Z"/>
      <path class="cls-1" d="M380.78,144.34c-1.54-1.1-3.68-.67-4.76.95-1.07,1.51-.59,3.64.99,4.67,1.52,1.06,3.66.7,4.7-.94,1.06-1.53.63-3.63-.93-4.68ZM383.95,139.58c1.36.93,3.36.53,4.34-.89.94-1.46.58-3.38-.86-4.31-1.47-.95-3.43-.57-4.37.86-.95,1.47-.55,3.36.89,4.34ZM390.96,129.1c1.22.89,3.05.54,3.88-.74.91-1.33.54-3.04-.77-3.95-1.33-.89-3.09-.51-3.92.8-.87,1.28-.56,3.05.8,3.89ZM397.89,118.67c1.18.83,2.73.5,3.53-.68.8-1.18.49-2.75-.72-3.55-1.17-.76-2.73-.52-3.5.72-.83,1.14-.49,2.76.69,3.51ZM404.87,108.25c1.02.72,2.42.41,3.14-.62.69-1,.43-2.47-.6-3.17-1.06-.7-2.47-.37-3.14.64-.77,1.04-.49,2.46.6,3.14ZM411.8,97.81c.96.65,2.19.41,2.78-.54.6-.89.39-2.15-.56-2.74-.92-.58-2.13-.38-2.77.55-.6.89-.34,2.12.55,2.73ZM418.77,87.4c.78.56,1.87.3,2.4-.45.5-.8.3-1.88-.51-2.38-.73-.54-1.83-.27-2.32.45-.55.82-.32,1.86.43,2.38Z"/>
      <path class="cls-1" d="M319.25,119.01c-1.86-.4-3.67.8-4.04,2.7-.4,1.79.84,3.59,2.7,3.94,1.81.39,3.63-.77,3.99-2.66.38-1.83-.83-3.6-2.65-3.98ZM320.33,113.41c1.63.33,3.33-.8,3.7-2.49.3-1.71-.78-3.35-2.48-3.66-1.7-.31-3.38.77-3.68,2.45-.32,1.74.78,3.33,2.46,3.71ZM322.8,101.04c1.49.35,3.04-.66,3.33-2.15.32-1.61-.67-3.03-2.24-3.39-1.56-.3-3.05.71-3.32,2.25-.29,1.52.67,3.03,2.23,3.29ZM325.23,88.74c1.37.33,2.73-.57,3-1.96.31-1.4-.61-2.73-2.01-3.02-1.38-.25-2.73.56-2.96,2-.31,1.37.61,2.73,1.97,2.97ZM327.68,76.45c1.22.26,2.39-.55,2.67-1.78.26-1.2-.54-2.45-1.78-2.7-1.24-.24-2.42.62-2.64,1.81-.31,1.24.5,2.45,1.76,2.67ZM330.09,64.13c1.16.25,2.18-.45,2.37-1.56.22-1.01-.49-2.12-1.56-2.31-1.09-.17-2.13.49-2.36,1.6-.2,1.02.52,2.08,1.55,2.27ZM332.54,51.87c.95.21,1.85-.45,2.04-1.33.2-.95-.42-1.86-1.37-2.02-.87-.19-1.78.46-1.96,1.33-.21.96.41,1.82,1.29,2.02Z"/>
      <path class="cls-1" d="M252.7,119.17c-1.87.33-3.09,2.14-2.7,4.03.31,1.83,2.15,2.99,4,2.59,1.83-.3,3.07-2.09,2.66-3.99-.33-1.82-2.12-2.99-3.96-2.63ZM251.58,113.57c1.61-.34,2.75-2.02,2.43-3.72-.38-1.7-2-2.8-3.68-2.43-1.68.35-2.82,2.02-2.45,3.69.37,1.7,1.98,2.76,3.7,2.47ZM249.11,101.21c1.48-.27,2.56-1.8,2.23-3.3-.31-1.57-1.78-2.52-3.35-2.26-1.56.33-2.56,1.83-2.2,3.36.32,1.53,1.76,2.55,3.32,2.2ZM246.64,88.93c1.4-.26,2.3-1.59,2.02-2.99-.26-1.41-1.58-2.28-3.02-2-1.35.28-2.29,1.54-1.96,2.98.26,1.38,1.61,2.29,2.97,2.01ZM244.2,76.61c1.23-.24,2-1.41,1.8-2.66-.22-1.21-1.46-2.05-2.69-1.81-1.22.24-1.99,1.49-1.74,2.67.18,1.29,1.39,2.07,2.63,1.81ZM241.72,64.31c1.17-.19,1.84-1.25,1.59-2.35-.19-1.03-1.27-1.78-2.34-1.53-1.06.25-1.76,1.26-1.55,2.36.2,1.04,1.26,1.74,2.3,1.52ZM239.29,52.05c.96-.16,1.53-1.13,1.37-2.02-.18-.95-1.11-1.56-2.04-1.33-.89.14-1.47,1.09-1.32,1.97.2.96,1.12,1.52,1.99,1.38Z"/>
      <path class="cls-1" d="M191.27,144.77c-1.59,1.03-2.01,3.16-.93,4.77.98,1.55,3.12,1.95,4.69.85,1.57-.99,2.03-3.1.93-4.69-1.01-1.56-3.12-1.96-4.68-.93ZM188.1,140.02c1.35-.9,1.76-2.92.84-4.37-1.01-1.43-2.92-1.83-4.35-.84-1.44.98-1.84,2.94-.85,4.33.99,1.45,2.89,1.81,4.37.87ZM181.08,129.56c1.28-.82,1.7-2.64.8-3.9-.88-1.32-2.59-1.66-3.94-.83-1.34.92-1.66,2.68-.77,3.96.88,1.31,2.62,1.68,3.91.77ZM174.1,119.15c1.22-.78,1.51-2.36.74-3.54-.78-1.2-2.35-1.49-3.54-.68-1.19.78-1.53,2.31-.68,3.5.74,1.17,2.36,1.49,3.49.71ZM167.14,108.69c1.06-.67,1.29-2.06.63-3.14-.66-1.03-2.12-1.33-3.16-.66-1.06.71-1.27,2.14-.61,3.15.67,1.11,2.08,1.39,3.14.65ZM160.13,98.28c1.02-.62,1.24-1.86.58-2.75-.59-.88-1.86-1.2-2.76-.54-.86.65-1.15,1.83-.51,2.77.55.9,1.82,1.12,2.69.52ZM153.22,87.89c.79-.5.96-1.64.49-2.39-.55-.8-1.63-1.02-2.4-.44-.76.46-.95,1.56-.46,2.33.54.82,1.59.98,2.37.5Z"/>
      <path class="cls-1" d="M144.33,191.92c-1.09,1.57-.66,3.7.94,4.76,1.52,1.08,3.65.62,4.68-.99,1.07-1.52.68-3.65-.95-4.7-1.52-1.06-3.62-.61-4.67.93ZM139.57,188.76c.89-1.36.52-3.38-.89-4.35-1.48-.95-3.4-.6-4.34.89-.94,1.44-.58,3.4.86,4.32,1.46.96,3.36.56,4.37-.86ZM129.09,181.78c.87-1.27.56-3.08-.77-3.92-1.31-.9-3.02-.55-3.96.75-.86,1.34-.49,3.12.83,3.93,1.3.88,3.05.56,3.9-.77ZM118.66,174.84c.8-1.2.49-2.76-.69-3.57-1.17-.79-2.73-.46-3.52.74-.8,1.17-.56,2.71.71,3.51,1.13.78,2.73.47,3.5-.68ZM108.23,167.84c.73-1.04.4-2.4-.61-3.14-1-.7-2.49-.42-3.18.6-.71,1.06-.37,2.47.66,3.13,1.04.77,2.45.51,3.14-.59ZM97.77,160.9c.68-.97.43-2.17-.53-2.75-.87-.6-2.15-.39-2.75.54-.56.95-.35,2.15.56,2.77.89.62,2.12.34,2.72-.56ZM87.38,153.93c.56-.77.27-1.88-.44-2.38-.82-.54-1.89-.34-2.4.5-.52.73-.26,1.8.48,2.33.81.55,1.84.29,2.36-.46Z"/>
      <path class="cls-1" d="M118.98,253.45c-.38,1.87.81,3.67,2.71,4.05,1.78.4,3.59-.85,3.96-2.72.38-1.81-.78-3.62-2.7-3.98-1.8-.37-3.59.83-3.96,2.65ZM113.4,252.36c.29-1.61-.83-3.32-2.49-3.68-1.73-.31-3.37.77-3.66,2.48-.31,1.69.76,3.39,2.46,3.68,1.7.3,3.31-.78,3.7-2.48ZM101.03,249.93c.32-1.5-.66-3.05-2.18-3.34-1.58-.31-3.02.65-3.38,2.21-.27,1.58.72,3.07,2.26,3.35,1.54.3,3.03-.68,3.31-2.22ZM88.74,247.49c.3-1.39-.61-2.72-1.99-3.02-1.39-.31-2.7.61-2.98,2.02-.29,1.39.53,2.72,2.01,2.99,1.33.26,2.69-.64,2.96-2ZM76.42,245.02c.27-1.21-.54-2.38-1.77-2.67-1.18-.26-2.45.56-2.71,1.81-.24,1.22.63,2.38,1.81,2.6,1.27.32,2.45-.46,2.67-1.74ZM64.12,242.6c.26-1.16-.44-2.16-1.56-2.34-1.03-.22-2.14.46-2.32,1.56-.15,1.09.5,2.11,1.59,2.34,1.06.24,2.09-.52,2.3-1.56ZM51.85,240.16c.22-.92-.46-1.86-1.32-2.02-.96-.21-1.89.38-2.01,1.37-.22.86.43,1.78,1.31,1.97.97.2,1.82-.43,2.02-1.32Z"/>
      <path class="cls-1" d="M125.38,353.48c1.12,2.72,4.24,4,6.97,2.88,2.72-1.13,3.98-4.25,2.85-6.96-1.1-2.7-4.23-3.99-6.94-2.87-2.7,1.14-4,4.22-2.88,6.95ZM117.15,356.9c-1.02-2.5-3.87-3.67-6.36-2.65-2.48,1.05-3.65,3.88-2.65,6.38,1.04,2.48,3.88,3.67,6.36,2.63,2.5-1.02,3.68-3.88,2.65-6.35ZM99.08,364.38c-.93-2.25-3.52-3.35-5.79-2.42-2.25.92-3.32,3.54-2.39,5.79.94,2.26,3.54,3.33,5.81,2.4,2.24-.93,3.31-3.52,2.37-5.78ZM81.03,371.84c-.83-2.05-3.18-2.99-5.19-2.15-2.03.84-3.03,3.18-2.18,5.2.87,2.06,3.2,3.01,5.24,2.16,2.02-.84,2.99-3.16,2.13-5.21ZM62.98,379.32c-.74-1.81-2.81-2.67-4.62-1.91-1.8.75-2.68,2.81-1.93,4.62.75,1.82,2.84,2.69,4.63,1.93,1.81-.75,2.67-2.84,1.92-4.64ZM44.92,386.81c-.66-1.6-2.47-2.33-4.04-1.67-1.59.65-2.32,2.45-1.69,4.03.66,1.59,2.47,2.35,4.05,1.7,1.59-.66,2.32-2.48,1.67-4.06ZM26.88,394.28c-.55-1.36-2.12-2-3.48-1.42-1.34.54-2,2.12-1.45,3.46.55,1.36,2.13,2,3.48,1.47,1.36-.58,2.01-2.13,1.45-3.5Z"/>
      <path class="cls-1" d="M163.32,409.96c2.07,2.08,5.45,2.1,7.52,0,2.08-2.07,2.08-5.44,0-7.52-2.07-2.07-5.45-2.07-7.52-.01-2.08,2.09-2.08,5.46,0,7.53ZM157.02,416.26c-1.9-1.88-4.99-1.88-6.9,0-1.89,1.9-1.89,4.98,0,6.9,1.91,1.9,4.99,1.9,6.9,0,1.9-1.89,1.9-4.98,0-6.9ZM143.18,430.08c-1.72-1.72-4.52-1.74-6.26,0-1.73,1.72-1.73,4.55,0,6.27,1.75,1.73,4.54,1.72,6.27,0,1.72-1.72,1.74-4.53-.01-6.27ZM129.38,443.9c-1.56-1.57-4.08-1.57-5.63,0-1.55,1.56-1.58,4.08-.01,5.63,1.56,1.57,4.09,1.57,5.64-.01,1.56-1.54,1.56-4.07,0-5.62ZM115.56,457.72c-1.39-1.39-3.63-1.39-5.02,0-1.4,1.39-1.4,3.63,0,5.02,1.39,1.37,3.63,1.37,5.02,0,1.4-1.39,1.4-3.63,0-5.02ZM101.73,471.54c-1.21-1.21-3.17-1.2-4.38.01-1.21,1.2-1.21,3.15,0,4.37,1.21,1.23,3.18,1.23,4.39.02,1.22-1.24,1.19-3.17-.01-4.41ZM87.91,485.37c-1.01-1.04-2.71-1.04-3.75,0-1.03,1.02-1.03,2.72,0,3.77,1.04,1.02,2.73,1.02,3.75,0,1.05-1.06,1.05-2.75,0-3.77Z"/>
      <path class="cls-1" d="M219.98,447.62c2.71,1.13,5.84-.14,6.96-2.86,1.12-2.72-.16-5.82-2.89-6.95-2.71-1.12-5.81.17-6.96,2.87-1.1,2.71.17,5.82,2.89,6.93ZM216.56,455.86c-2.47-1.02-5.32.16-6.35,2.65-1.02,2.47.16,5.34,2.62,6.36,2.49,1.03,5.36-.15,6.38-2.63,1.02-2.47-.17-5.33-2.65-6.37ZM209.08,473.93c-2.24-.93-4.85.13-5.78,2.38-.95,2.25.14,4.87,2.41,5.8,2.25.93,4.84-.16,5.78-2.41.91-2.24-.13-4.83-2.42-5.77ZM201.62,491.96c-2.03-.83-4.36.16-5.21,2.17-.84,2.04.11,4.38,2.15,5.21,2.05.85,4.37-.11,5.21-2.17.85-2.03-.12-4.35-2.15-5.21ZM194.14,510.03c-1.81-.74-3.88.11-4.63,1.92-.73,1.8.11,3.88,1.9,4.63,1.83.76,3.9-.1,4.65-1.93.75-1.78-.11-3.86-1.92-4.61ZM186.65,528.08c-1.57-.64-3.41.12-4.03,1.7-.65,1.56.08,3.38,1.65,4.04,1.61.66,3.41-.08,4.07-1.66.68-1.61-.09-3.41-1.68-4.09ZM179.16,546.16c-1.33-.57-2.89.08-3.46,1.44-.56,1.34.1,2.92,1.44,3.46,1.35.58,2.91-.08,3.48-1.4.57-1.36-.08-2.95-1.46-3.49Z"/>
      <path class="cls-1" d="M286.73,460.76c2.96,0,5.33-2.38,5.33-5.31s-2.37-5.33-5.32-5.32c-2.93-.01-5.3,2.38-5.32,5.32,0,2.91,2.39,5.31,5.31,5.31ZM286.74,469.66c-2.68,0-4.87,2.18-4.87,4.89-.02,2.68,2.19,4.85,4.86,4.87,2.71-.01,4.9-2.18,4.9-4.87s-2.18-4.87-4.89-4.89ZM286.74,489.23c-2.45,0-4.43,1.96-4.43,4.41-.01,2.44,2,4.43,4.43,4.43s4.42-1.99,4.43-4.43c0-2.46-1.96-4.44-4.43-4.41ZM286.77,508.74c-2.22,0-4,1.81-4,3.99s1.78,4.01,3.97,3.98c2.21,0,4-1.78,4-3.98s-1.78-3.98-3.97-3.99ZM286.77,528.3c-1.97,0-3.56,1.58-3.56,3.55s1.58,3.54,3.53,3.54,3.57-1.59,3.55-3.54c.02-1.96-1.56-3.55-3.51-3.55ZM286.73,547.84c-1.71,0-3.1,1.4-3.07,3.09-.02,1.71,1.36,3.1,3.07,3.1s3.13-1.36,3.13-3.07-1.39-3.1-3.13-3.12ZM286.74,567.39c-1.46-.02-2.65,1.2-2.65,2.67s1.18,2.65,2.65,2.65,2.66-1.19,2.68-2.65c0-1.47-1.19-2.67-2.68-2.67Z"/>
      <path class="cls-1" d="M353.45,447.34c2.72-1.13,4.03-4.25,2.88-6.96-1.11-2.73-4.21-4-6.94-2.87-2.71,1.11-3.99,4.23-2.87,6.95,1.12,2.7,4.23,3.99,6.94,2.88ZM356.87,455.55c-2.48,1.04-3.67,3.89-2.64,6.38,1.03,2.5,3.89,3.66,6.35,2.64,2.49-1.03,3.69-3.9,2.67-6.38-1.02-2.5-3.88-3.66-6.38-2.65ZM364.36,473.64c-2.27.92-3.35,3.51-2.43,5.76.94,2.27,3.54,3.34,5.8,2.41,2.27-.95,3.32-3.54,2.38-5.79-.93-2.25-3.5-3.34-5.76-2.38ZM371.82,491.66c-2.02.85-2.99,3.21-2.15,5.19.85,2.06,3.18,3.05,5.22,2.19,2.02-.86,2.99-3.19,2.14-5.21-.82-2.05-3.16-3.01-5.21-2.17ZM379.32,509.72c-1.82.75-2.68,2.82-1.93,4.64.75,1.8,2.8,2.66,4.6,1.94,1.82-.77,2.7-2.84,1.93-4.66-.74-1.8-2.81-2.68-4.6-1.92ZM386.77,527.8c-1.56.64-2.31,2.45-1.66,4.04.65,1.56,2.47,2.32,4.03,1.68,1.59-.69,2.34-2.49,1.7-4.05-.66-1.61-2.46-2.32-4.07-1.68ZM394.26,545.86c-1.36.53-1.99,2.1-1.43,3.47.55,1.31,2.13,1.98,3.47,1.42,1.36-.57,1.99-2.13,1.45-3.47-.56-1.36-2.12-2.02-3.49-1.42Z"/>
      <path class="cls-1" d="M409.95,409.41c2.08-2.09,2.08-5.46,0-7.53-2.08-2.09-5.45-2.08-7.52.02-2.07,2.06-2.06,5.42,0,7.52,2.07,2.07,5.44,2.07,7.52,0ZM416.26,415.69c-1.91,1.9-1.91,4.97,0,6.88,1.87,1.92,4.98,1.9,6.88.03,1.92-1.94,1.92-5.02,0-6.91-1.91-1.91-4.98-1.9-6.88,0ZM430.07,429.52c-1.72,1.74-1.72,4.53-.01,6.25,1.73,1.74,4.54,1.72,6.27,0,1.73-1.72,1.71-4.53,0-6.26-1.73-1.72-4.53-1.74-6.26.01ZM443.88,443.31c-1.57,1.58-1.54,4.12,0,5.64,1.57,1.56,4.09,1.59,5.64.01,1.56-1.57,1.56-4.09-.02-5.62-1.53-1.57-4.05-1.57-5.62-.03ZM457.73,457.13c-1.39,1.4-1.4,3.66,0,5.03,1.36,1.38,3.61,1.4,4.98.02,1.4-1.39,1.4-3.65,0-5.02-1.36-1.38-3.62-1.41-4.98-.03ZM471.52,470.98c-1.2,1.2-1.18,3.17.01,4.39,1.2,1.18,3.16,1.2,4.37,0,1.23-1.24,1.23-3.19.01-4.39-1.22-1.23-3.16-1.2-4.39,0ZM485.35,484.8c-1.06,1.02-1.03,2.72,0,3.76,1.03,1.03,2.73,1.03,3.76,0,1.05-1.04,1.03-2.74.01-3.76-1.03-1.04-2.74-1.06-3.77,0Z"/>
      <path class="cls-1" d="M447.63,352.74c1.11-2.72-.16-5.85-2.87-6.96-2.73-1.15-5.83.15-6.94,2.88-1.16,2.7.17,5.81,2.86,6.94,2.7,1.12,5.83-.13,6.95-2.86ZM455.83,356.14c-1.01,2.47.18,5.33,2.66,6.37,2.49,1.04,5.35-.16,6.34-2.63,1.03-2.51-.14-5.36-2.62-6.37-2.5-1.04-5.31.16-6.38,2.63ZM473.92,363.63c-.92,2.26.12,4.86,2.38,5.77,2.27.94,4.87-.14,5.78-2.4.95-2.25-.15-4.84-2.39-5.81-2.27-.91-4.86.15-5.78,2.43ZM491.96,371.09c-.85,2.04.15,4.39,2.14,5.18,2.06.86,4.39-.08,5.22-2.13.84-2.05-.13-4.38-2.15-5.21-2.03-.85-4.36.12-5.21,2.16ZM510.03,378.56c-.74,1.82.1,3.9,1.92,4.63,1.78.78,3.88-.08,4.6-1.9.77-1.8-.09-3.88-1.92-4.64-1.79-.75-3.86.09-4.6,1.91ZM528.08,386.07c-.64,1.58.12,3.38,1.69,4.02,1.57.65,3.37-.09,4.02-1.66.66-1.58-.08-3.4-1.66-4.04-1.61-.68-3.38.08-4.06,1.68ZM546.14,393.55c-.58,1.34.07,2.9,1.46,3.48,1.32.53,2.9-.12,3.45-1.46.58-1.36-.11-2.91-1.43-3.48-1.36-.57-2.93.08-3.48,1.45Z"/>
      <path class="cls-1" d="M460.75,285.96c0-2.94-2.39-5.32-5.32-5.32-2.96-.01-5.33,2.38-5.31,5.34-.02,2.9,2.38,5.28,5.31,5.3,2.92,0,5.32-2.36,5.32-5.32ZM469.65,285.96c0,2.68,2.17,4.87,4.87,4.87,2.7.02,4.89-2.19,4.89-4.85-.02-2.72-2.2-4.89-4.87-4.89s-4.86,2.18-4.89,4.87ZM489.23,285.98c0,2.43,1.96,4.43,4.38,4.43s4.43-2.01,4.43-4.44-2-4.4-4.43-4.43c-2.45.02-4.43,1.98-4.38,4.45ZM508.72,285.94c.01,2.22,1.81,3.99,3.98,3.99s4-1.77,4-3.97-1.79-3.99-4-3.99-3.96,1.77-3.98,3.97ZM528.28,285.94c0,1.97,1.57,3.57,3.56,3.55,1.94.02,3.52-1.58,3.52-3.51.02-1.99-1.56-3.56-3.54-3.56s-3.55,1.58-3.53,3.53ZM547.82,285.98c0,1.7,1.41,3.08,3.11,3.08,1.69-.02,3.08-1.39,3.08-3.08s-1.38-3.11-3.08-3.11-3.1,1.4-3.12,3.11ZM567.36,285.98c0,1.45,1.22,2.65,2.69,2.65,1.43-.02,2.64-1.22,2.64-2.67,0-1.47-1.22-2.67-2.64-2.67s-2.69,1.2-2.69,2.68Z"/>
      <path class="cls-1" d="M447.3,219.25c-1.1-2.7-4.22-3.99-6.94-2.86-2.74,1.1-4,4.22-2.86,6.94,1.08,2.71,4.21,3.98,6.93,2.86,2.7-1.12,4-4.22,2.87-6.94ZM455.54,215.83c1.03,2.48,3.89,3.67,6.36,2.65,2.5-1.03,3.67-3.88,2.65-6.34-1.05-2.51-3.9-3.69-6.36-2.68-2.51,1.05-3.66,3.89-2.65,6.36ZM473.62,208.36c.93,2.26,3.51,3.35,5.77,2.4,2.26-.94,3.32-3.54,2.41-5.78-.95-2.25-3.54-3.32-5.81-2.43-2.25.95-3.33,3.54-2.36,5.81ZM491.63,200.88c.86,2.04,3.21,2.99,5.21,2.15,2.06-.84,3.04-3.17,2.2-5.18-.86-2.07-3.19-3.02-5.25-2.17-2.01.84-2.97,3.16-2.15,5.2ZM509.7,193.38c.77,1.81,2.82,2.7,4.63,1.93,1.81-.73,2.67-2.81,1.92-4.61-.73-1.82-2.82-2.7-4.65-1.92-1.79.73-2.67,2.81-1.9,4.6ZM527.78,185.95c.65,1.56,2.46,2.29,4.03,1.65,1.58-.66,2.31-2.46,1.65-4.05-.64-1.57-2.43-2.33-4.01-1.67-1.61.66-2.33,2.47-1.67,4.07ZM545.83,178.46c.56,1.34,2.14,2.01,3.49,1.43,1.32-.55,1.97-2.13,1.44-3.49-.56-1.34-2.15-1.99-3.48-1.44-1.35.58-2.03,2.12-1.45,3.49Z"/>
      <path class="cls-1" d="M409.37,162.78c-2.07-2.07-5.44-2.09-7.51,0-2.1,2.07-2.09,5.42,0,7.51,2.05,2.06,5.43,2.04,7.51-.02,2.06-2.07,2.09-5.43,0-7.5ZM415.66,156.46c1.9,1.89,4.99,1.89,6.91,0,1.91-1.92,1.89-5,0-6.89-1.94-1.91-5.01-1.91-6.89-.02-1.9,1.92-1.89,4.98-.02,6.9ZM429.53,142.64c1.71,1.72,4.5,1.73,6.22,0,1.73-1.73,1.73-4.55,0-6.27-1.73-1.72-4.52-1.7-6.27,0-1.74,1.74-1.74,4.54.05,6.27ZM443.28,128.83c1.59,1.56,4.12,1.53,5.64,0,1.57-1.57,1.58-4.09.02-5.64-1.55-1.56-4.09-1.56-5.66.01-1.55,1.54-1.55,4.06,0,5.63ZM457.12,114.98c1.4,1.39,3.63,1.39,5.03,0,1.39-1.34,1.4-3.61,0-4.97-1.37-1.41-3.63-1.41-5.03,0-1.38,1.36-1.39,3.61,0,4.97ZM470.98,101.21c1.19,1.2,3.15,1.18,4.37-.02,1.18-1.22,1.18-3.17-.02-4.37-1.2-1.22-3.16-1.25-4.38-.03-1.22,1.23-1.18,3.18.04,4.42ZM484.79,87.37c1.03,1.04,2.73,1.04,3.78-.02.99-1,.99-2.7,0-3.76-1.07-1.03-2.77-.99-3.78,0-1.05,1.06-1.05,2.74,0,3.79Z"/>
      <path class="cls-1" d="M352.72,125.09c-2.7-1.12-5.84.17-6.95,2.87-1.14,2.74.15,5.84,2.88,6.94,2.7,1.13,5.81-.18,6.96-2.89,1.1-2.69-.17-5.81-2.88-6.93ZM356.1,116.86c2.49,1.02,5.36-.16,6.38-2.63,1.03-2.51-.15-5.35-2.6-6.35-2.52-1.05-5.37.13-6.4,2.59-1.01,2.51.16,5.33,2.62,6.39ZM363.62,98.79c2.26.94,4.85-.11,5.77-2.37.94-2.25-.15-4.87-2.4-5.81-2.26-.91-4.83.18-5.8,2.42-.92,2.24.13,4.85,2.43,5.76ZM371.06,80.77c2.06.81,4.38-.17,5.19-2.17.86-2.05-.08-4.39-2.13-5.21-2.04-.86-4.37.13-5.23,2.16-.83,2.02.14,4.35,2.17,5.22ZM378.52,62.68c1.85.73,3.91-.11,4.65-1.93.75-1.74-.09-3.86-1.92-4.6-1.79-.77-3.87.1-4.63,1.92-.73,1.81.1,3.88,1.9,4.61ZM386.08,44.64c1.53.65,3.35-.09,4.02-1.68.63-1.59-.13-3.38-1.69-4.04-1.56-.67-3.38.1-4.04,1.66-.67,1.61.11,3.41,1.72,4.06ZM393.54,26.58c1.33.57,2.91-.09,3.47-1.44.54-1.33-.12-2.91-1.45-3.49-1.35-.55-2.93.12-3.48,1.45-.56,1.36.07,2.94,1.46,3.49Z"/>
      <path class="cls-1" d="M285.95,111.98c-2.92,0-5.32,2.37-5.32,5.32,0,2.94,2.37,5.31,5.32,5.31s5.31-2.4,5.31-5.33-2.36-5.31-5.31-5.29ZM285.93,103.07c2.7,0,4.87-2.18,4.9-4.88-.02-2.69-2.21-4.88-4.87-4.87-2.71,0-4.9,2.18-4.9,4.86.01,2.72,2.19,4.85,4.86,4.88ZM285.95,83.5c2.46-.01,4.45-1.97,4.42-4.41,0-2.44-1.99-4.43-4.43-4.43-2.43.02-4.42,2-4.42,4.43,0,2.44,1.98,4.44,4.44,4.41ZM285.91,63.99c2.24-.02,4.02-1.83,4-3.99,0-2.19-1.78-4.01-3.98-4-2.21,0-3.99,1.8-4,4,0,2.18,1.8,3.98,3.99,3.99ZM285.91,44.43c1.98-.02,3.56-1.58,3.54-3.56.04-1.92-1.56-3.54-3.52-3.52-1.95-.02-3.54,1.56-3.54,3.54s1.57,3.55,3.52,3.53ZM285.99,24.87c1.66,0,3.06-1.38,3.06-3.08-.04-1.73-1.41-3.09-3.11-3.1-1.69,0-3.1,1.39-3.1,3.1,0,1.73,1.41,3.08,3.15,3.08ZM285.95,5.35c1.46,0,2.66-1.22,2.66-2.68-.02-1.44-1.22-2.64-2.67-2.67-1.45,0-2.66,1.23-2.64,2.67,0,1.46,1.18,2.68,2.66,2.68Z"/>
      <path class="cls-1" d="M219.25,125.4c-2.71,1.13-4.03,4.24-2.9,6.95,1.12,2.76,4.23,4,6.96,2.88,2.67-1.12,3.96-4.24,2.86-6.97-1.12-2.7-4.22-4-6.93-2.86ZM215.82,117.19c2.49-1.05,3.66-3.88,2.66-6.39-1.06-2.49-3.91-3.66-6.36-2.63-2.51,1.05-3.68,3.89-2.67,6.35,1.04,2.51,3.88,3.65,6.36,2.67ZM208.34,99.09c2.27-.94,3.36-3.51,2.41-5.76-.94-2.25-3.54-3.33-5.78-2.4-2.26.95-3.32,3.55-2.41,5.8.94,2.26,3.53,3.35,5.78,2.37ZM200.86,81.08c2.04-.86,2.99-3.22,2.15-5.21-.83-2.06-3.18-3.03-5.19-2.19-2.04.85-2.99,3.18-2.17,5.24.83,2.01,3.17,2.99,5.21,2.16ZM193.36,63.01c1.84-.77,2.7-2.82,1.92-4.63-.71-1.79-2.8-2.68-4.6-1.92-1.81.74-2.67,2.82-1.92,4.64.75,1.81,2.81,2.69,4.6,1.92ZM185.94,44.92c1.55-.63,2.31-2.44,1.65-4.05-.68-1.56-2.48-2.29-4.06-1.66-1.56.66-2.31,2.47-1.67,4.05.68,1.61,2.47,2.33,4.08,1.66ZM178.44,26.89c1.35-.56,2-2.15,1.44-3.51-.57-1.29-2.13-1.93-3.5-1.44-1.33.59-1.96,2.18-1.41,3.49.55,1.35,2.11,2.01,3.48,1.45Z"/>
      <path class="cls-1" d="M162.75,163.33c-2.07,2.08-2.08,5.45,0,7.54,2.1,2.1,5.45,2.06,7.52-.02,2.08-2.07,2.05-5.43,0-7.53-2.07-2.06-5.45-2.09-7.52.01ZM156.44,157.05c1.92-1.9,1.9-5,0-6.91-1.9-1.9-5-1.9-6.87,0-1.91,1.94-1.91,5.01-.03,6.89,1.92,1.89,4.99,1.89,6.9.02ZM142.61,143.2c1.73-1.74,1.76-4.51.02-6.24-1.73-1.72-4.54-1.72-6.28,0-1.72,1.73-1.69,4.54,0,6.25,1.73,1.75,4.53,1.76,6.25,0ZM128.8,129.43c1.56-1.59,1.55-4.13-.01-5.66-1.56-1.56-4.09-1.58-5.62-.01-1.55,1.57-1.55,4.1,0,5.67,1.52,1.54,4.06,1.52,5.63,0ZM114.95,115.6c1.41-1.42,1.43-3.64,0-5.04-1.32-1.35-3.6-1.38-4.97,0-1.39,1.38-1.39,3.64,0,5.04,1.39,1.36,3.62,1.39,4.97,0ZM101.21,101.74c1.17-1.2,1.17-3.18-.03-4.39-1.24-1.17-3.19-1.16-4.39.03-1.2,1.19-1.2,3.16,0,4.37,1.23,1.25,3.16,1.21,4.42,0ZM87.35,87.94c1.04-1.04,1.04-2.75-.01-3.8-1.02-.98-2.72-.98-3.78.02-1.01,1.04-1,2.75.02,3.77,1.04,1.04,2.73,1.04,3.76,0Z"/>
      <path class="cls-1" d="M125.1,219.98c-1.12,2.73.14,5.85,2.85,6.98,2.74,1.13,5.81-.18,6.96-2.9,1.12-2.7-.19-5.8-2.9-6.94-2.68-1.13-5.82.17-6.91,2.86ZM116.85,216.6c1.04-2.46-.16-5.33-2.64-6.38-2.49-1.01-5.35.16-6.33,2.64-1.05,2.51.12,5.36,2.59,6.38,2.52,1.02,5.33-.16,6.39-2.64ZM98.77,209.09c.94-2.26-.1-4.85-2.39-5.77-2.23-.93-4.85.15-5.78,2.4-.91,2.28.17,4.85,2.4,5.79,2.26.94,4.87-.12,5.77-2.42ZM80.74,201.65c.82-2.06-.18-4.4-2.18-5.2-2.03-.84-4.38.11-5.19,2.13-.84,2.06.12,4.38,2.18,5.23,2,.85,4.33-.13,5.2-2.16ZM62.66,194.19c.74-1.85-.09-3.92-1.94-4.65-1.76-.75-3.86.09-4.6,1.9-.75,1.8.11,3.88,1.92,4.65,1.81.73,3.89-.09,4.61-1.9ZM44.63,186.65c.64-1.58-.12-3.38-1.69-4.04-1.59-.61-3.37.14-4.06,1.68-.63,1.57.11,3.41,1.69,4.06,1.62.66,3.39-.12,4.06-1.7ZM26.55,179.19c.57-1.35-.09-2.92-1.45-3.49-1.33-.52-2.9.15-3.47,1.45-.55,1.36.12,2.96,1.45,3.49,1.34.56,2.91-.09,3.47-1.45Z"/>
    </g>
  </g>
</svg>