<?xml version="1.0" encoding="UTF-8"?>
<svg id="Layer_2" data-name="Layer 2" xmlns="http://www.w3.org/2000/svg" viewBox="0 0 461.15 461.15">
  <defs>
    <style>
      .cls-1 {
        fill: #bfb47b;
      }
    </style>
  </defs>
  <g id="Layer_1-2" data-name="Layer 1">
    <g>
      <path class="cls-1" d="M373.16,230.56c-106.23,0-142.56-36.33-142.56-142.57,0,106.23-36.38,142.57-142.61,142.57,106.23,0,142.61,36.37,142.61,142.58,0-106.2,36.32-142.58,142.56-142.58Z"/>
      <path class="cls-1" d="M234.41,156.9c0-2.28-3.83-156.9-3.83-156.9,0,0-3.84,154.63-3.84,156.9s3.84,2.28,3.84,2.28c0,0,3.83,0,3.83-2.28Z"/>
      <path class="cls-1" d="M181.21,175.76c-1.61-1.61-113.67-108.23-113.67-108.23,0,0,106.63,112.05,108.25,113.66,1.6,1.61,4.32-1.1,4.32-1.1,0,0,2.71-2.72,1.11-4.33Z"/>
      <path class="cls-1" d="M156.91,226.73c-2.26,0-156.91,3.85-156.91,3.85,0,0,154.64,3.84,156.91,3.84s2.28-3.84,2.28-3.84c0,0,0-3.85-2.28-3.85Z"/>
      <path class="cls-1" d="M175.78,279.94c-1.62,1.61-108.24,113.67-108.24,113.67,0,0,112.06-106.62,113.66-108.23,1.6-1.61-1.11-4.33-1.11-4.33,0,0-2.71-2.71-4.32-1.1Z"/>
      <path class="cls-1" d="M226.74,304.24c0,2.27,3.85,156.91,3.85,156.91,0,0,3.83-154.64,3.83-156.91s-3.83-2.28-3.83-2.28c0,0-3.84,0-3.84,2.28Z"/>
      <path class="cls-1" d="M279.96,285.38c1.6,1.61,113.66,108.23,113.66,108.23,0,0-106.62-112.05-108.23-113.65-1.6-1.62-4.32,1.11-4.32,1.11,0,0-2.71,2.7-1.1,4.31Z"/>
      <path class="cls-1" d="M304.26,234.41c2.27,0,156.89-3.86,156.89-3.86,0,0-154.63-3.83-156.89-3.83s-2.29,3.85-2.29,3.85c0,0,.01,3.84,2.29,3.84Z"/>
      <path class="cls-1" d="M285.39,181.19c1.62-1.61,108.23-113.66,108.23-113.66,0,0-112.06,106.62-113.66,108.23-1.61,1.61,1.1,4.33,1.1,4.33,0,0,2.72,2.71,4.32,1.1Z"/>
      <g>
        <path class="cls-1" d="M206.46,162.32c-.34-.82-26.86-54.8-26.86-54.8,0,0,19.42,56.93,19.76,57.74.34.82,3.88-.66,3.88-.66,0,0,3.55-1.47,3.21-2.28Z"/>
        <path class="cls-1" d="M165.26,199.37c-.81-.34-57.73-19.75-57.73-19.75,0,0,53.99,26.5,54.79,26.84.82.33,2.29-3.21,2.29-3.21,0,0,1.47-3.56.65-3.88Z"/>
        <path class="cls-1" d="M162.32,254.7c-.8.32-54.78,26.85-54.78,26.85,0,0,56.91-19.42,57.72-19.75.81-.34-.65-3.89-.65-3.89,0,0-1.47-3.55-2.29-3.21Z"/>
        <path class="cls-1" d="M199.37,295.89c-.34.82-19.74,57.73-19.74,57.73,0,0,26.5-53.98,26.84-54.79.34-.83-3.21-2.29-3.21-2.29,0,0-3.54-1.47-3.88-.65Z"/>
        <path class="cls-1" d="M254.7,298.83c.34.81,26.86,54.78,26.86,54.78,0,0-19.42-56.9-19.77-57.72-.34-.82-3.89.65-3.89.65,0,0-3.54,1.47-3.21,2.29Z"/>
        <path class="cls-1" d="M295.89,261.79c.82.33,57.74,19.73,57.74,19.73,0,0-53.98-26.5-54.8-26.83-.82-.34-2.29,3.21-2.29,3.21,0,0-1.47,3.54-.65,3.89Z"/>
        <path class="cls-1" d="M298.83,206.46c.81-.34,54.78-26.86,54.78-26.86,0,0-56.91,19.43-57.72,19.77-.81.33.65,3.88.65,3.88,0,0,1.47,3.54,2.29,3.21Z"/>
        <path class="cls-1" d="M261.79,165.25c.34-.8,19.75-57.73,19.75-57.73,0,0-26.5,53.98-26.84,54.8-.33.82,3.21,2.28,3.21,2.28,0,0,3.55,1.47,3.89.65Z"/>
      </g>
    </g>
  </g>
</svg>