<?xml version="1.0" encoding="UTF-8"?>
<svg id="Layer_2" data-name="Layer 2" xmlns="http://www.w3.org/2000/svg" viewBox="0 0 607.68 607.67">
  <defs>
    <style>
      .cls-1 {
        fill: #bfb47b;
      }
    </style>
  </defs>
  <g id="Layer_1-2" data-name="Layer 1">
    <g>
      <g>
        <path class="cls-1" d="M246.13,303.84c0-31.88,25.84-57.71,57.71-57.71s57.71,25.83,57.71,57.71-25.83,57.72-57.71,57.72-57.71-25.83-57.71-57.72Z"/>
        <path class="cls-1" d="M276.97,404.4l-5.25-1.7-3.85-1.25-3.81-1.57-3.69-1.53-3.73-1.9-4.9-2.5-32.8,76.51,35.56-59.67-24.33,70.88,31.9-65.2-36.49,128.19,51.38-140.26ZM364.94,387.93l-4.46,3.24,63.43,77.91-54.51-84.39-4.45,3.24ZM242.74,387.93l-4.45-3.24-54.51,84.39,63.43-77.91-4.46-3.24ZM355.94,393.95l-4.91,2.5-3.65,1.87-3.76,1.55-3.77,1.57-3.88,1.25-5.24,1.71,51.37,140.26-36.5-128.23,31.91,65.24-24.33-70.87,35.57,59.67-32.8-76.5ZM325.54,405.63l-5.44.87-4.03.64-4.08.32-4.05.33h-8.29l-3.98-.32-4.09-.33-4.03-.63-5.44-.86-10.32,100.24,17.98-83.58-2.23,88.1,11.25-84.7,5.01,181.97,5.02-182.01,11.24,84.74-2.23-88.09,17.98,83.57-10.31-100.25ZM242.75,219.74l4.46-3.24-63.42-77.92,54.5,84.39,4.46-3.24ZM330.73,203.28l5.24,1.71,3.9,1.26,3.75,1.55,3.85,1.6,3.56,1.82,4.91,2.51,32.8-76.5-35.55,59.65,24.32-70.86-31.9,65.23,36.49-128.22-51.37,140.26ZM364.94,219.74l4.45,3.24,54.51-84.39-63.43,77.92,4.46,3.24ZM251.76,213.73l4.9-2.51,3.7-1.89,3.72-1.54,3.77-1.56,3.88-1.26,5.24-1.7-51.37-140.25,36.48,128.19-31.89-65.21,24.32,70.87-35.55-59.66,32.8,76.51ZM282.15,202.02l5.45-.86,4.05-.65,4.06-.32,3.96-.31h8.2l4.13.32,4.05.32,4.05.64,5.44.86,10.31-100.25-17.99,83.61,2.24-88.11-11.24,84.69L303.85,0l-5.02,181.97-11.24-84.71,2.23,88.11-17.98-83.58,10.31,100.23ZM387.94,242.74l3.24,4.46,77.92-63.42-84.39,54.5,3.24,4.46ZM425.66,298.83l84.74-11.24-88.06,2.23,83.56-17.98-100.26,10.31.87,5.44.64,4.03.32,4.08.32,4.05v8.29l-.31,3.96-.33,4.09-.63,4.03-.86,5.44,100.25,10.31-83.6-17.99,88.11,2.24-84.71-11.24,181.98-5.01-182.02-5.02ZM387.94,364.94l-3.24,4.46,84.39,54.5-77.92-63.41-3.24,4.46ZM404.4,330.71l-1.69,5.24-1.25,3.87-1.57,3.78-1.54,3.69-1.9,3.72-2.49,4.91,76.5,32.8-59.68-35.57,70.89,24.34-65.24-31.91,128.23,36.5-140.26-51.37ZM393.96,251.75l2.49,4.91,1.87,3.66,1.56,3.76,1.58,3.79,1.25,3.86,1.7,5.25,140.26-51.37-128.21,36.48,65.22-31.91-70.86,24.32,59.65-35.56-76.49,32.81ZM219.74,364.93l-3.24-4.46-77.91,63.42,84.39-54.51-3.25-4.46ZM219.74,242.74l3.25-4.46-84.39-54.5,77.91,63.42,3.24-4.46ZM203.29,276.95l1.69-5.24,1.27-3.88,1.56-3.77,1.59-3.84,1.82-3.58,2.51-4.91-76.49-32.8,59.64,35.55-70.85-24.32,65.21,31.9-128.2-36.49,140.27,51.37ZM213.73,355.93l-2.51-4.91-1.88-3.69-1.54-3.72-1.56-3.76-1.27-3.89-1.7-5.24-140.25,51.36,128.22-36.5-65.23,31.91,70.88-24.33-59.67,35.56,76.51-32.79ZM97.27,320.09l88.12-2.24-83.6,18,100.24-10.31-.86-5.44-.64-4.05-.32-4.07-.31-3.96v-8.21l.33-4.12.31-4.06.64-4.05.86-5.44-100.25-10.31,83.59,17.98-88.1-2.23,84.69,11.24L0,303.84l181.99,5.01-84.72,11.24Z"/>
      </g>
      <path class="cls-1" d="M300.83,390.2c-1.17-.03-2.11-1.05-2.07-2.21h0c.04-1.2,1.05-2.14,2.23-2.08h0c.96.02,1.89.04,2.84.04h0c1.07,0,2.11-.02,3.16-.06h0c1.19-.06,2.19.88,2.24,2.08h0c.04,1.19-.89,2.18-2.07,2.23h0c-1.11.02-2.21.06-3.33.06h0c-.99,0-2-.02-2.99-.06h0ZM288.31,388.86c-2.07-.36-4.13-.82-6.15-1.36h0c-1.15-.29-1.85-1.47-1.54-2.61h0c.29-1.16,1.47-1.85,2.6-1.55h0c1.93.49,3.87.92,5.87,1.28h0c1.15.22,1.95,1.34,1.73,2.52h0c-.18,1.03-1.08,1.77-2.1,1.77h0c-.13,0-.27-.01-.4-.04h0ZM317.16,387.09c-.22-1.18.56-2.3,1.73-2.52h0c1.97-.37,3.93-.79,5.85-1.3h.01c1.14-.3,2.31.39,2.63,1.55h0c.29,1.16-.4,2.33-1.54,2.62h0c-2.02.55-4.08,1-6.15,1.39h0c-.13.02-.26.04-.38.04h0c-1.03,0-1.94-.72-2.14-1.76h0ZM270.21,383.47c-1.94-.83-3.84-1.7-5.73-2.67h0c-1.05-.55-1.47-1.84-.92-2.91h0c.53-1.07,1.84-1.49,2.9-.93h0c1.76.92,3.58,1.76,5.42,2.54h.02c1.08.45,1.6,1.72,1.14,2.82h0c-.36.83-1.15,1.31-1.98,1.31h0c-.28,0-.57-.05-.84-.16h0ZM334.92,382.22c-.46-1.1.04-2.37,1.14-2.84h0c1.84-.79,3.63-1.63,5.41-2.56h0c1.07-.54,2.35-.12,2.91.93h0c.53,1.07.13,2.37-.94,2.91h0c-1.86.96-3.77,1.85-5.7,2.7h0c-.28.11-.56.17-.83.17h0c-.85,0-1.64-.5-2-1.31h0ZM253.71,374.25c-1.71-1.21-3.38-2.49-5-3.84h0c-.91-.75-1.03-2.12-.27-3.03h0c.75-.92,2.12-1.05,3.03-.3h0c1.52,1.29,3.12,2.5,4.73,3.65h0c.98.68,1.2,2.05.51,3.02h0c-.43.58-1.08.89-1.76.89h0c-.43,0-.87-.12-1.25-.39h0ZM351.18,373.58c-.69-.97-.48-2.31.49-3.02h0c1.64-1.16,3.22-2.39,4.74-3.65h0c.92-.77,2.27-.65,3.03.27h0c.77.9.64,2.26-.28,3.03h0c-1.6,1.34-3.26,2.63-4.98,3.86h0c-.39.27-.83.41-1.26.41h0c-.67,0-1.33-.33-1.75-.91h0ZM239.62,361.68c-1.42-1.56-2.75-3.18-4.06-4.85h0c-.72-.93-.56-2.27.38-3h0c.94-.74,2.3-.57,3.03.38h0c1.22,1.58,2.5,3.11,3.83,4.6h0c.79.88.72,2.24-.16,3.03h0c-.41.37-.93.55-1.45.55h0c-.58,0-1.17-.23-1.58-.71h0ZM365.19,361.63c-.88-.79-.95-2.15-.16-3.02h0c1.35-1.5,2.61-3.04,3.85-4.62h0c.71-.95,2.07-1.11,3-.4h0c.94.73,1.13,2.09.41,3.02h0c-1.28,1.68-2.65,3.29-4.04,4.86h0c-.42.46-1.02.71-1.61.71h0c-.52,0-1.03-.19-1.45-.55h0ZM228.57,346.36c-1.02-1.81-1.99-3.69-2.9-5.6h0c-.51-1.06-.05-2.35,1.04-2.86h0c1.06-.51,2.35-.06,2.87,1.02h0c.84,1.81,1.76,3.59,2.75,5.33h0v-.02c.59,1.03.22,2.35-.8,2.94h0c-.34.19-.71.28-1.07.28h0c-.75,0-1.47-.4-1.88-1.09h0ZM376.31,346.91c-1.03-.57-1.41-1.89-.83-2.91h0c.98-1.74,1.89-3.53,2.74-5.34h0v.02c.5-1.09,1.79-1.55,2.87-1.06h0c1.08.5,1.55,1.79,1.05,2.86h0c-.91,1.92-1.87,3.79-2.88,5.61h0c-.4.71-1.13,1.11-1.89,1.11h0c-.35,0-.72-.1-1.05-.29h0ZM221.12,329.01c-.6-2-1.13-4.03-1.59-6.1h0c-.25-1.16.46-2.32,1.62-2.57h0c1.16-.26,2.31.45,2.58,1.63h0c.46,1.95.95,3.87,1.54,5.78h0c.33,1.12-.29,2.34-1.43,2.68h0c-.21.07-.43.1-.64.1h0c-.92,0-1.78-.6-2.07-1.53h0ZM383.94,330.15c-1.14-.35-1.78-1.55-1.45-2.69h0c.57-1.89,1.09-3.83,1.51-5.78h0v-.02c.28-1.16,1.41-1.89,2.57-1.63h0c1.18.25,1.91,1.41,1.63,2.57h0c-.44,2.05-.99,4.09-1.58,6.12h0c-.29.92-1.14,1.52-2.07,1.52h0c-.2,0-.4-.04-.61-.09h0ZM217.65,310.46c-.14-2.1-.23-4.19-.23-6.31h0c0-1.17.95-2.16,2.14-2.16h0c1.18,0,2.15.96,2.15,2.16h0c0,2,.09,4.01.24,5.99h0c.07,1.17-.82,2.21-1.99,2.31h0s-.09,0-.13,0h0c-1.14,0-2.09-.86-2.18-1.99h0ZM387.74,312.12c-1.2-.08-2.1-1.11-2.01-2.31h0c.14-1.96.22-3.97.22-6h0c0-1.16.97-2.14,2.17-2.14h0c1.17,0,2.14.98,2.14,2.14h0c0,2.14-.09,4.23-.22,6.31h0c-.09,1.14-1.06,2-2.18,2h0s-.09,0-.13,0h0ZM385.69,297.24c-.16-2-.38-3.99-.69-5.96h0v.02c-.19-1.17.62-2.28,1.8-2.46h0c1.17-.18,2.28.63,2.46,1.8h0c.31,2.06.55,4.15.74,6.27h0c.09,1.16-.81,2.23-1.99,2.31h0c-.06,0-.12,0-.17,0h0c-1.11,0-2.05-.86-2.14-1.99h0ZM220.09,294.02c-1.17-.19-2-1.26-1.81-2.44h0c.29-2.09.66-4.17,1.1-6.2h0c.27-1.17,1.4-1.91,2.58-1.64h0c1.15.23,1.89,1.39,1.63,2.56h0c-.42,1.95-.78,3.91-1.05,5.89h0l-.02.02c-.15,1.05-1.07,1.84-2.13,1.84h0c-.1,0-.2,0-.3-.02h0ZM382.33,279.62c-.59-1.92-1.25-3.8-1.98-5.67h0c-.45-1.1.11-2.35,1.22-2.79h0c1.1-.44,2.36.1,2.79,1.23h0c.75,1.94,1.45,3.94,2.08,5.95h0c.35,1.14-.3,2.35-1.43,2.7h0c-.21.06-.42.08-.62.08h0c-.93,0-1.79-.59-2.06-1.51h0ZM224.23,276.06c-1.12-.42-1.69-1.67-1.27-2.77h0c.75-1.98,1.57-3.91,2.47-5.82h0c.49-1.09,1.76-1.56,2.84-1.05h0c1.09.49,1.54,1.79,1.05,2.87h0c-.85,1.79-1.62,3.64-2.31,5.53h-.02c-.32.85-1.15,1.39-2.01,1.39h0c-.24,0-.49-.05-.74-.14h0ZM375.19,263.17c-1-1.73-2.05-3.44-3.15-5.1h-.02c-.66-.99-.41-2.33.59-2.99h0c.99-.66,2.33-.41,2.99.59h0c1.18,1.75,2.28,3.52,3.33,5.36h0c.58,1.04.23,2.35-.79,2.94h0c-.34.19-.72.29-1.08.29h0c-.75,0-1.48-.38-1.87-1.09h0ZM232.16,259.42c-.99-.64-1.26-1.98-.6-2.97h0c1.14-1.77,2.36-3.48,3.64-5.15h0c.71-.95,2.07-1.14,3.02-.4h0c.94.71,1.12,2.07.41,3.03h0c-1.22,1.58-2.4,3.21-3.47,4.88h-.02c-.41.62-1.09.96-1.79.96h0c-.4,0-.82-.12-1.19-.35h0ZM364.65,248.66c-1.35-1.5-2.74-2.93-4.17-4.32h0c-.89-.81-.9-2.18-.08-3.02h0c.81-.88,2.17-.9,3.03-.07h0c1.53,1.44,2.99,2.95,4.41,4.49h0c.81.88.73,2.24-.16,3.05h0c-.4.38-.92.56-1.44.56h0c-.59,0-1.18-.24-1.6-.69h0ZM243.53,244.92c-.83-.86-.81-2.23.04-3.05h0c1.51-1.47,3.07-2.86,4.68-4.23h0c.9-.78,2.26-.67,3.03.25h0c.75.92.63,2.27-.26,3.04h0c-1.55,1.28-3.01,2.63-4.45,4.02h-.02c-.41.41-.96.6-1.49.6h0c-.56,0-1.12-.21-1.54-.64h0ZM351.21,236.75c-1.63-1.16-3.31-2.24-5.02-3.29h0c-1.02-.6-1.36-1.93-.73-2.96h0c.61-1.01,1.93-1.33,2.96-.71h0c1.81,1.08,3.56,2.23,5.27,3.43h0c.97.7,1.21,2.04.52,3.02h0c-.42.59-1.08.91-1.75.91h0c-.43,0-.86-.13-1.25-.4h0ZM257.75,233.22c-.62-1.01-.31-2.35.72-2.96h0c1.78-1.1,3.6-2.15,5.47-3.13h0c1.05-.54,2.36-.15,2.9.92h0c.55,1.05.16,2.35-.91,2.91h0c-1.77.91-3.51,1.9-5.21,2.96h0c-.36.21-.75.31-1.14.31h0c-.72,0-1.42-.36-1.83-1.02h0ZM335.51,228.04c-1.83-.77-3.71-1.47-5.61-2.1h0c-1.12-.38-1.73-1.61-1.36-2.73h0c.39-1.13,1.59-1.74,2.74-1.36h0c2,.66,3.96,1.42,5.89,2.21h0c1.11.46,1.62,1.73,1.17,2.83h0c-.35.82-1.16,1.33-2,1.33h0c-.28,0-.55-.06-.83-.17h0ZM274.18,224.91c-.4-1.15.2-2.38,1.32-2.76h0c1.99-.68,4.01-1.31,6.03-1.84h0c1.16-.32,2.33.37,2.64,1.52h0c.3,1.14-.39,2.31-1.52,2.63h0c-1.95.54-3.86,1.1-5.73,1.76h0c-.23.09-.48.12-.71.12h0c-.89,0-1.73-.55-2.03-1.44h0ZM318.3,222.97c-1.97-.35-3.95-.62-5.95-.82h0c-1.18-.13-2.04-1.2-1.91-2.37h0c.13-1.17,1.18-2.04,2.37-1.91h0c2.1.22,4.2.51,6.25.86h0c1.15.21,1.95,1.34,1.74,2.5h0c-.19,1.05-1.12,1.78-2.13,1.78h0c-.12,0-.24-.02-.36-.04h0ZM292.04,220.35c-.15-1.17.7-2.24,1.9-2.39h0c2.07-.23,4.17-.38,6.27-.48h0c1.2-.06,2.19.88,2.24,2.07h0c.04,1.18-.88,2.19-2.06,2.23h0c-2.02.07-4,.24-5.99.46h0c-.08.01-.17.02-.25.02h0c-1.07,0-1.99-.81-2.11-1.91h0Z"/>
    </g>
  </g>
</svg>