<?xml version="1.0" encoding="UTF-8"?>
<svg id="Layer_2" data-name="Layer 2" xmlns="http://www.w3.org/2000/svg" viewBox="0 0 543.59 305.27">
  <defs>
    <style>
      .cls-1 {
        fill: #bfb47b;
      }
    </style>
  </defs>
  <g id="Layer_1-2" data-name="Layer 1">
    <path class="cls-1" d="M520.22,123.7C473.32,76.52,380.56,0,272.5,0S71.73,76.49,24.81,123.67C69.42,85.39,162.66,18.98,272.5,18.98s203.13,66.45,247.72,104.72ZM271.79,214.45c42.06,0,76.27-34.21,76.27-76.26,0-25.37-12.48-47.85-31.6-61.72-1.72-1.41-3.55-2.68-5.47-3.82,15.02,11.61,24.7,29.8,24.7,50.25,0,35.07-28.43,63.5-63.5,63.5s-63.5-28.43-63.5-63.5c0-21.26,10.46-40.07,26.51-51.6-23.62,12.97-39.67,38.09-39.67,66.89,0,42.05,34.21,76.26,76.26,76.26ZM529.09,175.61l.54-.58,8.15-8.69.8-.85c1.14-.75,2.26-1.63,3.22-2.63,3.96-4.12.47-7.46-2.27-6.37-4.25,1.68-5.69.6-5.69.6-70.34-67.42-161.26-122.01-262.04-123.33-100.78,1.32-191.69,55.9-262.04,123.33,0,0-1.45,1.08-5.7-.6-2.74-1.09-6.23,2.24-2.27,6.37l3.27,3.48,8.15,8.69.52.57c19.96,21.66,126.16,129.67,257.68,129.67s237.72-108.01,257.68-129.66ZM463.55,108.99c6.73,4.69,13.2,9.5,19.27,14.24-6.59-3.62-13.33-6.93-20.07-10.06.32-1.38.57-2.77.8-4.18ZM183.73,56.19c43.97-14.97,88.24-14.14,88.06-14.04-.03.17,19.74-.76,41.54,2.62,21.83,2.98,45.29,9.9,53.73,13.07,2.45.71,7.86,2.72,15.21,5.84l-.89,1.09c25.65,37.49,30.02,93.17,6.88,134.88-22.08,42.49-68.57,70.55-116.46,70.26-47.89.29-94.38-27.77-116.46-70.26-22.78-42.11-19.6-96.49,7.7-135.77l-.33-.22c6.86-2.71,13.91-5.25,21.04-7.46ZM79.91,107.76c.27,1.81.58,3.62.99,5.4-7.6,3.53-15.21,7.28-22.59,11.46,7.77-6.37,15.37-12.36,21.61-16.85ZM516.33,170.18c-8.3,3.47-16.92,6.39-25.63,8.82,6.6-1.18,13.15-2.62,19.64-4.37-8.52,5.9-17.25,11.49-26.32,16.54,7.65-3.55,15.12-7.48,22.47-11.66-12.18,11.25-24.89,21.97-38.38,31.69,14.27-9.16,27.79-19.41,40.85-30.26-18.62,16.42-45.67,38.76-55.97,43.87-7.41,4.99-48.96,31.03-93.15,44.73-43.97,14.97-88.24,14.14-88.05,14.04.03-.17-19.74.76-41.54-2.62-21.83-2.98-45.29-9.9-53.73-13.07-8.62-2.51-53.82-20.99-91.63-47.84-17.57-11.82-33.57-24.8-45.75-35.41,11.66,9.48,23.7,18.44,36.33,26.55-13.48-9.72-26.19-20.44-38.37-31.69,7.35,4.18,14.81,8.11,22.47,11.66-9.06-5.05-17.8-10.64-26.31-16.54,6.49,1.75,13.03,3.19,19.63,4.37-8.71-2.43-17.33-5.34-25.63-8.82-.99-.96-1.98-1.91-2.97-2.87,5.13-2.42,10.62-4.34,16.23-5.6-6.24.4-12.43,1.45-18.53,3.34-.31-.31-.62-.62-.93-.92.43-.5.88-.98,1.32-1.47,6.09-3.71,12.63-6.83,19.51-8.99-4.97.87-9.85,2.23-14.62,3.96,5.25-4.99,11.15-9.43,17.57-13-6.69,2.72-13.01,6.31-18.89,10.62,7.09-6.91,14.84-13.24,23.21-18.67-6.4,3.4-12.48,7.34-18.33,11.66.16-.17.31-.34.47-.51,4.67-4.17,10.06-8.86,15.68-13.64,10.6-7.99,22.28-14.85,33.92-20.92,1.24,5.43,3.22,10.6,6.63,14.92-3.84-7.07-4.25-15.26-3.88-22.94,2.74-1.86,5.11-3.33,6.94-4.24.95-.63,2.46-1.62,4.46-2.88-.9,9.02-.73,18.06,1.51,26.7-1.19-9.98.35-20,2.91-29.42,3.18-1.94,7.04-4.22,11.47-6.71-3.39,14.47-4.83,29.31-2.84,43.86-.8-15.99,2.58-31.85,7.81-46.62,4.27-2.35,8.95-4.83,13.94-7.35-10.67,24.12-12.71,50.52-11.57,76.06.05-27.27,4.32-55.73,17.59-79.04,4.66-2.26,9.55-4.54,14.6-6.75-3.93,7.2-9.01,17.86-12.23,30.05-6.79,22.19-5.01,47.78-3.69,56.88-.4,8.64,10.9,61.41,50.64,91.46,37.81,32.29,87.5,31.18,86.6,31.12-.12-.31,21.07.27,42.84-7.6,22-7.21,42.4-22.64,49.02-29.09,7.16-4.64,44.73-43.58,46.92-93.39,3.59-34.62-9.08-64.63-17.35-79.67,4.52,2.07,9.42,4.41,14.57,7,13.27,23.31,17.54,51.76,17.59,79.03,1.14-25.49-.89-51.84-11.51-75.92,4.55,2.37,9.25,4.91,14.02,7.61,5.16,14.66,8.48,30.38,7.68,46.23,1.97-14.4.58-29.07-2.73-43.39,3.85,2.25,7.72,4.59,11.57,7.03,2.42,9.2,3.85,18.93,2.7,28.63,2.17-8.38,2.39-17.13,1.58-25.88,3.37,2.2,6.72,4.48,10.02,6.81.46.31.91.62,1.37.94.25,7.25-.34,14.86-3.94,21.49,3.41-4.33,5.39-9.5,6.63-14.92,10.31,5.37,20.65,11.36,30.24,18.21,6.89,5.66,13,10.99,18.13,15.62-5.35-3.83-10.9-7.34-16.7-10.42,8.37,5.43,16.12,11.76,23.22,18.67-5.89-4.31-12.21-7.9-18.9-10.62,6.43,3.57,12.32,8.01,17.57,13-4.77-1.73-9.65-3.09-14.62-3.96,6.89,2.16,13.43,5.28,19.52,8.99.44.49.89.97,1.32,1.47-.31.3-.62.61-.93.92-6.1-1.89-12.29-2.94-18.53-3.34,5.62,1.25,11.11,3.17,16.23,5.6-.98.96-1.97,1.91-2.96,2.87Z"/>
  </g>
</svg>