<?xml version="1.0" encoding="UTF-8"?>
<svg id="Layer_2" data-name="Layer 2" xmlns="http://www.w3.org/2000/svg" viewBox="0 0 486.3 486.29">
  <defs>
    <style>
      .cls-1 {
        fill: #bfb47b;
      }
    </style>
  </defs>
  <g id="Layer_1-2" data-name="Layer 1">
    <g>
      <g>
        <path class="cls-1" d="M250.27,165.46c0-2.4-7.11-165.46-7.11-165.46,0,0-7.11,163.06-7.11,165.46s7.11,2.4,7.11,2.4c0,0,7.11,0,7.11-2.4Z"/>
        <path class="cls-1" d="M193.25,183.18c-1.69-1.69-122.04-111.96-122.04-111.96,0,0,110.29,120.32,111.99,122.02,1.7,1.69,6.72-3.33,6.72-3.33,0,0,5.04-5.04,3.34-6.73Z"/>
        <path class="cls-1" d="M165.46,236.03c-2.38,0-165.46,7.12-165.46,7.12,0,0,163.08,7.1,165.47,7.1s2.39-7.11,2.39-7.11c0,0,0-7.1-2.4-7.1Z"/>
        <path class="cls-1" d="M183.19,293.04c-1.7,1.7-111.98,122.04-111.98,122.04,0,0,120.34-110.27,122.03-111.98,1.7-1.69-3.34-6.71-3.34-6.71,0,0-5.02-5.03-6.72-3.34Z"/>
        <path class="cls-1" d="M236.04,320.84c0,2.39,7.12,165.45,7.12,165.45,0,0,7.1-163.05,7.1-165.45s-7.11-2.4-7.11-2.4c0,0-7.11,0-7.11,2.4Z"/>
        <path class="cls-1" d="M293.05,303.11c1.69,1.7,122.03,111.96,122.03,111.96,0,0-110.28-120.32-111.97-122.03-1.7-1.68-6.73,3.34-6.73,3.34,0,0-5.02,5.03-3.33,6.72Z"/>
        <path class="cls-1" d="M320.84,250.26c2.4,0,165.46-7.12,165.46-7.12,0,0-163.06-7.1-165.46-7.1s-2.4,7.11-2.4,7.11c0,0,.01,7.11,2.4,7.11Z"/>
        <path class="cls-1" d="M303.12,193.24c1.7-1.69,111.95-122.04,111.95-122.04,0,0-120.31,110.28-122,111.98-1.69,1.69,3.33,6.73,3.33,6.73,0,0,5.03,5.02,6.73,3.33Z"/>
        <g>
          <path class="cls-1" d="M220.55,170.01c-.35-.87-31.15-56.62-31.15-56.62,0,0,17.66,61.2,18.02,62.06.35.85,6.92-1.87,6.92-1.87,0,0,6.57-2.72,6.22-3.57Z"/>
          <path class="cls-1" d="M175.44,207.42c-.85-.37-62.05-18.02-62.05-18.02,0,0,55.75,30.79,56.61,31.15.86.35,3.58-6.22,3.58-6.22,0,0,2.73-6.57,1.86-6.92Z"/>
          <path class="cls-1" d="M170.01,265.76c-.87.35-56.62,31.13-56.62,31.13,0,0,61.2-17.65,62.05-18,.86-.36-1.86-6.93-1.86-6.93,0,0-2.71-6.57-3.56-6.21Z"/>
          <path class="cls-1" d="M207.41,310.86c-.36.85-18.02,62.03-18.02,62.03,0,0,30.8-55.74,31.15-56.59.36-.87-6.22-3.59-6.22-3.59,0,0-6.57-2.72-6.92-1.85Z"/>
          <path class="cls-1" d="M265.75,316.3c.35.85,31.16,56.59,31.16,56.59,0,0-17.66-61.18-18.02-62.04-.36-.85-6.92,1.86-6.92,1.86,0,0-6.57,2.73-6.22,3.59Z"/>
          <path class="cls-1" d="M310.85,278.89c.86.35,62.05,17.99,62.05,17.99,0,0-55.74-30.77-56.61-31.12-.86-.36-3.58,6.21-3.58,6.21,0,0-2.71,6.57-1.86,6.93Z"/>
          <path class="cls-1" d="M316.29,220.55c.86-.36,56.61-31.16,56.61-31.16,0,0-61.2,17.66-62.05,18.02-.85.34,1.86,6.92,1.86,6.92,0,0,2.73,6.57,3.58,6.22Z"/>
          <path class="cls-1" d="M278.88,175.45c.36-.87,18-62.06,18-62.06,0,0-30.79,55.75-31.14,56.62-.36.85,6.22,3.57,6.22,3.57,0,0,6.56,2.72,6.92,1.87Z"/>
        </g>
      </g>
      <path class="cls-1" d="M310.36,243.15c0,37.13-30.09,67.21-67.2,67.21s-67.22-30.09-67.22-67.21,30.1-67.23,67.22-67.23,67.2,30.1,67.2,67.23Z"/>
    </g>
  </g>
</svg>