<?xml version="1.0" encoding="UTF-8"?>
<svg id="Layer_2" data-name="Layer 2" xmlns="http://www.w3.org/2000/svg" viewBox="0 0 315.21 315.21">
  <defs>
    <style>
      .cls-1 {
        fill: #bfb47b;
      }
    </style>
  </defs>
  <g id="Layer_1-2" data-name="Layer 1">
    <g>
      <path class="cls-1" d="M179.89,135.31C160.38,93.95,157.61,0,157.61,0c0,0-2.78,93.95-22.29,135.31C93.95,154.83,0,157.6,0,157.6c0,0,93.95,2.78,135.32,22.29,19.51,41.36,22.29,135.32,22.29,135.32,0,0,2.77-93.96,22.28-135.32,41.37-19.51,135.32-22.29,135.32-22.29,0,0-93.95-2.78-135.32-22.29Z"/>
      <path class="cls-1" d="M178.21,157.6c10.1-28.13,52.22-72.82,52.22-72.82,0,0-44.7,42.13-72.83,52.23-28.12-10.09-72.82-52.23-72.82-52.23,0,0,42.13,44.69,52.23,72.82-10.1,28.13-52.22,72.82-52.22,72.82,0,0,44.69-42.12,72.82-52.23,28.13,10.11,72.83,52.23,72.83,52.23,0,0-42.13-44.69-52.22-72.82Z"/>
    </g>
  </g>
</svg>