<?xml version="1.0" encoding="UTF-8"?>
<svg id="Layer_2" data-name="Layer 2" xmlns="http://www.w3.org/2000/svg" viewBox="0 0 238.88 238.88">
  <defs>
    <style>
      .cls-1 {
        fill: #bfb47b;
      }
    </style>
  </defs>
  <g id="Layer_1-2" data-name="Layer 1">
    <g>
      <path class="cls-1" d="M138.5,119.44c9.34-26.03,48.32-67.38,48.32-67.38,0,0-41.35,38.98-67.38,48.32-26.02-9.34-67.38-48.32-67.38-48.32,0,0,38.98,41.35,48.32,67.38-9.34,26.03-48.32,67.38-48.32,67.38,0,0,41.35-38.98,67.38-48.32,26.03,9.34,67.38,48.32,67.38,48.32,0,0-38.98-41.35-48.32-67.38Z"/>
      <path class="cls-1" d="M128.25,128.25c16.34-7.71,110.63-8.81,110.63-8.81,0,0-94.29-1.1-110.63-8.81C120.53,94.29,119.44,0,119.44,0c0,0-1.09,94.29-8.81,110.63C94.29,118.34,0,119.44,0,119.44c0,0,94.29,1.1,110.63,8.81,7.71,16.34,8.81,110.63,8.81,110.63,0,0,1.09-94.29,8.81-110.63Z"/>
    </g>
  </g>
</svg>