<?xml version="1.0" encoding="UTF-8"?>
<svg id="Layer_2" data-name="Layer 2" xmlns="http://www.w3.org/2000/svg" viewBox="0 0 313.76 313.75">
  <defs>
    <style>
      .cls-1 {
        fill: #bfb47b;
      }
    </style>
  </defs>
  <g id="Layer_1-2" data-name="Layer 1">
    <g>
      <path class="cls-1" d="M179.06,134.69C159.64,93.52,156.88,0,156.88,0c0,0-2.76,93.52-22.19,134.69C93.52,154.12,0,156.87,0,156.87c0,0,93.52,2.76,134.69,22.19,19.43,41.17,22.19,134.69,22.19,134.69,0,0,2.76-93.52,22.18-134.69,41.18-19.43,134.69-22.19,134.69-22.19,0,0-93.52-2.76-134.69-22.18Z"/>
      <path class="cls-1" d="M188.26,156.87c15.38-42.85,79.56-110.92,79.56-110.92,0,0-68.09,64.17-110.94,79.54-42.84-15.37-110.93-79.55-110.93-79.55,0,0,64.18,68.08,79.55,110.93-15.37,42.85-79.55,110.93-79.55,110.93,0,0,68.09-64.18,110.93-79.55,42.85,15.37,110.94,79.55,110.94,79.55,0,0-64.18-68.08-79.56-110.93Z"/>
    </g>
  </g>
</svg>