<?xml version="1.0" encoding="UTF-8"?>
<svg id="Layer_2" data-name="Layer 2" xmlns="http://www.w3.org/2000/svg" viewBox="0 0 337.99 337.99">
  <defs>
    <style>
      .cls-1 {
        fill: #bfb47b;
      }
    </style>
  </defs>
  <g id="Layer_1-2" data-name="Layer 1">
    <g>
      <path class="cls-1" d="M162.02,195.04c32.15,22.3,74.39,90.72,74.39,90.72,0,0-38.13-70.8-41.37-109.79,22.3-32.14,90.72-74.39,90.72-74.39,0,0-70.78,38.13-109.78,41.37-32.15-22.3-74.39-90.71-74.39-90.71,0,0,38.13,70.79,41.37,109.78-22.3,32.15-90.73,74.39-90.73,74.39,0,0,70.8-38.13,109.78-41.37Z"/>
      <path class="cls-1" d="M175.98,195.04c-32.16,22.3-74.39,90.72-74.39,90.72,0,0,38.13-70.8,41.36-109.79-22.29-32.14-90.72-74.39-90.72-74.39,0,0,70.79,38.13,109.78,41.37,32.15-22.3,74.39-90.71,74.39-90.71,0,0-38.13,70.79-41.37,109.78,22.3,32.15,90.72,74.39,90.72,74.39,0,0-70.79-38.13-109.78-41.37Z"/>
      <path class="cls-1" d="M181.45,181.45c23.12-10.91,156.53-12.46,156.53-12.46,0,0-133.41-1.54-156.53-12.46C170.55,133.41,168.99,0,168.99,0c0,0-1.54,133.41-12.46,156.53C133.41,167.45,0,168.99,0,168.99c0,0,133.41,1.55,156.53,12.46,10.91,23.13,12.46,156.54,12.46,156.54,0,0,1.55-133.4,12.46-156.54Z"/>
    </g>
  </g>
</svg>