<?xml version="1.0" encoding="UTF-8"?>
<svg id="Layer_2" data-name="Layer 2" xmlns="http://www.w3.org/2000/svg" viewBox="0 0 403.02 403.02">
  <defs>
    <style>
      .cls-1 {
        fill: #bfb47b;
      }
    </style>
  </defs>
  <g id="Layer_1-2" data-name="Layer 1">
    <path class="cls-1" d="M373.98,191.41c-14.73-.94-15.13,5.4-29.86,4.45-14.72-.94-14.33-7.27-29.05-8.21-14.73-.94-15.13,5.4-29.86,4.46-11.63-.75-13.83-4.85-21.49-7.01-.19-.67-.37-1.34-.57-2.02,3.87-.5,6.97-.04,13.03-3.24,9.57-5.06,7.39-9.17,16.95-14.23,9.58-5.05,11.74-.94,21.32-6.01,9.56-5.06,7.38-9.17,16.95-14.24,9.56-5.06,11.73-.95,21.3-6-10.2,3.6-11.75-.79-21.95,2.8-10.22,3.6-8.66,7.99-18.88,11.59-10.2,3.6-11.75-.79-21.95,2.81-10.21,3.6-8.66,7.99-18.87,11.59-6.68,2.36-9.65,1.29-13.79,1.29-.29-.52-.58-1.02-.9-1.52,5.88-5.29,10.51-5.01,17.3-14.44,8.63-11.97,3.49-15.69,12.1-27.66,8.63-11.97,13.77-8.26,22.4-20.23,8.62-11.98,3.48-15.69,12.09-27.67,8.63-11.97,13.79-8.26,22.41-20.25-11.08,9.75-15.27,4.99-26.35,14.75-11.07,9.75-6.88,14.51-17.96,24.27-11.08,9.75-15.27,4.99-26.35,14.73-11.08,9.75-6.88,14.52-17.96,24.27-8.75,7.69-13.21,6.35-20.16,10.24-.6-.35-1.21-.7-1.83-1.03,2.4-3.1,4.92-4.96,6.92-11.51,3.18-10.34-1.26-11.71,1.94-22.05,3.17-10.34,7.63-8.98,10.82-19.32,3.18-10.35-1.27-11.72,1.92-22.05,3.19-10.34,7.63-8.98,10.82-19.32-4.67,9.76-8.87,7.75-13.53,17.51-4.69,9.77-.48,11.78-5.15,21.54-4.69,9.76-8.87,7.75-13.55,17.52-4.68,9.75-.47,11.77-5.15,21.53-3.06,6.39-5.92,7.74-8.84,10.65-.57-.15-1.13-.3-1.71-.43.41-7.9,3.88-10.97,2.03-22.44-2.38-14.57-8.65-13.55-11.01-28.11-2.36-14.57,3.9-15.59,1.52-30.15-2.36-14.57-8.63-13.55-11-28.12-2.36-14.56,3.89-15.59,1.53-30.15-.94,14.73-7.27,14.32-8.21,29.06-.94,14.72,5.4,15.13,4.46,29.85-.95,14.73-7.26,14.33-8.2,29.05-.95,14.73,5.38,15.14,4.44,29.87-.73,11.62-4.84,13.83-6.99,21.48-.67.17-1.36.37-2.02.57-.51-3.89-.05-6.98-3.26-13.04-5.05-9.55-9.16-7.39-14.22-16.95-5.06-9.58-.95-11.74-6.01-21.32-5.06-9.56-9.17-7.39-14.23-16.95-5.06-9.57-.96-11.74-6.01-21.31,3.6,10.2-.79,11.74,2.81,21.96,3.59,10.21,7.99,8.66,11.59,18.86,3.59,10.2-.8,11.76,2.81,21.97,3.6,10.21,7.99,8.66,11.58,18.86,2.36,6.69,1.3,9.66,1.29,13.78-.51.3-1.03.61-1.52.91-5.29-5.87-5-10.51-14.43-17.3-11.98-8.63-15.69-3.47-27.66-12.1-11.98-8.63-8.28-13.78-20.25-22.4-11.96-8.63-15.68-3.48-27.65-12.11-11.98-8.62-8.27-13.77-20.25-22.4,9.74,11.09,4.98,15.28,14.73,26.36,9.74,11.08,14.52,6.88,24.27,17.96,9.75,11.08,4.99,15.27,14.73,26.35,9.76,11.08,14.52,6.89,24.28,17.96,7.7,8.75,6.35,13.21,10.25,20.15-.35.6-.71,1.2-1.03,1.83-3.1-2.39-4.96-4.91-11.51-6.92-10.34-3.19-11.72,1.26-22.06-1.93-10.35-3.18-8.98-7.63-19.31-10.82-10.35-3.19-11.72,1.26-22.07-1.92-10.33-3.19-8.96-7.65-19.31-10.83,9.77,4.68,7.76,8.88,17.52,13.55,9.76,4.66,11.77.47,21.53,5.14,9.77,4.68,7.74,8.87,17.51,13.54,9.76,4.67,11.78.47,21.55,5.14,6.39,3.07,7.74,5.92,10.65,8.85-.15.57-.3,1.13-.44,1.71-7.88-.41-10.96-3.89-22.43-2.02-14.56,2.36-13.54,8.64-28.12,11-14.56,2.37-15.58-3.89-30.14-1.52-14.58,2.36-13.54,8.63-28.12,11-14.56,2.36-15.58-3.9-30.16-1.53,14.73.93,14.33,7.27,29.06,8.21,14.73.93,15.14-5.4,29.87-4.45,14.71.93,14.32,7.26,29.05,8.2,14.72.93,15.13-5.39,29.85-4.47,11.63.75,13.85,4.85,21.49,7.01.19.69.39,1.36.58,2.03-3.88.51-6.98.04-13.04,3.23-9.56,5.06-7.37,9.18-16.95,14.24-9.58,5.06-11.74.95-21.31,6-9.56,5.07-7.4,9.18-16.95,14.24-9.58,5.06-11.75.95-21.31,6.02,10.2-3.61,11.74.78,21.96-2.82,10.21-3.58,8.65-7.98,18.87-11.58,10.2-3.6,11.74.79,21.95-2.81,10.22-3.6,8.67-7.99,18.87-11.59,6.68-2.36,9.65-1.29,13.79-1.29.3.51.59,1.01.9,1.52-5.88,5.29-10.51,5.01-17.3,14.43-8.61,11.98-3.47,15.69-12.09,27.66-8.63,11.97-13.77,8.27-22.4,20.24-8.63,11.97-3.47,15.69-12.11,27.66-8.62,11.97-13.76,8.27-22.39,20.25,11.08-9.75,15.27-4.99,26.35-14.74,11.08-9.76,6.89-14.52,17.96-24.27,11.09-9.75,15.27-4.99,26.35-14.73,11.06-9.76,6.87-14.52,17.96-24.27,8.75-7.69,13.2-6.36,20.14-10.24.6.35,1.21.69,1.82,1.03-2.37,3.1-4.91,4.96-6.91,11.51-3.19,10.33,1.25,11.71-1.92,22.06-3.19,10.34-7.64,8.98-10.83,19.32-3.18,10.34,1.28,11.71-1.92,22.05-3.18,10.35-7.63,8.98-10.81,19.32,4.67-9.76,8.87-7.75,13.54-17.52,4.67-9.76.47-11.77,5.14-21.54,4.67-9.75,8.87-7.75,13.56-17.51,4.66-9.76.47-11.78,5.13-21.53,3.06-6.39,5.91-7.74,8.85-10.66.58.16,1.14.3,1.72.44-.41,7.89-3.88,10.98-2.03,22.44,2.36,14.57,8.64,13.55,11,28.11,2.37,14.57-3.89,15.59-1.52,30.16,2.37,14.57,8.63,13.54,11.01,28.11,2.35,14.56-3.91,15.59-1.55,30.16.95-14.72,7.29-14.33,8.23-29.06.93-14.72-5.4-15.13-4.46-29.86.94-14.72,7.26-14.32,8.2-29.04.94-14.73-5.4-15.14-4.45-29.87.72-11.62,4.83-13.83,7-21.48.67-.18,1.34-.37,2.02-.57.51,3.88.04,6.98,3.24,13.03,5.06,9.57,9.17,7.4,14.24,16.97,5.06,9.57.94,11.74,6.01,21.3,5.05,9.58,9.16,7.39,14.23,16.96,5.05,9.56.95,11.74,6.02,21.31-3.61-10.22.79-11.76-2.82-21.96-3.6-10.2-7.99-8.66-11.58-18.87-3.62-10.21.79-11.75-2.82-21.96-3.6-10.21-7.99-8.66-11.58-18.87-2.36-6.68-1.3-9.66-1.3-13.78.54-.29,1.04-.6,1.53-.9,5.3,5.87,5.01,10.51,14.43,17.29,11.98,8.63,15.69,3.48,27.67,12.1,11.98,8.63,8.26,13.77,20.24,22.4,11.98,8.63,15.69,3.47,27.66,12.11,11.98,8.62,8.27,13.77,20.23,22.39-9.73-11.08-4.97-15.27-14.71-26.35-9.76-11.07-14.52-6.88-24.27-17.96-9.74-11.07-4.98-15.27-14.73-26.35-9.75-11.06-14.51-6.88-24.26-17.95-7.71-8.75-6.35-13.21-10.25-20.16.35-.6.69-1.22,1.03-1.82,3.09,2.38,4.96,4.9,11.51,6.92,10.34,3.19,11.72-1.26,22.05,1.93,10.35,3.19,8.98,7.63,19.34,10.82,10.33,3.19,11.7-1.26,22.03,1.92,10.34,3.19,8.97,7.64,19.32,10.82-9.75-4.67-7.74-8.87-17.51-13.54-9.76-4.67-11.77-.46-21.53-5.14-9.76-4.67-7.75-8.87-17.51-13.54-9.77-4.68-11.79-.49-21.54-5.15-6.39-3.06-7.75-5.92-10.66-8.84.17-.56.3-1.14.44-1.72,7.9.42,10.98,3.9,22.43,2.03,14.58-2.37,13.55-8.63,28.12-10.99,14.56-2.39,15.6,3.88,30.15,1.51,14.57-2.37,13.55-8.63,28.11-11,14.56-2.37,15.6,3.9,30.15,1.53-14.72-.94-14.32-7.28-29.04-8.21Z"/>
  </g>
</svg>