<?xml version="1.0" encoding="UTF-8"?>
<svg id="Layer_2" xmlns="http://www.w3.org/2000/svg" xmlns:xlink="http://www.w3.org/1999/xlink" viewBox="0 0 353.92 258">
  <defs>
    <style>
      .cls-1 {
        fill: url(#linear-gradient-8);
      }

      .cls-2 {
        fill: url(#linear-gradient-7);
      }

      .cls-3 {
        fill: url(#linear-gradient-5);
      }

      .cls-4 {
        fill: url(#linear-gradient-6);
      }

      .cls-5 {
        fill: url(#linear-gradient-9);
      }

      .cls-6 {
        fill: url(#linear-gradient-4);
      }

      .cls-7 {
        fill: url(#linear-gradient-3);
      }

      .cls-8 {
        fill: url(#linear-gradient-2);
      }

      .cls-9 {
        fill: url(#linear-gradient);
      }

      .cls-10 {
        fill: #d7c687;
      }

      .cls-11 {
        fill: url(#linear-gradient-43);
      }

      .cls-12 {
        fill: url(#linear-gradient-40);
      }

      .cls-13 {
        fill: url(#linear-gradient-41);
      }

      .cls-14 {
        fill: url(#linear-gradient-42);
      }

      .cls-15 {
        fill: url(#linear-gradient-49);
      }

      .cls-16 {
        fill: url(#linear-gradient-48);
      }

      .cls-17 {
        fill: url(#linear-gradient-45);
      }

      .cls-18 {
        fill: url(#linear-gradient-47);
      }

      .cls-19 {
        fill: url(#linear-gradient-44);
      }

      .cls-20 {
        fill: url(#linear-gradient-46);
      }

      .cls-21 {
        fill: url(#linear-gradient-10);
      }

      .cls-22 {
        fill: url(#linear-gradient-11);
      }

      .cls-23 {
        fill: url(#linear-gradient-12);
      }

      .cls-24 {
        fill: url(#linear-gradient-13);
      }

      .cls-25 {
        fill: url(#linear-gradient-19);
      }

      .cls-26 {
        fill: url(#linear-gradient-14);
      }

      .cls-27 {
        fill: url(#linear-gradient-21);
      }

      .cls-28 {
        fill: url(#linear-gradient-20);
      }

      .cls-29 {
        fill: url(#linear-gradient-22);
      }

      .cls-30 {
        fill: url(#linear-gradient-23);
      }

      .cls-31 {
        fill: url(#linear-gradient-28);
      }

      .cls-32 {
        fill: url(#linear-gradient-25);
      }

      .cls-33 {
        fill: url(#linear-gradient-32);
      }

      .cls-34 {
        fill: url(#linear-gradient-31);
      }

      .cls-35 {
        fill: url(#linear-gradient-33);
      }

      .cls-36 {
        fill: url(#linear-gradient-30);
      }

      .cls-37 {
        fill: url(#linear-gradient-15);
      }

      .cls-38 {
        fill: url(#linear-gradient-16);
      }

      .cls-39 {
        fill: url(#linear-gradient-17);
      }

      .cls-40 {
        fill: url(#linear-gradient-18);
      }

      .cls-41 {
        fill: url(#linear-gradient-35);
      }

      .cls-42 {
        fill: url(#linear-gradient-34);
      }

      .cls-43 {
        fill: url(#linear-gradient-36);
      }

      .cls-44 {
        fill: url(#linear-gradient-38);
      }

      .cls-45 {
        fill: url(#linear-gradient-27);
      }

      .cls-46 {
        fill: url(#linear-gradient-24);
      }

      .cls-47 {
        fill: url(#linear-gradient-26);
      }

      .cls-48 {
        fill: url(#linear-gradient-29);
      }

      .cls-49 {
        fill: url(#linear-gradient-37);
      }

      .cls-50 {
        fill: url(#linear-gradient-39);
      }

      .cls-51 {
        fill: url(#linear-gradient-57);
      }

      .cls-52 {
        fill: url(#linear-gradient-58);
      }

      .cls-53 {
        fill: url(#linear-gradient-59);
      }

      .cls-54 {
        fill: url(#linear-gradient-53);
      }

      .cls-55 {
        fill: url(#linear-gradient-54);
      }

      .cls-56 {
        fill: url(#linear-gradient-55);
      }

      .cls-57 {
        fill: url(#linear-gradient-56);
      }

      .cls-58 {
        fill: url(#linear-gradient-50);
      }

      .cls-59 {
        fill: url(#linear-gradient-51);
      }

      .cls-60 {
        fill: url(#linear-gradient-52);
      }

      .cls-61 {
        fill: url(#linear-gradient-67);
      }

      .cls-62 {
        fill: url(#linear-gradient-68);
      }

      .cls-63 {
        fill: url(#linear-gradient-69);
      }

      .cls-64 {
        fill: url(#linear-gradient-63);
      }

      .cls-65 {
        fill: url(#linear-gradient-64);
      }

      .cls-66 {
        fill: url(#linear-gradient-65);
      }

      .cls-67 {
        fill: url(#linear-gradient-66);
      }

      .cls-68 {
        fill: url(#linear-gradient-60);
      }

      .cls-69 {
        fill: url(#linear-gradient-61);
      }

      .cls-70 {
        fill: url(#linear-gradient-62);
      }

      .cls-71 {
        fill: url(#linear-gradient-79);
      }

      .cls-72 {
        fill: url(#linear-gradient-78);
      }

      .cls-73 {
        fill: url(#linear-gradient-75);
      }

      .cls-74 {
        fill: url(#linear-gradient-72);
      }

      .cls-75 {
        fill: url(#linear-gradient-77);
      }

      .cls-76 {
        fill: url(#linear-gradient-74);
      }

      .cls-77 {
        fill: url(#linear-gradient-76);
      }

      .cls-78 {
        fill: url(#linear-gradient-71);
      }

      .cls-79 {
        fill: url(#linear-gradient-73);
      }

      .cls-80 {
        fill: url(#linear-gradient-70);
      }

      .cls-81 {
        fill: url(#linear-gradient-87);
      }

      .cls-82 {
        fill: url(#linear-gradient-88);
      }

      .cls-83 {
        fill: url(#linear-gradient-89);
      }

      .cls-84 {
        fill: url(#linear-gradient-85);
      }

      .cls-85 {
        fill: url(#linear-gradient-83);
      }

      .cls-86 {
        fill: url(#linear-gradient-82);
      }

      .cls-87 {
        fill: url(#linear-gradient-84);
      }

      .cls-88 {
        fill: url(#linear-gradient-86);
      }

      .cls-89 {
        fill: url(#linear-gradient-81);
      }

      .cls-90 {
        fill: url(#linear-gradient-80);
      }

      .cls-91 {
        fill: url(#linear-gradient-99);
      }

      .cls-92 {
        fill: url(#linear-gradient-96);
      }

      .cls-93 {
        fill: url(#linear-gradient-97);
      }

      .cls-94 {
        fill: url(#linear-gradient-98);
      }

      .cls-95 {
        fill: url(#linear-gradient-92);
      }

      .cls-96 {
        fill: url(#linear-gradient-93);
      }

      .cls-97 {
        fill: url(#linear-gradient-94);
      }

      .cls-98 {
        fill: url(#linear-gradient-91);
      }

      .cls-99 {
        fill: url(#linear-gradient-95);
      }

      .cls-100 {
        fill: url(#linear-gradient-90);
      }

      .cls-101 {
        fill: #ab9461;
      }

      .cls-102 {
        fill: url(#linear-gradient-107);
      }

      .cls-103 {
        fill: url(#linear-gradient-108);
      }

      .cls-104 {
        fill: url(#linear-gradient-109);
      }

      .cls-105 {
        fill: url(#linear-gradient-105);
      }

      .cls-106 {
        fill: url(#linear-gradient-106);
      }

      .cls-107 {
        fill: url(#linear-gradient-104);
      }

      .cls-108 {
        fill: url(#linear-gradient-103);
      }

      .cls-109 {
        fill: url(#linear-gradient-102);
      }

      .cls-110 {
        fill: url(#linear-gradient-101);
      }

      .cls-111 {
        fill: url(#linear-gradient-100);
      }

      .cls-112 {
        fill: url(#linear-gradient-124);
      }

      .cls-113 {
        fill: url(#linear-gradient-125);
      }

      .cls-114 {
        fill: url(#linear-gradient-123);
      }

      .cls-115 {
        fill: url(#linear-gradient-122);
      }

      .cls-116 {
        fill: url(#linear-gradient-121);
      }

      .cls-117 {
        fill: url(#linear-gradient-120);
      }

      .cls-118 {
        fill: url(#linear-gradient-116);
      }

      .cls-119 {
        fill: url(#linear-gradient-117);
      }

      .cls-120 {
        fill: url(#linear-gradient-115);
      }

      .cls-121 {
        fill: url(#linear-gradient-110);
      }

      .cls-122 {
        fill: url(#linear-gradient-114);
      }

      .cls-123 {
        fill: url(#linear-gradient-113);
      }

      .cls-124 {
        fill: url(#linear-gradient-118);
      }

      .cls-125 {
        fill: url(#linear-gradient-112);
      }

      .cls-126 {
        fill: url(#linear-gradient-111);
      }

      .cls-127 {
        fill: url(#linear-gradient-119);
      }

      .cls-128 {
        fill: #aa8d71;
      }
    </style>
    <linearGradient id="linear-gradient" x1="1059.97" y1="-976.9" x2="1059.97" y2="252.94" gradientTransform="translate(1114.68 20.2) rotate(-180)" gradientUnits="userSpaceOnUse">
      <stop offset="0" stop-color="#7f613b"/>
      <stop offset=".04" stop-color="#876a41"/>
      <stop offset=".11" stop-color="#9d8354"/>
      <stop offset=".12" stop-color="#a08757"/>
      <stop offset=".16" stop-color="#ab9461"/>
      <stop offset=".22" stop-color="#c5b278"/>
      <stop offset=".29" stop-color="#d7c687"/>
      <stop offset=".34" stop-color="#eadb97"/>
      <stop offset=".45" stop-color="#e5d593"/>
      <stop offset=".63" stop-color="#cfbc7f"/>
      <stop offset=".73" stop-color="#b59d66"/>
      <stop offset=".87" stop-color="#927546"/>
      <stop offset="1" stop-color="#826337"/>
    </linearGradient>
    <linearGradient id="linear-gradient-2" x1="985.83" y1="-976.9" x2="985.83" y2="252.95" xlink:href="#linear-gradient"/>
    <linearGradient id="linear-gradient-3" x1="853.83" y1="-976.9" x2="853.83" y2="252.94" xlink:href="#linear-gradient"/>
    <linearGradient id="linear-gradient-4" x1="900.58" y1="-976.9" x2="900.58" y2="252.94" xlink:href="#linear-gradient"/>
    <linearGradient id="linear-gradient-5" x1="1008.87" y1="-976.9" x2="1008.87" y2="252.94" xlink:href="#linear-gradient"/>
    <linearGradient id="linear-gradient-6" x1="1084.34" y1="-976.9" x2="1084.34" y2="252.94" xlink:href="#linear-gradient"/>
    <linearGradient id="linear-gradient-7" x1="1108.23" y1="-976.9" x2="1108.23" y2="252.92" xlink:href="#linear-gradient"/>
    <linearGradient id="linear-gradient-8" x1="1098.34" y1="-976.9" x2="1098.34" y2="252.94" xlink:href="#linear-gradient"/>
    <linearGradient id="linear-gradient-9" x1="1088.03" y1="-976.89" x2="1088.03" y2="252.94" xlink:href="#linear-gradient"/>
    <linearGradient id="linear-gradient-10" x1="1076.17" y1="-976.9" x2="1076.17" y2="252.94" xlink:href="#linear-gradient"/>
    <linearGradient id="linear-gradient-11" x1="1088.54" y1="-976.9" x2="1088.54" y2="252.94" xlink:href="#linear-gradient"/>
    <linearGradient id="linear-gradient-12" x1="1063.44" y1="-976.9" x2="1063.44" y2="252.94" xlink:href="#linear-gradient"/>
    <linearGradient id="linear-gradient-13" x1="1078.71" y1="-976.9" x2="1078.71" y2="252.95" xlink:href="#linear-gradient"/>
    <linearGradient id="linear-gradient-14" x1="1070.61" y1="-976.9" x2="1070.61" y2="252.94" xlink:href="#linear-gradient"/>
    <linearGradient id="linear-gradient-15" x1="1058.14" y1="-976.9" x2="1058.14" y2="252.94" xlink:href="#linear-gradient"/>
    <linearGradient id="linear-gradient-16" x1="1099.04" y1="-976.9" x2="1099.04" y2="252.94" xlink:href="#linear-gradient"/>
    <linearGradient id="linear-gradient-17" x1="1112.33" y1="-976.89" x2="1112.33" y2="252.94" xlink:href="#linear-gradient"/>
    <linearGradient id="linear-gradient-18" x1="1080.9" y1="-976.9" x2="1080.9" y2="252.94" xlink:href="#linear-gradient"/>
    <linearGradient id="linear-gradient-19" x1="1092.39" y1="-976.9" x2="1092.39" y2="252.94" xlink:href="#linear-gradient"/>
    <linearGradient id="linear-gradient-20" x1="1077.6" y1="-976.9" x2="1077.6" y2="252.95" xlink:href="#linear-gradient"/>
    <linearGradient id="linear-gradient-21" x1="1061.01" y1="-976.9" x2="1061.01" y2="252.94" xlink:href="#linear-gradient"/>
    <linearGradient id="linear-gradient-22" x1="1071.18" y1="-976.89" x2="1071.18" y2="252.94" xlink:href="#linear-gradient"/>
    <linearGradient id="linear-gradient-23" x1="1097.94" y1="-976.9" x2="1097.94" y2="252.94" xlink:href="#linear-gradient"/>
    <linearGradient id="linear-gradient-24" x1="1101.78" y1="-976.9" x2="1101.78" y2="252.94" xlink:href="#linear-gradient"/>
    <linearGradient id="linear-gradient-25" x1="1082.79" y1="-976.89" x2="1082.79" y2="252.94" xlink:href="#linear-gradient"/>
    <linearGradient id="linear-gradient-26" x1="1067.05" y1="-976.9" x2="1067.05" y2="252.94" xlink:href="#linear-gradient"/>
    <linearGradient id="linear-gradient-27" x1="1076.67" y1="-976.9" x2="1076.67" y2="252.94" xlink:href="#linear-gradient"/>
    <linearGradient id="linear-gradient-28" x1="1065.68" y1="-976.89" x2="1065.68" y2="252.94" xlink:href="#linear-gradient"/>
    <linearGradient id="linear-gradient-29" x1="1047.92" y1="-976.89" x2="1047.92" y2="252.94" xlink:href="#linear-gradient"/>
    <linearGradient id="linear-gradient-30" x1="1032.77" y1="-976.89" x2="1032.77" y2="252.94" xlink:href="#linear-gradient"/>
    <linearGradient id="linear-gradient-31" x1="1052.33" y1="-976.9" x2="1052.33" y2="252.94" xlink:href="#linear-gradient"/>
    <linearGradient id="linear-gradient-32" x1="1065.96" y1="-976.89" x2="1065.96" y2="252.94" xlink:href="#linear-gradient"/>
    <linearGradient id="linear-gradient-33" x1="1054.38" y1="-976.9" x2="1054.38" y2="252.94" xlink:href="#linear-gradient"/>
    <linearGradient id="linear-gradient-34" x1="1039.93" y1="-976.9" x2="1039.93" y2="252.94" xlink:href="#linear-gradient"/>
    <linearGradient id="linear-gradient-35" x1="1021.8" y1="-976.9" x2="1021.8" y2="252.94" xlink:href="#linear-gradient"/>
    <linearGradient id="linear-gradient-36" x1="1052.38" y1="-976.9" x2="1052.38" y2="252.94" xlink:href="#linear-gradient"/>
    <linearGradient id="linear-gradient-37" x1="1033.63" y1="-976.89" x2="1033.63" xlink:href="#linear-gradient"/>
    <linearGradient id="linear-gradient-38" x1="1016.3" y1="-976.89" x2="1016.3" xlink:href="#linear-gradient"/>
    <linearGradient id="linear-gradient-39" x1="1044.64" y1="-976.89" x2="1044.64" y2="252.94" xlink:href="#linear-gradient"/>
    <linearGradient id="linear-gradient-40" x1="1026.76" y1="-976.89" x2="1026.76" y2="252.94" xlink:href="#linear-gradient"/>
    <linearGradient id="linear-gradient-41" x1="1070.96" y1="-976.89" x2="1070.96" y2="252.94" xlink:href="#linear-gradient"/>
    <linearGradient id="linear-gradient-42" x1="1040.02" y1="-976.9" x2="1040.02" y2="252.94" xlink:href="#linear-gradient"/>
    <linearGradient id="linear-gradient-43" x1="1057.43" y1="-976.9" x2="1057.43" y2="252.94" xlink:href="#linear-gradient"/>
    <linearGradient id="linear-gradient-44" x1="1082.67" y1="-976.88" x2="1082.67" y2="252.93" xlink:href="#linear-gradient"/>
    <linearGradient id="linear-gradient-45" x1="1056.23" y1="-976.9" x2="1056.23" y2="252.94" xlink:href="#linear-gradient"/>
    <linearGradient id="linear-gradient-46" x1="1073.18" y1="-976.89" x2="1073.18" y2="252.94" xlink:href="#linear-gradient"/>
    <linearGradient id="linear-gradient-47" x1="1075.56" y1="-976.9" x2="1075.56" y2="252.94" xlink:href="#linear-gradient"/>
    <linearGradient id="linear-gradient-48" x1="1111.18" y1="-976.9" x2="1111.18" y2="252.94" xlink:href="#linear-gradient"/>
    <linearGradient id="linear-gradient-49" x1="1040.01" y1="-976.9" x2="1040.01" y2="252.94" xlink:href="#linear-gradient"/>
    <linearGradient id="linear-gradient-50" x1="1025.33" y1="-976.9" x2="1025.33" y2="252.94" xlink:href="#linear-gradient"/>
    <linearGradient id="linear-gradient-51" x1="1030.46" y1="-976.9" x2="1030.46" y2="252.94" xlink:href="#linear-gradient"/>
    <linearGradient id="linear-gradient-52" x1="1021.76" y1="-976.9" x2="1021.76" y2="252.94" xlink:href="#linear-gradient"/>
    <linearGradient id="linear-gradient-53" x1="1014.08" x2="1014.08" xlink:href="#linear-gradient"/>
    <linearGradient id="linear-gradient-54" x1="1000.59" y1="-976.9" x2="1000.59" y2="252.94" xlink:href="#linear-gradient"/>
    <linearGradient id="linear-gradient-55" x1="990.12" y1="-976.89" x2="990.12" xlink:href="#linear-gradient"/>
    <linearGradient id="linear-gradient-56" x1="982.01" y1="-976.9" x2="982.01" y2="252.94" xlink:href="#linear-gradient"/>
    <linearGradient id="linear-gradient-57" x1="977.71" y1="-976.9" x2="977.71" y2="252.94" xlink:href="#linear-gradient"/>
    <linearGradient id="linear-gradient-58" x1="1008.75" y1="-976.89" x2="1008.75" y2="252.94" xlink:href="#linear-gradient"/>
    <linearGradient id="linear-gradient-59" x1="992.57" y1="-976.9" x2="992.57" y2="252.94" xlink:href="#linear-gradient"/>
    <linearGradient id="linear-gradient-60" x1="1027.59" y1="-976.9" x2="1027.59" y2="252.94" xlink:href="#linear-gradient"/>
    <linearGradient id="linear-gradient-61" x1="983.01" y1="-976.9" x2="983.01" y2="252.94" xlink:href="#linear-gradient"/>
    <linearGradient id="linear-gradient-62" x1="977.6" y1="-976.9" x2="977.6" y2="252.94" xlink:href="#linear-gradient"/>
    <linearGradient id="linear-gradient-63" x1="1014.67" y1="-976.9" x2="1014.67" y2="252.94" xlink:href="#linear-gradient"/>
    <linearGradient id="linear-gradient-64" x1="1007.17" y1="-976.9" x2="1007.17" y2="252.94" xlink:href="#linear-gradient"/>
    <linearGradient id="linear-gradient-65" x1="992.13" y1="-976.9" x2="992.13" y2="252.94" xlink:href="#linear-gradient"/>
    <linearGradient id="linear-gradient-66" x1="977.64" y1="-976.9" x2="977.64" y2="252.94" xlink:href="#linear-gradient"/>
    <linearGradient id="linear-gradient-67" x1="991.98" y1="-976.89" x2="991.98" y2="252.94" xlink:href="#linear-gradient"/>
    <linearGradient id="linear-gradient-68" x1="986.03" y1="-976.9" x2="986.03" y2="252.94" xlink:href="#linear-gradient"/>
    <linearGradient id="linear-gradient-69" x1="957.81" y1="-976.89" x2="957.81" y2="252.94" xlink:href="#linear-gradient"/>
    <linearGradient id="linear-gradient-70" x1="974.5" y1="-976.9" x2="974.5" y2="252.94" xlink:href="#linear-gradient"/>
    <linearGradient id="linear-gradient-71" x1="950.45" y1="-976.91" x2="950.45" y2="252.95" xlink:href="#linear-gradient"/>
    <linearGradient id="linear-gradient-72" x1="966.97" y1="-976.9" x2="966.97" y2="252.94" xlink:href="#linear-gradient"/>
    <linearGradient id="linear-gradient-73" x1="943.9" y1="-976.89" x2="943.9" y2="252.94" xlink:href="#linear-gradient"/>
    <linearGradient id="linear-gradient-74" x1="960.8" y1="-976.9" x2="960.8" y2="252.94" xlink:href="#linear-gradient"/>
    <linearGradient id="linear-gradient-75" x1="939.09" x2="939.09" xlink:href="#linear-gradient"/>
    <linearGradient id="linear-gradient-76" x1="953.64" y1="-976.9" x2="953.64" y2="252.94" xlink:href="#linear-gradient"/>
    <linearGradient id="linear-gradient-77" x1="943.6" y1="-976.9" x2="943.6" y2="252.94" xlink:href="#linear-gradient"/>
    <linearGradient id="linear-gradient-78" x1="941.74" x2="941.74" xlink:href="#linear-gradient"/>
    <linearGradient id="linear-gradient-79" x1="950.99" y1="-976.88" x2="950.99" y2="252.93" xlink:href="#linear-gradient"/>
    <linearGradient id="linear-gradient-80" x1="961.62" y1="-976.89" x2="961.62" y2="252.94" xlink:href="#linear-gradient"/>
    <linearGradient id="linear-gradient-81" x1="948.56" y1="-976.91" x2="948.56" y2="252.95" xlink:href="#linear-gradient"/>
    <linearGradient id="linear-gradient-82" x1="953.58" y1="-976.9" x2="953.58" y2="252.94" xlink:href="#linear-gradient"/>
    <linearGradient id="linear-gradient-83" x1="968.4" y1="-976.89" x2="968.4" xlink:href="#linear-gradient"/>
    <linearGradient id="linear-gradient-84" x1="963.11" y1="-976.9" x2="963.11" y2="252.94" xlink:href="#linear-gradient"/>
    <linearGradient id="linear-gradient-85" x1="978.71" y1="-976.9" x2="978.71" y2="252.94" xlink:href="#linear-gradient"/>
    <linearGradient id="linear-gradient-86" x1="987.48" y1="-976.89" x2="987.48" y2="252.94" xlink:href="#linear-gradient"/>
    <linearGradient id="linear-gradient-87" x1="972.16" y1="-976.9" x2="972.16" y2="252.94" xlink:href="#linear-gradient"/>
    <linearGradient id="linear-gradient-88" x1="983.57" y1="-976.9" x2="983.57" y2="252.94" xlink:href="#linear-gradient"/>
    <linearGradient id="linear-gradient-89" x1="999.78" y1="-976.89" x2="999.78" y2="252.94" xlink:href="#linear-gradient"/>
    <linearGradient id="linear-gradient-90" x1="909.91" y1="-976.9" x2="909.91" y2="252.94" xlink:href="#linear-gradient"/>
    <linearGradient id="linear-gradient-91" x1="896.27" y1="-976.9" x2="896.27" y2="252.94" xlink:href="#linear-gradient"/>
    <linearGradient id="linear-gradient-92" x1="904.62" y1="-976.89" x2="904.62" y2="252.94" xlink:href="#linear-gradient"/>
    <linearGradient id="linear-gradient-93" x1="877.17" y1="-976.9" x2="877.17" y2="252.94" xlink:href="#linear-gradient"/>
    <linearGradient id="linear-gradient-94" x1="890.51" y1="-976.9" x2="890.51" y2="252.94" xlink:href="#linear-gradient"/>
    <linearGradient id="linear-gradient-95" x1="855.02" y1="-976.89" x2="855.02" y2="252.94" xlink:href="#linear-gradient"/>
    <linearGradient id="linear-gradient-96" x1="830.74" y1="-976.9" x2="830.74" y2="252.94" xlink:href="#linear-gradient"/>
    <linearGradient id="linear-gradient-97" x1="838.88" y1="-976.89" x2="838.88" y2="252.94" xlink:href="#linear-gradient"/>
    <linearGradient id="linear-gradient-98" x1="814.84" y1="-976.9" x2="814.84" y2="252.94" xlink:href="#linear-gradient"/>
    <linearGradient id="linear-gradient-99" x1="805.32" y1="-976.9" x2="805.32" y2="252.94" xlink:href="#linear-gradient"/>
    <linearGradient id="linear-gradient-100" x1="824.09" y1="-976.9" x2="824.09" y2="252.94" xlink:href="#linear-gradient"/>
    <linearGradient id="linear-gradient-101" x1="800.55" y1="-976.89" x2="800.55" y2="252.94" xlink:href="#linear-gradient"/>
    <linearGradient id="linear-gradient-102" x1="866.26" y1="-976.9" x2="866.26" y2="252.95" xlink:href="#linear-gradient"/>
    <linearGradient id="linear-gradient-103" x1="844.68" y1="-976.89" x2="844.68" y2="252.94" xlink:href="#linear-gradient"/>
    <linearGradient id="linear-gradient-104" x1="861.05" y1="-976.9" x2="861.05" y2="252.94" xlink:href="#linear-gradient"/>
    <linearGradient id="linear-gradient-105" x1="822.58" y1="-976.9" x2="822.58" y2="252.94" xlink:href="#linear-gradient"/>
    <linearGradient id="linear-gradient-106" x1="841.86" y1="-976.89" x2="841.86" y2="252.94" xlink:href="#linear-gradient"/>
    <linearGradient id="linear-gradient-107" x1="885.72" y1="-976.9" x2="885.72" y2="252.94" xlink:href="#linear-gradient"/>
    <linearGradient id="linear-gradient-108" x1="897.53" y1="-976.89" x2="897.53" y2="252.94" xlink:href="#linear-gradient"/>
    <linearGradient id="linear-gradient-109" x1="918.02" y1="-976.9" x2="918.02" y2="252.94" xlink:href="#linear-gradient"/>
    <linearGradient id="linear-gradient-110" x1="921.08" y1="-976.9" x2="921.08" y2="252.94" xlink:href="#linear-gradient"/>
    <linearGradient id="linear-gradient-111" x1="907.46" y1="-976.9" x2="907.46" y2="252.94" xlink:href="#linear-gradient"/>
    <linearGradient id="linear-gradient-112" x1="890.45" y1="-976.89" x2="890.45" y2="252.94" xlink:href="#linear-gradient"/>
    <linearGradient id="linear-gradient-113" x1="908.99" y1="-976.9" x2="908.99" y2="252.94" xlink:href="#linear-gradient"/>
    <linearGradient id="linear-gradient-114" x1="902.64" y1="-976.9" x2="902.64" y2="252.94" xlink:href="#linear-gradient"/>
    <linearGradient id="linear-gradient-115" x1="893.96" y1="-976.89" x2="893.96" y2="252.94" xlink:href="#linear-gradient"/>
    <linearGradient id="linear-gradient-116" x1="874.46" y1="-976.91" x2="874.46" y2="252.95" xlink:href="#linear-gradient"/>
    <linearGradient id="linear-gradient-117" x1="869" y1="-976.9" x2="869" y2="252.94" xlink:href="#linear-gradient"/>
    <linearGradient id="linear-gradient-118" x1="877.1" y1="-976.9" x2="877.1" y2="252.94" xlink:href="#linear-gradient"/>
    <linearGradient id="linear-gradient-119" x1="885.99" y1="-976.9" x2="885.99" y2="252.94" xlink:href="#linear-gradient"/>
    <linearGradient id="linear-gradient-120" x1="899.74" y1="-976.89" x2="899.74" y2="252.94" xlink:href="#linear-gradient"/>
    <linearGradient id="linear-gradient-121" x1="894.58" y1="-976.89" x2="894.58" y2="252.94" xlink:href="#linear-gradient"/>
    <linearGradient id="linear-gradient-122" x1="908.46" y1="-976.89" x2="908.46" y2="252.94" xlink:href="#linear-gradient"/>
    <linearGradient id="linear-gradient-123" x1="780.7" y1="-976.9" x2="780.7" y2="252.94" xlink:href="#linear-gradient"/>
    <linearGradient id="linear-gradient-124" x1="778.21" y1="-976.9" x2="778.21" y2="252.94" xlink:href="#linear-gradient"/>
    <linearGradient id="linear-gradient-125" x1="765.14" y1="-976.9" x2="765.14" y2="252.94" xlink:href="#linear-gradient"/>
  </defs>
  <g id="Layer_1-2" data-name="Layer_1">
    <g id="b">
      <g id="c">
        <g>
          <path class="cls-9" d="M1.2,176.6c18.5,3.3,37.2,1.6,53-5.1,6.7-2.9,13.5-6.8,21.2-12.3,20.8-14.8,30.3-29.3,29.2-44.4l3.5-.3c1.3,16.5-8.7,32-30.6,47.6-8,5.6-14.9,9.7-21.9,12.6-16.2,6.9-35.3,8.8-54.2,5.5-.1-1.2-.1-2.4-.2-3.6h0Z"/>
          <path class="cls-8" d="M180.5,81.8c-2.5,26.3-8.4,53-34.7,70.5-19.9,13.3-47.1,16.4-71,8.1l-1.1,3.3c24.9,8.7,53.3,5.5,74.1-8.5,27.5-18.4,33.8-47.3,36.2-73.2l-3.5-.2h0Z"/>
          <path class="cls-7" d="M284.7,57.3c-15.5,7.6-32.1,10-47.6,7.6-.4-2.2-3.8-3-4.9-.9-16.3-3.6-31-12.5-41-26.3l2.8-2.1c21.9,30,61.5,32,89.2,18.4,20.8-10.2,37.2-30.4,43.9-54l3.4,1c-7,24.7-24.1,45.7-45.8,56.3h0Z"/>
          <path class="cls-6" d="M256.5,63.7c-7,20.6-20.1,39.6-36.7,53.5-6.9,5.8-13,9.4-19.1,11.4-8.7,2.9-19,2.9-31.5.1l-.8,3.4c13.1,2.9,24,2.9,33.3-.2,6.6-2.1,13-6,20.3-12,17.4-14.4,30.5-33.5,37.8-55.1l-3.3-1.1h0Z"/>
          <path class="cls-3" d="M148.3,60.1l-3.4,1c5.8,20-11.2,43.8-29.2,50.3-9.9,3.6-26.1,3.8-38.1-2.7-6.5-3.5-10.6-8.4-12.2-14.6l-3.4.9c1.8,7.1,6.6,12.9,13.9,16.9,12.9,6.9,30.3,6.7,40.9,2.9,19.9-7.1,37.9-32.5,31.5-54.7h0Z"/>
          <path class="cls-4" d="M0,254.3c3.4-.2,6.7-.9,9.9-2.5,25.4-12.3,48.4-39,47-67.5.2-.7.3-1.4.5-2,.2-1.2-.2-2.1-.9-2.6-.3-2-.7-4-1.2-5.9l3.4-.9c4.5,16.2,1.3,33.2-9.1,49.2-8.9,13.6-22.8,25.7-38,33.1-3.8,1.8-7.6,2.6-11.5,2.8-.1-1.3-.1-2.5-.1-3.7h0Z"/>
          <path class="cls-2" d="M11.1,232c.1,1.1.2,2.2.3,3.4.3,8.4-2.5,13.5-7.3,20.1-1.2,1.7-3.6-.3-2.2-1.7,7.6-7.6,11.5-24.7,2.1-32.9-.5-.5.2-1.2.8-.8,3.4,2.7,5.2,6.2,6,10.2-.1.6,0,1.2.3,1.7Z"/>
          <g>
            <path class="cls-1" d="M22.9,220c-3.4-4.8-8.5-8.7-14.2-10.4-.3-.1-.3-.7.1-.6,6.2.8,11.5,5,15.4,10-.4.3-.8.6-1.3,1h0Z"/>
            <path class="cls-5" d="M25.5,224.6c.6-.5,1.2-.9,1.7-1.4,4,6.8,3.6,15-.7,21.6-1.2,1.8-4.1.1-2.9-1.7,4.3-5.9,4.3-12.6,1.9-18.5h0Z"/>
          </g>
          <g>
            <path class="cls-21" d="M35.8,215.9c.6-.5,1.1-1,1.7-1.6,3,5.2,4.4,11.2,3.4,17.8-.3,2.3-3.9,1.4-3.5-1,1-5.2.4-10.4-1.6-15.2h0Z"/>
            <path class="cls-22" d="M33.3,211.1c-4-5.9-9.9-9.2-15.5-13.4-.3-.2,0-.6.3-.4,6.3,2.9,12.2,7.2,16.5,12.6-.5.4-.9.8-1.3,1.2h0Z"/>
          </g>
          <g>
            <path class="cls-23" d="M49.2,200.9c2.6,3.1,4.5,6.6,5.5,9.9.6,2.1-2.8,3-3.2.9-.6-3.2-1.9-6.2-3.8-8.8.5-.7,1-1.4,1.5-2h0Z"/>
            <path class="cls-24" d="M44.2,198.7c-4.8-4.7-11.2-8-17.4-9.5-.4-.1-.3-.7.1-.7,6.2,0,13.1,3.5,18.5,8.5-.4.5-.8,1.1-1.2,1.7h0Z"/>
          </g>
          <g>
            <path class="cls-26" d="M50,188.5c-3.5-3.4-7.8-5.9-12.5-7.1-.6-.2-.4-1.1.3-1,5,1,9.4,2.9,13.2,5.7-.4.8-.7,1.6-1,2.4h0Z"/>
            <path class="cls-37" d="M56.5,197.4c-.8-1.6-1.7-3.1-2.7-4.5.5-.9.9-1.9,1.3-2.9,1.5,1.7,2.9,3.7,4,5.8.9,1.8-1.7,3.3-2.6,1.6Z"/>
          </g>
          <g>
            <path class="cls-10" d="M16.4,231.6c.7-.5,1.4-1,2.1-1.6,1.7,8.2-.2,16.6-5.6,23.7-1.8,2.4-4.8-.7-2.5-2.5,6.4-4.7,7.1-12.3,6-19.6h0Z"/>
            <path class="cls-38" d="M15.3,225.8c-.3-1.2-.6-2.4-.9-3.6-.2-.7.8-1.2,1.2-.5.5,1,.9,1.9,1.3,2.9-.6.4-1.1.8-1.6,1.2Z"/>
          </g>
          <path class="cls-39" d="M.1,250c2.1-3.2,3.5-6.9,3.9-10.6,0-.4.7-.5.7,0-.1,5.8-1.3,10.7-4.7,15.3,0-1.6.1-3.1.1-4.7H.1Z"/>
          <g>
            <path class="cls-40" d="M31.1,220c.5-.4.9-.8,1.4-1.2,3.3,5.5,4.9,11.9,3.4,18.4-.4,1.9-3.4,1-2.8-.8,1.9-6.1.8-11.6-2-16.4Z"/>
            <path class="cls-25" d="M28.1,215.7c-3.5-4.2-8.2-7.7-12.8-10.6-.5-.3-.1-1.1.5-.8,5.1,2.2,9.9,5.8,13.7,10.2-.5.4-1,.8-1.4,1.2Z"/>
          </g>
          <g>
            <path class="cls-10" d="M43.8,207.7c.3-.3.5-.6.8-.9l.1.1c3.5,4.4,4.4,8,4.8,13.5.1,1.9-3.2,1.8-2.8-.4.9-4.6-.4-8.7-2.9-12.3h0Z"/>
            <path class="cls-28" d="M40.4,203.6c-2.2-2.3-4.8-4.3-7.2-6-.1-.1,0-.3.1-.2,2.8,1.5,5.4,3.3,7.7,5.5-.1.2-.4.4-.6.7Z"/>
          </g>
          <g>
            <path class="cls-27" d="M52.1,196.2c1.9,2.6,3.4,5.6,4.2,8.9.3,1.4-1.7,2-2.1.6-.7-2.7-1.8-5.2-3.2-7.5.3-.7.7-1.3,1.1-2Z"/>
            <path class="cls-29" d="M47.5,193.6c-2.4-2.6-5.3-4.7-8.7-6.2-.2-.1-.1-.5.2-.4,3.5,1,6.6,2.8,9.3,5.2-.3.4-.5.9-.8,1.4Z"/>
          </g>
          <path class="cls-30" d="M6.6,168.4c5.7,5.4,14.7,9,22,9.9,1.9.2,1.6,2.9-.4,2.6-8.1-1.4-19-5.9-24.4-12.3-.1-.1-.1-.2-.2-.2h3Z"/>
          <g>
            <path class="cls-46" d="M15.1,161.5c-2-1.9-4-3.9-5.9-5.9-.6-.6.3-1.4.9-.9,2.2,2.1,4.4,4.1,6.7,6.1-.6.3-1.2.5-1.7.7Z"/>
            <path class="cls-32" d="M21.2,164.7c6.6,5.2,13.8,9.4,22.1,11,1.9.4,1.1,3.4-.8,2.9-9-2.5-16.4-7.3-23.1-13.1.6-.3,1.2-.6,1.8-.8h0Z"/>
          </g>
          <path class="cls-47" d="M33.6,157.9c8.1,6.1,17.4,11.4,27.6,10.1,1.9-.2,2,3.1,0,3-11.6-.1-20.3-5.4-28.6-12.5.3-.2.7-.4,1-.6h0Z"/>
          <g>
            <path class="cls-45" d="M39.4,148c-1.5-1.5-2.9-3.2-4.1-5.2-.4-.7.7-1.4,1.1-.7,1.2,1.9,2.7,3.5,4.4,5-.5.3-1,.6-1.4.9h0Z"/>
            <path class="cls-31" d="M51.5,156.3c-2.7-1.5-5.4-3-7.8-4.8.6-.4,1.2-.8,1.9-1.2,2.6,1.5,5.3,2.9,7.9,4.2.3.1.5.3.8.4-1,.6-1.9,1-2.8,1.4h0Z"/>
            <path class="cls-48" d="M60.2,157.7c4.6,1.9,9.4,3,14.6,2.8,1.9-.1,1.9,2.9,0,3-6.3.2-12-1.6-17.5-4.2,1-.5,2-1,2.9-1.6Z"/>
          </g>
          <g>
            <path class="cls-36" d="M72.6,149c.4-.4.9-.8,1.3-1.2,5.5,1.2,11.3,1.4,16.8,1.5,1.9,0,1.9,3.1,0,3-6.2-.4-12.9-.8-19-2.6.3-.2.6-.5.9-.7h0Z"/>
            <path class="cls-34" d="M65.9,147.6c-3.1-1.5-6.1-3.3-9-5.3.5-.4,1-.8,1.5-1.2,2,1.2,4.1,2.5,6.2,3.6,1,.5,2.1,1,3.2,1.4-.6.4-1.2,1-1.9,1.5h0Z"/>
            <path class="cls-33" d="M52.5,139c-3-2.3-5.9-4.7-8.7-7-.2-.2.1-.5.3-.4,3.2,2.1,6.4,4.3,9.6,6.4-.4.4-.8.7-1.2,1h0Z"/>
          </g>
          <g>
            <path class="cls-35" d="M64.6,126.8c-3.3-2.3-6.5-4.9-9.5-7.9-.3-.3.1-.7.4-.4,3.2,2.6,6.5,4.8,10.1,6.9-.4.5-.7.9-1,1.4h0Z"/>
            <path class="cls-42" d="M78.9,134.2c-3.4-1.3-6.7-2.8-9.9-4.6.4-.6.8-1.1,1.2-1.7,3.3,1.6,6.8,3,10.3,4.2-.5.7-1.1,1.4-1.6,2.1Z"/>
            <path class="cls-41" d="M99.8,138.4c-5.2-.3-10.3-1.1-15.2-2.5.6-.8,1.1-1.6,1.7-2.4,4.4,1,8.9,1.7,13.5,1.9,1.8.2,1.8,3.1,0,3h0Z"/>
          </g>
          <g>
            <path class="cls-43" d="M70.1,118.2c-6.4-3.8-11.8-8.7-16-15-.4-.5.5-1,.8-.5,4.2,6.2,9.4,11.1,15.7,14.5-.1.4-.3.7-.5,1Z"/>
            <path class="cls-49" d="M85.7,125.4c-3.7-1.4-7.4-3-10.9-4.7.2-.4.5-.8.7-1.2.4.2.8.3,1.2.5,3.4,1.3,7,2.6,10.6,3.6-.6.6-1.1,1.2-1.6,1.8h0Z"/>
            <path class="cls-44" d="M104.1,129.5c-4.4-.2-8.7-1-13-2.3.5-.6,1.1-1.2,1.6-1.7.1-.1.2-.2.3-.4,3.7.8,7.3,1.2,11,1.1,2.2-.1,2.2,3.4.1,3.3Z"/>
          </g>
          <g>
            <path class="cls-50" d="M73.6,140.7c-2.6-1-5.2-2.1-7.7-3.4-.3-.1,0-.6.2-.4,2.7,1.2,5.4,2.2,8.2,3-.3.3-.5.6-.7.8h0Z"/>
            <path class="cls-12" d="M95.4,145.8c-5.6-.5-11-1.6-16.2-3.2.3-.4.7-.8,1-1.1,5,1.1,10.1,1.7,15.2,1.7,1.7.1,1.6,2.8,0,2.6Z"/>
          </g>
          <g>
            <path class="cls-13" d="M46.8,143.1c-2.9-2.2-5.6-4.7-7.9-7.4-.2-.2.1-.6.3-.4,3.1,2.3,6.2,4.6,9.4,6.6-.6.4-1.2.8-1.8,1.2Z"/>
            <path class="cls-14" d="M69,151.9c3.9,1.3,8,2.3,12.4,2.9,1.5.2,1.3,2.4-.3,2.1-4.7-.7-9.5-1.9-14.2-3.4.7-.6,1.4-1.1,2.1-1.6h0Z"/>
            <path class="cls-11" d="M60.8,151.2c-3.2-1.4-6.4-3-9.3-4.8.7-.5,1.3-1,2-1.5,3.1,1.8,6.3,3.4,9.5,4.8-.7.5-1.4,1-2.2,1.5Z"/>
          </g>
          <g>
            <path class="cls-19" d="M33.1,152.1c-1.2-1.1-2.3-2.3-3.4-3.5-.5-.5.2-1.2.7-.7,1.3,1.1,2.7,2.2,4.1,3.3-.4.3-.9.6-1.4.9h0Z"/>
            <path class="cls-17" d="M52,161.9c4.7,2.1,9.6,3.7,14.7,4.5,1.6.3.9,2.9-.7,2.5-5.8-1.5-11.5-3.4-16.7-5.9,1-.3,1.8-.7,2.7-1.1h0Z"/>
            <path class="cls-20" d="M45.8,158.7c-.8.3-1.4.9-1.6,1.6-2.4-1.4-4.8-3-7-4.7.6-.4,1.3-.8,1.9-1.2,2.2,1.6,4.4,3,6.7,4.3h0Z"/>
          </g>
          <g>
            <path class="cls-128" d="M21.5,158.9c-.9-.8-1.8-1.6-2.6-2.5-.4-.4.2-1.1.7-.7,1.1.9,2.1,1.7,3.2,2.5-.5.3-.9.5-1.3.7h0Z"/>
            <path class="cls-18" d="M27.3,161.6c7.4,5.1,15.2,9.1,24.2,10.9,1.7.3.9,3.2-.7,2.6-8.8-3.2-17.5-7.1-25-12.7.5-.2,1-.5,1.5-.8Z"/>
          </g>
          <path class="cls-16" d="M1.1,173.6c1.5,1,3.1,2,4.4,3.3,1.1,1-.3,2.6-1.5,2-.9-.5-1.9-1-2.8-1.6,0-1.2-.1-2.5-.1-3.7h0Z"/>
          <path class="cls-15" d="M82.5,88.4c-1,3.7-3.8,6-6.4,8.5-2.5,2.4-4.8,4.1-8.1,5.2-1.2.4-1.7-1.7-.5-1.8,3.1-.4,5.2-2.4,7.3-4.6,2.1-2.3,5-4.7,6.2-7.6.4-1,1.7-.7,1.5.3h0Z"/>
          <path class="cls-58" d="M90.3,88.7c-.1,2.9-.1,6.7-1.5,9.2-.1.2-.4.1-.4-.1,0-1.3.4-2.7.7-4,.3-1.7.5-3.4.6-5.1-.1-.5.6-.5.6,0h0Z"/>
          <path class="cls-59" d="M89.3,95.6c-1.4,4.9-3.9,12.3-8.8,14.6-1.1.5-2-1.1-.9-1.6,4.2-2,6.9-9.2,8.5-13.3.3-.9,1.5-.6,1.2.3h0Z"/>
          <path class="cls-60" d="M98.6,94c-.3,7.6-4.3,15.3-9.5,20.7-1.2,1.2-2.7-1.1-1.3-1.7,6.3-2.9,9.9-12.4,10.3-19-.1-.4.5-.4.5,0h0Z"/>
          <path class="cls-54" d="M105.4,93.2c1.4,8.6-2.2,15.8-7.8,22.1-1.1,1.2-2.9-.7-1.7-1.7,5.7-5.3,9.9-12.2,8.9-20.3,0-.4.5-.5.6-.1h0Z"/>
          <path class="cls-55" d="M111.5,81.1c3,4.8,5.6,9.8,5.9,15.6.3,6.1-2.5,11.7-4,17.4-.5,1.8-3.3.8-2.4-1,2.3-4.7,5-10.1,4.9-15.4-.1-5.6-3-11.1-5.1-16.1-.2-.5.4-.9.7-.5h0Z"/>
          <path class="cls-56" d="M119.3,76.5c3.6,3.4,7.2,6.6,9.3,11.2,2.4,5.3,2.1,11.6,1.7,17.3-.1,2-2.9,1.6-2.7-.4.8-5.7,1.6-10.9-.8-16.3-1.8-4.2-5-7.9-8.2-11.2-.2-.4.3-.9.7-.6h0Z"/>
          <path class="cls-57" d="M125.9,71.2c3.8,3.1,7.5,6.3,10.2,10.5,2.6,4,2.9,8,4.2,12.4.5,1.7-2.3,2.2-2.4.3-.4-9.9-5.9-16.1-12.7-22.6-.6-.3.2-1,.7-.6h0Z"/>
          <path class="cls-51" d="M128.4,62.9c2.1,1.2,4.5,1.6,6.6,2.8,1.8,1,3.5,2.3,5.1,3.7,2.5,2.1,6.2,4.9,5.8,8.6-.1.9-1.3.9-1.4,0-.4-3.9-4.9-7.4-7.9-9.6-2.7-2-5.8-3.1-8.5-5-.2-.3,0-.7.3-.5h0Z"/>
          <path class="cls-52" d="M109.7,96.8c.3,7.4-2.9,12.5-5.3,19.1-.7,1.8-3.2.2-1.9-1.1,4.3-4.7,6.1-11.7,6.3-18,0-.6.9-.6.9,0h0Z"/>
          <path class="cls-53" d="M121.6,87.2c5.6,7.8,3.9,17,.1,25.2-.8,1.8-3.7,0-2.3-1.8,5.2-6.6,4-15.7,1.2-22.9-.2-.7.7-1,1-.5h0Z"/>
          <path class="cls-68" d="M91.7,100.4c-.9,2.8-1.7,5.5-3.2,8-1.2,1.9-2.7,4.9-4.9,5.6-.7.2-1.3-.5-1.1-1.1.6-2.2,3-4.1,4.3-6.1,1.5-2.2,3.2-4.4,4.4-6.8,0-.3.6,0,.5.4h0Z"/>
          <path class="cls-101" d="M86.1,91c-1.8,6.8-4.6,14.1-11.1,17.6-1.4.8-2.4-1.5-.9-2.1,5.9-2.4,8.3-10.7,10.9-16,.4-.6,1.3-.2,1.1.5h0Z"/>
          <path class="cls-69" d="M128.7,79.8c5.3,4.9,7.8,14.5,5.4,21.4-.6,1.6-2.8.7-2.1-.9,2.5-5.9.6-15.4-3.6-20.2-.2-.2.1-.4.3-.3h0Z"/>
          <path class="cls-70" d="M130.9,68.6c5.6,5.7,13.1,12.1,12.8,20.8-.1,1.8-2.9,1.4-2.4-.3,1.9-7.3-6.9-14.7-10.8-20.2-.2-.3.2-.5.4-.3h0Z"/>
          <path class="cls-64" d="M92.6,155.1c1.9,2.7,4.2,5.1,6.9,7,2,1.5,4.8,3.5,7.4,3.7,1.1.1,1.5,1.4.6,2.1-2,1.5-6.5-2.7-8-3.9-3-2.4-5.3-5.3-7.4-8.6-.3-.3.3-.6.5-.3h0Z"/>
          <path class="cls-65" d="M98.9,150.7c2.3,2.4,4.8,4.5,7.3,6.6s6.3,6.1,9.7,6.4c1.6.2,1.3,2.5-.3,2.2-3.2-.5-6-3.3-8.4-5.4-3.3-2.8-6.2-6-9-9.2-.4-.4.2-1.1.7-.6h0Z"/>
          <path class="cls-66" d="M121.1,154.9c.5.3.9.5,1.4.8,2.8,1.7,5.8,3.4,9.1,3.8,1.6.2,1,2.9-.7,2.5-7.2-1.7-12.9-6.8-18.2-11.7-.4-.4.2-.9.6-.6,1.7,1.4,3.5,2.6,5.4,3.7.4.8,1.3,1.5,2.4,1.5h0Z"/>
          <g>
            <path class="cls-67" d="M131.2,149.4c3.9,2,8.1,3.4,12.3,4.1,1.7.3,1,3.2-.7,2.7-4.8-1.4-9.2-3.3-13.2-5.7.5-.4,1.1-.7,1.6-1.1Z"/>
            <path class="cls-61" d="M124.8,147.2c-1.8-1.4-3.6-3.1-5.3-4.9-.3-.3.2-.8.5-.5,1.9,1.7,3.9,3.2,6,4.6-.4.2-.8.5-1.2.8h0Z"/>
          </g>
          <g>
            <path class="cls-128" d="M141,142.8c.2-.1.4-.3.6-.4,3.8,1.9,7.7,3.2,12,3.6,2.1.2,1.6,3.4-.4,2.9-4.9-1.2-9.3-3-13.5-5.3.4-.3.8-.6,1.3-.8h0Z"/>
            <path class="cls-62" d="M135.8,139.7c-.4.2-.8.5-1.1.7-4.9-3.3-9.4-7.2-13.8-11.6-.3-.3.1-.9.5-.6,4.9,3.6,9.8,7.7,15.1,11.1-.4.2-.6.3-.7.4Z"/>
          </g>
          <g>
            <path class="cls-63" d="M151.6,134.9c3.6,1.3,7.4,2.2,11.2,2.7,1.7.2,1.4,2.6-.3,2.4-4.4-.7-8.7-1.9-12.7-3.6.6-.5,1.2-1,1.8-1.5h0Z"/>
            <path class="cls-80" d="M144.5,133.7c-3.5-2-6.9-4.4-10-7.3-.4-.3.1-1,.5-.7,3.4,2.6,7.1,4.9,11,6.8-.5.5-1,.9-1.5,1.2h0Z"/>
          </g>
          <g>
            <path class="cls-78" d="M159.7,127.7c2.9,1.1,5.9,1.8,9.1,1.8,2.1,0,1.6,3.5-.4,2.9-3.4-1-6.8-2.1-10.1-3.3.5-.5.9-1,1.4-1.4h0Z"/>
            <path class="cls-74" d="M152.9,126.8c-4.1-1.9-8.1-4.3-11.8-7.2-.5-.4.1-1,.6-.8,4.3,1.9,8.5,4.5,12.8,6.6-.6.5-1.1.9-1.6,1.4Z"/>
          </g>
          <g>
            <path class="cls-79" d="M167.5,118.9c2.2.5,4.5.9,6.9.9,1.4,0,1.4,2.2,0,2.1-2.8-.1-5.6-.5-8.3-1.2.5-.6,1-1.2,1.4-1.8Z"/>
            <path class="cls-76" d="M160.8,118.9c-5.5-2.3-10.6-5.7-15.1-9.6-.4-.3.1-.9.5-.7,5.5,3,10.5,6.3,16,8.5-.5.7-.9,1.2-1.4,1.8h0Z"/>
          </g>
          <g>
            <path class="cls-73" d="M177,108.3c-1.3,0-2.6-.1-3.9-.2.3-.7.5-1.4.8-2.1,1,.1,2.1.1,3.1.1,1.4-.1,1.5,2.2,0,2.2Z"/>
            <path class="cls-77" d="M167.9,107c-5.2-1.4-10-4-14.2-7.7-.6-.5.2-1.2.8-.8,4.2,3.3,9,5.6,14.1,6.7-.2.6-.5,1.2-.7,1.8h0Z"/>
          </g>
          <path class="cls-75" d="M160.3,86c5.6,4.1,11.6,2.4,17.9,3.3.8.1,1.8.2,2.4.8,1.2,1.1-1.3.7.1-.2,1-.6,2.2.8,1.3,1.7-1.9,1.8-3.1-.2-5.5-.3-6.4-.4-11.7-.2-16.6-4.9-.2-.2.1-.6.4-.4h0Z"/>
          <g>
            <path class="cls-72" d="M170.3,114.4c.1-.2.2-.5.4-.7,1.5.4,3,.8,4.5,1.2,1.2.2.7,2.2-.5,1.8-1.6-.5-3.2-1.1-4.7-1.8.1-.1.2-.3.3-.5h0Z"/>
            <path class="cls-71" d="M165.2,112.6c-1.1-.6-2.2-1.2-3.3-1.9-.3-.2,0-.7.3-.5,1.1.6,2.2,1.1,3.4,1.6-.1.3-.2.6-.4.8h0Z"/>
          </g>
          <g>
            <path class="cls-90" d="M156.4,123.6c-3.3-1.6-6.2-3.8-8.1-6.7-.3-.4.4-.9.7-.5,2.2,2.7,5.4,4.5,8.9,5.8-.6.4-1.1.9-1.5,1.4h0Z"/>
            <path class="cls-89" d="M163.6,123.7c2.1.4,4.1.7,5.9.8,1.2.1,1.3,1.9,0,2-2.4,0-5.1-.3-7.7-.9.6-.6,1.2-1.3,1.8-1.9h0Z"/>
          </g>
          <g>
            <path class="cls-86" d="M157.1,130.1h0c2.9.7,5.8,1.2,8.6,1.9,1.6.4.9,2.9-.7,2.4-3.1-1.1-6.3-1.9-9.4-3,.5-.4,1-.8,1.5-1.3h0Z"/>
            <path class="cls-85" d="M150,129.3c-3.1-1.4-5.9-3.1-8.5-5.6-.1-.1,0-.2.1-.2,2.8,2.1,6.1,3.7,9.5,4.8-.4.4-.8.7-1.1,1h0Z"/>
          </g>
          <g>
            <path class="cls-87" d="M146.4,139c3.5,1.4,7.2,2.4,10.9,3.4,1.6.4.7,2.8-.9,2.1-3.7-1.6-7.7-2.9-11.4-4.5.5-.3,1-.6,1.4-1h0Z"/>
            <path class="cls-84" d="M139.6,137.2c-3.2-2.2-5.9-5-8.5-7.9-.2-.3.1-.6.4-.4,3,2.7,5.9,5.4,9.4,7.4-.5.4-.9.7-1.3.9h0Z"/>
          </g>
          <g>
            <path class="cls-88" d="M129.7,143.8c-2.1-1.4-4.1-2.9-6.1-4.6-.3-.3.1-.7.4-.5,2.3,1.4,4.6,2.8,6.9,4.3-.4.3-.8.5-1.2.8h0Z"/>
            <path class="cls-81" d="M136.1,146c4.2,2.4,8.6,4.3,13.3,5.1,1.5.3.8,2.8-.6,2.2-4.9-2-9.6-4-14-6.5.4-.2.8-.5,1.3-.8h0Z"/>
          </g>
          <path class="cls-82" d="M126.4,152.4c3.3,2,6.7,4,10.1,4.9,1.9.5.5,3.5-1,2.4-2.6-1.9-5.6-3.1-8.3-4.7-.9-.5-1.7-1.1-2.4-1.7.6-.3,1.1-.6,1.6-.9h0Z"/>
          <path class="cls-83" d="M103.2,146.6c3.4.3,6.1,4.4,8.4,6.7,4.2,4,8.6,7.5,14.3,9.1,1.5.4.8,2.8-.6,2.3-5-1.4-9.2-4.3-13.1-7.7-2.3-2-4.4-4.1-6.5-6.3-1.5-1.5-2.4-2-2.6-4-.1,0,0-.1.1-.1h0Z"/>
          <path class="cls-100" d="M200.3,21.9c-1.5,5.3,1,11.2,2.7,16.2,1.7,5.1,3.7,10.7,8,14.2.9.7-.4,2.1-1.3,1.3-4.3-4.1-6.3-9.5-8.4-15-2.2-5.6-4.3-11.1-2.2-17,.3-.9,1.4-.6,1.2.3h0Z"/>
          <g>
            <path class="cls-98" d="M212.6,37.2c.6,1.8,1.3,3.6,1.9,5.4,2.4,6.6,5.7,11.9,11.2,16.3.9.7-.3,2.4-1.3,1.7-4.8-3.7-8-9-10.2-14.6-1.2-3.1-2.5-6.4-3.4-9.8.6.2,1.2.6,1.8,1h0Z"/>
            <path class="cls-95" d="M209.9,32.1c-.6-2.9-.8-5.8-.6-8.5,0-.4.7-.5.7,0-.1,2.5.3,5,.9,7.5-.4.3-.7.6-1,1Z"/>
          </g>
          <g>
            <path class="cls-96" d="M230.3,42.7c.2.3.3.6.5.9,3.8,7.3,8.8,13.7,15.9,17.9,1.2.7.1,2.7-1.1,2-7.4-4.5-12.7-11.1-16.6-18.8-.4-.8-.8-1.6-1.2-2.4.8.2,1.7.3,2.5.4Z"/>
            <path class="cls-97" d="M224.9,36.4c-2.5-5.7-4.4-11.8-4-17.6.1-.8,1.2-.8,1.2,0,.2,5.9,2.6,12.3,5.4,18.1-.9-.1-1.8-.3-2.6-.5h0Z"/>
          </g>
          <g>
            <path class="cls-99" d="M250.9,42.9c4.7,7,10.4,13.2,18,16.8,1.4.7.2,2.8-1.2,2.1-8.2-4.4-13.4-11.3-17.9-18.8.4,0,.7,0,1.1-.1h0Z"/>
            <path class="cls-128" d="M246.8,37.8c-.6-1-1.2-2.1-1.8-3.2-.2-.4.4-.8.6-.4.6,1.2,1.3,2.3,2,3.5-.3.1-.5.1-.8.1Z"/>
          </g>
          <path class="cls-92" d="M273.5,37.9c6.7,3.8,13.8,6.5,21.2,8.7,1.2.4.7,2.3-.5,2-7.9-2.1-15-5.7-21.7-10.3.3-.1.6-.3,1-.4h0Z"/>
          <g>
            <path class="cls-93" d="M282.7,26.6c-5.4-3.2-10.5-6.9-15.4-10.6-.7-.5-.1-1.7.7-1.2,5.6,3.5,11,7,16.6,10.1-.5.7-1.2,1.2-1.9,1.7Z"/>
            <path class="cls-94" d="M310.9,35.8c-8.2-.2-15.9-2.8-23.2-6.4.7-.6,1.3-1.2,2-1.9,6.6,3.1,13.5,5.4,21.2,6.1,1.4.2,1.5,2.3,0,2.2h0Z"/>
          </g>
          <g>
            <path class="cls-91" d="M320.5,23.1c-7.6-.1-16.1-1.7-23.6-5,.4-.6.8-1.2,1.2-1.8,7.3,2.8,15.8,4.6,22.4,4.1,1.7-.1,1.8,2.7,0,2.7h0Z"/>
            <path class="cls-111" d="M292.4,15.7c-1.5-.9-3-1.9-4.4-3-.6-.5.2-1.5.8-1.1,1.4.9,2.9,1.8,4.6,2.6-.4.5-.7,1-1,1.5Z"/>
          </g>
          <path class="cls-110" d="M324.1,12.7c-7.3.1-14.4-.7-20.9-3.5.2-.2.3-.4.5-.6.3-.4.5-.7.5-1.1,2.3.8,4.6,1.5,7,1.9,4.3.8,9-.1,13.1,1.4,1.1.3,1,1.8-.2,1.9Z"/>
          <path class="cls-109" d="M241.7,43.2c1,1.8,2.1,3.5,3.3,5,3.6,4.6,7.3,9.1,11,13.6,1.2,1.5-1,3.2-2.1,1.6-3.1-4.6-6.4-9-9.6-13.5-1.4-2.1-2.6-4.4-3.8-6.7.5,0,.9,0,1.2,0h0Z"/>
          <g>
            <path class="cls-108" d="M261.7,41.5c5.2,5.8,11.4,10.8,18.3,14.5,1.4.8.1,3.1-1.3,2.2-7.4-4.5-13.9-9.9-19.3-16.3.8-.1,1.5-.3,2.3-.4Z"/>
            <path class="cls-107" d="M255.8,37.1c-2.4-3.5-4.5-7.3-6.3-11.4-.2-.6.6-1.1.9-.5,2.1,4.1,4.6,8,7.4,11.6-.7.1-1.4.2-2,.3h0Z"/>
          </g>
          <g>
            <path class="cls-105" d="M281.9,33.7c6.8,3.3,13.9,5.9,21.3,7.8,1.6.4.9,2.8-.7,2.5-7.9-1.5-15.4-5-22.4-9.3.5-.3,1.2-.6,1.8-1h0Z"/>
            <path class="cls-106" d="M274.8,31.5c-1.7-1.1-3.4-2.3-5.1-3.5-.6-.4,0-1.4.5-1,2,1.3,4,2.5,6,3.7-.4.3-.9.5-1.4.8h0Z"/>
          </g>
          <g>
            <path class="cls-102" d="M222.3,41.3c.9,1.5,1.9,3,2.8,4.5,3.5,5.7,7.7,11,12.4,15.7.9,1,.2,2.3-.7,2.6-.5-.8-1.4-1.2-2.2-1.3-5.6-6.2-10.9-14-14.6-22.2.7.3,1.5.5,2.3.7h0Z"/>
            <path class="cls-103" d="M217.2,33.7c-.6-1.8-1.1-3.6-1.5-5.4-.1-.5.6-.6.7-.2.5,2.1,1.2,4.2,2.2,6.3-.5-.3-1-.5-1.4-.7h0Z"/>
          </g>
          <path class="cls-104" d="M186,117.4c6.1,4,13.2,8.3,20.6,9.3,1.6.2,1.1,2.7-.3,2.2-7.6-2.8-14.6-5.4-20.5-11.2-.2-.1,0-.4.2-.3h0Z"/>
          <path class="cls-121" d="M187.6,125.7c3.4,2.3,7.7,4,11.7,4.7,1.4.2.8,2.5-.6,2.1-4.4-1.4-7.9-3.4-11.5-6.3-.3-.3.1-.8.4-.5h0Z"/>
          <path class="cls-126" d="M195.9,107.6c6,4.6,14.6,9.3,22.1,9.9,2.2.2,1.5,3.6-.4,2.9-4.1-1.5-8.2-2.5-12.1-4.4-3.9-2-7.1-4.6-10.3-7.5-.4-.4.2-1.3.7-.9h0Z"/>
          <g>
            <path class="cls-125" d="M220,107.1c2.6.9,5.1,1.6,7.8,1.9,2.3.2,1.4,3.7-.7,2.7-2.6-1.3-5.2-2.4-7.8-3.5.2-.3.4-.7.7-1.1h0Z"/>
            <path class="cls-123" d="M214.4,106.2c-6.3-2.7-12.4-5.5-17.8-10.5-.6-.5.2-1.5.8-1.1,5.5,3.3,11.4,7.4,17.6,10.4-.2.4-.4.8-.6,1.2h0Z"/>
          </g>
          <g>
            <path class="cls-128" d="M239.8,98.4c-4.7-.6-9.2-1.5-13.5-2.8.3-.6.6-1.2.9-1.8,4,1.3,8.2,1.9,12.6,1.5,1.9-.1,1.9,3.4,0,3.1h0Z"/>
            <path class="cls-122" d="M221.2,93.9c-6.9-2.7-13.3-6.6-19.1-12-.6-.6.2-1.6.9-1.2,6.2,3.8,12.5,8.2,19.2,11.2-.3.7-.7,1.4-1,2h0Z"/>
          </g>
          <g>
            <path class="cls-120" d="M226.6,82c-4.2-1.7-8.2-3.8-12.1-6.2-.8-.5-.1-1.8.7-1.3,3.6,2.1,7.8,4.1,12.1,5.8-.3.6-.5,1.1-.7,1.7h0Z"/>
            <path class="cls-118" d="M247.2,86.8c-5.3-1.1-10.5-1.6-15.6-3.1.2-.6.5-1.2.7-1.8,5.1,1.5,10.4,2.4,15.3,2.1,1.8,0,1.6,3.3-.4,2.8h0Z"/>
          </g>
          <path class="cls-119" d="M255.5,74.4c-2.5,1.7-5.1,1.8-8,1.4-4.1-.6-8.3-1.4-12.4-2.1.1-.4.2-.8.4-1.1,2.8.2,5.7.3,8.5.4,3.4.2,7.1.6,9.9-1.6,1.6-1.2,3.4,1.8,1.6,3h0Z"/>
          <path class="cls-124" d="M244.9,92.1c-5.3.1-10.5-1.3-15.7-2.7.2-.4.4-.9.6-1.3,5,1.2,9.9,2.1,15.1,1.8,1.4,0,1.4,2.2,0,2.2h0Z"/>
          <g>
            <path class="cls-127" d="M223.5,101c3.4,1.4,6.8,2.5,10.3,3.2,1.6.3.8,3.1-.7,2.4-3.5-1.4-7-2.7-10.4-4.2.2-.4.5-.9.8-1.4h0Z"/>
            <path class="cls-117" d="M217.8,100.3c-2.1-1-4.2-2.1-6.2-3.4-.7-.4-.1-1.4.6-1.1,2.1,1,4.2,2.1,6.4,3-.3.6-.5,1-.8,1.5Z"/>
          </g>
          <path class="cls-116" d="M216.2,113.3c2.5.9,5.1,1.6,7.6,2,1.4.3.8,2.6-.6,2.2-2.8-.8-5.2-1.9-7.6-3.2.2-.4.4-.7.6-1Z"/>
          <path class="cls-115" d="M201.6,118.7c3.1,1.5,6.8,2.5,9.4,4.8.8.7,0,2.2-1.1,1.9-3.2-1.2-5.9-4.1-8.6-6.1-.4-.3-.1-.8.3-.6h0Z"/>
          <path class="cls-114" d="M320.8,19.3c9.4,1.8,19,4.2,28.6,5.2-.5.5-.8,1-1,1.5-.6.5-1.1,1.1-1.5,1.8-9.1-1.1-18.3-3.3-27-5-2.3-.4-1.4-3.9.9-3.5h0Z"/>
          <path class="cls-112" d="M341.2,16.1c-1.2,1.6-2.5,3.1-3.8,4.5-1.2,1.3-2.8,3.1-4.5,3.5-1,.3-1.6-1-1-1.7,1.1-1.3,2.9-2,4.3-2.9,1.7-1.1,3-2.5,4.3-4,.4-.2,1,.3.7.6h0Z"/>
          <path class="cls-113" d="M345.6,25.2c3.2-3.2,5.9-7.1,7.2-11.5.2-.7,1.3-.4,1.1.3-.8,3.6-2,6.8-3.8,9.8-.2.2-.4.3-.6.5-.7.7-.9,1.1-1.2,1.7-.6.5-1.1,1.1-1.5,1.7-1.1.3-2.3-1.4-1.2-2.5h0Z"/>
        </g>
      </g>
    </g>
  </g>
</svg>