<?xml version="1.0" encoding="UTF-8"?>
<svg id="Layer_2" xmlns="http://www.w3.org/2000/svg" xmlns:xlink="http://www.w3.org/1999/xlink" viewBox="0 0 353.92 257.8">
  <defs>
    <style>
      .cls-1 {
        fill: url(#linear-gradient-8);
      }

      .cls-2 {
        fill: url(#linear-gradient-7);
      }

      .cls-3 {
        fill: url(#linear-gradient-5);
      }

      .cls-4 {
        fill: url(#linear-gradient-6);
      }

      .cls-5 {
        fill: url(#linear-gradient-9);
      }

      .cls-6 {
        fill: url(#linear-gradient-4);
      }

      .cls-7 {
        fill: url(#linear-gradient-3);
      }

      .cls-8 {
        fill: url(#linear-gradient-2);
      }

      .cls-9 {
        fill: url(#linear-gradient);
      }

      .cls-10 {
        fill: #c5b278;
      }

      .cls-11 {
        fill: #e5d593;
      }

      .cls-12 {
        fill: url(#linear-gradient-43);
      }

      .cls-13 {
        fill: url(#linear-gradient-40);
      }

      .cls-14 {
        fill: url(#linear-gradient-41);
      }

      .cls-15 {
        fill: url(#linear-gradient-42);
      }

      .cls-16 {
        fill: url(#linear-gradient-49);
      }

      .cls-17 {
        fill: url(#linear-gradient-48);
      }

      .cls-18 {
        fill: url(#linear-gradient-45);
      }

      .cls-19 {
        fill: url(#linear-gradient-47);
      }

      .cls-20 {
        fill: url(#linear-gradient-44);
      }

      .cls-21 {
        fill: url(#linear-gradient-46);
      }

      .cls-22 {
        fill: url(#linear-gradient-10);
      }

      .cls-23 {
        fill: url(#linear-gradient-11);
      }

      .cls-24 {
        fill: url(#linear-gradient-12);
      }

      .cls-25 {
        fill: url(#linear-gradient-13);
      }

      .cls-26 {
        fill: url(#linear-gradient-19);
      }

      .cls-27 {
        fill: url(#linear-gradient-14);
      }

      .cls-28 {
        fill: url(#linear-gradient-21);
      }

      .cls-29 {
        fill: url(#linear-gradient-20);
      }

      .cls-30 {
        fill: url(#linear-gradient-22);
      }

      .cls-31 {
        fill: url(#linear-gradient-23);
      }

      .cls-32 {
        fill: url(#linear-gradient-28);
      }

      .cls-33 {
        fill: url(#linear-gradient-25);
      }

      .cls-34 {
        fill: url(#linear-gradient-32);
      }

      .cls-35 {
        fill: url(#linear-gradient-31);
      }

      .cls-36 {
        fill: url(#linear-gradient-33);
      }

      .cls-37 {
        fill: url(#linear-gradient-30);
      }

      .cls-38 {
        fill: url(#linear-gradient-15);
      }

      .cls-39 {
        fill: url(#linear-gradient-16);
      }

      .cls-40 {
        fill: url(#linear-gradient-17);
      }

      .cls-41 {
        fill: url(#linear-gradient-18);
      }

      .cls-42 {
        fill: url(#linear-gradient-35);
      }

      .cls-43 {
        fill: url(#linear-gradient-34);
      }

      .cls-44 {
        fill: url(#linear-gradient-36);
      }

      .cls-45 {
        fill: url(#linear-gradient-38);
      }

      .cls-46 {
        fill: url(#linear-gradient-27);
      }

      .cls-47 {
        fill: url(#linear-gradient-24);
      }

      .cls-48 {
        fill: url(#linear-gradient-26);
      }

      .cls-49 {
        fill: url(#linear-gradient-29);
      }

      .cls-50 {
        fill: url(#linear-gradient-37);
      }

      .cls-51 {
        fill: url(#linear-gradient-39);
      }

      .cls-52 {
        fill: url(#linear-gradient-57);
      }

      .cls-53 {
        fill: url(#linear-gradient-58);
      }

      .cls-54 {
        fill: url(#linear-gradient-59);
      }

      .cls-55 {
        fill: url(#linear-gradient-53);
      }

      .cls-56 {
        fill: url(#linear-gradient-54);
      }

      .cls-57 {
        fill: url(#linear-gradient-55);
      }

      .cls-58 {
        fill: url(#linear-gradient-56);
      }

      .cls-59 {
        fill: url(#linear-gradient-50);
      }

      .cls-60 {
        fill: url(#linear-gradient-51);
      }

      .cls-61 {
        fill: url(#linear-gradient-52);
      }

      .cls-62 {
        fill: url(#linear-gradient-67);
      }

      .cls-63 {
        fill: url(#linear-gradient-68);
      }

      .cls-64 {
        fill: url(#linear-gradient-69);
      }

      .cls-65 {
        fill: url(#linear-gradient-63);
      }

      .cls-66 {
        fill: url(#linear-gradient-64);
      }

      .cls-67 {
        fill: url(#linear-gradient-65);
      }

      .cls-68 {
        fill: url(#linear-gradient-66);
      }

      .cls-69 {
        fill: url(#linear-gradient-60);
      }

      .cls-70 {
        fill: url(#linear-gradient-61);
      }

      .cls-71 {
        fill: url(#linear-gradient-62);
      }

      .cls-72 {
        fill: url(#linear-gradient-79);
      }

      .cls-73 {
        fill: url(#linear-gradient-78);
      }

      .cls-74 {
        fill: url(#linear-gradient-75);
      }

      .cls-75 {
        fill: url(#linear-gradient-72);
      }

      .cls-76 {
        fill: url(#linear-gradient-77);
      }

      .cls-77 {
        fill: url(#linear-gradient-74);
      }

      .cls-78 {
        fill: url(#linear-gradient-76);
      }

      .cls-79 {
        fill: url(#linear-gradient-71);
      }

      .cls-80 {
        fill: url(#linear-gradient-73);
      }

      .cls-81 {
        fill: url(#linear-gradient-70);
      }

      .cls-82 {
        fill: url(#linear-gradient-87);
      }

      .cls-83 {
        fill: url(#linear-gradient-88);
      }

      .cls-84 {
        fill: url(#linear-gradient-89);
      }

      .cls-85 {
        fill: url(#linear-gradient-85);
      }

      .cls-86 {
        fill: url(#linear-gradient-83);
      }

      .cls-87 {
        fill: url(#linear-gradient-82);
      }

      .cls-88 {
        fill: url(#linear-gradient-84);
      }

      .cls-89 {
        fill: url(#linear-gradient-86);
      }

      .cls-90 {
        fill: url(#linear-gradient-81);
      }

      .cls-91 {
        fill: url(#linear-gradient-80);
      }

      .cls-92 {
        fill: url(#linear-gradient-99);
      }

      .cls-93 {
        fill: url(#linear-gradient-96);
      }

      .cls-94 {
        fill: url(#linear-gradient-97);
      }

      .cls-95 {
        fill: url(#linear-gradient-98);
      }

      .cls-96 {
        fill: url(#linear-gradient-92);
      }

      .cls-97 {
        fill: url(#linear-gradient-93);
      }

      .cls-98 {
        fill: url(#linear-gradient-94);
      }

      .cls-99 {
        fill: url(#linear-gradient-91);
      }

      .cls-100 {
        fill: url(#linear-gradient-95);
      }

      .cls-101 {
        fill: url(#linear-gradient-90);
      }

      .cls-102 {
        fill: url(#linear-gradient-107);
      }

      .cls-103 {
        fill: url(#linear-gradient-108);
      }

      .cls-104 {
        fill: url(#linear-gradient-109);
      }

      .cls-105 {
        fill: url(#linear-gradient-105);
      }

      .cls-106 {
        fill: url(#linear-gradient-106);
      }

      .cls-107 {
        fill: url(#linear-gradient-104);
      }

      .cls-108 {
        fill: url(#linear-gradient-103);
      }

      .cls-109 {
        fill: url(#linear-gradient-102);
      }

      .cls-110 {
        fill: url(#linear-gradient-101);
      }

      .cls-111 {
        fill: url(#linear-gradient-100);
      }

      .cls-112 {
        fill: url(#linear-gradient-124);
      }

      .cls-113 {
        fill: url(#linear-gradient-125);
      }

      .cls-114 {
        fill: url(#linear-gradient-123);
      }

      .cls-115 {
        fill: url(#linear-gradient-129);
      }

      .cls-116 {
        fill: url(#linear-gradient-122);
      }

      .cls-117 {
        fill: url(#linear-gradient-126);
      }

      .cls-118 {
        fill: url(#linear-gradient-121);
      }

      .cls-119 {
        fill: url(#linear-gradient-120);
      }

      .cls-120 {
        fill: url(#linear-gradient-116);
      }

      .cls-121 {
        fill: url(#linear-gradient-117);
      }

      .cls-122 {
        fill: url(#linear-gradient-115);
      }

      .cls-123 {
        fill: url(#linear-gradient-110);
      }

      .cls-124 {
        fill: url(#linear-gradient-114);
      }

      .cls-125 {
        fill: url(#linear-gradient-113);
      }

      .cls-126 {
        fill: url(#linear-gradient-118);
      }

      .cls-127 {
        fill: url(#linear-gradient-112);
      }

      .cls-128 {
        fill: url(#linear-gradient-111);
      }

      .cls-129 {
        fill: url(#linear-gradient-128);
      }

      .cls-130 {
        fill: url(#linear-gradient-127);
      }

      .cls-131 {
        fill: url(#linear-gradient-119);
      }
    </style>
    <linearGradient id="linear-gradient" x1="299.22" y1="1590.67" x2="299.22" y2="2820.51" gradientTransform="translate(0 -2329.95)" gradientUnits="userSpaceOnUse">
      <stop offset="0" stop-color="#7f613b"/>
      <stop offset=".04" stop-color="#876a41"/>
      <stop offset=".11" stop-color="#9d8354"/>
      <stop offset=".12" stop-color="#a08757"/>
      <stop offset=".16" stop-color="#ab9461"/>
      <stop offset=".22" stop-color="#c5b278"/>
      <stop offset=".29" stop-color="#d7c687"/>
      <stop offset=".34" stop-color="#eadb97"/>
      <stop offset=".45" stop-color="#e5d593"/>
      <stop offset=".63" stop-color="#cfbc7f"/>
      <stop offset=".73" stop-color="#b59d66"/>
      <stop offset=".87" stop-color="#927546"/>
      <stop offset="1" stop-color="#826337"/>
    </linearGradient>
    <linearGradient id="linear-gradient-2" x1="225.07" y1="1590.67" x2="225.07" y2="2820.52" xlink:href="#linear-gradient"/>
    <linearGradient id="linear-gradient-3" x1="93.12" y1="1590.67" x2="93.12" y2="2820.51" xlink:href="#linear-gradient"/>
    <linearGradient id="linear-gradient-4" x1="139.82" x2="139.82" y2="2820.51" xlink:href="#linear-gradient"/>
    <linearGradient id="linear-gradient-5" x1="247.98" y1="1590.67" x2="247.98" y2="2820.51" xlink:href="#linear-gradient"/>
    <linearGradient id="linear-gradient-6" x1="323.53" y1="1590.68" x2="323.53" y2="2820.52" xlink:href="#linear-gradient"/>
    <linearGradient id="linear-gradient-7" x1="347.48" y1="1590.67" x2="347.48" y2="2820.51" xlink:href="#linear-gradient"/>
    <linearGradient id="linear-gradient-8" x1="337.58" y1="1590.68" x2="337.58" y2="2820.51" xlink:href="#linear-gradient"/>
    <linearGradient id="linear-gradient-9" x1="327.28" y1="1590.68" x2="327.28" y2="2820.51" xlink:href="#linear-gradient"/>
    <linearGradient id="linear-gradient-10" x1="315.41" y1="1590.68" x2="315.41" y2="2820.51" xlink:href="#linear-gradient"/>
    <linearGradient id="linear-gradient-11" x1="327.79" y1="1590.67" x2="327.79" y2="2820.51" xlink:href="#linear-gradient"/>
    <linearGradient id="linear-gradient-12" x1="302.69" y1="1590.67" x2="302.69" y2="2820.51" xlink:href="#linear-gradient"/>
    <linearGradient id="linear-gradient-13" x1="309.85" y1="1590.67" x2="309.85" y2="2820.52" xlink:href="#linear-gradient"/>
    <linearGradient id="linear-gradient-14" x1="297.36" y1="1590.67" x2="297.36" y2="2820.51" xlink:href="#linear-gradient"/>
    <linearGradient id="linear-gradient-15" x1="339.59" y1="1590.67" x2="339.59" y2="2820.51" xlink:href="#linear-gradient"/>
    <linearGradient id="linear-gradient-16" x1="338.29" y1="1590.67" x2="338.29" y2="2820.51" xlink:href="#linear-gradient"/>
    <linearGradient id="linear-gradient-17" x1="351.57" y1="1590.67" x2="351.57" y2="2820.51" xlink:href="#linear-gradient"/>
    <linearGradient id="linear-gradient-18" x1="320.14" y1="1590.68" x2="320.14" y2="2820.51" xlink:href="#linear-gradient"/>
    <linearGradient id="linear-gradient-19" x1="331.64" y1="1590.68" x2="331.64" y2="2820.51" xlink:href="#linear-gradient"/>
    <linearGradient id="linear-gradient-20" x1="307.17" y1="1590.67" x2="307.17" y2="2820.51" xlink:href="#linear-gradient"/>
    <linearGradient id="linear-gradient-21" x1="316.74" y1="1590.67" x2="316.74" y2="2820.52" xlink:href="#linear-gradient"/>
    <linearGradient id="linear-gradient-22" x1="300.26" y1="1590.67" x2="300.26" y2="2820.51" xlink:href="#linear-gradient"/>
    <linearGradient id="linear-gradient-23" x1="310.43" y1="1590.68" x2="310.43" y2="2820.51" xlink:href="#linear-gradient"/>
    <linearGradient id="linear-gradient-24" x1="337.13" y1="1590.68" x2="337.13" y2="2820.51" xlink:href="#linear-gradient"/>
    <linearGradient id="linear-gradient-25" x1="341.05" y1="1590.68" x2="341.05" y2="2820.51" xlink:href="#linear-gradient"/>
    <linearGradient id="linear-gradient-26" x1="321.93" y1="1590.68" x2="321.93" y2="2820.51" xlink:href="#linear-gradient"/>
    <linearGradient id="linear-gradient-27" x1="306.29" y1="1590.67" x2="306.29" y2="2820.51" xlink:href="#linear-gradient"/>
    <linearGradient id="linear-gradient-28" x1="315.92" y1="1590.67" x2="315.92" y2="2820.52" xlink:href="#linear-gradient"/>
    <linearGradient id="linear-gradient-29" x1="304.92" y1="1590.68" x2="304.92" y2="2820.51" xlink:href="#linear-gradient"/>
    <linearGradient id="linear-gradient-30" x1="287.16" y1="1590.69" x2="287.16" y2="2820.51" xlink:href="#linear-gradient"/>
    <linearGradient id="linear-gradient-31" x1="272.01" y1="1590.68" x2="272.01" y2="2820.51" xlink:href="#linear-gradient"/>
    <linearGradient id="linear-gradient-32" x1="291.57" y1="1590.67" x2="291.57" y2="2820.51" xlink:href="#linear-gradient"/>
    <linearGradient id="linear-gradient-33" x1="305.21" y1="1590.68" x2="305.21" y2="2820.51" xlink:href="#linear-gradient"/>
    <linearGradient id="linear-gradient-34" x1="293.63" y1="1590.67" x2="293.63" y2="2820.51" xlink:href="#linear-gradient"/>
    <linearGradient id="linear-gradient-35" x1="279.17" y1="1590.67" x2="279.17" y2="2820.51" xlink:href="#linear-gradient"/>
    <linearGradient id="linear-gradient-36" x1="291.62" y1="1590.67" x2="291.62" y2="2820.51" xlink:href="#linear-gradient"/>
    <linearGradient id="linear-gradient-37" x1="272.87" y1="1590.68" x2="272.87" y2="2820.51" xlink:href="#linear-gradient"/>
    <linearGradient id="linear-gradient-38" x1="255.54" y1="1590.68" x2="255.54" y2="2820.51" xlink:href="#linear-gradient"/>
    <linearGradient id="linear-gradient-39" x1="283.89" y1="1590.69" x2="283.89" y2="2820.51" xlink:href="#linear-gradient"/>
    <linearGradient id="linear-gradient-40" x1="266.01" y1="1590.68" x2="266.01" y2="2820.51" xlink:href="#linear-gradient"/>
    <linearGradient id="linear-gradient-41" x1="310.11" y1="1590.68" x2="310.11" y2="2820.51" xlink:href="#linear-gradient"/>
    <linearGradient id="linear-gradient-42" x1="279.26" y1="1590.67" x2="279.26" y2="2820.51" xlink:href="#linear-gradient"/>
    <linearGradient id="linear-gradient-43" x1="296.57" y1="1590.67" x2="296.57" y2="2820.51" xlink:href="#linear-gradient"/>
    <linearGradient id="linear-gradient-44" x1="321.91" y1="1590.69" x2="321.91" y2="2820.51" xlink:href="#linear-gradient"/>
    <linearGradient id="linear-gradient-45" x1="295.47" y1="1590.67" x2="295.47" y2="2820.51" xlink:href="#linear-gradient"/>
    <linearGradient id="linear-gradient-46" x1="312.42" y1="1590.68" x2="312.42" y2="2820.51" xlink:href="#linear-gradient"/>
    <linearGradient id="linear-gradient-47" x1="333.14" y1="1590.67" x2="333.14" y2="2820.52" xlink:href="#linear-gradient"/>
    <linearGradient id="linear-gradient-48" x1="314.7" y1="1590.67" x2="314.7" y2="2820.51" xlink:href="#linear-gradient"/>
    <linearGradient id="linear-gradient-49" x1="350.37" y1="1590.67" x2="350.37" y2="2820.52" xlink:href="#linear-gradient"/>
    <linearGradient id="linear-gradient-50" x1="279.26" y1="1590.67" x2="279.26" y2="2820.51" xlink:href="#linear-gradient"/>
    <linearGradient id="linear-gradient-51" x1="264.57" y1="1590.67" x2="264.57" y2="2820.51" xlink:href="#linear-gradient"/>
    <linearGradient id="linear-gradient-52" x1="269.7" y1="1590.67" x2="269.7" y2="2820.51" xlink:href="#linear-gradient"/>
    <linearGradient id="linear-gradient-53" x1="261.01" y1="1590.68" x2="261.01" y2="2820.51" xlink:href="#linear-gradient"/>
    <linearGradient id="linear-gradient-54" x1="253.32" y1="1590.67" x2="253.32" y2="2820.51" xlink:href="#linear-gradient"/>
    <linearGradient id="linear-gradient-55" x1="239.75" y1="1590.67" x2="239.75" y2="2820.51" xlink:href="#linear-gradient"/>
    <linearGradient id="linear-gradient-56" x1="229.36" y1="1590.68" x2="229.36" y2="2820.51" xlink:href="#linear-gradient"/>
    <linearGradient id="linear-gradient-57" x1="221.23" y1="1590.67" x2="221.23" y2="2820.51" xlink:href="#linear-gradient"/>
    <linearGradient id="linear-gradient-58" x1="216.93" y1="1590.67" x2="216.93" y2="2820.51" xlink:href="#linear-gradient"/>
    <linearGradient id="linear-gradient-59" x1="248" y1="1590.68" x2="248" y2="2820.51" xlink:href="#linear-gradient"/>
    <linearGradient id="linear-gradient-60" x1="231.81" y1="1590.67" x2="231.81" y2="2820.51" xlink:href="#linear-gradient"/>
    <linearGradient id="linear-gradient-61" x1="266.84" y1="1590.67" x2="266.84" y2="2820.51" xlink:href="#linear-gradient"/>
    <linearGradient id="linear-gradient-62" x1="274.12" y1="1590.67" x2="274.12" y2="2820.51" xlink:href="#linear-gradient"/>
    <linearGradient id="linear-gradient-63" x1="222.25" y1="1590.68" x2="222.25" y2="2820.51" xlink:href="#linear-gradient"/>
    <linearGradient id="linear-gradient-64" x1="216.84" y1="1590.68" x2="216.84" y2="2820.51" xlink:href="#linear-gradient"/>
    <linearGradient id="linear-gradient-65" x1="253.9" y1="1590.67" x2="253.9" y2="2820.51" xlink:href="#linear-gradient"/>
    <linearGradient id="linear-gradient-66" x1="246.4" y1="1590.67" x2="246.4" y2="2820.51" xlink:href="#linear-gradient"/>
    <linearGradient id="linear-gradient-67" x1="231.37" y1="1590.67" x2="231.37" y2="2820.51" xlink:href="#linear-gradient"/>
    <linearGradient id="linear-gradient-68" x1="216.89" y1="1590.67" x2="216.89" y2="2820.52" xlink:href="#linear-gradient"/>
    <linearGradient id="linear-gradient-69" x1="231.22" y1="1590.68" x2="231.22" y2="2820.51" xlink:href="#linear-gradient"/>
    <linearGradient id="linear-gradient-70" x1="206.6" y1="1590.67" x2="206.6" y2="2820.51" xlink:href="#linear-gradient"/>
    <linearGradient id="linear-gradient-71" x1="225.43" y1="1590.67" x2="225.43" y2="2820.51" xlink:href="#linear-gradient"/>
    <linearGradient id="linear-gradient-72" x1="213.73" y1="1590.67" x2="213.73" y2="2820.51" xlink:href="#linear-gradient"/>
    <linearGradient id="linear-gradient-73" x1="189.78" y1="1590.67" x2="189.78" y2="2820.52" xlink:href="#linear-gradient"/>
    <linearGradient id="linear-gradient-74" x1="206.22" y1="1590.68" x2="206.22" y2="2820.51" xlink:href="#linear-gradient"/>
    <linearGradient id="linear-gradient-75" x1="183.19" y1="1590.68" x2="183.19" y2="2820.51" xlink:href="#linear-gradient"/>
    <linearGradient id="linear-gradient-76" x1="200.05" y1="1590.67" x2="200.05" y2="2820.51" xlink:href="#linear-gradient"/>
    <linearGradient id="linear-gradient-77" x1="178.26" y1="1590.67" x2="178.26" y2="2820.51" xlink:href="#linear-gradient"/>
    <linearGradient id="linear-gradient-78" x1="192.86" y1="1590.67" x2="192.86" y2="2820.51" xlink:href="#linear-gradient"/>
    <linearGradient id="linear-gradient-79" x1="182.85" y1="1590.67" x2="182.85" y2="2820.52" xlink:href="#linear-gradient"/>
    <linearGradient id="linear-gradient-80" x1="180.98" y1="1590.67" x2="180.98" y2="2820.51" xlink:href="#linear-gradient"/>
    <linearGradient id="linear-gradient-81" x1="190.24" y1="1590.69" x2="190.24" y2="2820.51" xlink:href="#linear-gradient"/>
    <linearGradient id="linear-gradient-82" x1="200.86" y1="1590.68" x2="200.86" y2="2820.51" xlink:href="#linear-gradient"/>
    <linearGradient id="linear-gradient-83" x1="187.71" y1="1590.67" x2="187.71" y2="2820.52" xlink:href="#linear-gradient"/>
    <linearGradient id="linear-gradient-84" x1="192.82" y1="1590.67" x2="192.82" y2="2820.51" xlink:href="#linear-gradient"/>
    <linearGradient id="linear-gradient-85" x1="207.64" y1="1590.68" x2="207.64" y2="2820.51" xlink:href="#linear-gradient"/>
    <linearGradient id="linear-gradient-86" x1="202.25" y1="1590.67" x2="202.25" y2="2820.52" xlink:href="#linear-gradient"/>
    <linearGradient id="linear-gradient-87" x1="217.96" y1="1590.67" x2="217.96" y2="2820.51" xlink:href="#linear-gradient"/>
    <linearGradient id="linear-gradient-88" x1="226.73" y1="1590.68" x2="226.73" y2="2820.51" xlink:href="#linear-gradient"/>
    <linearGradient id="linear-gradient-89" x1="211.4" y1="1590.67" x2="211.4" y2="2820.51" xlink:href="#linear-gradient"/>
    <linearGradient id="linear-gradient-90" x1="222.61" y1="1590.68" x2="222.61" y2="2820.51" xlink:href="#linear-gradient"/>
    <linearGradient id="linear-gradient-91" x1="238.94" y1="1590.68" x2="238.94" y2="2820.51" xlink:href="#linear-gradient"/>
    <linearGradient id="linear-gradient-92" x1="149.16" y1="1590.67" x2="149.16" y2="2820.51" xlink:href="#linear-gradient"/>
    <linearGradient id="linear-gradient-93" x1="135.42" y1="1590.68" x2="135.42" y2="2820.51" xlink:href="#linear-gradient"/>
    <linearGradient id="linear-gradient-94" x1="143.91" y1="1590.68" x2="143.91" y2="2820.51" xlink:href="#linear-gradient"/>
    <linearGradient id="linear-gradient-95" x1="116.41" y1="1590.68" x2="116.41" y2="2820.51" xlink:href="#linear-gradient"/>
    <linearGradient id="linear-gradient-96" x1="129.75" y1="1590.68" x2="129.75" y2="2820.51" xlink:href="#linear-gradient"/>
    <linearGradient id="linear-gradient-97" x1="94.26" y1="1590.68" x2="94.26" y2="2820.51" xlink:href="#linear-gradient"/>
    <linearGradient id="linear-gradient-98" x1="107.64" y1="1590.68" x2="107.64" y2="2820.51" xlink:href="#linear-gradient"/>
    <linearGradient id="linear-gradient-99" x1="69.98" y1="1590.67" x2="69.98" y2="2820.51" xlink:href="#linear-gradient"/>
    <linearGradient id="linear-gradient-100" x1="78.08" y1="1590.68" x2="78.08" y2="2820.51" xlink:href="#linear-gradient"/>
    <linearGradient id="linear-gradient-101" x1="54.08" y1="1590.67" x2="54.08" y2="2820.51" xlink:href="#linear-gradient"/>
    <linearGradient id="linear-gradient-102" x1="44.49" y1="1590.67" x2="44.49" y2="2820.51" xlink:href="#linear-gradient"/>
    <linearGradient id="linear-gradient-103" x1="63.33" y1="1590.68" x2="63.33" y2="2820.51" xlink:href="#linear-gradient"/>
    <linearGradient id="linear-gradient-104" x1="39.79" y1="1590.68" x2="39.79" y2="2820.51" xlink:href="#linear-gradient"/>
    <linearGradient id="linear-gradient-105" x1="105.5" y1="1590.67" x2="105.5" y2="2820.51" xlink:href="#linear-gradient"/>
    <linearGradient id="linear-gradient-106" x1="83.92" y1="1590.68" x2="83.92" y2="2820.51" xlink:href="#linear-gradient"/>
    <linearGradient id="linear-gradient-107" x1="100.29" y1="1590.67" x2="100.29" y2="2820.51" xlink:href="#linear-gradient"/>
    <linearGradient id="linear-gradient-108" x1="61.82" y1="1590.67" x2="61.82" y2="2820.51" xlink:href="#linear-gradient"/>
    <linearGradient id="linear-gradient-109" x1="81" y1="1590.68" x2="81" y2="2820.51" xlink:href="#linear-gradient"/>
    <linearGradient id="linear-gradient-110" x1="124.99" y1="1590.67" x2="124.99" y2="2820.51" xlink:href="#linear-gradient"/>
    <linearGradient id="linear-gradient-111" x1="136.78" y1="1590.68" x2="136.78" y2="2820.51" xlink:href="#linear-gradient"/>
    <linearGradient id="linear-gradient-112" x1="157.25" y1="1590.67" x2="157.25" y2="2820.51" xlink:href="#linear-gradient"/>
    <linearGradient id="linear-gradient-113" x1="160.35" y1="1590.67" x2="160.35" y2="2820.51" xlink:href="#linear-gradient"/>
    <linearGradient id="linear-gradient-114" x1="146.71" y1="1590.67" x2="146.71" y2="2820.51" xlink:href="#linear-gradient"/>
    <linearGradient id="linear-gradient-115" x1="129.71" y1="1590.68" x2="129.71" y2="2820.51" xlink:href="#linear-gradient"/>
    <linearGradient id="linear-gradient-116" x1="148.23" y1="1590.67" x2="148.23" y2="2820.51" xlink:href="#linear-gradient"/>
    <linearGradient id="linear-gradient-117" x1="120.16" y1="1590.68" x2="120.16" y2="2820.51" xlink:href="#linear-gradient"/>
    <linearGradient id="linear-gradient-118" x1="141.88" y1="1590.67" x2="141.88" y2="2820.51" xlink:href="#linear-gradient"/>
    <linearGradient id="linear-gradient-119" x1="133.2" y1="1590.68" x2="133.2" y2="2820.51" xlink:href="#linear-gradient"/>
    <linearGradient id="linear-gradient-120" x1="113.69" y1="1590.66" x2="113.69" y2="2820.52" xlink:href="#linear-gradient"/>
    <linearGradient id="linear-gradient-121" x1="108.25" y1="1590.68" x2="108.25" y2="2820.51" xlink:href="#linear-gradient"/>
    <linearGradient id="linear-gradient-122" x1="116.35" y1="1590.67" x2="116.35" y2="2820.51" xlink:href="#linear-gradient"/>
    <linearGradient id="linear-gradient-123" x1="125.29" y1="1590.67" x2="125.29" y2="2820.51" xlink:href="#linear-gradient"/>
    <linearGradient id="linear-gradient-124" x1="138.98" y1="1590.69" x2="138.98" y2="2820.51" xlink:href="#linear-gradient"/>
    <linearGradient id="linear-gradient-125" x1="133.83" y1="1590.68" x2="133.83" y2="2820.51" xlink:href="#linear-gradient"/>
    <linearGradient id="linear-gradient-126" x1="147.71" y1="1590.68" x2="147.71" y2="2820.51" xlink:href="#linear-gradient"/>
    <linearGradient id="linear-gradient-127" x1="19.93" y1="1590.68" x2="19.93" y2="2820.51" xlink:href="#linear-gradient"/>
    <linearGradient id="linear-gradient-128" x1="17.36" y1="1590.68" x2="17.36" y2="2820.51" xlink:href="#linear-gradient"/>
    <linearGradient id="linear-gradient-129" x1="4.38" y1="1590.67" x2="4.38" y2="2820.51" xlink:href="#linear-gradient"/>
  </defs>
  <g id="Layer_1-2" data-name="Layer_1">
    <g id="b">
      <g id="c">
        <g>
          <path class="cls-9" d="M352.72,81.2c-18.5-3.3-37.2-1.6-53,5.1-6.7,2.9-13.5,6.8-21.2,12.3-20.8,14.8-30.3,29.3-29.2,44.4l-3.5.3c-1.3-16.5,8.7-32,30.6-47.6,8-5.7,14.9-9.7,21.9-12.6,16.2-6.9,35.3-8.8,54.2-5.5.1,1.2.1,2.4.2,3.6h0Z"/>
          <path class="cls-8" d="M173.42,176c2.5-26.3,8.4-53,34.7-70.5,19.9-13.3,47.1-16.4,71-8.1l1.1-3.3c-24.9-8.7-53.3-5.5-74.1,8.5-27.5,18.4-33.8,47.3-36.2,73.1l3.5.3h0Z"/>
          <path class="cls-7" d="M69.22,200.5c15.5-7.6,32.1-10,47.6-7.6.4,2.2,3.8,3,4.9.9,16.3,3.6,31,12.5,41,26.3l-2.8,2.1c-22-30-61.5-32-89.2-18.4-20.8,10.2-37.2,30.4-43.9,54l-3.3-1c6.9-24.6,24-45.7,45.7-56.3h0Z"/>
          <path class="cls-6" d="M97.32,194.1c7-20.6,20-39.6,36.7-53.5,6.9-5.8,13-9.4,19.2-11.4,8.7-2.8,19-2.9,31.5-.1l.8-3.4c-13.1-2.9-24-2.8-33.3.2-6.5,2.1-13,6-20.3,12-17.4,14.4-30.5,33.5-37.8,55.1l3.2,1.1h0Z"/>
          <path class="cls-3" d="M205.52,197.7l3.3-1c-5.8-20,11.2-43.9,29.2-50.3,9.9-3.6,26.1-3.8,38.1,2.7,6.5,3.5,10.6,8.4,12.2,14.6l3.4-.9c-1.8-7.1-6.6-12.9-13.9-16.9-12.9-6.9-30.3-6.7-40.9-2.9-19.8,7.2-37.7,32.6-31.4,54.7h0Z"/>
          <path class="cls-4" d="M353.92,3.6c-3.4.2-6.7.9-10,2.5-25.4,12.3-48.4,39-47,67.5-.2.7-.3,1.3-.5,2-.2,1.2.2,2.1.9,2.7.3,2,.7,4,1.2,5.9l-3.4.9c-4.5-16.2-1.3-33.2,9.1-49.2,8.9-13.6,22.8-25.7,38-33.1,3.8-1.8,7.6-2.6,11.5-2.8.2,1.2.2,2.4.2,3.6h0Z"/>
          <path class="cls-2" d="M342.82,25.9c-.2-1.1-.2-2.2-.3-3.4-.3-8.4,2.5-13.5,7.3-20.1,1.2-1.6,3.6.3,2.2,1.7-7.6,7.7-11.5,24.7-2.1,32.9.5.5-.2,1.2-.8.8-3.4-2.7-5.2-6.2-6-10.2.1-.7,0-1.2-.3-1.7Z"/>
          <g>
            <path class="cls-1" d="M331.02,37.8c3.4,4.8,8.5,8.7,14.2,10.4.3.1.3.7-.1.7-6.2-.8-11.5-5-15.4-10,.4-.4.8-.7,1.3-1.1h0Z"/>
            <path class="cls-5" d="M328.42,33.2c-.6.5-1.2.9-1.7,1.4-4-6.8-3.6-15,.7-21.6,1.2-1.8,4.1-.1,2.9,1.7-4.3,5.9-4.3,12.6-1.9,18.5Z"/>
          </g>
          <g>
            <path class="cls-22" d="M318.12,42c-.6.5-1.1,1-1.7,1.6-3-5.2-4.4-11.2-3.4-17.8.3-2.3,3.9-1.4,3.5,1-1,5.1-.4,10.3,1.6,15.2h0Z"/>
            <path class="cls-23" d="M320.62,46.7c4,5.9,9.9,9.2,15.5,13.4.3.2,0,.6-.3.5-6.3-2.9-12.2-7.2-16.5-12.6.5-.5.9-.9,1.3-1.3h0Z"/>
          </g>
          <g>
            <path class="cls-24" d="M304.72,56.9c-2.6-3.1-4.5-6.5-5.5-9.9-.6-2.1,2.8-3,3.2-.9.6,3.2,1.9,6.2,3.8,8.8-.5.7-1,1.4-1.5,2h0Z"/>
            <path class="cls-11" d="M309.62,59.2c4.8,4.7,11.2,8,17.4,9.5.4.1.3.7-.1.7-6.2,0-13.1-3.5-18.5-8.5.4-.6.8-1.2,1.2-1.7Z"/>
          </g>
          <g>
            <path class="cls-25" d="M303.92,69.3c3.5,3.4,7.8,5.9,12.5,7.1.6.2.4,1.1-.3,1-5-1-9.4-2.9-13.2-5.7.4-.8.7-1.6,1-2.4h0Z"/>
            <path class="cls-27" d="M297.42,60.4c.8,1.6,1.7,3.1,2.7,4.5-.5.9-.9,1.9-1.3,2.9-1.5-1.7-2.9-3.7-4-5.8-1-1.8,1.7-3.3,2.6-1.6Z"/>
          </g>
          <g>
            <path class="cls-38" d="M337.52,26.2c-.7.5-1.4,1-2.1,1.5-1.7-8.2.2-16.6,5.6-23.7,1.8-2.3,4.8.7,2.5,2.5-6.4,4.8-7.1,12.4-6,19.7h0Z"/>
            <path class="cls-39" d="M338.62,32c.3,1.2.6,2.4.9,3.6.2.7-.8,1.2-1.2.5-.5-1-.9-1.9-1.3-2.9.5-.4,1-.8,1.6-1.2Z"/>
          </g>
          <path class="cls-40" d="M353.82,7.8c-2.1,3.2-3.5,6.9-3.9,10.6,0,.5-.7.5-.7,0,.1-5.8,1.3-10.7,4.7-15.3-.1,1.6-.1,3.2-.1,4.7h0Z"/>
          <g>
            <path class="cls-41" d="M322.82,37.8c-.5.4-.9.8-1.4,1.2-3.3-5.5-4.9-11.9-3.4-18.5.4-1.9,3.4-1,2.8.8-1.9,6.2-.8,11.7,2,16.5Z"/>
            <path class="cls-26" d="M325.82,42.1c3.5,4.2,8.2,7.7,12.8,10.5.5.3.1,1.1-.5.8-5.1-2.2-9.9-5.8-13.7-10.2.5-.3,1-.7,1.4-1.1h0Z"/>
          </g>
          <g>
            <path class="cls-29" d="M310.02,50.1c-.3.3-.5.6-.8,1l-.1-.1c-3.5-4.4-4.4-8-4.8-13.5-.1-2,3.2-1.8,2.8.4-.8,4.6.5,8.7,2.9,12.2h0Z"/>
            <path class="cls-28" d="M313.42,54.3c2.2,2.3,4.8,4.3,7.2,6,.1.1,0,.3-.1.2-2.8-1.5-5.4-3.3-7.7-5.5.2-.2.4-.5.6-.7Z"/>
          </g>
          <g>
            <path class="cls-30" d="M301.82,61.6c-1.9-2.6-3.4-5.6-4.2-8.9-.3-1.4,1.7-2,2.1-.6.7,2.7,1.8,5.2,3.2,7.5-.3.7-.7,1.3-1.1,2h0Z"/>
            <path class="cls-31" d="M306.42,64.2c2.4,2.6,5.3,4.7,8.7,6.2.2.1.1.5-.2.4-3.5-1-6.6-2.8-9.3-5.2.3-.4.5-.9.8-1.4Z"/>
          </g>
          <path class="cls-47" d="M347.32,89.4c-5.7-5.4-14.7-9-22-9.9-1.9-.2-1.6-2.9.3-2.6,8.1,1.3,19,5.9,24.4,12.3.1.1.1.2.2.2h-2.9Z"/>
          <g>
            <path class="cls-33" d="M338.82,96.3c2,1.9,4,3.9,5.9,5.9.5.6-.3,1.4-.8.9-2.2-2.1-4.4-4.1-6.7-6.1.5-.3,1-.5,1.6-.7Z"/>
            <path class="cls-48" d="M332.62,93.2c-6.6-5.2-13.8-9.4-22.1-11-1.9-.3-1.1-3.4.8-2.9,9,2.5,16.4,7.3,23.1,13.1-.5.2-1.2.5-1.8.8h0Z"/>
          </g>
          <path class="cls-46" d="M320.32,99.9c-8.1-6.1-17.4-11.4-27.6-10.1-1.9.2-2-3.1,0-3,11.6.1,20.3,5.4,28.6,12.5-.4.2-.7.4-1,.6h0Z"/>
          <g>
            <path class="cls-32" d="M314.52,109.8c1.5,1.5,2.9,3.2,4.1,5.2.4.7-.7,1.4-1.1.7-1.2-1.9-2.7-3.5-4.4-5,.5-.3.9-.6,1.4-.9h0Z"/>
            <path class="cls-49" d="M302.42,101.5c2.7,1.5,5.4,3,7.8,4.8-.6.4-1.2.8-1.9,1.2-2.6-1.5-5.3-2.9-7.9-4.2-.3-.1-.5-.3-.8-.4,1-.6,1.9-1,2.8-1.4h0Z"/>
            <path class="cls-37" d="M293.72,100.1c-4.6-1.8-9.4-3-14.6-2.8-1.9.1-1.9-2.9,0-3,6.3-.2,12,1.6,17.5,4.2-1,.5-2,1-2.9,1.6Z"/>
          </g>
          <g>
            <path class="cls-35" d="M281.32,108.9c-.4.4-.9.8-1.3,1.2-5.5-1.2-11.3-1.4-16.8-1.5-1.9,0-1.9-3.1,0-3,6.2.4,12.9.8,19,2.6-.3.1-.6.4-.9.7h0Z"/>
            <path class="cls-34" d="M288.02,110.2c3.1,1.5,6.1,3.3,9,5.3-.5.4-1,.8-1.5,1.2-2-1.2-4.1-2.5-6.2-3.6-1-.5-2.1-1-3.2-1.4.6-.4,1.2-.9,1.9-1.5Z"/>
            <path class="cls-36" d="M301.42,118.8c3,2.3,5.9,4.7,8.7,7,.2.2-.1.5-.3.4-3.2-2.1-6.4-4.3-9.6-6.4.4-.3.8-.6,1.2-1Z"/>
          </g>
          <g>
            <path class="cls-43" d="M289.32,131c3.3,2.3,6.5,4.9,9.5,7.9.3.3-.1.7-.4.4-3.2-2.6-6.5-4.9-10.1-6.9.4-.5.7-.9,1-1.4h0Z"/>
            <path class="cls-42" d="M275.02,123.7c3.4,1.3,6.7,2.8,9.9,4.6-.4.6-.8,1.1-1.2,1.7-3.3-1.6-6.8-3-10.3-4.2.5-.7,1-1.4,1.6-2.1h0Z"/>
            <path class="cls-10" d="M254.12,119.4c5.2.3,10.3,1.1,15.2,2.5-.6.8-1.1,1.6-1.7,2.3-4.4-1-8.9-1.7-13.5-1.9-1.8-.1-1.8-3,0-2.9h0Z"/>
          </g>
          <g>
            <path class="cls-44" d="M283.82,139.6c6.4,3.8,11.8,8.7,16,15,.4.5-.5,1-.8.5-4.2-6.2-9.4-11.1-15.7-14.5.1-.4.3-.7.5-1Z"/>
            <path class="cls-50" d="M268.22,132.4c3.7,1.4,7.4,3,10.9,4.7-.2.4-.5.8-.7,1.2-.4-.2-.8-.3-1.2-.5-3.4-1.3-7-2.6-10.6-3.6.6-.6,1.1-1.2,1.6-1.8h0Z"/>
            <path class="cls-45" d="M249.82,128.4c4.4.2,8.7,1,13,2.3-.5.6-1.1,1.2-1.6,1.7-.1.1-.2.2-.3.4-3.7-.8-7.3-1.2-11-1.1-2.2,0-2.2-3.4-.1-3.3h0Z"/>
          </g>
          <g>
            <path class="cls-51" d="M280.32,117.1c2.6,1,5.2,2.1,7.7,3.4.3.1,0,.6-.2.4-2.7-1.2-5.4-2.2-8.2-3,.2-.3.5-.5.7-.8Z"/>
            <path class="cls-13" d="M258.52,112c5.6.5,11,1.6,16.2,3.2-.3.4-.7.8-1,1.1-5-1.1-10.1-1.7-15.2-1.7-1.7,0-1.6-2.8,0-2.6Z"/>
          </g>
          <g>
            <path class="cls-14" d="M307.02,114.7c2.9,2.2,5.6,4.7,7.9,7.4.2.2-.1.6-.3.4-3.1-2.3-6.2-4.6-9.4-6.6.7-.4,1.2-.8,1.8-1.2Z"/>
            <path class="cls-15" d="M284.92,105.9c-3.9-1.3-8-2.3-12.4-2.8-1.5-.2-1.3-2.3.3-2.1,4.7.7,9.5,1.8,14.2,3.4-.7.5-1.4,1-2.1,1.5h0Z"/>
            <path class="cls-12" d="M293.02,106.7c3.2,1.4,6.4,3,9.3,4.8-.7.5-1.3,1-2,1.5-3.1-1.8-6.3-3.4-9.5-4.8.7-.6,1.5-1,2.2-1.5Z"/>
          </g>
          <g>
            <path class="cls-20" d="M320.82,105.7c1.2,1.1,2.3,2.3,3.4,3.5.5.5-.2,1.2-.7.7-1.3-1.1-2.7-2.2-4.1-3.3.4-.3.9-.6,1.4-.9Z"/>
            <path class="cls-18" d="M301.92,95.9c-4.7-2.1-9.6-3.7-14.7-4.5-1.6-.3-.9-2.9.7-2.5,5.8,1.5,11.5,3.4,16.7,5.9-1,.4-1.9.7-2.7,1.1Z"/>
            <path class="cls-21" d="M308.12,99.1c.8-.3,1.4-.9,1.6-1.6,2.4,1.4,4.8,3,7,4.7-.6.4-1.3.8-1.9,1.2-2.2-1.6-4.4-3-6.7-4.3h0Z"/>
          </g>
          <g>
            <path class="cls-19" d="M332.42,98.9c.9.8,1.8,1.6,2.6,2.5.4.4-.2,1.1-.7.7-1.1-.9-2.1-1.7-3.2-2.5.5-.2.9-.5,1.3-.7Z"/>
            <path class="cls-17" d="M326.52,96.2c-7.3-5.1-15.2-9.1-24.2-10.9-1.7-.3-.9-3.2.7-2.6,8.8,3.2,17.5,7.1,25,12.7-.5.3-1,.5-1.5.8Z"/>
          </g>
          <path class="cls-16" d="M352.82,84.2c-1.5-1-3.1-2-4.5-3.3-1.1-1,.3-2.6,1.5-2,.9.5,1.9,1,2.8,1.6.1,1.2.2,2.5.2,3.7h0Z"/>
          <path class="cls-59" d="M271.42,169.4c1-3.6,3.8-6,6.4-8.5,2.5-2.4,4.8-4.1,8.1-5.2,1.2-.4,1.7,1.7.5,1.8-3.1.4-5.2,2.4-7.3,4.6-2.1,2.3-5,4.7-6.2,7.6-.4,1-1.7.7-1.5-.3h0Z"/>
          <path class="cls-60" d="M263.62,169.1c.1-2.9.1-6.7,1.5-9.2.1-.2.4-.1.4.1,0,1.4-.4,2.6-.7,4-.3,1.7-.5,3.4-.6,5.1.1.5-.6.5-.6,0h0Z"/>
          <path class="cls-61" d="M264.62,162.3c1.4-4.9,3.9-12.3,8.8-14.6,1.1-.5,2,1.1.9,1.6-4.2,2-6.9,9.2-8.5,13.3-.3.8-1.5.5-1.2-.3h0Z"/>
          <path class="cls-55" d="M255.32,163.9c.3-7.6,4.3-15.3,9.5-20.7,1.2-1.2,2.7,1.1,1.3,1.7-6.3,2.9-9.9,12.4-10.3,18.9,0,.4-.5.4-.5.1h0Z"/>
          <path class="cls-56" d="M248.52,164.7c-1.4-8.6,2.2-15.8,7.8-22.1,1-1.2,2.9.7,1.7,1.7-5.7,5.3-9.9,12.2-8.9,20.3,0,.3-.5.4-.6.1h0Z"/>
          <path class="cls-57" d="M242.32,176.7c-3-4.8-5.6-9.8-5.9-15.6-.3-6.1,2.5-11.7,4-17.4.5-1.9,3.3-.8,2.4,1-2.3,4.7-5,10.1-4.9,15.4.1,5.6,3,11.1,5.1,16.1.3.5-.4.9-.7.5h0Z"/>
          <path class="cls-58" d="M234.62,181.3c-3.6-3.4-7.2-6.6-9.3-11.2-2.4-5.4-2.1-11.6-1.7-17.3.2-2,3-1.6,2.7.4-.8,5.7-1.6,10.9.8,16.3,1.8,4.2,5,7.9,8.2,11.2.2.4-.3,1-.7.6h0Z"/>
          <path class="cls-52" d="M228.02,186.6c-3.8-3.1-7.5-6.3-10.2-10.5-2.6-4-2.9-8-4.2-12.4-.5-1.7,2.3-2.2,2.4-.3.4,9.9,5.9,16.1,12.7,22.6.5.3-.2,1-.7.6h0Z"/>
          <path class="cls-53" d="M225.52,194.9c-2.1-1.2-4.5-1.6-6.6-2.8-1.8-1-3.5-2.3-5.1-3.7-2.5-2.1-6.2-4.9-5.8-8.6.1-.9,1.3-.9,1.4,0,.4,3.9,4.9,7.4,7.8,9.6,2.7,2,5.8,3.1,8.5,5,.3.3.1.7-.2.5h0Z"/>
          <path class="cls-54" d="M244.22,161c-.3-7.4,2.9-12.5,5.3-19.1.7-1.8,3.2-.2,1.9,1.1-4.3,4.7-6.1,11.7-6.3,18,0,.6-.9.6-.9,0h0Z"/>
          <path class="cls-69" d="M232.32,170.6c-5.6-7.8-3.9-17-.1-25.2.8-1.8,3.7,0,2.3,1.8-5.2,6.6-4,15.7-1.2,22.9.2.7-.7,1-1,.5h0Z"/>
          <path class="cls-70" d="M262.22,157.5c.9-2.8,1.7-5.5,3.2-8,1.2-1.9,2.7-4.9,4.9-5.6.7-.2,1.3.5,1.1,1.1-.5,2.2-3,4.1-4.3,6.1-1.5,2.2-3.2,4.4-4.4,6.8-.1.2-.6-.1-.5-.4h0Z"/>
          <path class="cls-71" d="M267.72,166.9c1.8-6.8,4.6-14.1,11.1-17.6,1.4-.8,2.5,1.5.9,2.1-5.9,2.4-8.3,10.7-10.9,16-.3.5-1.2.1-1.1-.5h0Z"/>
          <path class="cls-65" d="M225.22,178c-5.3-4.9-7.8-14.5-5.4-21.4.5-1.6,2.8-.7,2.1.9-2.5,5.9-.6,15.4,3.6,20.2.2.2-.1.5-.3.3h0Z"/>
          <path class="cls-66" d="M223.02,189.3c-5.6-5.7-13.2-12.1-12.8-20.8.1-1.8,2.9-1.4,2.4.3-1.8,7.3,6.9,14.7,10.8,20.2.2.2-.2.5-.4.3h0Z"/>
          <path class="cls-67" d="M261.32,102.7c-1.9-2.7-4.2-5.1-6.9-7-2-1.5-4.8-3.5-7.4-3.7-1.1-.1-1.5-1.4-.6-2.1,2-1.5,6.5,2.7,8,3.9,3,2.4,5.3,5.3,7.4,8.6.2.3-.3.6-.5.3h0Z"/>
          <path class="cls-68" d="M255.02,107.1c-2.3-2.4-4.8-4.5-7.3-6.6s-6.3-6.1-9.7-6.4c-1.6-.2-1.3-2.5.3-2.2,3.2.5,6,3.3,8.4,5.4,3.3,2.8,6.2,6,9,9.2.4.4-.3,1.1-.7.6h0Z"/>
          <path class="cls-62" d="M232.82,102.9c-.5-.3-.9-.5-1.4-.8-2.8-1.7-5.8-3.3-9.1-3.8-1.6-.2-1-2.8.7-2.5,7.2,1.7,12.9,6.8,18.2,11.7.4.3-.2.9-.6.6-1.7-1.4-3.5-2.6-5.4-3.7-.4-.8-1.3-1.5-2.4-1.5h0Z"/>
          <g>
            <path class="cls-63" d="M222.72,108.4c-3.9-2-8.1-3.4-12.3-4.1-1.7-.3-1-3.2.7-2.7,4.8,1.4,9.2,3.3,13.2,5.7-.5.4-1.1.7-1.6,1.1h0Z"/>
            <path class="cls-64" d="M229.12,110.7c1.8,1.4,3.6,3.1,5.3,4.9.3.3-.2.8-.5.5-1.9-1.7-3.9-3.2-6-4.6.4-.3.8-.6,1.2-.8h0Z"/>
          </g>
          <g>
            <path class="cls-81" d="M212.92,115c-.2.1-.4.3-.6.4-3.8-1.9-7.7-3.2-12-3.7-2.1-.2-1.6-3.4.4-2.8,4.8,1.2,9.3,3,13.5,5.3-.5.3-.9.6-1.3.8h0Z"/>
            <path class="cls-79" d="M218.12,118.1c.4-.2.8-.5,1.2-.7,4.9,3.3,9.4,7.2,13.8,11.6.3.3-.1.9-.5.6-4.9-3.6-9.8-7.7-15-11.1.1-.2.3-.3.5-.4Z"/>
          </g>
          <g>
            <path class="cls-10" d="M202.22,122.9c-3.6-1.3-7.3-2.2-11.2-2.7-1.7-.2-1.4-2.6.3-2.4,4.4.7,8.7,1.9,12.7,3.6-.6.5-1.2,1-1.8,1.5h0Z"/>
            <path class="cls-75" d="M209.42,124.1c3.5,2,6.9,4.4,10,7.3.3.3-.1,1-.5.7-3.5-2.6-7.1-4.9-11-6.8.5-.4,1-.8,1.5-1.2h0Z"/>
          </g>
          <g>
            <path class="cls-80" d="M194.22,130.1c-2.9-1.1-5.9-1.8-9-1.8-2.1,0-1.7-3.5.4-2.9,3.4,1,6.8,2.1,10.1,3.3-.6.5-1.1,1-1.5,1.4h0Z"/>
            <path class="cls-77" d="M201.02,131.1c4.1,1.9,8.1,4.3,11.8,7.2.5.4-.1,1-.6.8-4.3-1.9-8.5-4.5-12.8-6.6.5-.5,1-1,1.6-1.4h0Z"/>
          </g>
          <g>
            <path class="cls-74" d="M186.42,138.9c-2.2-.5-4.5-.9-6.9-.9-1.3,0-1.3-2.1,0-2.1,2.8.1,5.6.5,8.3,1.2-.5.6-1,1.2-1.4,1.8h0Z"/>
            <path class="cls-78" d="M193.12,138.9c5.5,2.3,10.6,5.7,15.1,9.6.4.3-.1.9-.5.7-5.5-3-10.5-6.3-16-8.5.4-.6.9-1.2,1.4-1.8h0Z"/>
          </g>
          <g>
            <path class="cls-76" d="M176.92,149.5c1.3,0,2.6.1,3.8.2-.3.7-.5,1.4-.8,2.1-1-.1-2.1-.1-3.1-.1-1.4.2-1.4-2.2.1-2.2Z"/>
            <path class="cls-73" d="M186.02,150.8c5.2,1.4,10,4,14.2,7.7.5.5-.2,1.2-.8.8-4.2-3.3-9-5.6-14.1-6.7.2-.6.5-1.2.7-1.8h0Z"/>
          </g>
          <path class="cls-72" d="M193.62,171.9c-5.6-4.1-11.6-2.4-17.9-3.4-.8-.1-1.8-.2-2.4-.8-1.2-1.1,1.3-.7-.1.1-1,.6-2.2-.9-1.3-1.7,2-1.8,3.1.2,5.5.4,6.4.4,11.7.2,16.6,4.9.2.2-.1.7-.4.5h0Z"/>
          <g>
            <path class="cls-91" d="M183.62,143.4c-.1.2-.2.5-.4.7-1.5-.4-3-.9-4.5-1.2-1.2-.2-.7-2.2.5-1.8,1.6.5,3.2,1.1,4.7,1.8-.1.2-.2.3-.3.5h0Z"/>
            <path class="cls-90" d="M188.72,145.2c1.1.6,2.2,1.2,3.3,1.9.3.2,0,.7-.3.5-1.1-.6-2.2-1.1-3.4-1.6.1-.3.2-.6.4-.8h0Z"/>
          </g>
          <g>
            <path class="cls-87" d="M197.52,134.2c3.3,1.6,6.2,3.8,8.1,6.7.3.4-.3.9-.7.5-2.2-2.7-5.4-4.5-8.9-5.8.6-.4,1.1-.9,1.5-1.4h0Z"/>
            <path class="cls-86" d="M190.32,134.1c-2.1-.4-4.1-.7-6-.8-1.2-.1-1.3-1.9,0-2,2.4,0,5.1.3,7.7.9-.6.7-1.1,1.3-1.7,1.9h0Z"/>
          </g>
          <g>
            <path class="cls-88" d="M196.82,127.7h0c-3-.7-5.8-1.2-8.6-1.9-1.6-.3-.9-2.9.7-2.4,3.1,1.1,6.3,1.9,9.4,3-.5.4-1,.8-1.5,1.3h0Z"/>
            <path class="cls-85" d="M203.92,128.5c3.1,1.4,6,3.1,8.5,5.6.1.1,0,.2-.1.1-2.8-2.1-6.1-3.6-9.5-4.8.4-.2.7-.6,1.1-.9h0Z"/>
          </g>
          <g>
            <path class="cls-89" d="M207.42,118.8c-3.5-1.3-7.2-2.4-10.9-3.4-1.6-.4-.7-2.8.9-2.1,3.7,1.6,7.7,2.8,11.4,4.5-.4.3-.9.6-1.4,1h0Z"/>
            <path class="cls-82" d="M214.32,120.6c3.2,2.2,5.9,5,8.5,7.9.2.3-.1.6-.4.4-3-2.7-6-5.4-9.4-7.4.5-.4.9-.6,1.3-.9h0Z"/>
          </g>
          <g>
            <path class="cls-83" d="M224.22,114c2.1,1.4,4.1,2.9,6.1,4.6.3.3-.1.7-.4.5-2.3-1.4-4.6-2.8-6.9-4.3.3-.2.8-.5,1.2-.8h0Z"/>
            <path class="cls-84" d="M217.82,111.8c-4.2-2.4-8.6-4.3-13.3-5.2-1.5-.3-.8-2.8.6-2.2,4.9,2,9.6,4,14,6.5-.4.3-.9.6-1.3.9Z"/>
          </g>
          <path class="cls-101" d="M227.42,105.4c-3.3-2-6.7-4-10.2-4.9-1.9-.5-.5-3.5,1-2.4,2.6,1.8,5.6,3.1,8.3,4.7.9.5,1.7,1.1,2.4,1.7-.4.3-.9.6-1.5.9h0Z"/>
          <path class="cls-99" d="M250.72,111.2c-3.4-.3-6.1-4.4-8.5-6.7-4.2-4-8.6-7.5-14.3-9.1-1.5-.4-.8-2.8.6-2.3,5,1.4,9.2,4.3,13.1,7.7,2.3,2,4.4,4.2,6.5,6.3,1.5,1.5,2.4,2,2.6,4.1.1-.1.1,0,0,0h0Z"/>
          <path class="cls-96" d="M153.62,236c1.5-5.3-1-11.1-2.7-16.2-1.7-5.1-3.7-10.7-8-14.2-.9-.7.4-2.1,1.3-1.3,4.3,4.1,6.3,9.6,8.4,15,2.2,5.6,4.3,11.1,2.2,17-.3.8-1.5.5-1.2-.3h0Z"/>
          <g>
            <path class="cls-97" d="M141.22,220.6c-.6-1.8-1.3-3.6-1.9-5.4-2.4-6.6-5.7-11.9-11.2-16.3-.9-.7.3-2.4,1.3-1.6,4.8,3.7,8,9,10.2,14.6,1.2,3.1,2.5,6.4,3.4,9.9-.5-.4-1.1-.8-1.8-1.2h0Z"/>
            <path class="cls-98" d="M144.02,225.7c.5,2.9.8,5.8.6,8.6,0,.4-.7.4-.7,0,.1-2.5-.3-5-.8-7.5.3-.3.6-.7.9-1.1h0Z"/>
          </g>
          <g>
            <path class="cls-100" d="M123.62,215.1c-.2-.3-.3-.6-.5-.9-3.8-7.3-8.8-13.7-15.9-17.9-1.2-.7-.1-2.7,1.1-1.9,7.4,4.5,12.7,11.1,16.6,18.8.4.8.8,1.6,1.2,2.4-.8-.3-1.7-.4-2.5-.5h0Z"/>
            <path class="cls-93" d="M129.02,221.4c2.5,5.7,4.4,11.8,4,17.6-.1.8-1.2.8-1.2,0-.2-5.9-2.6-12.3-5.4-18.1.9.1,1.7.3,2.6.5Z"/>
          </g>
          <g>
            <path class="cls-94" d="M103.02,214.9c-4.7-7-10.5-13.2-18-16.8-1.4-.6-.2-2.8,1.2-2.1,8.2,4.4,13.4,11.3,17.9,18.9-.4-.1-.7,0-1.1,0h0Z"/>
            <path class="cls-95" d="M107.12,220c.6,1.1,1.2,2.1,1.8,3.2.2.4-.4.8-.6.4-.7-1.2-1.3-2.3-2-3.5.3,0,.5-.1.8-.1h0Z"/>
          </g>
          <path class="cls-92" d="M80.42,219.9c-6.7-3.8-13.8-6.5-21.2-8.7-1.2-.4-.7-2.3.5-2,7.9,2.1,15,5.7,21.7,10.3-.3.1-.6.3-1,.4h0Z"/>
          <g>
            <path class="cls-111" d="M71.22,231.2c5.4,3.2,10.5,6.9,15.4,10.6.7.5.1,1.7-.7,1.2-5.6-3.5-11-7.1-16.7-10.1.6-.7,1.3-1.2,2-1.7Z"/>
            <path class="cls-110" d="M43.02,222c8.2.2,15.9,2.8,23.2,6.4-.7.6-1.3,1.2-2,1.9-6.6-3.1-13.5-5.4-21.2-6.1-1.4-.1-1.5-2.2,0-2.2h0Z"/>
          </g>
          <g>
            <path class="cls-109" d="M33.32,234.7c7.6.1,16.2,1.7,23.6,5-.4.6-.8,1.2-1.2,1.8-7.3-2.8-15.8-4.6-22.4-4.1-1.7.1-1.7-2.7,0-2.7h0Z"/>
            <path class="cls-108" d="M61.52,242.1c1.5.9,3,1.9,4.4,3,.6.5-.2,1.5-.8,1.1-1.4-.9-2.9-1.8-4.6-2.6.3-.5.7-1,1-1.5h0Z"/>
          </g>
          <path class="cls-107" d="M29.82,245.2c7.3-.1,14.4.7,20.9,3.5-.2.2-.3.4-.5.6-.3.4-.5.7-.5,1.1-2.3-.8-4.6-1.5-7-1.9-4.3-.8-9,.1-13.1-1.4-1.1-.3-1-1.9.2-1.9Z"/>
          <path class="cls-105" d="M112.22,214.6c-1-1.8-2.1-3.5-3.3-5-3.6-4.6-7.3-9.1-11-13.6-1.2-1.4,1-3.2,2.1-1.6,3.1,4.6,6.5,9,9.6,13.5,1.4,2.1,2.6,4.4,3.8,6.7-.5,0-.9,0-1.2,0h0Z"/>
          <g>
            <path class="cls-106" d="M92.22,216.4c-5.2-5.8-11.4-10.8-18.3-14.5-1.4-.8-.1-3.1,1.3-2.2,7.4,4.4,13.9,9.9,19.3,16.3-.8,0-1.5.2-2.3.4Z"/>
            <path class="cls-102" d="M98.12,220.7c2.4,3.5,4.5,7.3,6.3,11.4.2.6-.6,1.1-.9.5-2.2-4.1-4.6-8-7.4-11.6.7-.1,1.3-.2,2-.3h0Z"/>
          </g>
          <g>
            <path class="cls-103" d="M72.02,224.1c-6.8-3.3-13.9-5.9-21.3-7.8-1.6-.4-.9-2.8.7-2.5,7.9,1.5,15.4,5,22.4,9.3-.6.3-1.2.6-1.8,1h0Z"/>
            <path class="cls-104" d="M79.02,226.4c1.7,1.1,3.4,2.3,5.1,3.5.6.4,0,1.4-.5.9-2-1.3-4-2.5-6-3.7.5-.3,1-.5,1.4-.7h0Z"/>
          </g>
          <g>
            <path class="cls-123" d="M131.62,216.5c-.9-1.5-1.9-3-2.8-4.5-3.5-5.7-7.7-11-12.4-15.7-1-.9-.2-2.3.7-2.6.5.8,1.3,1.2,2.2,1.3,5.6,6.2,10.9,14.1,14.7,22.2-.8-.2-1.6-.5-2.4-.7h0Z"/>
            <path class="cls-128" d="M136.72,224.2c.6,1.8,1.1,3.6,1.5,5.4.1.4-.6.6-.7.2-.5-2.1-1.2-4.2-2.2-6.3.5.2,1,.4,1.4.7h0Z"/>
          </g>
          <path class="cls-127" d="M167.92,140.4c-6.1-4-13.2-8.3-20.6-9.3-1.7-.2-1.1-2.7.3-2.2,7.6,2.8,14.6,5.4,20.5,11.2.2.2,0,.4-.2.3h0Z"/>
          <path class="cls-125" d="M166.32,132.2c-3.3-2.3-7.7-4-11.7-4.7-1.3-.2-.8-2.5.6-2.1,4.4,1.4,7.9,3.4,11.5,6.3.3.2-.1.7-.4.5h0Z"/>
          <path class="cls-124" d="M158.02,150.2c-6-4.6-14.6-9.3-22.1-9.9-2.2-.2-1.5-3.6.4-2.9,4.1,1.5,8.2,2.5,12.1,4.4,3.9,2,7.1,4.6,10.3,7.5.4.4-.2,1.3-.7.9h0Z"/>
          <g>
            <path class="cls-122" d="M133.92,150.7c-2.5-.9-5.2-1.6-7.8-1.9-2.3-.2-1.3-3.7.7-2.7,2.6,1.3,5.2,2.4,7.8,3.5-.2.3-.5.7-.7,1.1h0Z"/>
            <path class="cls-120" d="M139.52,151.6c6.3,2.6,12.4,5.5,17.8,10.5.6.5-.2,1.5-.8,1.1-5.5-3.3-11.4-7.4-17.6-10.4.2-.4.4-.8.6-1.2h0Z"/>
          </g>
          <g>
            <path class="cls-121" d="M114.12,159.4c4.7.6,9.2,1.5,13.5,2.8-.3.6-.6,1.2-.9,1.8-4-1.3-8.2-1.9-12.6-1.5-1.9.2-1.9-3.3,0-3.1Z"/>
            <path class="cls-126" d="M132.72,163.9c6.9,2.7,13.3,6.6,19.1,12,.6.6-.2,1.6-.9,1.1-6.2-3.8-12.5-8.2-19.2-11.2.3-.6.6-1.2,1-1.9h0Z"/>
          </g>
          <g>
            <path class="cls-131" d="M127.32,175.8c4.2,1.7,8.2,3.8,12.1,6.2.8.5.1,1.8-.7,1.3-3.6-2.1-7.8-4.1-12.1-5.8.3-.5.5-1.1.7-1.7h0Z"/>
            <path class="cls-119" d="M106.72,171c5.3,1.1,10.5,1.6,15.6,3.1-.2.6-.5,1.2-.7,1.8-5.1-1.5-10.4-2.4-15.3-2.1-1.9,0-1.6-3.2.4-2.8h0Z"/>
          </g>
          <path class="cls-118" d="M98.42,183.4c2.5-1.7,5.1-1.8,8-1.4,4.2.6,8.3,1.4,12.4,2.1-.1.4-.2.8-.3,1.1-2.8-.2-5.7-.3-8.5-.4-3.3-.2-7.1-.6-9.9,1.6-1.7,1.2-3.5-1.8-1.7-3h0Z"/>
          <path class="cls-116" d="M109.02,165.7c5.3-.1,10.5,1.3,15.7,2.7-.2.4-.4.9-.6,1.3-5-1.2-9.9-2.1-15.1-1.8-1.4.1-1.4-2.1,0-2.2h0Z"/>
          <g>
            <path class="cls-114" d="M130.42,156.8c-3.4-1.4-6.8-2.5-10.3-3.2-1.6-.3-.8-3.1.7-2.4,3.5,1.4,7,2.7,10.5,4.2-.3.4-.6.9-.9,1.4h0Z"/>
            <path class="cls-112" d="M136.12,157.5c2.1,1,4.2,2.1,6.2,3.4.7.4.1,1.4-.6,1.1-2.1-1-4.2-2.1-6.4-3,.3-.5.5-1,.8-1.5h0Z"/>
          </g>
          <path class="cls-113" d="M137.72,144.6c-2.5-.9-5.1-1.6-7.6-2-1.4-.3-.8-2.6.6-2.2,2.8.8,5.2,1.9,7.6,3.2-.2.3-.4.6-.6,1h0Z"/>
          <path class="cls-117" d="M152.32,139.2c-3-1.5-6.8-2.5-9.4-4.8-.8-.7,0-2.2,1.1-1.9,3.2,1.2,5.9,4.1,8.6,6.1.4.2.1.8-.3.6h0Z"/>
          <path class="cls-130" d="M33.12,238.5c-9.4-1.8-19-4.2-28.6-5.2.5-.6.8-.9,1-1.5.6-.5,1.1-1.1,1.5-1.8,9.1,1.1,18.3,3.3,27,5,2.3.4,1.3,3.9-.9,3.5h0Z"/>
          <path class="cls-129" d="M12.62,241.7c1.2-1.6,2.5-3.1,3.8-4.6,1.2-1.3,2.8-3.1,4.5-3.5,1-.3,1.6.9,1,1.7-1.1,1.3-2.9,2-4.3,2.9-1.7,1.1-3,2.4-4.3,4-.3.3-1-.2-.7-.5h0Z"/>
          <path class="cls-115" d="M8.32,232.6c-3.2,3.2-5.9,7.1-7.2,11.5-.2.7-1.3.4-1.1-.3.8-3.6,2-6.8,3.8-9.8.2-.2.4-.3.6-.5.7-.7.9-1.1,1.2-1.7.6-.5,1.1-1.1,1.5-1.7,1.1-.2,2.3,1.4,1.2,2.5h0Z"/>
        </g>
      </g>
    </g>
  </g>
</svg>