<?xml version="1.0" encoding="UTF-8"?>
<svg id="Layer_2" data-name="Layer 2" xmlns="http://www.w3.org/2000/svg" viewBox="0 0 390.85 22.87">
  <defs>
    <style>
      .cls-1 {
        fill: #bfb47b;
      }
    </style>
  </defs>
  <g id="Layer_1-2" data-name="Layer 1">
    <g>
      <path class="cls-1" d="M390.1,7.99h-170.57c-.33,0-.6-.27-.6-.6s.27-.6.6-.6h170.57c.33,0,.6.27.6.6s-.27.6-.6.6Z"/>
      <path class="cls-1" d="M390.1,3.88h-.5c-.28,0-.5-.22-.5-.5s.22-.5.5-.5h.5c.28,0,.5.22.5.5s-.22.5-.5.5ZM386.6,3.88h-.5c-.28,0-.5-.22-.5-.5s.22-.5.5-.5h.5c.28,0,.5.22.5.5s-.22.5-.5.5ZM383.1,3.88h-.5c-.28,0-.5-.22-.5-.5s.22-.5.5-.5h.5c.28,0,.5.22.5.5s-.22.5-.5.5ZM379.6,3.88h-.5c-.28,0-.5-.22-.5-.5s.22-.5.5-.5h.5c.28,0,.5.22.5.5s-.22.5-.5.5ZM376.1,3.88h-.5c-.28,0-.5-.22-.5-.5s.22-.5.5-.5h.5c.28,0,.5.22.5.5s-.22.5-.5.5ZM372.6,3.88h-.5c-.28,0-.5-.22-.5-.5s.22-.5.5-.5h.5c.28,0,.5.22.5.5s-.22.5-.5.5ZM369.1,3.88h-.5c-.28,0-.5-.22-.5-.5s.22-.5.5-.5h.5c.28,0,.5.22.5.5s-.22.5-.5.5ZM365.6,3.88h-.5c-.28,0-.5-.22-.5-.5s.22-.5.5-.5h.5c.28,0,.5.22.5.5s-.22.5-.5.5ZM362.1,3.88h-.5c-.28,0-.5-.22-.5-.5s.22-.5.5-.5h.5c.28,0,.5.22.5.5s-.22.5-.5.5ZM358.6,3.88h-.5c-.28,0-.5-.22-.5-.5s.22-.5.5-.5h.5c.28,0,.5.22.5.5s-.22.5-.5.5ZM355.1,3.88h-.5c-.28,0-.5-.22-.5-.5s.22-.5.5-.5h.5c.28,0,.5.22.5.5s-.22.5-.5.5ZM351.6,3.88h-.5c-.28,0-.5-.22-.5-.5s.22-.5.5-.5h.5c.28,0,.5.22.5.5s-.22.5-.5.5ZM348.1,3.88h-.5c-.28,0-.5-.22-.5-.5s.22-.5.5-.5h.5c.28,0,.5.22.5.5s-.22.5-.5.5ZM344.6,3.88h-.5c-.28,0-.5-.22-.5-.5s.22-.5.5-.5h.5c.28,0,.5.22.5.5s-.22.5-.5.5ZM341.1,3.88h-.5c-.28,0-.5-.22-.5-.5s.22-.5.5-.5h.5c.28,0,.5.22.5.5s-.22.5-.5.5ZM337.6,3.88h-.5c-.28,0-.5-.22-.5-.5s.22-.5.5-.5h.5c.28,0,.5.22.5.5s-.22.5-.5.5ZM334.1,3.88h-.5c-.28,0-.5-.22-.5-.5s.22-.5.5-.5h.5c.28,0,.5.22.5.5s-.22.5-.5.5ZM330.6,3.88h-.5c-.28,0-.5-.22-.5-.5s.22-.5.5-.5h.5c.28,0,.5.22.5.5s-.22.5-.5.5ZM327.1,3.88h-.5c-.28,0-.5-.22-.5-.5s.22-.5.5-.5h.5c.28,0,.5.22.5.5s-.22.5-.5.5ZM323.6,3.88h-.5c-.28,0-.5-.22-.5-.5s.22-.5.5-.5h.5c.28,0,.5.22.5.5s-.22.5-.5.5ZM320.1,3.88h-.5c-.28,0-.5-.22-.5-.5s.22-.5.5-.5h.5c.28,0,.5.22.5.5s-.22.5-.5.5ZM316.6,3.88h-.5c-.28,0-.5-.22-.5-.5s.22-.5.5-.5h.5c.28,0,.5.22.5.5s-.22.5-.5.5ZM313.1,3.88h-.5c-.28,0-.5-.22-.5-.5s.22-.5.5-.5h.5c.28,0,.5.22.5.5s-.22.5-.5.5ZM309.6,3.88h-.5c-.28,0-.5-.22-.5-.5s.22-.5.5-.5h.5c.28,0,.5.22.5.5s-.22.5-.5.5ZM306.1,3.88h-.5c-.28,0-.5-.22-.5-.5s.22-.5.5-.5h.5c.28,0,.5.22.5.5s-.22.5-.5.5ZM302.6,3.88h-.5c-.28,0-.5-.22-.5-.5s.22-.5.5-.5h.5c.28,0,.5.22.5.5s-.22.5-.5.5ZM299.1,3.88h-.5c-.28,0-.5-.22-.5-.5s.22-.5.5-.5h.5c.28,0,.5.22.5.5s-.22.5-.5.5ZM295.6,3.88h-.5c-.28,0-.5-.22-.5-.5s.22-.5.5-.5h.5c.28,0,.5.22.5.5s-.22.5-.5.5ZM292.1,3.88h-.5c-.28,0-.5-.22-.5-.5s.22-.5.5-.5h.5c.28,0,.5.22.5.5s-.22.5-.5.5ZM288.6,3.88h-.5c-.28,0-.5-.22-.5-.5s.22-.5.5-.5h.5c.28,0,.5.22.5.5s-.22.5-.5.5ZM285.1,3.88h-.5c-.28,0-.5-.22-.5-.5s.22-.5.5-.5h.5c.28,0,.5.22.5.5s-.22.5-.5.5ZM281.6,3.88h-.5c-.28,0-.5-.22-.5-.5s.22-.5.5-.5h.5c.28,0,.5.22.5.5s-.22.5-.5.5ZM278.1,3.88h-.5c-.28,0-.5-.22-.5-.5s.22-.5.5-.5h.5c.28,0,.5.22.5.5s-.22.5-.5.5ZM274.6,3.88h-.5c-.28,0-.5-.22-.5-.5s.22-.5.5-.5h.5c.28,0,.5.22.5.5s-.22.5-.5.5ZM271.1,3.88h-.5c-.28,0-.5-.22-.5-.5s.22-.5.5-.5h.5c.28,0,.5.22.5.5s-.22.5-.5.5ZM267.6,3.88h-.5c-.28,0-.5-.22-.5-.5s.22-.5.5-.5h.5c.28,0,.5.22.5.5s-.22.5-.5.5ZM264.1,3.88h-.5c-.28,0-.5-.22-.5-.5s.22-.5.5-.5h.5c.28,0,.5.22.5.5s-.22.5-.5.5ZM260.6,3.88h-.5c-.28,0-.5-.22-.5-.5s.22-.5.5-.5h.5c.28,0,.5.22.5.5s-.22.5-.5.5ZM257.1,3.88h-.5c-.28,0-.5-.22-.5-.5s.22-.5.5-.5h.5c.28,0,.5.22.5.5s-.22.5-.5.5ZM253.6,3.88h-.5c-.28,0-.5-.22-.5-.5s.22-.5.5-.5h.5c.28,0,.5.22.5.5s-.22.5-.5.5ZM250.1,3.88h-.5c-.28,0-.5-.22-.5-.5s.22-.5.5-.5h.5c.28,0,.5.22.5.5s-.22.5-.5.5ZM246.6,3.88h-.5c-.28,0-.5-.22-.5-.5s.22-.5.5-.5h.5c.28,0,.5.22.5.5s-.22.5-.5.5ZM243.1,3.88h-.5c-.28,0-.5-.22-.5-.5s.22-.5.5-.5h.5c.28,0,.5.22.5.5s-.22.5-.5.5ZM239.6,3.88h-.5c-.28,0-.5-.22-.5-.5s.22-.5.5-.5h.5c.28,0,.5.22.5.5s-.22.5-.5.5ZM236.1,3.88h-.5c-.28,0-.5-.22-.5-.5s.22-.5.5-.5h.5c.28,0,.5.22.5.5s-.22.5-.5.5ZM232.6,3.88h-.5c-.28,0-.5-.22-.5-.5s.22-.5.5-.5h.5c.28,0,.5.22.5.5s-.22.5-.5.5ZM229.1,3.88h-.5c-.28,0-.5-.22-.5-.5s.22-.5.5-.5h.5c.28,0,.5.22.5.5s-.22.5-.5.5ZM225.6,3.88h-.5c-.28,0-.5-.22-.5-.5s.22-.5.5-.5h.5c.28,0,.5.22.5.5s-.22.5-.5.5Z"/>
      <path class="cls-1" d="M390.6,11.64h-180.29c-.14,0-.25-.11-.25-.25s.11-.25.25-.25h180.29c.14,0,.25.11.25.25s-.11.25-.25.25Z"/>
      <path class="cls-1" d="M172.08,8.24H.6c-.33,0-.6-.27-.6-.6s.27-.6.6-.6h171.48c.33,0,.6.27.6.6s-.27.6-.6.6Z"/>
      <path class="cls-1" d="M165.6,4.14h-.5c-.28,0-.5-.22-.5-.5s.22-.5.5-.5h.5c.28,0,.5.22.5.5s-.22.5-.5.5ZM162.1,4.14h-.5c-.28,0-.5-.22-.5-.5s.22-.5.5-.5h.5c.28,0,.5.22.5.5s-.22.5-.5.5ZM158.6,4.14h-.5c-.28,0-.5-.22-.5-.5s.22-.5.5-.5h.5c.28,0,.5.22.5.5s-.22.5-.5.5ZM155.1,4.14h-.5c-.28,0-.5-.22-.5-.5s.22-.5.5-.5h.5c.28,0,.5.22.5.5s-.22.5-.5.5ZM151.6,4.14h-.5c-.28,0-.5-.22-.5-.5s.22-.5.5-.5h.5c.28,0,.5.22.5.5s-.22.5-.5.5ZM148.1,4.14h-.5c-.28,0-.5-.22-.5-.5s.22-.5.5-.5h.5c.28,0,.5.22.5.5s-.22.5-.5.5ZM144.6,4.14h-.5c-.28,0-.5-.22-.5-.5s.22-.5.5-.5h.5c.28,0,.5.22.5.5s-.22.5-.5.5ZM141.1,4.14h-.5c-.28,0-.5-.22-.5-.5s.22-.5.5-.5h.5c.28,0,.5.22.5.5s-.22.5-.5.5ZM137.6,4.14h-.5c-.28,0-.5-.22-.5-.5s.22-.5.5-.5h.5c.28,0,.5.22.5.5s-.22.5-.5.5ZM134.1,4.14h-.5c-.28,0-.5-.22-.5-.5s.22-.5.5-.5h.5c.28,0,.5.22.5.5s-.22.5-.5.5ZM130.6,4.14h-.5c-.28,0-.5-.22-.5-.5s.22-.5.5-.5h.5c.28,0,.5.22.5.5s-.22.5-.5.5ZM127.1,4.14h-.5c-.28,0-.5-.22-.5-.5s.22-.5.5-.5h.5c.28,0,.5.22.5.5s-.22.5-.5.5ZM123.6,4.14h-.5c-.28,0-.5-.22-.5-.5s.22-.5.5-.5h.5c.28,0,.5.22.5.5s-.22.5-.5.5ZM120.1,4.14h-.5c-.28,0-.5-.22-.5-.5s.22-.5.5-.5h.5c.28,0,.5.22.5.5s-.22.5-.5.5ZM116.6,4.14h-.5c-.28,0-.5-.22-.5-.5s.22-.5.5-.5h.5c.28,0,.5.22.5.5s-.22.5-.5.5ZM113.1,4.14h-.5c-.28,0-.5-.22-.5-.5s.22-.5.5-.5h.5c.28,0,.5.22.5.5s-.22.5-.5.5ZM109.6,4.14h-.5c-.28,0-.5-.22-.5-.5s.22-.5.5-.5h.5c.28,0,.5.22.5.5s-.22.5-.5.5ZM106.1,4.14h-.5c-.28,0-.5-.22-.5-.5s.22-.5.5-.5h.5c.28,0,.5.22.5.5s-.22.5-.5.5ZM102.6,4.14h-.5c-.28,0-.5-.22-.5-.5s.22-.5.5-.5h.5c.28,0,.5.22.5.5s-.22.5-.5.5ZM99.1,4.14h-.5c-.28,0-.5-.22-.5-.5s.22-.5.5-.5h.5c.28,0,.5.22.5.5s-.22.5-.5.5ZM95.6,4.14h-.5c-.28,0-.5-.22-.5-.5s.22-.5.5-.5h.5c.28,0,.5.22.5.5s-.22.5-.5.5ZM92.1,4.14h-.5c-.28,0-.5-.22-.5-.5s.22-.5.5-.5h.5c.28,0,.5.22.5.5s-.22.5-.5.5ZM88.6,4.14h-.5c-.28,0-.5-.22-.5-.5s.22-.5.5-.5h.5c.28,0,.5.22.5.5s-.22.5-.5.5ZM85.1,4.14h-.5c-.28,0-.5-.22-.5-.5s.22-.5.5-.5h.5c.28,0,.5.22.5.5s-.22.5-.5.5ZM81.6,4.14h-.5c-.28,0-.5-.22-.5-.5s.22-.5.5-.5h.5c.28,0,.5.22.5.5s-.22.5-.5.5ZM78.1,4.14h-.5c-.28,0-.5-.22-.5-.5s.22-.5.5-.5h.5c.28,0,.5.22.5.5s-.22.5-.5.5ZM74.6,4.14h-.5c-.28,0-.5-.22-.5-.5s.22-.5.5-.5h.5c.28,0,.5.22.5.5s-.22.5-.5.5ZM71.1,4.14h-.5c-.28,0-.5-.22-.5-.5s.22-.5.5-.5h.5c.28,0,.5.22.5.5s-.22.5-.5.5ZM67.6,4.14h-.5c-.28,0-.5-.22-.5-.5s.22-.5.5-.5h.5c.28,0,.5.22.5.5s-.22.5-.5.5ZM64.1,4.14h-.5c-.28,0-.5-.22-.5-.5s.22-.5.5-.5h.5c.28,0,.5.22.5.5s-.22.5-.5.5ZM60.6,4.14h-.5c-.28,0-.5-.22-.5-.5s.22-.5.5-.5h.5c.28,0,.5.22.5.5s-.22.5-.5.5ZM57.1,4.14h-.5c-.28,0-.5-.22-.5-.5s.22-.5.5-.5h.5c.28,0,.5.22.5.5s-.22.5-.5.5ZM53.6,4.14h-.5c-.28,0-.5-.22-.5-.5s.22-.5.5-.5h.5c.28,0,.5.22.5.5s-.22.5-.5.5ZM50.1,4.14h-.5c-.28,0-.5-.22-.5-.5s.22-.5.5-.5h.5c.28,0,.5.22.5.5s-.22.5-.5.5ZM46.6,4.14h-.5c-.28,0-.5-.22-.5-.5s.22-.5.5-.5h.5c.28,0,.5.22.5.5s-.22.5-.5.5ZM43.1,4.14h-.5c-.28,0-.5-.22-.5-.5s.22-.5.5-.5h.5c.28,0,.5.22.5.5s-.22.5-.5.5ZM39.6,4.14h-.5c-.28,0-.5-.22-.5-.5s.22-.5.5-.5h.5c.28,0,.5.22.5.5s-.22.5-.5.5ZM36.1,4.14h-.5c-.28,0-.5-.22-.5-.5s.22-.5.5-.5h.5c.28,0,.5.22.5.5s-.22.5-.5.5ZM32.6,4.14h-.5c-.28,0-.5-.22-.5-.5s.22-.5.5-.5h.5c.28,0,.5.22.5.5s-.22.5-.5.5ZM29.1,4.14h-.5c-.28,0-.5-.22-.5-.5s.22-.5.5-.5h.5c.28,0,.5.22.5.5s-.22.5-.5.5ZM25.6,4.14h-.5c-.28,0-.5-.22-.5-.5s.22-.5.5-.5h.5c.28,0,.5.22.5.5s-.22.5-.5.5ZM22.1,4.14h-.5c-.28,0-.5-.22-.5-.5s.22-.5.5-.5h.5c.28,0,.5.22.5.5s-.22.5-.5.5ZM18.6,4.14h-.5c-.28,0-.5-.22-.5-.5s.22-.5.5-.5h.5c.28,0,.5.22.5.5s-.22.5-.5.5ZM15.1,4.14h-.5c-.28,0-.5-.22-.5-.5s.22-.5.5-.5h.5c.28,0,.5.22.5.5s-.22.5-.5.5ZM11.6,4.14h-.5c-.28,0-.5-.22-.5-.5s.22-.5.5-.5h.5c.28,0,.5.22.5.5s-.22.5-.5.5ZM8.1,4.14h-.5c-.28,0-.5-.22-.5-.5s.22-.5.5-.5h.5c.28,0,.5.22.5.5s-.22.5-.5.5ZM4.6,4.14h-.5c-.28,0-.5-.22-.5-.5s.22-.5.5-.5h.5c.28,0,.5.22.5.5s-.22.5-.5.5ZM1.1,4.14h-.5c-.28,0-.5-.22-.5-.5s.22-.5.5-.5h.5c.28,0,.5.22.5.5s-.22.5-.5.5Z"/>
      <path class="cls-1" d="M180.85,11.9H.6c-.14,0-.25-.11-.25-.25s.11-.25.25-.25h180.25c.14,0,.25.11.25.25s-.11.25-.25.25Z"/>
      <path class="cls-1" d="M185.46,1.8c-.08.51-.12,1.03-.12,1.57,0,5.54,4.49,10.04,10.04,10.04s10.04-4.49,10.04-10.04c0-.53-.04-1.06-.12-1.57.79,1.53,1.24,3.27,1.24,5.11,0,6.16-4.99,11.15-11.15,11.15s-11.15-4.99-11.15-11.15c0-1.84.45-3.58,1.24-5.11Z"/>
      <circle class="cls-1" cx="195.55" cy="3.55" r="2.11"/>
      <path class="cls-1" d="M195.55,22.87c-8.59,0-15.59-6.99-15.59-15.59,0-2.51.58-4.92,1.73-7.14.06-.12.22-.17.34-.11.12.06.17.21.11.34-1.11,2.16-1.68,4.48-1.68,6.91,0,8.32,6.77,15.09,15.09,15.09s15.09-6.77,15.09-15.09c0-2.43-.57-4.76-1.68-6.91-.06-.12-.02-.27.11-.34.12-.06.27-.02.34.11,1.15,2.23,1.74,4.63,1.74,7.14,0,8.59-6.99,15.59-15.59,15.59Z"/>
    </g>
  </g>
</svg>