<?xml version="1.0" encoding="UTF-8"?>
<svg id="Layer_2" data-name="Layer 2" xmlns="http://www.w3.org/2000/svg" viewBox="0 0 198.31 27.35">
  <defs>
    <style>
      .cls-1 {
        fill: #bfb47b;
      }
    </style>
  </defs>
  <g id="Layer_1-2" data-name="Layer 1">
    <path class="cls-1" d="M110.5,0l.51,2.28c.2.87.3,1.77.3,2.67,0,6.7-5.45,12.15-12.15,12.15s-12.15-5.45-12.15-12.15c0-.9.1-1.79.3-2.67l.51-2.28-1.4,1.87c-2.05,2.74-3.19,6.13-3.19,9.56,0,8.78,7.15,15.93,15.93,15.93s15.93-7.15,15.93-15.93c0-3.42-1.13-6.82-3.19-9.56l-1.4-1.87ZM114.08,11.42c0,8.23-6.7,14.93-14.93,14.93s-14.93-6.7-14.93-14.93c0-2.47.63-4.92,1.79-7.09,0,.2-.01.4-.01.61,0,7.25,5.9,13.15,13.15,13.15s13.15-5.9,13.15-13.15c0-.2,0-.4-.01-.61,1.17,2.17,1.79,4.62,1.79,7.09ZM65.98,4.85v-.05H28.14v1h36.88l-5.77,5.77H18.58v1h40.67l5.77,5.77H28.14v1h37.84v-.05l7.23-7.23-7.23-7.23ZM60.16,12.08l5.81-5.81,5.81,5.81-5.81,5.81-5.81-5.81ZM70.6,20.43l3.73,3.74,3.73-3.74-3.73-3.73-3.73,3.73ZM74.33,22.75l-2.32-2.32,2.32-2.32,2.32,2.32-2.32,2.32ZM13.02,9.72c-1.3,0-2.36,1.06-2.36,2.36s1.06,2.36,2.36,2.36,2.36-1.06,2.36-2.36-1.06-2.36-2.36-2.36ZM13.02,13.44c-.75,0-1.36-.61-1.36-1.36s.61-1.36,1.36-1.36,1.36.61,1.36,1.36-.61,1.36-1.36,1.36ZM3.97,8.11c-2.19,0-3.97,1.78-3.97,3.97s1.78,3.98,3.97,3.98,3.97-1.78,3.97-3.98-1.78-3.97-3.97-3.97ZM3.97,15.06c-1.64,0-2.97-1.33-2.97-2.98s1.33-2.97,2.97-2.97,2.97,1.33,2.97,2.97-1.33,2.98-2.97,2.98ZM133.28,5.81h36.88v-1h-37.84v.05l-7.23,7.23,7.23,7.23v.05h37.84v-1h-36.88l5.77-5.77h40.67v-1h-40.67l-5.77-5.77ZM132.33,17.89l-5.81-5.81,5.81-5.81,5.81,5.81-5.81,5.81ZM120.24,20.43l3.73,3.74,3.74-3.74-3.74-3.73-3.73,3.73ZM123.98,22.75l-2.32-2.32,2.32-2.32,2.32,2.32-2.32,2.32ZM185.29,9.72c-1.3,0-2.36,1.06-2.36,2.36s1.06,2.36,2.36,2.36,2.36-1.06,2.36-2.36-1.06-2.36-2.36-2.36ZM185.29,13.44c-.75,0-1.36-.61-1.36-1.36s.61-1.36,1.36-1.36,1.36.61,1.36,1.36-.61,1.36-1.36,1.36ZM194.33,8.11c-2.19,0-3.97,1.78-3.97,3.97s1.78,3.98,3.97,3.98,3.98-1.78,3.98-3.98-1.78-3.97-3.98-3.97ZM194.33,15.06c-1.64,0-2.97-1.33-2.97-2.98s1.33-2.97,2.97-2.97,2.98,1.33,2.98,2.97-1.33,2.98-2.98,2.98Z"/>
  </g>
</svg>