<?xml version="1.0" encoding="UTF-8"?>
<svg id="Layer_2" data-name="Layer 2" xmlns="http://www.w3.org/2000/svg" viewBox="0 0 391.46 57.24">
  <defs>
    <style>
      .cls-1 {
        fill: #bfb47b;
      }
    </style>
  </defs>
  <g id="Layer_1-2" data-name="Layer 1">
    <g>
      <path class="cls-1" d="M356.21,26.85h0l-134-.04c-.33,0-.6-.27-.6-.6,0-13.55-11.52-25.01-25.15-25.01s-25.15,11.45-25.15,25.01c0,.33-.27.6-.6.6H34.71c-.33,0-.6-.27-.6-.6s.27-.6.6-.6h135.42c.33-13.94,12.26-25.61,26.34-25.61s26.01,11.66,26.34,25.61l133.41.04c.33,0,.6.27.6.6,0,.33-.27.6-.6.6Z"/>
      <path class="cls-1" d="M175.48,21.76H34.71c-.14,0-.25-.11-.25-.25s.11-.25.25-.25h140.77c.14,0,.25.11.25.25s-.11.25-.25.25Z"/>
      <path class="cls-1" d="M356.21,21.76h-139c-.14,0-.25-.11-.25-.25s.11-.25.25-.25h139c.14,0,.25.11.25.25s-.11.25-.25.25Z"/>
      <path class="cls-1" d="M196.31,57.24h0c-.13,0-.24-.11-.25-.24l-.54-13.08c-.07-.75-.53-1.38-1.24-1.68-.71-.29-1.48-.18-2.07.31l-3.7,3.53c-.1.09-.24.09-.34,0-.1-.09-.11-.24-.03-.34l3.62-4.5c.38-.58.43-1.32.12-1.97-.31-.65-.92-1.07-1.63-1.14l-7.64-.63c-.13-.01-.23-.12-.23-.25,0-.13.1-.24.23-.25l7.55-.58c.72-.07,1.34-.5,1.65-1.15.31-.66.25-1.4-.15-2.01l-4.19-4.73c-.09-.1-.08-.25,0-.34.09-.09.24-.1.34-.01l4.43,3.83c.58.49,1.36.61,2.07.32.71-.29,1.18-.92,1.25-1.68l.58-13.07c0-.13.12-.24.25-.24h0c.13,0,.24.11.25.24l.54,13.08c.07.75.53,1.38,1.24,1.68.71.29,1.48.18,2.07-.31l4.07-3.85c.1-.09.25-.09.34,0,.1.09.11.24.02.34l-3.89,4.79c-.4.58-.46,1.33-.15,1.99.31.66.92,1.09,1.64,1.16l7.55.58c.13,0,.23.12.23.25s-.1.24-.23.25l-7.61.63c-.71.06-1.33.49-1.64,1.14-.31.64-.27,1.38.12,1.98l3.98,4.45c.09.1.08.25,0,.34-.09.09-.24.1-.34.02l-4.12-3.52c-.59-.49-1.36-.61-2.07-.32-.71.29-1.18.92-1.25,1.68l-.58,13.07c0,.13-.12.24-.25.24ZM193.49,41.57c.33,0,.66.07.98.2.88.37,1.46,1.16,1.54,2.11l.3,7.28.32-7.26c.09-.96.68-1.75,1.56-2.11.88-.36,1.85-.21,2.58.4l1.3,1.11-1.52-1.7s-.02-.02-.02-.03c-.49-.75-.55-1.68-.16-2.48.39-.81,1.16-1.34,2.05-1.42l4.51-.37-4.44-.34c-.9-.09-1.67-.63-2.05-1.45-.38-.82-.31-1.75.2-2.5l1.51-1.86-1.33,1.26c-.75.62-1.72.76-2.6.39-.88-.37-1.46-1.16-1.54-2.11l-.3-7.28-.32,7.26c-.09.96-.68,1.75-1.56,2.11-.88.36-1.85.21-2.58-.4l-1.59-1.38,1.72,1.94c.53.77.6,1.71.21,2.53-.39.82-1.16,1.35-2.06,1.44l-4.44.34,4.53.38c.89.09,1.65.62,2.04,1.42.39.8.32,1.73-.16,2.48l-1.25,1.56.97-.92c.48-.39,1.04-.59,1.61-.59Z"/>
      <path class="cls-1" d="M194.89,36.18l-.74-1.2,1.11.96c.33.22.78,0,.82-.39l.28-3.26.26,3.27c.03.4.48.62.81.4l1.08-.98-.7,1.2c-.27.32-.07.81.35.86l2.27.24-2.27.24c-.42.04-.62.53-.35.86l.75,1.12-1.13-.91c-.33-.21-.77,0-.81.4l-.28,3.28-.26-3.27c-.03-.4-.47-.61-.81-.4l-1.14,1.03.76-1.24c.27-.32.07-.81-.35-.86l-2.27-.24,2.27-.24c.42-.04.62-.53.35-.86Z"/>
      <path class="cls-1" d="M222.59,37.28c0-2.6,2.1-4.7,4.7-4.7s4.7,2.1,4.7,4.7-2.1,4.7-4.7,4.7-4.7-2.1-4.7-4.7Z"/>
      <circle class="cls-1" cx="240.22" cy="37.28" r="2.47"/>
      <path class="cls-1" d="M248.49,37.28c0-.8.65-1.45,1.45-1.45s1.45.65,1.45,1.45-.65,1.45-1.45,1.45-1.45-.65-1.45-1.45Z"/>
      <path class="cls-1" d="M215.36,36.27s-.05,0-.08-.01c-.12-.04-.19-.16-.17-.28.15-.98.23-1.98.23-2.97,0-10.47-8.52-19-19-19s-19,8.52-19,19c0,.99.08,1.98.23,2.97.02.12-.05.24-.17.28-.11.04-.24-.01-.3-.12-1.6-3.09-2.41-6.43-2.41-9.92,0-11.93,9.71-21.64,21.64-21.64s21.64,9.71,21.64,21.64c0,3.49-.81,6.83-2.41,9.92-.04.08-.13.13-.22.13ZM196.35,5.07c-11.66,0-21.14,9.48-21.14,21.14,0,2.9.57,5.69,1.71,8.32-.04-.51-.06-1.02-.06-1.52,0-10.75,8.75-19.5,19.5-19.5s19.5,8.75,19.5,19.5c0,.5-.02,1.01-.06,1.52,1.13-2.63,1.71-5.42,1.71-8.32,0-11.66-9.48-21.14-21.14-21.14Z"/>
      <path class="cls-1" d="M169.7,37.28c0-2.6-2.1-4.7-4.7-4.7s-4.7,2.1-4.7,4.7,2.1,4.7,4.7,4.7,4.7-2.1,4.7-4.7Z"/>
      <circle class="cls-1" cx="152.08" cy="37.28" r="2.47"/>
      <circle class="cls-1" cx="142.36" cy="37.28" r="1.45"/>
      <path class="cls-1" d="M28.79,23.78c0-2.59-2.1-4.7-4.7-4.7s-4.7,2.1-4.7,4.7,2.1,4.7,4.7,4.7,4.7-2.1,4.7-4.7Z"/>
      <path class="cls-1" d="M13.63,23.78c0-1.36-1.11-2.47-2.47-2.47s-2.47,1.11-2.47,2.47,1.11,2.47,2.47,2.47,2.47-1.11,2.47-2.47Z"/>
      <path class="cls-1" d="M2.89,23.78c0-.8-.65-1.45-1.45-1.45s-1.45.65-1.45,1.45.65,1.45,1.45,1.45,1.45-.65,1.45-1.45Z"/>
      <path class="cls-1" d="M362.67,23.78c0,2.6,2.1,4.7,4.7,4.7s4.7-2.1,4.7-4.7-2.1-4.7-4.7-4.7-4.7,2.1-4.7,4.7Z"/>
      <path class="cls-1" d="M377.83,23.78c0,1.36,1.11,2.47,2.47,2.47s2.47-1.11,2.47-2.47-1.11-2.47-2.47-2.47-2.47,1.11-2.47,2.47Z"/>
      <path class="cls-1" d="M388.57,23.78c0,.8.65,1.45,1.45,1.45s1.45-.65,1.45-1.45-.65-1.45-1.45-1.45-1.45.65-1.45,1.45Z"/>
    </g>
  </g>
</svg>