<?xml version="1.0" encoding="UTF-8"?>
<svg id="Layer_2" data-name="Layer 2" xmlns="http://www.w3.org/2000/svg" viewBox="0 0 390 76.73">
  <defs>
    <style>
      .cls-1 {
        fill: #bfb47b;
      }
    </style>
  </defs>
  <g id="Layer_1-2" data-name="Layer 1">
    <g>
      <path class="cls-1" d="M147.92,29.86c-.14,0-.25-.11-.25-.25v-8.19c0-.14.11-.25.25-.25s.25.11.25.25v8.19c0,.14-.11.25-.25.25Z"/>
      <path class="cls-1" d="M147.92,55.56c-.14,0-.25-.11-.25-.25v-8.19c0-.14.11-.25.25-.25s.25.11.25.25v8.19c0,.14-.11.25-.25.25Z"/>
      <path class="cls-1" d="M241.87,29.87c-.14,0-.25-.11-.25-.25v-8.19c0-.14.11-.25.25-.25s.25.11.25.25v8.19c0,.14-.11.25-.25.25Z"/>
      <path class="cls-1" d="M241.87,55.57c-.14,0-.25-.11-.25-.25v-8.19c0-.14.11-.25.25-.25s.25.11.25.25v8.19c0,.14-.11.25-.25.25Z"/>
      <circle class="cls-1" cx="147.92" cy="38.37" r="4.1"/>
      <path class="cls-1" d="M237.77,38.38c0,2.27,1.84,4.1,4.1,4.1s4.1-1.84,4.1-4.1-1.84-4.1-4.1-4.1-4.1,1.84-4.1,4.1Z"/>
      <path class="cls-1" d="M138.92,38.37c0,.7-.57,1.26-1.26,1.26s-1.26-.57-1.26-1.26.57-1.26,1.26-1.26,1.26.57,1.26,1.26Z"/>
      <path class="cls-1" d="M253.61,38.37c0,.7-.57,1.26-1.26,1.26s-1.26-.57-1.26-1.26.57-1.26,1.26-1.26,1.26.57,1.26,1.26Z"/>
      <g>
        <path class="cls-1" d="M195,51.03c-.07,0-.13,0-.2,0-6.98-.11-12.57-5.88-12.46-12.86h.6s-.6,0-.6,0c.11-6.91,5.77-12.46,12.66-12.46.07,0,.13,0,.2,0,6.98.11,12.57,5.88,12.46,12.86-.11,6.91-5.77,12.46-12.66,12.46ZM195,26.9c-6.24,0-11.36,5.02-11.46,11.28-.1,6.32,4.96,11.54,11.28,11.64,6.36.11,11.54-4.96,11.64-11.28.1-6.32-4.96-11.54-11.28-11.64-.06,0-.12,0-.18,0Z"/>
        <path class="cls-1" d="M198.03,26.88s-.08,0-.12-.03c-.12-.07-.17-.22-.1-.34,0-.02.91-1.7.95-4.29.02-1.3-.71-2.19-1.43-3.04-.7-.84-1.42-1.71-1.4-2.94.02-1.25.41-2.11.8-2.93.36-.78.7-1.52.71-2.55.03-1.78-1.05-3.09-1.93-4.14-.59-.71-1.09-1.32-1.17-1.94-.08-.67.04-1.64.21-2.5-.33.79-.63,1.72-.64,2.56-.01.88.31,1.67.65,2.51.41,1.02.84,2.07.71,3.37-.12,1.18-.76,1.9-1.37,2.59-.68.77-1.32,1.49-1.34,2.84-.02,1.47.35,2.29.75,3.14.36.78.74,1.58.75,2.85.04,3.47-1.27,4.65-1.33,4.7-.1.09-.26.08-.35-.02-.09-.1-.08-.26.02-.35.02-.02,1.19-1.11,1.16-4.32-.01-1.17-.35-1.89-.7-2.65-.41-.87-.83-1.77-.8-3.36.02-1.53.76-2.36,1.47-3.16.59-.67,1.15-1.29,1.25-2.31.12-1.17-.29-2.17-.68-3.13-.35-.85-.7-1.73-.69-2.71.03-2.06,1.56-4.5,1.63-4.61.07-.1.2-.15.31-.09.11.05.17.18.14.3,0,.03-.82,2.94-.65,4.29.06.48.52,1.04,1.06,1.68.92,1.12,2.07,2.5,2.04,4.46-.02,1.14-.4,1.96-.76,2.75-.38.82-.73,1.59-.75,2.73-.02,1.04.62,1.81,1.28,2.61.77.93,1.56,1.88,1.54,3.37-.04,2.73-.97,4.45-1.01,4.52-.05.08-.13.13-.22.13Z"/>
        <path class="cls-1" d="M195.3,76.73s-.07,0-.1-.02c-.11-.05-.17-.18-.14-.3,0-.03.81-2.94.65-4.29-.06-.48-.52-1.04-1.06-1.68-.92-1.11-2.07-2.5-2.04-4.46.02-1.14.4-1.96.76-2.75.38-.82.73-1.59.75-2.73.02-1.04-.62-1.81-1.28-2.61-.77-.93-1.56-1.88-1.54-3.37.04-2.73.93-4.38.97-4.45.07-.12.22-.17.34-.1.12.07.17.22.1.34,0,.02-.87,1.62-.91,4.22-.02,1.3.72,2.19,1.43,3.04.7.84,1.42,1.71,1.4,2.94-.02,1.25-.41,2.11-.8,2.93-.36.78-.7,1.52-.71,2.55-.03,1.78,1.06,3.09,1.93,4.14.59.71,1.09,1.32,1.17,1.94.08.67-.04,1.64-.21,2.5.33-.79.63-1.72.64-2.56.01-.88-.31-1.67-.65-2.51-.41-1.02-.84-2.07-.71-3.37.12-1.18.76-1.9,1.37-2.59.68-.77,1.32-1.49,1.34-2.84.02-1.47-.35-2.28-.75-3.14-.36-.78-.74-1.58-.75-2.85-.04-3.47,1.27-4.65,1.33-4.7.1-.09.26-.08.35.02.09.1.08.26-.02.35-.02.02-1.19,1.11-1.16,4.32.01,1.17.35,1.89.7,2.65.41.87.83,1.77.8,3.36-.03,1.53-.76,2.36-1.47,3.16-.59.67-1.15,1.29-1.25,2.31-.12,1.17.29,2.17.68,3.13.35.85.7,1.73.69,2.71-.03,2.06-1.56,4.5-1.63,4.61-.05.07-.13.12-.21.12Z"/>
        <path class="cls-1" d="M211.2,42.34h-.06c-2.73-.04-4.45-.97-4.53-1.01-.12-.07-.17-.22-.1-.34.07-.12.22-.17.34-.1.02,0,1.7.91,4.29.95,1.3,0,2.19-.71,3.04-1.43.84-.7,1.72-1.39,2.94-1.4,1.25.02,2.11.42,2.93.8.78.36,1.52.7,2.55.71,1.75.01,3.08-1.05,4.14-1.92.71-.59,1.32-1.09,1.94-1.17.67-.08,1.64.04,2.51.21-.79-.33-1.72-.63-2.56-.64h-.05c-.85,0-1.63.32-2.46.65-1.02.42-2.07.84-3.37.71-1.18-.12-1.9-.76-2.59-1.37-.77-.68-1.49-1.32-2.84-1.34-1.5,0-2.29.35-3.14.75-.78.36-1.58.74-2.85.75-.05,0-.09,0-.14,0-3.37,0-4.51-1.27-4.56-1.33-.09-.1-.08-.26.02-.35.1-.09.26-.08.35.02.02.02,1.08,1.16,4.18,1.16.04,0,.09,0,.13,0,1.17-.01,1.89-.35,2.65-.7.87-.41,1.79-.82,3.36-.8,1.53.02,2.36.76,3.16,1.47.67.59,1.29,1.15,2.31,1.25,1.17.12,2.17-.29,3.13-.68.85-.35,1.74-.67,2.71-.69,2.06.03,4.5,1.56,4.61,1.63.1.07.15.2.09.31-.05.11-.18.17-.3.14-.03,0-2.94-.82-4.29-.65-.48.06-1.04.52-1.68,1.06-1.1.91-2.47,2.04-4.39,2.04-.03,0-.05,0-.08,0-1.14-.02-1.96-.4-2.75-.76-.82-.38-1.59-.73-2.73-.75-1.03,0-1.8.62-2.61,1.28-.91.76-1.86,1.54-3.31,1.54Z"/>
        <path class="cls-1" d="M172.81,41.58s-.09,0-.14,0c-1.53-.03-2.36-.76-3.16-1.47-.67-.59-1.29-1.15-2.31-1.25-1.18-.12-2.17.29-3.13.68-.83.34-1.69.69-2.64.69h-.06c-2.06-.03-4.5-1.56-4.61-1.63-.1-.07-.14-.2-.09-.31.05-.11.18-.17.3-.14.03,0,2.94.82,4.3.65.48-.06,1.04-.52,1.68-1.06,1.1-.91,2.47-2.04,4.39-2.04.03,0,.05,0,.08,0,1.14.02,1.96.4,2.75.76.82.38,1.59.73,2.73.75h.04c1.02,0,1.78-.62,2.57-1.28.91-.76,1.86-1.54,3.31-1.54.02,0,.04,0,.06,0,2.73.04,4.45.97,4.52,1.01.12.07.17.22.1.34-.07.12-.22.17-.34.1-.02,0-1.7-.91-4.29-.95-.02,0-.04,0-.05,0-1.27,0-2.15.73-2.99,1.43-.83.69-1.69,1.4-2.89,1.4h-.05c-1.25-.02-2.11-.41-2.93-.8-.78-.36-1.52-.7-2.55-.71-.02,0-.04,0-.07,0-1.74,0-3.03,1.07-4.07,1.93-.71.59-1.32,1.09-1.94,1.17-.66.08-1.64-.04-2.51-.21.79.33,1.72.63,2.56.64.85,0,1.67-.31,2.51-.65,1.02-.42,2.07-.84,3.37-.71,1.18.12,1.9.76,2.59,1.37.77.68,1.49,1.32,2.84,1.34,1.46.03,2.29-.35,3.14-.75.78-.36,1.58-.74,2.85-.75.05,0,.09,0,.14,0,3.37,0,4.51,1.27,4.56,1.33.09.1.08.26-.02.35-.1.09-.26.08-.35-.02-.02-.02-1.08-1.16-4.18-1.16-.04,0-.09,0-.13,0-1.17.01-1.89.35-2.65.7-.85.39-1.72.8-3.22.8Z"/>
        <path class="cls-1" d="M205.24,32.34c-.11,0-.21-.07-.24-.18-.04-.13.04-.27.17-.31.02,0,1.84-.56,3.71-2.37.93-.91,1.04-2.05,1.14-3.16.1-1.09.21-2.21,1.09-3.07.9-.87,1.78-1.2,2.64-1.51.81-.3,1.57-.58,2.31-1.3,1.28-1.24,1.44-2.93,1.56-4.29.09-.91.16-1.71.55-2.2.41-.53,1.19-1.13,1.92-1.62-.79.32-1.66.77-2.26,1.36-.63.61-.96,1.4-1.31,2.23-.43,1.01-.87,2.06-1.88,2.89-.92.75-1.88.81-2.81.86-1.02.06-1.99.12-2.96,1.06-1.06,1.03-1.37,1.86-1.69,2.75-.29.8-.6,1.64-1.49,2.55-2.43,2.48-4.19,2.39-4.26,2.38-.14,0-.24-.13-.23-.27,0-.14.13-.25.26-.23.04,0,1.64.05,3.87-2.23.82-.83,1.09-1.58,1.38-2.37.33-.9.67-1.84,1.81-2.94,1.1-1.06,2.21-1.13,3.28-1.2.89-.05,1.73-.1,2.52-.75.91-.75,1.33-1.74,1.73-2.69.36-.85.73-1.72,1.43-2.4,1.48-1.43,4.29-2.08,4.41-2.1.12-.03.24.04.29.15.04.12,0,.25-.11.31-.03.02-2.65,1.5-3.5,2.58-.3.38-.36,1.1-.44,1.94-.14,1.44-.3,3.23-1.71,4.6-.82.79-1.66,1.11-2.48,1.41-.84.31-1.64.61-2.46,1.4-.75.73-.84,1.71-.94,2.75-.11,1.2-.23,2.44-1.29,3.47-1.96,1.9-3.83,2.46-3.91,2.49-.02,0-.05.01-.07.01Z"/>
        <path class="cls-1" d="M168.06,65.65c-.1,0-.2-.06-.23-.16-.04-.12,0-.25.11-.31.03-.01,2.65-1.5,3.5-2.58.3-.38.36-1.1.44-1.94.14-1.44.31-3.23,1.71-4.6.82-.79,1.67-1.11,2.48-1.41.84-.31,1.64-.61,2.46-1.4.75-.73.84-1.71.94-2.75.11-1.2.23-2.44,1.29-3.47,1.96-1.9,3.83-2.46,3.91-2.49.13-.04.27.04.31.17.04.13-.04.27-.17.31-.02,0-1.84.56-3.71,2.37-.93.91-1.04,2.05-1.14,3.16-.1,1.09-.21,2.21-1.09,3.07-.9.87-1.78,1.2-2.64,1.51-.8.3-1.57.58-2.31,1.3-1.28,1.24-1.44,2.93-1.56,4.29-.09.91-.16,1.71-.55,2.2-.41.53-1.19,1.13-1.92,1.62.79-.32,1.66-.77,2.27-1.36.63-.61.96-1.4,1.31-2.23.43-1.01.87-2.06,1.88-2.89.92-.75,1.88-.81,2.81-.86,1.02-.06,1.99-.12,2.96-1.06,1.06-1.03,1.37-1.87,1.69-2.75.29-.8.6-1.63,1.49-2.55,2.43-2.48,4.19-2.39,4.26-2.38.14,0,.24.13.23.27s-.13.25-.27.23c-.02,0-1.63-.05-3.87,2.23-.82.84-1.09,1.58-1.38,2.37-.33.9-.67,1.84-1.81,2.94-1.1,1.06-2.21,1.13-3.28,1.2-.89.05-1.73.1-2.52.75-.91.75-1.33,1.74-1.73,2.69-.36.84-.73,1.72-1.43,2.4-1.48,1.43-4.29,2.08-4.41,2.1-.02,0-.04,0-.05,0Z"/>
        <path class="cls-1" d="M221.96,65.62c-.09,0-.17-.05-.22-.13-.01-.03-1.5-2.65-2.58-3.5-.38-.3-1.1-.36-1.94-.44-1.44-.14-3.23-.3-4.6-1.71-.79-.82-1.11-1.67-1.41-2.48-.31-.84-.61-1.64-1.4-2.46-.73-.75-1.71-.84-2.75-.94-1.2-.11-2.44-.23-3.47-1.29-1.9-1.96-2.46-3.83-2.49-3.91-.04-.13.04-.27.17-.31.13-.04.27.04.31.17,0,.02.56,1.84,2.37,3.71.91.93,2.05,1.04,3.16,1.14,1.09.1,2.21.21,3.07,1.09.87.9,1.2,1.78,1.51,2.64.3.8.58,1.57,1.3,2.31,1.24,1.28,2.93,1.44,4.29,1.56.92.09,1.71.16,2.2.55.53.41,1.12,1.19,1.62,1.92-.32-.79-.77-1.66-1.36-2.26-.61-.63-1.4-.96-2.23-1.31-1.01-.43-2.06-.87-2.89-1.88-.75-.92-.81-1.88-.86-2.81-.06-1.02-.12-1.99-1.06-2.96-1.03-1.06-1.87-1.37-2.75-1.69-.8-.29-1.64-.6-2.55-1.49-2.48-2.43-2.39-4.19-2.38-4.26,0-.14.13-.25.27-.23.14,0,.24.13.23.26,0,.03-.05,1.63,2.24,3.87.83.82,1.58,1.09,2.37,1.38.9.33,1.84.67,2.94,1.81,1.07,1.1,1.13,2.21,1.2,3.28.05.89.1,1.73.75,2.52.75.91,1.74,1.33,2.69,1.73.84.36,1.72.72,2.4,1.43,1.43,1.48,2.08,4.29,2.11,4.41.03.12-.04.24-.15.29-.03.01-.06.02-.09.02Z"/>
        <path class="cls-1" d="M184.73,32.25s-.01,0-.02,0c-.14,0-.24-.13-.23-.27,0-.02.06-1.63-2.23-3.87-.83-.82-1.58-1.09-2.37-1.38-.9-.33-1.84-.67-2.94-1.81-1.06-1.1-1.13-2.21-1.2-3.28-.05-.89-.1-1.73-.75-2.52-.75-.91-1.74-1.33-2.69-1.73-.85-.36-1.72-.73-2.4-1.43-1.43-1.48-2.08-4.29-2.1-4.41-.03-.12.04-.24.15-.29.11-.04.25,0,.31.11.02.03,1.5,2.65,2.58,3.5.38.3,1.1.36,1.94.44,1.44.14,3.23.31,4.6,1.71.79.82,1.11,1.67,1.41,2.48.31.84.61,1.64,1.4,2.46.73.75,1.71.84,2.75.94,1.2.11,2.44.23,3.47,1.29,1.9,1.96,2.41,3.68,2.43,3.76.04.13-.04.27-.17.31-.13.04-.27-.04-.31-.17,0-.02-.51-1.69-2.31-3.55-.91-.93-2.05-1.04-3.16-1.14-1.09-.1-2.21-.21-3.07-1.09-.87-.9-1.2-1.78-1.51-2.64-.3-.81-.58-1.57-1.3-2.31-1.24-1.28-2.93-1.44-4.29-1.56-.91-.09-1.71-.16-2.2-.55-.53-.41-1.13-1.19-1.62-1.92.32.79.77,1.66,1.36,2.26.61.63,1.4.96,2.23,1.31,1.01.43,2.06.87,2.89,1.88.75.92.81,1.88.86,2.81.06,1.02.12,1.99,1.06,2.96,1.03,1.06,1.87,1.37,2.75,1.69.8.29,1.64.6,2.55,1.49,2.48,2.43,2.39,4.19,2.38,4.26,0,.13-.12.23-.25.23Z"/>
        <path class="cls-1" d="M183.21,35.75c-.11,0-.21-.07-.24-.18,0-.02-.32-1.02-2.18-1.81-.68-.29-1.19-.26-1.73-.23-.62.03-1.31.07-2.27-.36-.94-.43-1.24-1.17-1.51-1.82-.23-.56-.43-1.05-.98-1.36-.64-.37-1.31-.36-2-.36-.62,0-1.25,0-1.85-.27-1.24-.57-2.27-2.22-2.32-2.29-.06-.1-.04-.24.05-.32.09-.08.23-.08.33,0,.01.01,1.5,1.28,2.33,1.52.27.08.75-.08,1.25-.25.94-.31,2.11-.7,3.3-.16.69.32,1.08.78,1.46,1.23.37.45.72.87,1.38,1.17.58.27,1.17.07,1.85-.16.75-.25,1.6-.53,2.51-.12,1.63.75,2.41,1.81,2.44,1.86.08.11.05.27-.06.35-.11.08-.27.05-.35-.06,0-.01-.74-1.01-2.24-1.7-.73-.34-1.42-.11-2.15.14-.72.24-1.46.48-2.21.14-.76-.35-1.16-.83-1.55-1.3-.35-.43-.69-.83-1.28-1.1-1.02-.47-2.04-.12-2.94.18-.6.2-1.12.37-1.54.25-.26-.07-.56-.23-.87-.41.26.23.54.44.83.57.5.23,1.05.23,1.64.22.74,0,1.5,0,2.26.43.7.4.95,1.01,1.19,1.61.26.62.5,1.21,1.26,1.56.85.39,1.42.36,2.04.32.58-.03,1.17-.07,1.95.27,2.12.9,2.46,2.09,2.47,2.14.04.13-.04.27-.18.31-.02,0-.04,0-.06,0Z"/>
        <path class="cls-1" d="M188.79,28.03s-.09-.01-.13-.03c-.12-.07-.16-.22-.09-.34h0s.5-.94-.26-2.82c-.28-.68-.66-1.02-1.06-1.38-.46-.41-.98-.88-1.35-1.87-.36-.97-.05-1.7.22-2.36.23-.56.44-1.05.27-1.66-.19-.71-.66-1.18-1.16-1.67-.44-.43-.89-.88-1.12-1.49-.48-1.28-.04-3.18-.02-3.26.03-.12.14-.2.26-.19.12,0,.22.11.23.23,0,.02.16,1.96.58,2.72.14.25.58.47,1.05.71.89.44,1.99,1,2.45,2.23.27.72.21,1.32.16,1.9-.05.58-.1,1.13.15,1.8.22.6.78.88,1.42,1.2.71.35,1.51.75,1.86,1.69.63,1.68.42,2.99.41,3.04-.02.14-.15.22-.29.21-.14-.02-.23-.15-.21-.29,0-.01.19-1.24-.39-2.79-.28-.76-.93-1.08-1.61-1.42-.67-.34-1.37-.69-1.66-1.47-.29-.78-.23-1.41-.18-2.02.05-.55.1-1.07-.13-1.68-.39-1.04-1.35-1.53-2.2-1.95-.57-.28-1.06-.53-1.27-.91-.13-.24-.24-.56-.32-.91.02.35.07.69.18.99.19.51.58.9,1,1.31.52.52,1.07,1.06,1.29,1.9.21.77-.05,1.39-.29,1.98-.26.62-.5,1.21-.21,1.99.32.87.76,1.26,1.21,1.67.43.38.87.78,1.19,1.57.86,2.13.26,3.22.23,3.26-.05.08-.13.12-.22.12Z"/>
        <path class="cls-1" d="M201.54,28.49c-.08,0-.15-.04-.2-.1-.08-.11-.05-.27.06-.35,0,0,1.01-.74,1.7-2.24.33-.73.11-1.42-.14-2.15-.24-.71-.49-1.45-.14-2.21.35-.76.83-1.16,1.3-1.55.43-.35.83-.69,1.1-1.28.46-1.01.12-2.04-.17-2.94-.2-.6-.37-1.12-.25-1.54.07-.26.23-.56.41-.87-.23.26-.44.54-.57.83-.23.5-.22,1.05-.22,1.63,0,.74,0,1.5-.43,2.26-.4.7-1.01.95-1.61,1.19-.62.26-1.21.5-1.56,1.26-.39.85-.35,1.42-.32,2.04.03.58.07,1.17-.26,1.95-.9,2.12-2.09,2.46-2.14,2.47-.13.04-.27-.04-.31-.18-.04-.13.04-.27.17-.31.03,0,1.03-.33,1.81-2.18.29-.68.26-1.19.23-1.73-.04-.62-.08-1.31.36-2.27.43-.94,1.17-1.24,1.82-1.51.56-.23,1.05-.43,1.36-.98.37-.64.36-1.3.36-2.01,0-.61,0-1.25.27-1.84.57-1.24,2.22-2.27,2.29-2.32.11-.06.24-.04.32.05.08.09.08.23,0,.33-.01.01-1.28,1.5-1.51,2.33-.08.27.08.74.25,1.25.31.94.7,2.11.16,3.3-.32.69-.78,1.08-1.23,1.46-.45.37-.87.72-1.17,1.38-.27.58-.07,1.17.16,1.85.25.75.53,1.6.12,2.51-.75,1.63-1.81,2.41-1.86,2.44-.04.03-.09.05-.15.05Z"/>
        <path class="cls-1" d="M207.67,36.11c-.37,0-.6-.04-.62-.04-.14-.02-.23-.15-.2-.29.02-.14.16-.23.29-.21.01,0,1.23.19,2.79-.39.75-.28,1.08-.93,1.42-1.61.34-.67.69-1.37,1.47-1.66.78-.29,1.41-.23,2.02-.18.55.05,1.07.1,1.68-.13,1.04-.39,1.53-1.35,1.95-2.2.28-.57.53-1.06.91-1.27.24-.13.56-.24.91-.32-.35.02-.69.07-.99.18-.51.19-.9.58-1.31,1-.52.52-1.06,1.07-1.9,1.29-.78.21-1.39-.05-1.98-.29-.62-.26-1.21-.5-1.99-.21-.87.32-1.26.76-1.67,1.21-.38.43-.78.88-1.57,1.19-2.13.86-3.21.26-3.26.23-.12-.07-.16-.22-.09-.34.07-.12.22-.16.34-.09.02,0,.95.49,2.82-.26.68-.28,1.02-.66,1.38-1.06.41-.46.87-.98,1.87-1.35.97-.36,1.71-.05,2.36.22.56.23,1.05.44,1.66.27.71-.19,1.18-.66,1.67-1.16.43-.44.88-.89,1.49-1.12,1.28-.48,3.17-.04,3.26-.02.12.03.2.14.19.26,0,.12-.11.22-.23.23-.02,0-1.96.16-2.72.58-.25.14-.47.58-.71,1.06-.44.89-1,1.99-2.23,2.45-.71.27-1.32.21-1.9.16-.58-.05-1.13-.1-1.8.15-.6.22-.87.78-1.2,1.42-.35.71-.75,1.51-1.69,1.86-1,.37-1.87.45-2.42.45Z"/>
        <path class="cls-1" d="M221.8,50.19c-.06,0-.12-.02-.16-.06-.02-.01-1.5-1.28-2.33-1.52-.27-.08-.74.08-1.25.25-.94.31-2.12.7-3.3.16-.69-.32-1.08-.78-1.46-1.23-.37-.45-.72-.87-1.37-1.17-.58-.27-1.17-.07-1.85.16-.75.25-1.6.53-2.51.12-1.63-.75-2.41-1.82-2.44-1.86-.08-.11-.05-.27.06-.35.11-.08.27-.06.35.06,0,0,.74,1.01,2.24,1.7.74.34,1.42.11,2.15-.14.71-.24,1.45-.48,2.21-.14.76.35,1.16.83,1.55,1.3.35.43.69.83,1.28,1.1,1.01.46,2.04.12,2.94-.18.6-.2,1.11-.37,1.54-.25.26.08.56.23.87.41-.26-.23-.54-.44-.83-.57-.5-.23-1.05-.22-1.63-.22-.74,0-1.5,0-2.26-.43-.7-.4-.95-1.01-1.19-1.61-.26-.62-.5-1.21-1.26-1.56-.85-.39-1.42-.35-2.04-.32-.57.04-1.17.07-1.95-.26-2.12-.9-2.46-2.09-2.47-2.14-.04-.13.04-.27.18-.31.13-.04.27.04.31.17,0,.02.32,1.02,2.18,1.81.68.29,1.19.26,1.73.23.61-.03,1.31-.08,2.27.36.94.43,1.24,1.17,1.51,1.82.23.56.43,1.05.98,1.36.64.37,1.31.36,2.01.36.62,0,1.25,0,1.84.27,1.24.57,2.27,2.22,2.32,2.29.06.1.04.24-.05.32-.05.04-.11.06-.16.06Z"/>
        <path class="cls-1" d="M205.89,65.68s-.01,0-.02,0c-.12,0-.22-.11-.23-.23,0-.02-.16-1.96-.58-2.72-.14-.25-.58-.47-1.06-.71-.89-.44-1.99-1-2.45-2.23-.27-.71-.21-1.32-.16-1.9.05-.58.1-1.13-.15-1.8-.22-.6-.78-.88-1.42-1.2-.71-.35-1.51-.75-1.86-1.69-.63-1.68-.42-2.99-.41-3.04.02-.13.14-.24.29-.21.14.02.23.15.21.29,0,.01-.19,1.24.39,2.79.28.75.93,1.08,1.61,1.42s1.37.69,1.66,1.47c.29.78.23,1.41.18,2.02-.05.55-.1,1.07.13,1.68.39,1.04,1.35,1.53,2.2,1.95.57.28,1.06.53,1.27.91.13.24.24.56.32.91-.02-.35-.07-.69-.18-.99-.19-.51-.58-.9-1-1.31-.52-.52-1.06-1.05-1.29-1.9-.21-.78.05-1.39.29-1.98.26-.62.5-1.21.21-1.99-.32-.87-.76-1.26-1.21-1.66-.43-.38-.87-.78-1.19-1.57-.86-2.13-.26-3.21-.23-3.26.07-.12.22-.16.34-.09.12.07.16.22.09.34-.01.02-.49.96.26,2.82.28.68.66,1.02,1.06,1.38.46.41.98.87,1.35,1.86.36.97.05,1.71-.22,2.36-.23.56-.44,1.05-.27,1.66.19.71.66,1.18,1.16,1.67.44.43.89.88,1.12,1.49.48,1.28.04,3.17.02,3.25-.03.11-.13.19-.24.19Z"/>
        <path class="cls-1" d="M183.5,65.38c-.07,0-.14-.03-.19-.09-.08-.09-.08-.23,0-.33.01-.02,1.28-1.5,1.52-2.33.08-.27-.08-.74-.25-1.25-.31-.94-.7-2.11-.16-3.3.32-.69.78-1.08,1.23-1.46.45-.37.87-.72,1.17-1.38.27-.58.07-1.17-.16-1.85-.25-.75-.53-1.6-.12-2.51.75-1.63,1.81-2.41,1.86-2.44.11-.08.27-.05.35.06.08.11.06.27-.06.35-.01,0-1.01.74-1.7,2.24-.34.73-.11,1.42.14,2.15.24.71.49,1.45.14,2.21-.35.76-.83,1.16-1.3,1.55-.43.35-.83.69-1.1,1.28-.46,1.01-.12,2.04.18,2.94.2.6.37,1.12.25,1.54-.07.26-.23.56-.41.87.23-.26.44-.54.57-.83.23-.5.22-1.05.22-1.63,0-.74,0-1.5.43-2.26.4-.7,1.01-.95,1.61-1.19.62-.26,1.21-.5,1.56-1.26.39-.85.36-1.42.32-2.04-.03-.58-.07-1.17.27-1.95.9-2.12,2.09-2.46,2.14-2.47.13-.04.27.04.31.18.04.13-.04.27-.18.31-.02,0-1.02.32-1.81,2.18-.29.68-.26,1.19-.23,1.73.04.62.08,1.31-.37,2.27-.43.94-1.17,1.24-1.82,1.51-.56.23-1.05.43-1.36.98-.37.64-.36,1.3-.36,2,0,.61,0,1.25-.27,1.85-.57,1.24-2.22,2.27-2.29,2.32-.04.02-.09.04-.13.04Z"/>
        <path class="cls-1" d="M169.76,49.57c-.92,0-1.74-.19-1.79-.2-.12-.03-.2-.14-.19-.26,0-.12.11-.22.23-.23.02,0,1.96-.16,2.72-.58.25-.14.47-.58.71-1.05.44-.89,1-1.99,2.23-2.45.72-.27,1.32-.21,1.9-.16.58.05,1.13.1,1.8-.15.6-.22.87-.78,1.2-1.42.35-.71.75-1.51,1.69-1.86,1.68-.62,2.99-.42,3.04-.41.14.02.23.15.21.29-.02.14-.15.23-.29.21-.01,0-1.24-.19-2.79.39-.76.28-1.08.93-1.42,1.62-.34.67-.69,1.37-1.47,1.66-.78.29-1.41.23-2.02.18-.55-.05-1.07-.1-1.68.13-1.04.39-1.53,1.35-1.95,2.2-.28.57-.53,1.06-.91,1.27-.24.13-.56.24-.91.33.35-.02.69-.07.99-.18.51-.19.9-.58,1.31-1,.52-.52,1.06-1.07,1.9-1.29.78-.21,1.39.05,1.98.29.62.26,1.21.5,1.99.21.87-.32,1.26-.76,1.67-1.21.38-.43.78-.88,1.57-1.19,2.13-.87,3.21-.26,3.26-.23.12.07.16.22.09.34-.07.12-.22.16-.34.09-.03-.01-.96-.49-2.82.26-.68.28-1.02.66-1.38,1.06-.41.46-.87.98-1.87,1.35-.96.36-1.7.05-2.36-.22-.56-.23-1.05-.44-1.66-.27-.71.19-1.18.66-1.67,1.16-.43.44-.88.89-1.49,1.12-.45.17-.97.22-1.47.22Z"/>
      </g>
      <path class="cls-1" d="M202.9,38.37c0,7.54-5.02,12.06-7.9,12.06,6.66,0,12.06-5.4,12.06-12.06s-5.4-12.06-12.06-12.06c2.3,0,7.9,4.46,7.9,12.06Z"/>
      <path class="cls-1" d="M253.2,48.75c-1.67,0-3.27-.39-4.76-1.16-.11-.06-.16-.18-.12-.3.04-.12.15-.19.28-.17.45.07.92.11,1.38.11,4.89,0,8.86-3.97,8.86-8.86s-3.97-8.86-8.86-8.86c-.46,0-.93.04-1.38.11-.13.02-.24-.05-.28-.17s.01-.24.12-.3c1.48-.77,3.08-1.16,4.76-1.16,5.72,0,10.38,4.65,10.38,10.38s-4.65,10.38-10.38,10.38ZM250.05,47.74c1.01.34,2.07.52,3.16.52,5.45,0,9.88-4.43,9.88-9.88s-4.43-9.88-9.88-9.88c-1.09,0-2.15.17-3.16.52,5.13.03,9.3,4.22,9.3,9.36s-4.17,9.33-9.3,9.36Z"/>
      <path class="cls-1" d="M253.61,53.76c-.33,0-.6-.27-.6-.6s.27-.6.6-.6c7.82,0,14.19-6.37,14.19-14.19s-6.37-14.19-14.19-14.19c-.33,0-.6-.27-.6-.6s.27-.6.6-.6c8.49,0,15.39,6.9,15.39,15.39s-6.9,15.39-15.39,15.39Z"/>
      <path class="cls-1" d="M136.8,48.74c-5.72,0-10.38-4.66-10.38-10.38s4.65-10.38,10.38-10.38c1.67,0,3.27.39,4.76,1.16.11.06.16.18.12.3-.04.12-.16.19-.28.17-.46-.07-.92-.11-1.38-.11-4.89,0-8.86,3.97-8.86,8.86s3.97,8.86,8.86,8.86c.46,0,.93-.04,1.38-.11.12-.02.24.05.28.17.04.12-.01.24-.12.3-1.48.77-3.08,1.16-4.76,1.16ZM136.8,28.49c-5.45,0-9.88,4.43-9.88,9.88s4.43,9.88,9.88,9.88c1.09,0,2.15-.17,3.16-.52-5.13-.03-9.3-4.22-9.3-9.36s4.17-9.33,9.3-9.36c-1.01-.34-2.07-.52-3.16-.52Z"/>
      <path class="cls-1" d="M136.39,53.76c-8.49,0-15.39-6.9-15.39-15.39s6.9-15.39,15.39-15.39c.33,0,.6.27.6.6s-.27.6-.6.6c-7.82,0-14.19,6.36-14.19,14.19s6.36,14.19,14.19,14.19c.33,0,.6.27.6.6s-.27.6-.6.6Z"/>
      <circle class="cls-1" cx="4.1" cy="38.37" r="4.1"/>
      <path class="cls-1" d="M13.1,38.37c0-.7.57-1.26,1.26-1.26s1.26.57,1.26,1.26-.57,1.26-1.26,1.26-1.26-.57-1.26-1.26Z"/>
      <path class="cls-1" d="M15.23,48.75c-1.67,0-3.27-.39-4.76-1.16-.11-.06-.16-.18-.12-.3.04-.12.15-.19.28-.17.46.07.92.11,1.38.11,4.89,0,8.86-3.97,8.86-8.86s-3.97-8.86-8.86-8.86c-.46,0-.92.04-1.38.11-.13.02-.24-.05-.28-.17-.04-.12.01-.24.12-.3,1.48-.77,3.08-1.15,4.76-1.15,5.72,0,10.38,4.65,10.38,10.38s-4.65,10.38-10.38,10.38ZM12.07,47.74c1.01.34,2.07.52,3.16.52,5.45,0,9.88-4.43,9.88-9.88s-4.43-9.88-9.88-9.88c-1.09,0-2.15.17-3.16.52,5.13.03,9.3,4.22,9.3,9.36s-4.17,9.33-9.3,9.36Z"/>
      <path class="cls-1" d="M15.63,53.76c-.33,0-.6-.27-.6-.6s.27-.6.6-.6c7.82,0,14.19-6.37,14.19-14.19s-6.36-14.19-14.19-14.19c-.33,0-.6-.27-.6-.6s.27-.6.6-.6c8.49,0,15.39,6.9,15.39,15.39s-6.9,15.39-15.39,15.39Z"/>
      <path class="cls-1" d="M121.6,38.97H30.42c-.33,0-.6-.27-.6-.6s.27-.6.6-.6h91.18c.33,0,.6.27.6.6s-.27.6-.6.6Z"/>
      <path class="cls-1" d="M117.69,43.31H35.09c-.14,0-.25-.11-.25-.25s.11-.25.25-.25h82.6c.14,0,.25.11.25.25s-.11.25-.25.25Z"/>
      <path class="cls-1" d="M381.79,38.38c0-2.27,1.84-4.1,4.1-4.1s4.1,1.84,4.1,4.1-1.84,4.1-4.1,4.1-4.1-1.84-4.1-4.1Z"/>
      <path class="cls-1" d="M376.9,38.38c0-.7-.57-1.26-1.26-1.26s-1.26.57-1.26,1.26.57,1.26,1.26,1.26,1.26-.57,1.26-1.26Z"/>
      <path class="cls-1" d="M374.77,48.77c-5.72,0-10.38-4.65-10.38-10.38s4.65-10.38,10.38-10.38c1.67,0,3.27.39,4.76,1.16.11.06.16.18.12.3s-.15.19-.28.17c-.46-.07-.92-.11-1.38-.11-4.89,0-8.86,3.97-8.86,8.86s3.97,8.86,8.86,8.86c.46,0,.92-.04,1.38-.11.12-.02.24.05.28.17.04.12-.01.24-.12.3-1.48.77-3.08,1.16-4.76,1.16ZM374.77,28.51c-5.45,0-9.88,4.43-9.88,9.88s4.43,9.88,9.88,9.88c1.09,0,2.15-.17,3.16-.52-5.13-.03-9.3-4.22-9.3-9.36s4.17-9.33,9.3-9.36c-1.01-.34-2.07-.52-3.16-.52Z"/>
      <path class="cls-1" d="M374.37,53.77c-8.49,0-15.39-6.9-15.39-15.39s6.9-15.39,15.39-15.39c.33,0,.6.27.6.6s-.27.6-.6.6c-7.82,0-14.19,6.36-14.19,14.19s6.37,14.19,14.19,14.19c.33,0,.6.27.6.6s-.27.6-.6.6Z"/>
      <path class="cls-1" d="M359.58,38.98h-91.18c-.33,0-.6-.27-.6-.6s.27-.6.6-.6h91.18c.33,0,.6.27.6.6s-.27.6-.6.6Z"/>
      <path class="cls-1" d="M354.91,43.32h-82.6c-.14,0-.25-.11-.25-.25s.11-.25.25-.25h82.6c.14,0,.25.11.25.25s-.11.25-.25.25Z"/>
    </g>
  </g>
</svg>