<?xml version="1.0" encoding="UTF-8"?>
<svg id="Layer_2" data-name="Layer 2" xmlns="http://www.w3.org/2000/svg" viewBox="0 0 390.5 29.33">
  <defs>
    <style>
      .cls-1 {
        fill: #bfb47b;
      }
    </style>
  </defs>
  <g id="Layer_1-2" data-name="Layer 1">
    <g>
      <path class="cls-1" d="M390.25,14.77h-176.08c-.14,0-.25-.11-.25-.25s.11-.25.25-.25h176.08c.14,0,.25.11.25.25s-.11.25-.25.25Z"/>
      <path class="cls-1" d="M177.18,14.82H.25c-.14,0-.25-.11-.25-.25s.11-.25.25-.25h176.93c.14,0,.25.11.25.25s-.11.25-.25.25Z"/>
      <g>
        <path class="cls-1" d="M195.62,7.15c1.72.03,3.1,1.45,3.07,3.17-.03,1.72-1.45,3.1-3.17,3.07-1.72-.03-3.1-1.45-3.07-3.17.03-1.72,1.45-3.1,3.17-3.07Z"/>
        <path class="cls-1" d="M198.63,9.64s.29.33,1.17.32c.66,0,.8-.4,1.55-.39.7.01.81.64,1.41.7.59.06,1-.36,1.52-.35.52,0,1.16.41,1.16.41,0,0-.77-.22-1.14-.17-.37.05-.8.81-1.58.8-.57,0-.81-.38-1.42-.39s-.85.74-1.55.73-1.14-.25-1.14-.25l.02-1.41Z"/>
        <path class="cls-1" d="M192.52,11.04s-.29-.33-1.17-.32c-.66,0-.8.4-1.55.39-.7-.01-.81-.64-1.41-.7-.59-.06-1,.36-1.52.35-.52,0-1.16-.41-1.16-.41,0,0,.77.22,1.14.17.37-.05.8-.81,1.58-.8.57,0,.81.38,1.42.39.61,0,.85-.74,1.55-.73s1.12.24,1.12.24v1.42Z"/>
        <path class="cls-1" d="M196.28,13.33s-.33.29-.32,1.17c0,.66.4.8.39,1.55-.01.7-.64.81-.7,1.41-.06.59.36,1,.35,1.52,0,.52-.41,1.16-.41,1.16,0,0,.22-.77.17-1.14-.05-.37-.81-.8-.8-1.58,0-.57.38-.81.39-1.42,0-.61-.74-.85-.73-1.55.01-.7.25-1.14.25-1.14l1.41.02Z"/>
        <path class="cls-1" d="M194.87,7.21s.33-.29.32-1.17c0-.66-.4-.8-.39-1.55.01-.7.64-.81.7-1.41.06-.59-.36-1-.35-1.52,0-.52.41-1.16.41-1.16,0,0-.22.77-.17,1.14s.81.8.8,1.58c0,.57-.38.81-.39,1.42,0,.61.74.85.73,1.55s-.25,1.14-.25,1.14l-1.41-.02Z"/>
        <path class="cls-1" d="M198.21,11.93s-.03.44.6,1.05c.47.46.85.28,1.37.82.49.5.11,1.02.5,1.5.38.46.96.45,1.32.82.36.37.53,1.11.53,1.11,0,0-.39-.7-.68-.92-.29-.23-1.14.01-1.69-.55-.4-.41-.3-.84-.73-1.28-.42-.44-1.13-.08-1.61-.58-.49-.5-.63-.99-.63-.99l1.01-.98Z"/>
        <path class="cls-1" d="M192.9,8.6s.03-.44-.6-1.05c-.47-.46-.85-.28-1.37-.82-.49-.5-.11-1.02-.5-1.5-.38-.46-.96-.45-1.32-.82-.36-.37-.53-1.11-.53-1.11,0,0,.39.7.68.92.29.23,1.14-.01,1.69.55.4.41.3.84.73,1.28.42.44,1.13.08,1.61.58.49.5.63.99.63.99l-1.02.98Z"/>
        <path class="cls-1" d="M193.89,12.93s-.44-.03-1.05.6c-.46.47-.28.85-.82,1.37-.5.49-1.02.11-1.5.5-.46.38-.45.96-.82,1.32-.37.36-1.11.53-1.11.53,0,0,.7-.39.92-.68.23-.29-.01-1.14.55-1.69.41-.4.84-.3,1.28-.73.44-.42.08-1.13.58-1.61s.99-.63.99-.63l.98,1.02Z"/>
        <path class="cls-1" d="M197.22,7.61s.44.03,1.05-.6c.46-.47.28-.85.82-1.37.5-.49,1.02-.11,1.5-.5.46-.38.45-.96.82-1.32.37-.36,1.11-.53,1.11-.53,0,0-.7.39-.92.68-.23.29.01,1.14-.55,1.69-.41.4-.84.3-1.28.73-.44.42-.08,1.13-.58,1.61-.5.49-.95.61-.95.61l-1.02-1Z"/>
      </g>
      <path class="cls-1" d="M205.37,20.66c-.16,0-.32-.06-.44-.19-.23-.24-.21-.62.03-.85,2.6-2.44,4.03-5.75,4.03-9.31s-1.41-6.81-3.96-9.24c-.24-.23-.25-.61-.02-.85.23-.24.61-.25.85-.02,2.79,2.66,4.33,6.25,4.33,10.11s-1.61,7.55-4.41,10.18c-.12.11-.26.16-.41.16Z"/>
      <path class="cls-1" d="M388.58,10.81h-.5c-.28,0-.5-.22-.5-.5s.22-.5.5-.5h.5c.28,0,.5.22.5.5s-.22.5-.5.5ZM385.08,10.81h-.5c-.28,0-.5-.22-.5-.5s.22-.5.5-.5h.5c.28,0,.5.22.5.5s-.22.5-.5.5ZM381.58,10.81h-.5c-.28,0-.5-.22-.5-.5s.22-.5.5-.5h.5c.28,0,.5.22.5.5s-.22.5-.5.5ZM378.08,10.81h-.5c-.28,0-.5-.22-.5-.5s.22-.5.5-.5h.5c.28,0,.5.22.5.5s-.22.5-.5.5ZM374.58,10.81h-.5c-.28,0-.5-.22-.5-.5s.22-.5.5-.5h.5c.28,0,.5.22.5.5s-.22.5-.5.5ZM371.08,10.81h-.5c-.28,0-.5-.22-.5-.5s.22-.5.5-.5h.5c.28,0,.5.22.5.5s-.22.5-.5.5ZM367.58,10.81h-.5c-.28,0-.5-.22-.5-.5s.22-.5.5-.5h.5c.28,0,.5.22.5.5s-.22.5-.5.5ZM364.08,10.81h-.5c-.28,0-.5-.22-.5-.5s.22-.5.5-.5h.5c.28,0,.5.22.5.5s-.22.5-.5.5ZM360.58,10.81h-.5c-.28,0-.5-.22-.5-.5s.22-.5.5-.5h.5c.28,0,.5.22.5.5s-.22.5-.5.5ZM357.08,10.81h-.5c-.28,0-.5-.22-.5-.5s.22-.5.5-.5h.5c.28,0,.5.22.5.5s-.22.5-.5.5ZM353.58,10.81h-.5c-.28,0-.5-.22-.5-.5s.22-.5.5-.5h.5c.28,0,.5.22.5.5s-.22.5-.5.5ZM350.08,10.81h-.5c-.28,0-.5-.22-.5-.5s.22-.5.5-.5h.5c.28,0,.5.22.5.5s-.22.5-.5.5ZM346.58,10.81h-.5c-.28,0-.5-.22-.5-.5s.22-.5.5-.5h.5c.28,0,.5.22.5.5s-.22.5-.5.5ZM343.08,10.81h-.5c-.28,0-.5-.22-.5-.5s.22-.5.5-.5h.5c.28,0,.5.22.5.5s-.22.5-.5.5ZM339.58,10.81h-.5c-.28,0-.5-.22-.5-.5s.22-.5.5-.5h.5c.28,0,.5.22.5.5s-.22.5-.5.5ZM336.08,10.81h-.5c-.28,0-.5-.22-.5-.5s.22-.5.5-.5h.5c.28,0,.5.22.5.5s-.22.5-.5.5ZM332.58,10.81h-.5c-.28,0-.5-.22-.5-.5s.22-.5.5-.5h.5c.28,0,.5.22.5.5s-.22.5-.5.5ZM329.08,10.81h-.5c-.28,0-.5-.22-.5-.5s.22-.5.5-.5h.5c.28,0,.5.22.5.5s-.22.5-.5.5ZM325.58,10.81h-.5c-.28,0-.5-.22-.5-.5s.22-.5.5-.5h.5c.28,0,.5.22.5.5s-.22.5-.5.5ZM322.08,10.81h-.5c-.28,0-.5-.22-.5-.5s.22-.5.5-.5h.5c.28,0,.5.22.5.5s-.22.5-.5.5ZM318.58,10.81h-.5c-.28,0-.5-.22-.5-.5s.22-.5.5-.5h.5c.28,0,.5.22.5.5s-.22.5-.5.5ZM315.08,10.81h-.5c-.28,0-.5-.22-.5-.5s.22-.5.5-.5h.5c.28,0,.5.22.5.5s-.22.5-.5.5ZM311.58,10.81h-.5c-.28,0-.5-.22-.5-.5s.22-.5.5-.5h.5c.28,0,.5.22.5.5s-.22.5-.5.5ZM308.08,10.81h-.5c-.28,0-.5-.22-.5-.5s.22-.5.5-.5h.5c.28,0,.5.22.5.5s-.22.5-.5.5ZM304.58,10.81h-.5c-.28,0-.5-.22-.5-.5s.22-.5.5-.5h.5c.28,0,.5.22.5.5s-.22.5-.5.5ZM301.08,10.81h-.5c-.28,0-.5-.22-.5-.5s.22-.5.5-.5h.5c.28,0,.5.22.5.5s-.22.5-.5.5ZM297.58,10.81h-.5c-.28,0-.5-.22-.5-.5s.22-.5.5-.5h.5c.28,0,.5.22.5.5s-.22.5-.5.5ZM294.08,10.81h-.5c-.28,0-.5-.22-.5-.5s.22-.5.5-.5h.5c.28,0,.5.22.5.5s-.22.5-.5.5ZM290.58,10.81h-.5c-.28,0-.5-.22-.5-.5s.22-.5.5-.5h.5c.28,0,.5.22.5.5s-.22.5-.5.5ZM287.08,10.81h-.5c-.28,0-.5-.22-.5-.5s.22-.5.5-.5h.5c.28,0,.5.22.5.5s-.22.5-.5.5ZM283.58,10.81h-.5c-.28,0-.5-.22-.5-.5s.22-.5.5-.5h.5c.28,0,.5.22.5.5s-.22.5-.5.5ZM280.08,10.81h-.5c-.28,0-.5-.22-.5-.5s.22-.5.5-.5h.5c.28,0,.5.22.5.5s-.22.5-.5.5ZM276.58,10.81h-.5c-.28,0-.5-.22-.5-.5s.22-.5.5-.5h.5c.28,0,.5.22.5.5s-.22.5-.5.5ZM273.08,10.81h-.5c-.28,0-.5-.22-.5-.5s.22-.5.5-.5h.5c.28,0,.5.22.5.5s-.22.5-.5.5ZM269.58,10.81h-.5c-.28,0-.5-.22-.5-.5s.22-.5.5-.5h.5c.28,0,.5.22.5.5s-.22.5-.5.5ZM266.08,10.81h-.5c-.28,0-.5-.22-.5-.5s.22-.5.5-.5h.5c.28,0,.5.22.5.5s-.22.5-.5.5ZM262.58,10.81h-.5c-.28,0-.5-.22-.5-.5s.22-.5.5-.5h.5c.28,0,.5.22.5.5s-.22.5-.5.5ZM259.08,10.81h-.5c-.28,0-.5-.22-.5-.5s.22-.5.5-.5h.5c.28,0,.5.22.5.5s-.22.5-.5.5ZM255.58,10.81h-.5c-.28,0-.5-.22-.5-.5s.22-.5.5-.5h.5c.28,0,.5.22.5.5s-.22.5-.5.5ZM252.08,10.81h-.5c-.28,0-.5-.22-.5-.5s.22-.5.5-.5h.5c.28,0,.5.22.5.5s-.22.5-.5.5ZM248.58,10.81h-.5c-.28,0-.5-.22-.5-.5s.22-.5.5-.5h.5c.28,0,.5.22.5.5s-.22.5-.5.5ZM245.08,10.81h-.5c-.28,0-.5-.22-.5-.5s.22-.5.5-.5h.5c.28,0,.5.22.5.5s-.22.5-.5.5ZM241.58,10.81h-.5c-.28,0-.5-.22-.5-.5s.22-.5.5-.5h.5c.28,0,.5.22.5.5s-.22.5-.5.5ZM238.08,10.81h-.5c-.28,0-.5-.22-.5-.5s.22-.5.5-.5h.5c.28,0,.5.22.5.5s-.22.5-.5.5ZM234.58,10.81h-.5c-.28,0-.5-.22-.5-.5s.22-.5.5-.5h.5c.28,0,.5.22.5.5s-.22.5-.5.5ZM231.08,10.81h-.5c-.28,0-.5-.22-.5-.5s.22-.5.5-.5h.5c.28,0,.5.22.5.5s-.22.5-.5.5ZM227.58,10.81h-.5c-.28,0-.5-.22-.5-.5s.22-.5.5-.5h.5c.28,0,.5.22.5.5s-.22.5-.5.5ZM224.08,10.81h-.5c-.28,0-.5-.22-.5-.5s.22-.5.5-.5h.5c.28,0,.5.22.5.5s-.22.5-.5.5ZM220.58,10.81h-.5c-.28,0-.5-.22-.5-.5s.22-.5.5-.5h.5c.28,0,.5.22.5.5s-.22.5-.5.5ZM217.08,10.81h-.5c-.28,0-.5-.22-.5-.5s.22-.5.5-.5h.5c.28,0,.5.22.5.5s-.22.5-.5.5ZM213.58,10.81h-.5c-.28,0-.5-.22-.5-.5s.22-.5.5-.5h.5c.28,0,.5.22.5.5s-.22.5-.5.5ZM210.08,10.81h-.5c-.28,0-.5-.22-.5-.5s.22-.5.5-.5h.5c.28,0,.5.22.5.5s-.22.5-.5.5Z"/>
      <path class="cls-1" d="M185.06,20.62c-.15,0-.3-.05-.41-.17-2.79-2.66-4.33-6.25-4.33-10.11s1.61-7.55,4.41-10.18c.24-.23.62-.21.85.03.23.24.21.62-.03.85-2.6,2.44-4.03,5.75-4.03,9.31s1.41,6.81,3.96,9.24c.24.23.25.61.02.85-.12.12-.28.19-.43.19Z"/>
      <path class="cls-1" d="M180.91,10.85h-.5c-.28,0-.5-.22-.5-.5s.22-.5.5-.5h.5c.28,0,.5.22.5.5s-.22.5-.5.5ZM177.41,10.85h-.5c-.28,0-.5-.22-.5-.5s.22-.5.5-.5h.5c.28,0,.5.22.5.5s-.22.5-.5.5ZM173.91,10.85h-.5c-.28,0-.5-.22-.5-.5s.22-.5.5-.5h.5c.28,0,.5.22.5.5s-.22.5-.5.5ZM170.41,10.85h-.5c-.28,0-.5-.22-.5-.5s.22-.5.5-.5h.5c.28,0,.5.22.5.5s-.22.5-.5.5ZM166.91,10.85h-.5c-.28,0-.5-.22-.5-.5s.22-.5.5-.5h.5c.28,0,.5.22.5.5s-.22.5-.5.5ZM163.41,10.85h-.5c-.28,0-.5-.22-.5-.5s.22-.5.5-.5h.5c.28,0,.5.22.5.5s-.22.5-.5.5ZM159.91,10.85h-.5c-.28,0-.5-.22-.5-.5s.22-.5.5-.5h.5c.28,0,.5.22.5.5s-.22.5-.5.5ZM156.41,10.85h-.5c-.28,0-.5-.22-.5-.5s.22-.5.5-.5h.5c.28,0,.5.22.5.5s-.22.5-.5.5ZM152.91,10.85h-.5c-.28,0-.5-.22-.5-.5s.22-.5.5-.5h.5c.28,0,.5.22.5.5s-.22.5-.5.5ZM149.41,10.85h-.5c-.28,0-.5-.22-.5-.5s.22-.5.5-.5h.5c.28,0,.5.22.5.5s-.22.5-.5.5ZM145.91,10.85h-.5c-.28,0-.5-.22-.5-.5s.22-.5.5-.5h.5c.28,0,.5.22.5.5s-.22.5-.5.5ZM142.41,10.85h-.5c-.28,0-.5-.22-.5-.5s.22-.5.5-.5h.5c.28,0,.5.22.5.5s-.22.5-.5.5ZM138.91,10.85h-.5c-.28,0-.5-.22-.5-.5s.22-.5.5-.5h.5c.28,0,.5.22.5.5s-.22.5-.5.5ZM135.41,10.85h-.5c-.28,0-.5-.22-.5-.5s.22-.5.5-.5h.5c.28,0,.5.22.5.5s-.22.5-.5.5ZM131.91,10.85h-.5c-.28,0-.5-.22-.5-.5s.22-.5.5-.5h.5c.28,0,.5.22.5.5s-.22.5-.5.5ZM128.41,10.85h-.5c-.28,0-.5-.22-.5-.5s.22-.5.5-.5h.5c.28,0,.5.22.5.5s-.22.5-.5.5ZM124.91,10.85h-.5c-.28,0-.5-.22-.5-.5s.22-.5.5-.5h.5c.28,0,.5.22.5.5s-.22.5-.5.5ZM121.41,10.85h-.5c-.28,0-.5-.22-.5-.5s.22-.5.5-.5h.5c.28,0,.5.22.5.5s-.22.5-.5.5ZM117.91,10.85h-.5c-.28,0-.5-.22-.5-.5s.22-.5.5-.5h.5c.28,0,.5.22.5.5s-.22.5-.5.5ZM114.41,10.85h-.5c-.28,0-.5-.22-.5-.5s.22-.5.5-.5h.5c.28,0,.5.22.5.5s-.22.5-.5.5ZM110.91,10.85h-.5c-.28,0-.5-.22-.5-.5s.22-.5.5-.5h.5c.28,0,.5.22.5.5s-.22.5-.5.5ZM107.41,10.85h-.5c-.28,0-.5-.22-.5-.5s.22-.5.5-.5h.5c.28,0,.5.22.5.5s-.22.5-.5.5ZM103.91,10.85h-.5c-.28,0-.5-.22-.5-.5s.22-.5.5-.5h.5c.28,0,.5.22.5.5s-.22.5-.5.5ZM100.41,10.85h-.5c-.28,0-.5-.22-.5-.5s.22-.5.5-.5h.5c.28,0,.5.22.5.5s-.22.5-.5.5ZM96.91,10.85h-.5c-.28,0-.5-.22-.5-.5s.22-.5.5-.5h.5c.28,0,.5.22.5.5s-.22.5-.5.5ZM93.41,10.85h-.5c-.28,0-.5-.22-.5-.5s.22-.5.5-.5h.5c.28,0,.5.22.5.5s-.22.5-.5.5ZM89.91,10.85h-.5c-.28,0-.5-.22-.5-.5s.22-.5.5-.5h.5c.28,0,.5.22.5.5s-.22.5-.5.5ZM86.41,10.85h-.5c-.28,0-.5-.22-.5-.5s.22-.5.5-.5h.5c.28,0,.5.22.5.5s-.22.5-.5.5ZM82.91,10.85h-.5c-.28,0-.5-.22-.5-.5s.22-.5.5-.5h.5c.28,0,.5.22.5.5s-.22.5-.5.5ZM79.41,10.85h-.5c-.28,0-.5-.22-.5-.5s.22-.5.5-.5h.5c.28,0,.5.22.5.5s-.22.5-.5.5ZM75.91,10.85h-.5c-.28,0-.5-.22-.5-.5s.22-.5.5-.5h.5c.28,0,.5.22.5.5s-.22.5-.5.5ZM72.41,10.85h-.5c-.28,0-.5-.22-.5-.5s.22-.5.5-.5h.5c.28,0,.5.22.5.5s-.22.5-.5.5ZM68.91,10.85h-.5c-.28,0-.5-.22-.5-.5s.22-.5.5-.5h.5c.28,0,.5.22.5.5s-.22.5-.5.5ZM65.41,10.85h-.5c-.28,0-.5-.22-.5-.5s.22-.5.5-.5h.5c.28,0,.5.22.5.5s-.22.5-.5.5ZM61.91,10.85h-.5c-.28,0-.5-.22-.5-.5s.22-.5.5-.5h.5c.28,0,.5.22.5.5s-.22.5-.5.5ZM58.41,10.85h-.5c-.28,0-.5-.22-.5-.5s.22-.5.5-.5h.5c.28,0,.5.22.5.5s-.22.5-.5.5ZM54.91,10.85h-.5c-.28,0-.5-.22-.5-.5s.22-.5.5-.5h.5c.28,0,.5.22.5.5s-.22.5-.5.5ZM51.41,10.85h-.5c-.28,0-.5-.22-.5-.5s.22-.5.5-.5h.5c.28,0,.5.22.5.5s-.22.5-.5.5ZM47.91,10.85h-.5c-.28,0-.5-.22-.5-.5s.22-.5.5-.5h.5c.28,0,.5.22.5.5s-.22.5-.5.5ZM44.41,10.85h-.5c-.28,0-.5-.22-.5-.5s.22-.5.5-.5h.5c.28,0,.5.22.5.5s-.22.5-.5.5ZM40.91,10.85h-.5c-.28,0-.5-.22-.5-.5s.22-.5.5-.5h.5c.28,0,.5.22.5.5s-.22.5-.5.5ZM37.41,10.85h-.5c-.28,0-.5-.22-.5-.5s.22-.5.5-.5h.5c.28,0,.5.22.5.5s-.22.5-.5.5ZM33.91,10.85h-.5c-.28,0-.5-.22-.5-.5s.22-.5.5-.5h.5c.28,0,.5.22.5.5s-.22.5-.5.5ZM30.41,10.85h-.5c-.28,0-.5-.22-.5-.5s.22-.5.5-.5h.5c.28,0,.5.22.5.5s-.22.5-.5.5ZM26.91,10.85h-.5c-.28,0-.5-.22-.5-.5s.22-.5.5-.5h.5c.28,0,.5.22.5.5s-.22.5-.5.5ZM23.41,10.85h-.5c-.28,0-.5-.22-.5-.5s.22-.5.5-.5h.5c.28,0,.5.22.5.5s-.22.5-.5.5ZM19.91,10.85h-.5c-.28,0-.5-.22-.5-.5s.22-.5.5-.5h.5c.28,0,.5.22.5.5s-.22.5-.5.5ZM16.41,10.85h-.5c-.28,0-.5-.22-.5-.5s.22-.5.5-.5h.5c.28,0,.5.22.5.5s-.22.5-.5.5ZM12.91,10.85h-.5c-.28,0-.5-.22-.5-.5s.22-.5.5-.5h.5c.28,0,.5.22.5.5s-.22.5-.5.5ZM9.41,10.85h-.5c-.28,0-.5-.22-.5-.5s.22-.5.5-.5h.5c.28,0,.5.22.5.5s-.22.5-.5.5ZM5.91,10.85h-.5c-.28,0-.5-.22-.5-.5s.22-.5.5-.5h.5c.28,0,.5.22.5.5s-.22.5-.5.5ZM2.41,10.85h-.5c-.28,0-.5-.22-.5-.5s.22-.5.5-.5h.5c.28,0,.5.22.5.5s-.22.5-.5.5Z"/>
      <path class="cls-1" d="M195.67,29.33c-10.47,0-18.99-8.52-18.99-18.99,0-.14.11-.25.25-.25s.25.11.25.25c0,10.19,8.29,18.49,18.49,18.49s18.49-8.29,18.49-18.49c0-.14.11-.25.25-.25s.25.11.25.25c0,10.47-8.52,18.99-18.99,18.99Z"/>
    </g>
  </g>
</svg>