<?xml version="1.0" encoding="UTF-8"?>
<svg id="Layer_2" data-name="Layer 2" xmlns="http://www.w3.org/2000/svg" viewBox="0 0 390.44 76.53">
  <defs>
    <style>
      .cls-1 {
        fill: #bfb47b;
      }
    </style>
  </defs>
  <g id="Layer_1-2" data-name="Layer 1">
    <g>
      <path class="cls-1" d="M195.02,56.38c-11.99,0-21.74-9.75-21.74-21.74,0-3.51.81-6.86,2.42-9.97.11-.22.37-.32.6-.25.23.08.38.31.34.55-.15.96-.23,1.94-.23,2.91,0,10.26,8.35,18.61,18.61,18.61s18.61-8.35,18.61-18.61c0-.97-.08-1.94-.23-2.91-.04-.24.11-.48.34-.55.23-.08.49.03.6.25,1.61,3.11,2.42,6.46,2.42,9.97,0,11.99-9.75,21.74-21.74,21.74ZM175.4,27.86c-.75,2.16-1.13,4.43-1.13,6.77,0,11.44,9.31,20.74,20.74,20.74s20.74-9.31,20.74-20.74c0-2.34-.38-4.6-1.13-6.77v.02c0,10.81-8.8,19.61-19.61,19.61s-19.61-8.8-19.61-19.61v-.02Z"/>
      <path class="cls-1" d="M195.02,60.87c-14.22,0-25.79-11.57-25.79-25.79,0-4.16.97-8.14,2.87-11.82.06-.12.22-.17.34-.11.12.06.17.21.11.34-1.87,3.62-2.82,7.52-2.82,11.59,0,13.95,11.35,25.29,25.29,25.29s25.29-11.35,25.29-25.29c0-4.08-.95-7.98-2.82-11.59-.06-.12-.02-.27.11-.34.12-.06.27-.02.34.11,1.91,3.69,2.87,7.67,2.87,11.82,0,14.22-11.57,25.79-25.79,25.79Z"/>
      <path class="cls-1" d="M195.02,52.41c-13.28,0-21.24-12.69-21.24-17.77,0,11.73,9.51,21.24,21.24,21.24s21.24-9.51,21.24-21.24c0,4.05-7.85,17.77-21.24,17.77Z"/>
      <path class="cls-1" d="M196.26,31.41l-1.24,6.81-1.24-6.81c-.32-2.8-2.47-5.04-5.25-5.5l-6.16-1.01,6.16-1.02c2.78-.46,4.92-2.7,5.25-5.5l1.24-6.81,1.24,6.81c.32,2.8,2.47,5.04,5.25,5.5l6.16,1.02-6.16,1.01c-2.78.46-4.92,2.7-5.25,5.5Z"/>
      <path class="cls-1" d="M159.18,37.96l-.69,3.77-.69-3.77c-.18-1.55-1.36-2.79-2.9-3.04l-3.41-.56,3.41-.56c1.54-.25,2.72-1.5,2.9-3.04l.69-3.77.69,3.77c.18,1.55,1.36,2.79,2.9,3.04l3.41.56-3.41.56c-1.54.25-2.72,1.5-2.9,3.04Z"/>
      <path class="cls-1" d="M232.45,38l-.69,3.77-.69-3.77c-.18-1.55-1.36-2.79-2.9-3.04l-3.41-.56,3.41-.56c1.54-.25,2.72-1.5,2.9-3.04l.69-3.77.69,3.77c.18,1.55,1.36,2.79,2.9,3.04l3.41.56-3.41.56c-1.54.25-2.72,1.5-2.9,3.04Z"/>
      <path class="cls-1" d="M195.02,56.48c-12.04,0-21.84-9.8-21.84-21.84,0-3.52.82-6.89,2.43-10.01.14-.26.44-.39.72-.29.28.09.45.37.41.66-.15.96-.23,1.93-.23,2.89,0,10.21,8.3,18.51,18.51,18.51s18.51-8.3,18.51-18.51c0-.96-.08-1.93-.23-2.89-.05-.29.13-.57.41-.66.28-.09.58.03.72.29,1.61,3.12,2.43,6.49,2.43,10.01,0,12.04-9.8,21.84-21.84,21.84ZM175.31,28.46c-.62,1.98-.94,4.05-.94,6.17,0,11.38,9.26,20.64,20.64,20.64s20.64-9.26,20.64-20.64c0-2.12-.32-4.19-.94-6.17-.31,10.6-9.03,19.13-19.7,19.13s-19.4-8.53-19.7-19.13Z"/>
      <path class="cls-1" d="M195,60.87c-14.22,0-25.79-11.57-25.79-25.79,0-4.16.97-8.14,2.87-11.82.06-.12.22-.17.34-.11.12.06.17.21.11.34-1.87,3.61-2.82,7.52-2.82,11.59,0,13.95,11.35,25.29,25.29,25.29s25.29-11.35,25.29-25.29c0-4.08-.95-7.98-2.82-11.59-.06-.12-.02-.27.11-.34.12-.06.27-.02.34.11,1.91,3.69,2.87,7.66,2.87,11.82,0,14.22-11.57,25.79-25.79,25.79Z"/>
      <path class="cls-1" d="M195.02,52.41c-13.28,0-21.24-12.69-21.24-17.77,0,11.73,9.51,21.24,21.24,21.24s21.24-9.51,21.24-21.24c0,4.05-7.85,17.77-21.24,17.77Z"/>
      <path class="cls-1" d="M196.26,31.41l-1.24,6.81-1.24-6.81c-.32-2.8-2.47-5.04-5.25-5.5l-6.16-1.01,6.16-1.02c2.78-.46,4.92-2.7,5.25-5.5l1.24-6.81,1.24,6.81c.32,2.8,2.47,5.04,5.25,5.5l6.16,1.02-6.16,1.01c-2.78.46-4.92,2.7-5.25,5.5Z"/>
      <path class="cls-1" d="M196.16,75.38c0,.63-.51,1.14-1.14,1.14s-1.14-.51-1.14-1.14.51-1.14,1.14-1.14,1.14.51,1.14,1.14Z"/>
      <path class="cls-1" d="M147.02,35.06H18.63c-.33,0-.6-.27-.6-.6s.27-.6.6-.6h128.39c.33,0,.6.27.6.6s-.27.6-.6.6Z"/>
      <path class="cls-1" d="M138.15,30.7H18.63c-.14,0-.25-.11-.25-.25s.11-.25.25-.25h119.52c.14,0,.25.11.25.25s-.11.25-.25.25Z"/>
      <path class="cls-1" d="M138.15,38.71H18.63c-.14,0-.25-.11-.25-.25s.11-.25.25-.25h119.52c.14,0,.25.11.25.25s-.11.25-.25.25Z"/>
      <path class="cls-1" d="M372.57,34.99h-129.6c-.33,0-.6-.27-.6-.6s.27-.6.6-.6h129.6c.33,0,.6.27.6.6s-.27.6-.6.6Z"/>
      <path class="cls-1" d="M372.57,30.64h-120.64c-.14,0-.25-.11-.25-.25s.11-.25.25-.25h120.64c.14,0,.25.11.25.25s-.11.25-.25.25Z"/>
      <path class="cls-1" d="M372.57,38.65h-120.64c-.14,0-.25-.11-.25-.25s.11-.25.25-.25h120.64c.14,0,.25.11.25.25s-.11.25-.25.25Z"/>
      <path class="cls-1" d="M195.02,7.9c-.14,0-.25-.11-.25-.25V.25c0-.14.11-.25.25-.25s.25.11.25.25v7.4c0,.14-.11.25-.25.25Z"/>
      <path class="cls-1" d="M158.49,23.48c-.14,0-.25-.11-.25-.25v-7.4c0-.14.11-.25.25-.25s.25.11.25.25v7.4c0,.14-.11.25-.25.25Z"/>
      <path class="cls-1" d="M158.49,53.14c-.14,0-.25-.11-.25-.25v-7.4c0-.14.11-.25.25-.25s.25.11.25.25v7.4c0,.14-.11.25-.25.25Z"/>
      <path class="cls-1" d="M231.77,23.48c-.14,0-.25-.11-.25-.25v-7.4c0-.14.11-.25.25-.25s.25.11.25.25v7.4c0,.14-.11.25-.25.25Z"/>
      <path class="cls-1" d="M231.77,53.14c-.14,0-.25-.11-.25-.25v-7.4c0-.14.11-.25.25-.25s.25.11.25.25v7.4c0,.14-.11.25-.25.25Z"/>
      <path class="cls-1" d="M384.13,38.03l-.69,3.77-.69-3.77c-.18-1.55-1.36-2.79-2.9-3.04l-3.41-.56,3.41-.56c1.54-.25,2.72-1.5,2.9-3.04l.69-3.77.69,3.77c.18,1.55,1.36,2.79,2.9,3.04l3.41.56-3.41.56c-1.54.25-2.72,1.5-2.9,3.04Z"/>
      <path class="cls-1" d="M383.44,23.51c-.14,0-.25-.11-.25-.25v-7.4c0-.14.11-.25.25-.25s.25.11.25.25v7.4c0,.14-.11.25-.25.25Z"/>
      <path class="cls-1" d="M383.44,53.17c-.14,0-.25-.11-.25-.25v-7.4c0-.14.11-.25.25-.25s.25.11.25.25v7.4c0,.14-.11.25-.25.25Z"/>
      <path class="cls-1" d="M7.68,38.03l-.69,3.77-.69-3.77c-.18-1.55-1.36-2.79-2.9-3.04l-3.41-.56,3.41-.56c1.54-.25,2.72-1.5,2.9-3.04l.69-3.77.69,3.77c.18,1.55,1.36,2.79,2.9,3.04l3.41.56-3.41.56c-1.54.25-2.72,1.5-2.9,3.04Z"/>
      <path class="cls-1" d="M7,23.51c-.14,0-.25-.11-.25-.25v-7.4c0-.14.11-.25.25-.25s.25.11.25.25v7.4c0,.14-.11.25-.25.25Z"/>
      <path class="cls-1" d="M7,53.17c-.14,0-.25-.11-.25-.25v-7.4c0-.14.11-.25.25-.25s.25.11.25.25v7.4c0,.14-.11.25-.25.25Z"/>
      <path class="cls-1" d="M195.02,75.63c-.14,0-.25-.11-.25-.25v-14.76c0-.14.11-.25.25-.25s.25.11.25.25v14.76c0,.14-.11.25-.25.25Z"/>
    </g>
  </g>
</svg>