<?xml version="1.0" encoding="UTF-8"?>
<svg id="Layer_2" data-name="Layer 2" xmlns="http://www.w3.org/2000/svg" viewBox="0 0 178.52 503.28">
  <defs>
    <style>
      .cls-1 {
        fill: #bfb47b;
      }
    </style>
  </defs>
  <g id="Layer_1-2" data-name="Layer 1">
    <g id="b">
      <g id="c">
        <path class="cls-1" d="M108.55,503.28c-.67,0-1.28-.45-1.45-1.13-3.47-13.63-23.76-39.78-43.38-65.07-19.81-25.54-38.52-49.66-42.44-63.29-7.16-24.93-9.39-51.32-11.56-76.84-.53-6.26-1.08-12.73-1.69-19.04-1.98-20.48-3.63-37.55-5.25-55.32-.25-2.77-.55-5.56-.85-8.35-.77-7.22-1.57-14.68-1.58-22,0-1.59-.09-3.16-.18-4.68-.39-6.91-.8-14.05,6.93-24.33,2.52-3.36,4.62-6.5,6.65-9.55,3.26-4.9,6.24-9.38,10.25-13.57.02-.21.08-.41.19-.61.33-.58,32.64-57.75,38.49-74.24,1.97-5.55,5.07-13.46,8.36-21.84,6.68-17.01,14.25-36.29,14.79-42.06.06-.62.5-1.14,1.1-1.31.6-.17,1.25.07,1.61.58.19.27.49.62.87,1.06,4.12,4.86,16.11,19.01,5.75,47.24,3.43-3.99,6.97-8.09,9.77-11.32,2.53-2.93,4.73-5.47,5.07-5.89.16-.24.39-.43.67-.55.64-.27,1.4-.04,1.81.52.12.16,9.35,13.94,3.65,28.8,4.21-3.71,7.84-6.71,10.24-8.32.36-.24.8-.31,1.21-.2.41.11.76.39.96.77,4.98,9.83,4.19,21.57-2.18,32.2-3.87,6.46-15.14,17.34-21.63,23.35,13.64-4.05,26.78-7.96,27.79-8.29.36-.14.77-.14,1.14.01.41.17.72.52.85.93,1.05,2.6,3.16,11.63-10.44,24.38-12.54,11.76-23.35,13.56-28.55,14.42-1.13.19-2.02.34-2.56.52-.84.28-1.89.62-3.12,1.01-3.83,1.22-9.61,3.06-16.56,5.74-.82.31-1.59.61-2.34.91.07.83.14,1.86.23,3.04.71,9.83,2.39,32.85,9.04,42.59,3.42,4.81,6.3,9.44,8.59,13.81.88-7.1.74-14.28.62-20.36-.09-4.77-.18-8.9.2-12.13,1.39-10.65,6-19.79,13.7-27.2.24-1.16,1.45-1.48,2.73-1.83.31-.08.6-.16.8-.23,2.14-.83,4.19-1.2,6.09-1.12,4.29.19,7.37,2.8,8.66,7.36.28.99.48,2.07.59,3.21.15,1.54-.04,3.07-.21,4.56-.08.7-.17,1.41-.22,2.12-1.05,15.74-1.59,24.98-1.67,28.27h0c-.02,1.03-.07,2.4-.12,4.04-.34,10.89-1.04,33.56.67,46.42,1.66,12.43-.34,25.37-2.71,38.64-.46,2.58-.95,5.24-1.46,8.01l-.93,5.06c-3.02,16.51-21.93,46.36-30.8,59.7,26.11,58.42,92.26,91.06,92.93,91.38.75.36,1.06,1.26.69,2-.36.75-1.26,1.06-2,.69-.67-.33-66.53-32.82-93.59-91.15-1.45,2.14-2.38,3.48-2.59,3.77-.47.68-1.41.84-2.09.37-.68-.48-.84-1.41-.37-2.09.06-.09,1.48-2.12,3.7-5.45.03-.53.34-1.02.84-1.26,8.77-13.24,27.44-42.76,30.32-58.5l.93-5.07c.51-2.76,1-5.42,1.46-8,2.33-13.03,4.29-25.71,2.69-37.71-1.74-13.1-1.04-35.93-.7-46.91.05-1.63.09-2.99.12-4.02h0c.08-3.33.63-12.62,1.68-28.4.05-.76.14-1.52.23-2.28.16-1.39.32-2.7.21-3.92-.09-.96-.25-1.87-.49-2.68-.95-3.36-2.88-5.05-5.91-5.19-1.49-.07-3.12.24-4.87.92-.27.11-.68.22-1.11.33-.16.04-.37.1-.56.15-.08.15-.18.29-.31.41-7.53,7.01-12.02,15.74-13.36,25.93-.34,2.88-.28,6.68-.19,11.09.07.07.13.16.19.25,1.36,2.24,7.5,6.06,9.23,6.64.06.02.19.07.37.14,1.79.67,2.56.88,2.9.94.43-.14.93-.07,1.32.21.67.48.82,1.42.34,2.09-.86,1.19-2.37.78-5.62-.44l-.28-.1c-1.54-.52-5.57-2.87-8.37-5.27.17,12.3-.34,27.67-8.47,38.8-.49.67-1.43.81-2.1.33-.67-.49-.81-1.43-.33-2.1,3.3-4.52,5.26-9.89,6.4-15.48-.1-.11-.18-.23-.24-.37-2.42-5.15-5.79-10.77-10-16.71-7.13-10.44-8.78-33.17-9.57-44.09-.05-.75-.1-1.44-.15-2.06-5.8,2.52-10.32,5.57-18.61,14.76-9.92,11.01-13.99,20.12-12.08,27.09,1.84,6.71,5.19,9.87,12.6,16.38l.23.2c7.77,6.82,19.52,17.12,21.47,37.43,1.87,19.46,2.57,26.75-12.4,52.9-.41.72-1.33.97-2.05.56-.72-.41-.97-1.33-.56-2.05,14.5-25.32,13.87-31.82,12.02-51.12-1.84-19.12-12.6-28.57-20.46-35.46l-.23-.2c-7.09-6.22-11.37-9.98-13.52-17.84-2.19-8.02,2.09-18.07,12.75-29.89,10.63-11.79,15.35-13.93,25.01-17.66,7.03-2.71,12.87-4.57,16.73-5.8,1.21-.39,2.25-.72,3.08-.99.76-.26,1.76-.42,3.02-.63,5.28-.88,15.11-2.52,26.99-13.65,10.56-9.91,10.66-16.98,10.06-19.87-.36.11-.77.23-1.24.37-1.7.51-4.12,1.23-7.04,2.1-5.83,1.74-13.63,4.05-21.49,6.39-14.22,4.23-28.93,8.59-32.11,9.57-1.33.41-3.05.86-5.03,1.37-7.25,1.89-17.72,4.62-26.79,9.7-.55.43-1.05.8-1.48,1.12-3.1,2.31-5.28,3.72-6.79,4.58-6.01,5.07-9.7,10.61-13.86,16.86-2.05,3.08-4.17,6.27-6.75,9.69-7.07,9.4-6.71,15.69-6.33,22.35.09,1.56.18,3.18.18,4.85,0,7.16.8,14.54,1.56,21.68.3,2.76.6,5.61.86,8.4,1.62,17.76,3.27,34.84,5.25,55.31.61,6.33,1.16,12.81,1.69,19.08,2.15,25.38,4.37,51.62,11.45,76.27,3.75,13.07,23.16,38.09,41.92,62.28,19.81,25.53,40.29,51.94,43.92,66.17.2.8-.28,1.62-1.08,1.82-.12.03-.25.05-.37.05v.04ZM111.01,35.15c-.83.99-2.05,2.39-3.81,4.43-7.05,8.14-18.85,21.77-21.42,25.31-3.05,4.2-38.35,49.51-52.23,67.31,1.02-.67,2.08-1.3,3.15-1.91,9.89-7.62,38.26-31.07,42.11-34.6.87-.8,2.95-2.81,5.84-5.61,5.91-5.72,15.3-14.8,23.95-22.78,10.86-12.9,4.94-27.32,2.42-32.15h0ZM126.6,55.69c-8.99,6.67-29.65,26.67-39.87,36.56-2.9,2.81-5,4.84-5.9,5.66-2.97,2.73-20.38,17.18-32.84,27.25,6.15-2.29,12.08-3.83,16.42-4.97,1.95-.51,3.64-.95,4.91-1.34,2.94-.9,15.67-4.68,28.78-8.58,1.49-1.33,20.66-18.48,25.67-26.86,5.48-9.16,6.47-19.16,2.81-27.72h.02ZM88.21,4.92c-2,8.1-8.27,24.07-14.36,39.59-3.28,8.35-6.38,16.24-8.33,21.74-3.9,10.99-18.78,38.73-28.93,57.16,15.97-20.49,44.12-56.65,46.76-60.29,1.04-1.43,3.49-4.4,6.52-7.98-.17-.38-.18-.82,0-1.22,12.81-28.32,3.13-43.08-1.67-48.99h.01Z"/>
      </g>
    </g>
  </g>
</svg>