<?xml version="1.0" encoding="UTF-8"?>
<svg id="Layer_2" data-name="Layer 2" xmlns="http://www.w3.org/2000/svg" viewBox="0 0 93.29 233.59">
  <defs>
    <style>
      .cls-1 {
        fill: #bfb47b;
        fill-rule: evenodd;
      }
    </style>
  </defs>
  <g id="Layer_2-2" data-name="Layer 2">
    <g id="Layer_1-2" data-name="Layer 1-2">
      <path class="cls-1" d="M65.96,111.91c.17,0,.34-.04.49-.11.55-.27.78-.94.51-1.5-1.29-2.62-2.76-6.22-4.5-11.02-.21-.58-.86-.88-1.44-.67-.58.21-.88.85-.67,1.43,1.77,4.87,3.27,8.55,4.59,11.24.2.4.59.63,1.01.63h0ZM16.79,97.95c2.59,0,5.18-.95,7.1-2.72,8.75,8.64,18.26,17.4,20.43,19.39-.53,2.96-1.22,6.77-1.97,10.88-2.64,14.55-5.93,32.65-6.47,37.99-.48,4.71-1.15,11.47,3.27,17.16-.47,1.21-1.13,2.93-1.93,4.97-7.57-5.8-15.27-15.33-12.25-36.37.02-.11.01-.22,0-.33-2.89-18.32-8.67-33.83-16.26-43.68-1.39-1.81-2.15-3.94-2.18-6.17-.22-16.62-2.43-28.06-4.25-34.73-.14-.51,0-1.04.39-1.42.39-.38.94-.52,1.46-.37,4.72,1.37,8.62,4.47,11,8.74,3.37,6.05,7.38,14.45,8.14,21.3-.6.69-1.11,1.23-1.87,1.73-2.28,1.5-5.37,1.83-7.87.7-.56-.26-1.23,0-1.48.56-.26.56,0,1.23.56,1.48,1.32.6,2.74.89,4.17.89h.01ZM34.43,222.88c3.02-4.97,5.43-10.32,7.16-15.87.18-.59-.15-1.22-.74-1.4-.6-.19-1.22.15-1.4.74-1.69,5.45-4.06,10.68-7.04,15.55-2.6-1.36-4.58-2.76-5.59-4.12-.82-1.11-.63-1.76-.41-2.15,5.3-9.64,11.8-26.29,14.43-33.11,2.43,2.34,5.93,4.41,10.91,5.97.11.04.22.05.33.05.48,0,.92-.31,1.07-.79.19-.59-.14-1.22-.73-1.4-14.85-4.64-15.23-13.35-14.3-22.63.53-5.24,3.95-24.07,6.44-37.81,1.49-8.19,2.66-14.66,2.92-16.54.02-.18,0-.36-.05-.53-8.15-22.82-12.22-38.29-12.26-38.45l-5.56-16.58c-1.85-5.51-1.61-11.49.68-16.83.23-.54.72-.88,1.31-.92.61-.05,1.1.25,1.39.76l12.31,21.56c2.54,4.46,5.9,14.58,9.46,25.3.67,2.03,1.35,4.06,2.03,6.08.2.58.83.9,1.42.7.59-.2.9-.83.7-1.42-.68-2.02-1.35-4.05-2.02-6.08-3.59-10.82-6.99-21.05-9.64-25.7l-12.31-21.57c-.71-1.24-2.06-1.94-3.46-1.88-1.24.07-2.33.73-2.97,1.76-1.5-3.91-3.09-8.49-4.53-12.63l-.22-.62c-2.12-6.12-2.33-12.66-.61-18.91.21-.76.88-1.11,1.38-1.18.29-.04.99-.05,1.4.66,9.05,15.49,22.79,33.57,36.09,51.05l1.96,2.58c.99,1.3,1.8,2.75,2.43,4.31,3.83,9.6,7.18,18.17,10.15,25.78,5.27,13.5,9.44,24.16,12.92,31.97,1.18,2.65,1.7,5.47,1.53,8.37-1.63,27.72-7.25,62.89-16.26,101.69l-.32,1.38c-.09.4-.81.77-1.91,1.01-7.04,1.47-26.74-2.91-38.09-8.17v.02ZM59.64,198.68c2.34,0,4.68-.47,6.82-1.42.57-.25.82-.91.57-1.48-.25-.57-.92-.82-1.48-.57-4.64,2.07-10.33,1.5-14.49-1.44-.51-.36-1.21-.24-1.56.27-.36.5-.24,1.2.27,1.56,2.87,2.03,6.38,3.08,9.87,3.08ZM68.96,233.59c-12.86,0-38.78-7.53-43.94-14.48-1.46-1.97-1.12-3.57-.57-4.57,4.02-7.31,8.76-18.77,11.93-26.76-8.2-6.12-16.83-16.14-13.64-38.68-2.84-17.88-8.45-32.97-15.79-42.49-1.69-2.19-2.61-4.79-2.64-7.51-.22-16.39-2.39-27.63-4.17-34.17-.36-1.31,0-2.66.98-3.61.98-.96,2.34-1.3,3.66-.92,5.28,1.54,9.66,5.01,12.33,9.8,3.71,6.66,8.16,16.09,8.53,23.6,7.65,7.54,15.85,15.16,19.15,18.2.2-1.17.36-2.09.44-2.68-8.12-22.77-12.18-38.22-12.2-38.3l-5.54-16.5c-1.73-5.17-1.79-10.72-.19-15.88-1.77-4.35-3.72-9.97-5.44-14.95l-.22-.62c-2.28-6.55-2.5-13.55-.65-20.24.41-1.5,1.69-2.6,3.26-2.8,1.49-.19,2.88.48,3.63,1.75,8.98,15.37,22.68,33.39,35.93,50.82l1.96,2.58c1.11,1.46,2.03,3.09,2.73,4.84,3.83,9.6,7.18,18.18,10.16,25.8,5.26,13.47,9.42,24.11,12.88,31.87,1.33,2.98,1.91,6.15,1.72,9.41-1.64,27.84-7.28,63.14-16.31,102.07l-.32,1.37c-.31,1.35-1.53,2.26-3.64,2.7-1.11.23-2.47.34-4.02.34h-.01Z"/>
    </g>
  </g>
</svg>