<?xml version="1.0" encoding="UTF-8"?>
<svg id="Layer_2" xmlns="http://www.w3.org/2000/svg" version="1.1" viewBox="0 0 1704.6 1417.8">
  <g id="OBJESCT">
    <g>
      <path fill="#BFB47B" fill-rule="evenodd" d="M680.2,635.2c-2,.8-3.4,2.7-3.6,4.9-.2,2.2.8,4.3,2.6,5.5,24.4,16.4,32.5,19.8,45.6,38.6,5.6,8,10.3,21.2,11.6,23.7,2,3.9,5.5,3.7,6.3,3.6,1-.1,3.2-.6,4.7-3.2,1.4-2.3,5.1-14.1,14.5-29.2,11.5-18.3,35.4-33,39.5-36.1,4-3,2.8-7,2.5-7.5-.6-1.3-1.6-2.6-3.4-3.3-12.2-4.6-24.8-11.5-33.2-18.7-17.8-15.3-22.7-39.2-23.7-43.1-.8-3.2-2.8-4.2-3-4.3-1.8-1-3.4-.9-5-.4-1,.4-3,1.3-3.7,4.2-4.7,19.3-8.7,26.5-16,37.1-8.8,12.8-19.8,21.7-35.8,28.3h0ZM737.9,591.1c-3.3,8.9-7,14.9-12.2,22.4-8.2,12-18,20.9-31.3,28,19.6,13,27.6,18.1,40,35.8,2.6,3.7,5.3,9,7.5,13.7,2.4-5.2,5.8-11.7,10-18.4,9-14.3,24.8-26.7,34.6-33.8-10.2-4.7-19.8-10.6-26.8-16.6-10.8-9.3-17.6-21.3-21.7-31.2h0Z"/>
      <path fill="#BFB47B" fill-rule="evenodd" d="M897.5,1066.4c-2,.8-3.4,2.7-3.6,4.8-.2,2.2.8,4.3,2.6,5.5,24.4,16.4,32.5,19.8,45.6,38.6,5.6,8.1,10.3,21.2,11.6,23.7,2,3.9,5.5,3.7,6.3,3.6,1-.1,3.1-.6,4.7-3.2,1.4-2.3,5.1-14.1,14.5-29.2,11.5-18.4,35.4-33.1,39.5-36.1,4-3,2.8-7,2.5-7.6-.6-1.4-1.6-2.6-3.4-3.3-12.2-4.6-24.8-11.5-33.2-18.7-17.8-15.4-22.7-39.2-23.7-43.1-.8-3.2-2.8-4.2-3-4.3-1.8-1-3.4-.9-4.9-.3-1,.4-3,1.3-3.7,4.2-4.7,19.3-8.7,26.5-16,37.1-8.8,12.8-19.8,21.7-35.8,28.3h0ZM955.2,1022.4c-3.3,8.9-7,14.9-12.2,22.4-8.2,12-18,20.9-31.3,28,19.6,13,27.6,18.1,40,35.8,2.6,3.7,5.3,9,7.5,13.7,2.4-5.2,5.8-11.7,10-18.4,9-14.3,24.8-26.7,34.6-33.8-10.2-4.7-19.8-10.6-26.8-16.6-10.8-9.3-17.6-21.3-21.7-31.2h0Z"/>
      <path fill="#BFB47B" fill-rule="evenodd" d="M1024.3,706.5c-2,.8-3.4,2.7-3.6,4.9-.2,2.2.8,4.2,2.6,5.5,24.4,16.4,32.5,19.8,45.6,38.6,5.6,8,10.3,21.2,11.6,23.7,2,3.9,5.5,3.7,6.3,3.6,1-.1,3.2-.6,4.7-3.2,1.4-2.3,5.1-14.1,14.5-29.2,11.5-18.3,35.4-33,39.5-36.1,4-3,2.8-7,2.5-7.5-.6-1.3-1.6-2.6-3.4-3.3-12.2-4.6-24.8-11.5-33.2-18.7-17.8-15.3-22.7-39.2-23.7-43.1-.8-3.2-2.8-4.2-3.1-4.3-1.7-1-3.4-.9-4.9-.4-1,.4-3,1.3-3.7,4.2-4.7,19.3-8.7,26.5-16,37.1-8.8,12.8-19.8,21.7-35.8,28.3h0ZM1082,662.4c-3.3,8.9-7.1,14.9-12.2,22.4-8.2,12-18,20.9-31.3,28,19.6,13,27.6,18.1,40,35.8,2.6,3.7,5.3,9,7.5,13.7,2.4-5.2,5.8-11.7,10-18.4,9-14.3,24.8-26.7,34.6-33.8-10.2-4.7-19.8-10.6-26.8-16.6-10.8-9.3-17.6-21.3-21.7-31.2h0Z"/>
      <path fill="#BFB47B" fill-rule="evenodd" d="M768.6,871.5c-2,.8-3.4,2.7-3.6,4.9-.2,2.2.8,4.3,2.6,5.5,24.4,16.4,32.5,19.8,45.6,38.6,5.6,8,10.3,21.2,11.6,23.7,2,3.9,5.5,3.7,6.3,3.6,1-.1,3.2-.6,4.7-3.2,1.3-2.3,5.1-14.1,14.5-29.2,11.5-18.3,35.4-33,39.5-36.1,4-3,2.8-7,2.5-7.5-.6-1.4-1.6-2.6-3.4-3.3-12.2-4.6-24.8-11.5-33.2-18.7-17.8-15.3-22.7-39.2-23.7-43.1-.8-3.2-2.8-4.2-3-4.3-1.7-1-3.4-.9-4.9-.4-1,.4-3,1.3-3.7,4.2-4.7,19.3-8.7,26.5-16,37.1-8.8,12.8-19.7,21.7-35.8,28.3h0ZM826.3,827.5c-3.3,8.9-7,14.9-12.2,22.4-8.2,12-18,20.9-31.3,28,19.6,13,27.6,18.1,40,35.8,2.6,3.7,5.3,9,7.5,13.7,2.4-5.2,5.8-11.7,10-18.4,9-14.3,24.8-26.7,34.6-33.8-10.2-4.7-19.8-10.6-26.8-16.6-10.8-9.3-17.6-21.3-21.7-31.2h0Z"/>
      <path fill="#BFB47B" fill-rule="evenodd" d="M806.1,529c-2,.8-3.4,2.7-3.6,4.8-.2,2.2.8,4.3,2.6,5.5,14.3,9.6,19,11.5,26.7,22.4,3.3,4.7,6,12.4,6.8,13.9,2,3.8,5.4,3.5,6.1,3.4,1-.1,3-.5,4.6-3.1.8-1.4,3-8.4,8.7-17.4,6.7-10.7,20.7-19.2,23.1-20.9,3.9-2.9,2.5-6.8,2.3-7.3-.6-1.3-1.6-2.6-3.4-3.3-7.1-2.7-14.3-6.6-19.2-10.7-10.2-8.7-12.9-22.3-13.5-24.5-.8-3-2.7-3.9-3-4.1-1.7-1-3.4-.9-4.9-.4-1,.4-3,1.3-3.7,4.1-2.7,11.1-5,15.2-9.2,21.3-5,7.3-11.3,12.3-20.4,16.1h0ZM841.8,510.4c-1.6,3.2-3.4,6-5.6,9.2-4.4,6.4-9.6,11.4-16.2,15.5,9.8,6.5,14.5,10,21.4,19.9.9,1.2,1.7,2.7,2.6,4.3,1.1-2.2,2.5-4.6,4-7,4.4-7,12.3-13.8,18.2-18.5-5-2.6-9.6-5.5-13.1-8.5-4.9-4.2-8.6-9.7-11.3-14.9h0Z"/>
      <path fill="#BFB47B" fill-rule="evenodd" d="M856.2,654.8c-2,.8-3.4,2.7-3.6,4.9-.2,2.2.8,4.3,2.6,5.5,14.3,9.5,19,11.5,26.7,22.4,3.3,4.7,6.1,12.4,6.8,13.9,2,3.8,5.4,3.5,6.1,3.4,1-.1,3-.5,4.6-3.1.8-1.4,3-8.4,8.7-17.4,6.7-10.7,20.7-19.2,23.1-20.9,3.9-2.9,2.5-6.8,2.3-7.3-.6-1.4-1.6-2.6-3.4-3.2-7.1-2.7-14.3-6.6-19.2-10.8-10.2-8.7-12.9-22.3-13.4-24.5-.8-3-2.7-3.9-3-4.1-1.7-1-3.4-.9-4.9-.3-1,.4-3,1.3-3.7,4.1-2.7,11.1-5,15.2-9.2,21.3-5,7.3-11.3,12.3-20.4,16.1h0ZM891.9,636.2c-1.6,3.2-3.4,6-5.6,9.2-4.4,6.4-9.6,11.4-16.2,15.5,9.8,6.5,14.5,10,21.4,19.9.9,1.2,1.7,2.7,2.6,4.3,1.1-2.2,2.5-4.5,4-7,4.4-7,12.3-13.8,18.2-18.5-5-2.6-9.6-5.5-13.1-8.5-4.9-4.2-8.6-9.7-11.3-14.9h0Z"/>
      <path fill="#BFB47B" fill-rule="evenodd" d="M580.4,974.1c-2,.8-3.4,2.7-3.6,4.9s.8,4.3,2.6,5.5c14.3,9.6,19,11.5,26.7,22.4,3.3,4.7,6.1,12.4,6.8,13.9,2,3.8,5.4,3.5,6.1,3.4,1-.1,3-.5,4.6-3.1.8-1.4,3-8.4,8.7-17.4,6.7-10.7,20.7-19.2,23.1-20.9,3.9-2.9,2.5-6.8,2.3-7.3-.6-1.3-1.6-2.6-3.4-3.2-7.1-2.7-14.3-6.6-19.2-10.7-10.2-8.7-12.9-22.3-13.5-24.5-.8-3-2.7-3.9-3-4.1-1.7-1-3.4-.9-4.9-.4-1,.4-3,1.3-3.7,4.1-2.7,11.1-5,15.2-9.2,21.3-5,7.3-11.3,12.3-20.4,16.1h0ZM616.1,955.5c-1.6,3.2-3.4,6-5.6,9.2-4.4,6.4-9.6,11.4-16.2,15.5,9.8,6.5,14.5,10,21.4,19.9.8,1.2,1.7,2.7,2.6,4.3,1.1-2.2,2.5-4.5,4-7,4.4-7,12.3-13.8,18.2-18.5-5-2.6-9.6-5.5-13.1-8.5-4.9-4.2-8.6-9.7-11.3-14.9h0Z"/>
      <path fill="#BFB47B" fill-rule="evenodd" d="M1082.7,1009.2c-2,.8-3.4,2.7-3.6,4.9-.2,2.2.8,4.3,2.6,5.5,14.3,9.6,19.1,11.5,26.7,22.4,3.3,4.7,6.1,12.4,6.8,13.9,2,3.8,5.4,3.5,6.1,3.4,1-.1,3.1-.5,4.6-3.1.8-1.4,3.1-8.4,8.7-17.4,6.7-10.7,20.7-19.2,23.1-20.9,3.9-2.9,2.5-6.8,2.3-7.3-.6-1.3-1.6-2.6-3.4-3.2-7.1-2.7-14.3-6.6-19.2-10.8-10.2-8.7-12.9-22.3-13.5-24.5-.8-3-2.7-3.9-3-4.1-1.7-1-3.4-.9-4.9-.3-1,.4-3,1.3-3.7,4.1-2.7,11.1-5,15.2-9.2,21.3-5,7.3-11.3,12.3-20.4,16.1h0ZM1118.4,990.6c-1.6,3.2-3.4,6-5.6,9.2-4.4,6.4-9.6,11.4-16.2,15.5,9.8,6.5,14.5,10,21.4,19.9.8,1.2,1.7,2.7,2.6,4.3,1.1-2.2,2.5-4.6,4-7,4.4-6.9,12.3-13.8,18.2-18.5-5-2.6-9.6-5.5-13.1-8.5-4.9-4.2-8.6-9.7-11.3-14.9h0Z"/>
      <path fill="#BFB47B" fill-rule="evenodd" d="M635.3,867.9c-2,.8-3.4,2.7-3.6,4.9-.2,2.2.8,4.3,2.6,5.5,14.3,9.5,19,11.5,26.7,22.4,3.3,4.7,6,12.4,6.8,13.9,2,3.8,5.4,3.5,6.1,3.4,1-.1,3-.5,4.6-3.1.8-1.4,3-8.4,8.7-17.4,6.7-10.7,20.7-19.2,23.1-20.9,3.9-2.9,2.5-6.8,2.3-7.3-.6-1.4-1.6-2.6-3.4-3.2-7.1-2.7-14.3-6.6-19.2-10.8-10.2-8.7-12.9-22.3-13.5-24.5-.8-3-2.7-3.9-3-4.1-1.7-1-3.4-.9-4.9-.3-1,.4-3,1.3-3.7,4.1-2.7,11.1-5,15.2-9.2,21.3-5,7.3-11.3,12.3-20.4,16.1h0ZM671,849.3c-1.6,3.2-3.4,6-5.6,9.2-4.4,6.4-9.6,11.4-16.2,15.5,9.8,6.5,14.5,10,21.4,19.9.9,1.2,1.7,2.7,2.6,4.3,1.1-2.2,2.5-4.5,4-7,4.4-7,12.3-13.8,18.2-18.5-5-2.6-9.6-5.5-13.1-8.5-4.9-4.2-8.6-9.7-11.3-14.9h0Z"/>
      <path fill="#BFB47B" fill-rule="evenodd" d="M736.5,1145.6c-2,.8-3.4,2.7-3.6,4.9-.2,2.2.8,4.3,2.6,5.5,14.3,9.6,19,11.5,26.7,22.4,3.3,4.7,6,12.4,6.8,13.9,2,3.8,5.4,3.5,6.1,3.4,1-.1,3-.5,4.6-3.1.8-1.4,3-8.4,8.7-17.4,6.7-10.7,20.7-19.2,23.1-20.9,3.9-2.9,2.5-6.8,2.3-7.3-.6-1.3-1.6-2.6-3.4-3.2-7.1-2.7-14.3-6.6-19.2-10.7-10.2-8.7-12.9-22.3-13.5-24.5-.8-3-2.7-3.9-3-4.1-1.7-1-3.4-.9-4.9-.4-1,.4-3,1.3-3.7,4.1-2.7,11.1-5,15.2-9.2,21.3-5,7.3-11.3,12.3-20.4,16.1h0ZM772.2,1127.1c-1.6,3.2-3.4,6-5.6,9.2-4.4,6.4-9.6,11.4-16.2,15.5,9.8,6.5,14.5,10.1,21.4,19.9.9,1.2,1.7,2.7,2.6,4.3,1.1-2.2,2.5-4.6,4-6.9,4.4-7,12.3-13.8,18.2-18.5-5-2.6-9.6-5.5-13.1-8.6-4.9-4.2-8.6-9.7-11.3-14.9h0Z"/>
      <path fill="#BFB47B" fill-rule="evenodd" d="M1032.2,851.5c-8.5-.8-12.4,2.8-15,5.3-4.7,4.7-5.6,13.8-2.2,20.1,5.2,9.6,16.7,9.8,24,3.6,5.5-4.7,7-11.7,4.8-18.6-.8-2.7-3.6-9.8-11.6-10.5h0Z"/>
      <path fill="#BFB47B" fill-rule="evenodd" d="M964.8,880.1c-8.5-.8-12.4,2.8-15,5.3-4.7,4.7-5.6,13.8-2.2,20.1,5.2,9.6,16.7,9.8,24,3.6,5.5-4.7,7-11.7,4.8-18.6-.8-2.7-3.6-9.8-11.6-10.5h0Z"/>
      <path fill="#BFB47B" fill-rule="evenodd" d="M942.5,771.1c-8.5-.8-12.4,2.8-15,5.3-4.7,4.7-5.6,13.8-2.2,20.1,5.2,9.6,16.7,9.8,23.9,3.6,5.5-4.7,7-11.6,4.9-18.6-.8-2.7-3.6-9.8-11.6-10.5h0Z"/>
      <path fill="#BFB47B" fill-rule="evenodd" d="M990.2,602.4c-8.5-.8-12.4,2.8-15,5.3-4.7,4.7-5.6,13.8-2.2,20.1,5.2,9.6,16.7,9.8,24,3.6,5.5-4.7,7-11.6,4.8-18.6-.8-2.7-3.6-9.8-11.6-10.5h0Z"/>
      <path fill="#BFB47B" fill-rule="evenodd" d="M827.4,1033.3c-8.5-.8-12.4,2.8-15,5.3-4.7,4.7-5.6,13.8-2.2,20.1,5.2,9.6,16.7,9.8,23.9,3.6,5.5-4.7,7-11.7,4.8-18.6-.8-2.7-3.6-9.8-11.6-10.5h0Z"/>
      <path fill="#BFB47B" fill-rule="evenodd" d="M978.2,528c-8.5-.8-12.4,2.8-15,5.3-4.7,4.7-5.6,13.8-2.2,20.1,5.2,9.6,16.7,9.8,24,3.6,5.5-4.7,7-11.6,4.8-18.6-.8-2.7-3.6-9.8-11.6-10.5h0Z"/>
      <path fill="#BFB47B" fill-rule="evenodd" d="M740,769.3c-8.5-.8-12.4,2.8-15,5.3-4.7,4.7-5.6,13.8-2.2,20.1,5.2,9.6,16.7,9.8,24,3.6,5.5-4.7,7-11.7,4.8-18.6-.8-2.7-3.6-9.8-11.6-10.5h0Z"/>
      <path fill="#BFB47B" fill-rule="evenodd" d="M587.6,833c-8.5-.8-12.4,2.8-15,5.3-4.7,4.7-5.6,13.8-2.2,20.1,5.2,9.6,16.7,9.8,24,3.6,5.5-4.7,7-11.7,4.8-18.6-.8-2.7-3.6-9.8-11.6-10.5h0Z"/>
      <path fill="#BFB47B" fill-rule="evenodd" d="M726.7,988.6c-8.5-.8-12.4,2.8-15,5.3-4.7,4.7-5.6,13.8-2.2,20.1,5.2,9.6,16.7,9.8,24,3.6,5.5-4.7,7-11.7,4.8-18.6-.8-2.7-3.6-9.8-11.6-10.5h0Z"/>
      <path fill="#BFB47B" fill-rule="evenodd" d="M768,478.9c-8.5-.8-12.4,2.8-15,5.3-4.7,4.7-5.6,13.8-2.2,20.1,5.2,9.6,16.7,9.8,24,3.6,5.5-4.7,7-11.6,4.8-18.6-.8-2.7-3.6-9.8-11.6-10.5h0Z"/>
      <path fill="#BFB47B" fill-rule="evenodd" d="M629.1,685.4c-8.5-.8-12.4,2.8-15,5.3-4.7,4.7-5.6,13.8-2.2,20.1,5.2,9.6,16.7,9.8,23.9,3.6,5.5-4.7,7-11.6,4.9-18.6-.8-2.7-3.6-9.8-11.6-10.5h0Z"/>
      <path fill="#BFB47B" fill-rule="evenodd" d="M706.4,1042.4c-8.5-.8-12.4,2.8-15,5.3-4.7,4.7-5.6,13.8-2.2,20.1,5.2,9.6,16.7,9.8,24,3.6,5.5-4.7,7-11.7,4.8-18.6-.8-2.7-3.6-9.8-11.6-10.5h0Z"/>
      <path fill="#BFB47B" fill-rule="evenodd" d="M1059.3,1126.2c-8.5-.8-12.4,2.8-15,5.3-4.7,4.7-5.6,13.8-2.2,20.1,5.2,9.6,16.7,9.8,23.9,3.6,5.5-4.7,7-11.7,4.8-18.6-.8-2.7-3.6-9.8-11.6-10.5h0Z"/>
      <path fill="#BFB47B" fill-rule="evenodd" d="M637.3,538.9c-8.5-.8-12.4,2.8-15,5.3-4.7,4.7-5.6,13.8-2.2,20.1,5.2,9.5,16.7,9.8,23.9,3.6,5.5-4.7,7-11.7,4.9-18.6-.8-2.7-3.6-9.8-11.6-10.5h0Z"/>
      <path fill="#BFB47B" fill-rule="evenodd" d="M1181.3,641.7c-8.5-.8-12.4,2.8-15,5.3-4.7,4.7-5.6,13.8-2.2,20.1,5.2,9.6,16.7,9.8,23.9,3.6,5.5-4.7,7-11.7,4.8-18.6-.8-2.7-3.6-9.8-11.6-10.5h0Z"/>
      <path fill="#BFB47B" fill-rule="evenodd" d="M1172.5,898.9c-8.5-.8-12.4,2.8-15,5.3-4.7,4.7-5.6,13.8-2.2,20.1,5.2,9.6,16.7,9.8,23.9,3.6,5.5-4.7,7-11.7,4.8-18.6-.8-2.7-3.6-9.8-11.6-10.5h0Z"/>
      <path fill="#BFB47B" fill-rule="evenodd" d="M1176.7,809.1c-8.5-.8-12.4,2.8-15,5.3-4.7,4.7-5.6,13.8-2.2,20.1,5.2,9.6,16.7,9.8,23.9,3.6,5.5-4.7,7-11.7,4.8-18.6-.8-2.7-3.6-9.8-11.6-10.5h0Z"/>
      <path fill="#BFB47B" fill-rule="evenodd" d="M513.8,632.7c-25.3,39.8-43,87.2-52.3,136.5-.6,3.2,1.5,6.3,4.7,6.9,3.2.6,6.3-1.5,6.9-4.7,9.1-47.8,26.2-93.8,50.7-132.4,1.7-2.8.9-6.4-1.8-8.1-2.8-1.7-6.4-.9-8.1,1.8h0Z"/>
      <path fill="#BFB47B" fill-rule="evenodd" d="M454.4,879.3c4.6,72.6,28.1,140.3,72,185.4,2.3,2.3,6,2.4,8.3.1,2.3-2.3,2.4-6,.1-8.3-42.1-43.2-64.3-108.3-68.7-177.9-.2-3.2-3-5.7-6.2-5.5-3.2.2-5.7,3-5.5,6.2h0Z"/>
      <path fill="#BFB47B" fill-rule="evenodd" d="M954.2,336c2.9-15,65.6-276.7,79.1-328.6.8-3.2-1.1-6.4-4.2-7.2-3.2-.8-6.4,1.1-7.2,4.2-13.5,52-76.4,314.3-79.3,329.3-.6,3.2,1.5,6.3,4.7,6.9s6.3-1.5,6.9-4.6h0Z"/>
      <path fill="#BFB47B" fill-rule="evenodd" d="M669.5,366.6c-3.7-14.8-57.9-278.4-67.7-331.1-.6-3.2-3.7-5.3-6.9-4.7-3.2.6-5.3,3.7-4.7,6.9,9.8,52.8,64.2,317,67.9,331.8.8,3.2,4,5.1,7.2,4.3,3.2-.8,5.1-4,4.3-7.1h0Z"/>
      <path fill="#BFB47B" fill-rule="evenodd" d="M449.6,528c-11.1-10.4-199.8-202.4-236.6-241.3-2.2-2.4-6-2.5-8.3-.2-2.4,2.2-2.5,6-.2,8.3,36.9,39,226,231.4,237.1,241.8,2.4,2.2,6.1,2.1,8.3-.3,2.2-2.4,2.1-6.1-.3-8.3h0Z"/>
      <path fill="#BFB47B" fill-rule="evenodd" d="M335.7,772.5c-14.9-3-276.5-66.7-328.3-80.4-3.2-.8-6.4,1-7.2,4.2-.8,3.2,1,6.4,4.2,7.2,51.9,13.7,314,77.6,329,80.5,3.2.6,6.3-1.4,6.9-4.6.6-3.2-1.4-6.3-4.6-6.9h0Z"/>
      <path fill="#BFB47B" fill-rule="evenodd" d="M1200.3,437.5c10.3-11.2,201.3-200.9,240.1-237.9,2.3-2.2,2.4-6,.2-8.3-2.2-2.4-6-2.4-8.3-.2-38.8,37.1-230.2,227.2-240.6,238.4-2.2,2.4-2.1,6.1.3,8.3,2.4,2.2,6.1,2.1,8.3-.3h0Z"/>
      <path fill="#BFB47B" fill-rule="evenodd" d="M1371.3,650.1c14.7-4.2,276.3-67.3,328.7-78.8,3.2-.7,5.2-3.8,4.5-7-.7-3.2-3.8-5.2-7-4.5-52.5,11.6-314.7,74.8-329.4,79-3.1.9-4.9,4.2-4,7.3.9,3.1,4.2,4.9,7.3,4h0Z"/>
      <path fill="#BFB47B" fill-rule="evenodd" d="M1042.8,358.3c2.3-10.8,69.1-193.8,84.7-229.5,1.3-3,0-6.5-3-7.8s-6.5,0-7.8,3c-15.7,36-83.1,220.8-85.4,231.7-.7,3.2,1.3,6.3,4.5,7,3.2.7,6.3-1.3,7-4.5h0Z"/>
      <path fill="#BFB47B" fill-rule="evenodd" d="M755.8,343.6c-2.2-10.8-15.3-205.2-15.5-244.1,0-3.2-2.7-5.9-5.9-5.9-3.2,0-5.9,2.7-5.9,5.9.2,39.3,13.5,235.5,15.8,246.4.7,3.2,3.8,5.2,7,4.6,3.2-.7,5.2-3.8,4.6-7h0Z"/>
      <path fill="#BFB47B" fill-rule="evenodd" d="M516.2,460c-7.9-7.8-126.5-162.2-148.3-194.5-1.8-2.7-5.5-3.4-8.2-1.6-2.7,1.8-3.4,5.5-1.6,8.2,22,32.6,141.8,188.5,149.8,196.3,2.3,2.3,6,2.2,8.3,0,2.3-2.3,2.2-6,0-8.3h0Z"/>
      <path fill="#BFB47B" fill-rule="evenodd" d="M354,682.8c-10.8-2.5-192.7-72.2-228.1-88.3-3-1.3-6.4,0-7.8,2.9-1.3,3,0,6.5,2.9,7.8,35.8,16.3,219.4,86.5,230.3,89.1,3.2.7,6.3-1.2,7.1-4.4.7-3.2-1.2-6.3-4.4-7.1h0Z"/>
      <path fill="#BFB47B" fill-rule="evenodd" d="M333.8,960.1c-10.7,2.8-204,26.6-242.9,29-3.2.2-5.7,3-5.5,6.2.2,3.2,3,5.7,6.2,5.5,39.2-2.4,234.4-26.5,245.2-29.3,3.1-.8,5-4.1,4.2-7.2-.8-3.2-4.1-5-7.2-4.2h0Z"/>
      <path fill="#BFB47B" fill-rule="evenodd" d="M1272,497.8c7.5-8.1,158.4-131.3,190-154,2.7-1.9,3.2-5.6,1.4-8.2-1.9-2.6-5.6-3.2-8.2-1.4-31.9,22.9-184.2,147.3-191.8,155.5-2.2,2.4-2.1,6.1.3,8.3,2.4,2.2,6.1,2.1,8.3-.3h0Z"/>
      <path fill="#BFB47B" fill-rule="evenodd" d="M1402,736.8c10.7-3,203.8-28.3,242.6-31,3.2-.2,5.7-3,5.5-6.3-.2-3.2-3-5.7-6.3-5.5-39.2,2.7-234.2,28.4-244.9,31.4-3.1.9-5,4.1-4.1,7.2.9,3.1,4.1,5,7.2,4.1h0Z"/>
      <path fill="#BFB47B" fill-rule="evenodd" d="M1412.1,839.1c11.1-.6,205.2,15,243.7,20.6,3.2.5,6.2-1.8,6.7-5,.5-3.2-1.8-6.2-5-6.7-38.9-5.6-234.9-21.3-246.1-20.7-3.2.2-5.7,3-5.5,6.2.2,3.2,3,5.7,6.2,5.5h0Z"/>
      <path fill="#BFB47B" fill-rule="evenodd" d="M1127.8,393.1c3.5-8,84.1-138.9,101.9-164,1.9-2.6,1.2-6.3-1.4-8.2-2.7-1.9-6.3-1.2-8.2,1.4-18,25.4-99.5,158-103.1,166.1-1.3,3,0,6.5,3.1,7.8,3,1.3,6.5,0,7.8-3h0Z"/>
      <path fill="#BFB47B" fill-rule="evenodd" d="M866.2,333.3c-1.4-8.6-3.9-162.4-2.5-193.1.2-3.2-2.4-6-5.6-6.1-3.2-.1-6,2.4-6.2,5.6-1.5,31.1,1.2,186.8,2.6,195.5.5,3.2,3.5,5.4,6.8,4.9,3.2-.5,5.4-3.5,4.9-6.8h0Z"/>
      <path fill="#BFB47B" fill-rule="evenodd" d="M546.6,1409.4c-.7-4.3-.4-34.3-.6-78.6,0-3.2-2.7-5.9-5.9-5.9s-5.9,2.7-5.9,5.9c.2,45.3,0,76.1.7,80.4.5,3.2,3.6,5.4,6.8,4.9,3.2-.5,5.4-3.6,4.9-6.8h0Z"/>
      <path fill="#BFB47B" fill-rule="evenodd" d="M677.7,1409.1c-.7-4.3-.4-34.3-.6-78.6,0-3.2-2.7-5.9-5.9-5.9-3.2,0-5.9,2.7-5.9,5.9.2,45.3,0,76.1.7,80.4.5,3.2,3.6,5.4,6.8,4.9,3.2-.5,5.4-3.6,4.9-6.8h0Z"/>
      <path fill="#BFB47B" fill-rule="evenodd" d="M808.7,1408.8c-.7-4.3-.4-34.3-.6-78.6,0-3.2-2.7-5.9-5.9-5.9s-5.9,2.7-5.9,5.9c.2,45.3,0,76.1.7,80.4.5,3.2,3.5,5.4,6.8,4.9,3.2-.5,5.4-3.6,4.9-6.8h0Z"/>
      <path fill="#BFB47B" fill-rule="evenodd" d="M939.8,1408.5c-.7-4.3-.4-34.3-.6-78.6,0-3.2-2.7-5.9-5.9-5.9-3.2,0-5.9,2.7-5.9,5.9.2,45.3,0,76.1.7,80.4.5,3.2,3.6,5.4,6.8,4.9,3.2-.5,5.4-3.6,4.9-6.8h0Z"/>
      <path fill="#BFB47B" fill-rule="evenodd" d="M1070.8,1408.2c-.7-4.3-.4-34.3-.6-78.6,0-3.2-2.7-5.9-5.9-5.9s-5.9,2.7-5.9,5.9c.2,45.3,0,76.1.7,80.4.5,3.2,3.6,5.4,6.8,4.9,3.2-.5,5.4-3.6,4.9-6.8h0Z"/>
      <path fill="#BFB47B" fill-rule="evenodd" d="M1201.9,1407.9c-.7-4.3-.4-34.3-.6-78.6,0-3.2-2.7-5.9-5.9-5.9-3.2,0-5.9,2.7-5.9,5.9.2,45.3,0,76.1.7,80.4.5,3.2,3.6,5.4,6.8,4.9,3.2-.5,5.4-3.6,4.9-6.8h0Z"/>
      <path fill="#BFB47B" fill-rule="evenodd" d="M608.3,1409.3c-.7-4.3-.4-34.3-.6-78.6,0-3.2-2.7-5.9-5.9-5.9s-5.9,2.7-5.9,5.9c.2,45.3,0,76.1.7,80.4.5,3.2,3.5,5.4,6.8,4.9,3.2-.5,5.4-3.6,4.9-6.8h0Z"/>
      <path fill="#BFB47B" fill-rule="evenodd" d="M739.4,1409c-.7-4.3-.4-34.3-.6-78.6,0-3.2-2.7-5.9-5.9-5.9s-5.9,2.7-5.9,5.9c.2,45.3,0,76.1.7,80.4.5,3.2,3.6,5.4,6.8,4.9,3.2-.5,5.4-3.6,4.9-6.8h0Z"/>
      <path fill="#BFB47B" fill-rule="evenodd" d="M870.4,1408.7c-.7-4.3-.4-34.3-.6-78.6,0-3.2-2.7-5.9-5.9-5.9s-5.9,2.7-5.9,5.9c.2,45.3,0,76.1.7,80.4.5,3.2,3.6,5.4,6.8,4.9s5.4-3.6,4.9-6.8h0Z"/>
      <path fill="#BFB47B" fill-rule="evenodd" d="M1001.5,1408.4c-.7-4.3-.4-34.3-.6-78.6,0-3.2-2.7-5.9-5.9-5.9s-5.9,2.7-5.9,5.9c.2,45.3,0,76.1.7,80.4.5,3.2,3.5,5.4,6.8,4.9,3.2-.5,5.4-3.6,4.9-6.8h0Z"/>
      <path fill="#BFB47B" fill-rule="evenodd" d="M1132.5,1408.1c-.7-4.3-.4-34.3-.6-78.6,0-3.2-2.7-5.9-5.9-5.9-3.2,0-5.9,2.7-5.9,5.9.2,45.3,0,76.1.7,80.4.5,3.2,3.6,5.4,6.8,4.9,3.2-.5,5.4-3.6,4.9-6.8h0Z"/>
      <path fill="#BFB47B" fill-rule="evenodd" d="M590.8,405.2c-5.1-7.1-75.9-143.6-88.3-171.8-1.3-3-4.8-4.3-7.8-3-3,1.3-4.3,4.8-3,7.8,12.5,28.5,84.3,166.6,89.5,173.9,1.9,2.6,5.6,3.3,8.2,1.4,2.6-1.9,3.3-5.6,1.4-8.2h0Z"/>
      <path fill="#BFB47B" fill-rule="evenodd" d="M393.5,600c-7.9-3.8-135.5-89.6-159.9-108.3-2.6-2-6.3-1.5-8.3,1.1s-1.5,6.3,1.1,8.3c24.7,19,153.9,105.7,161.9,109.6,2.9,1.4,6.5.2,7.9-2.7,1.4-2.9.2-6.5-2.8-7.9h0Z"/>
      <path fill="#BFB47B" fill-rule="evenodd" d="M323.2,865.4c-8.7.8-162.3-7.1-192.8-10.6-3.2-.4-6.2,1.9-6.5,5.2-.4,3.2,2,6.2,5.2,6.5,30.9,3.6,186.4,11.4,195.2,10.6,3.2-.3,5.6-3.2,5.3-6.4-.3-3.2-3.2-5.6-6.4-5.3h0Z"/>
      <path fill="#BFB47B" fill-rule="evenodd" d="M1335.7,574.1c7-5.3,141.5-79.7,169.3-92.9,2.9-1.4,4.2-4.9,2.8-7.9-1.4-3-4.9-4.2-7.8-2.8-28.1,13.3-164.3,88.8-171.4,94.1-2.6,2-3.1,5.7-1.1,8.2,2,2.6,5.7,3.1,8.2,1.2h0Z"/>
      <path fill="#BFB47B" fill-rule="evenodd" d="M1402,927.5c8.6,1.5,154.7,49.7,183.2,61.1,3,1.2,6.5-.3,7.7-3.3,1.2-3-.3-6.5-3.3-7.7-28.9-11.6-176.8-60.2-185.5-61.8-3.2-.6-6.3,1.6-6.8,4.8-.6,3.2,1.6,6.3,4.8,6.8h0Z"/>
      <path fill="#BFB47B" fill-rule="evenodd" d="M616,1253.2c.8.4,1.7.7,2.7.7,97.7.9,477.9.2,498.2-1.5,1.6-.1,3.7-.8,6.2-2.1,4.1-2.1,9.8-6.4,16.7-12.3,37.1-31.9,109.8-114.8,135-163.8,110.9-216.1,60.1-492.4-163.7-622-171.9-99.5-420.4-68-568.9,57.2-76.9,64.8-140,171.7-155.2,266.7-55.3,345.4,216.2,470.5,228.9,477.1h0ZM620.1,1242.1c99.6.9,475.6.3,495.8-1.5,1.5-.1,3.7-1.8,6.8-4,6.3-4.5,14.8-12,24.4-21.4,38.3-37.1,95.7-104.4,117.2-146.5,108.1-210.6,59-480.1-159.1-606.4-167.9-97.2-410.4-66.3-555.4,56-74.8,63.1-136.3,167.1-151.1,259.6-52.6,328.5,198,452.4,221.4,464.1h0Z"/>
      <path fill="#BFB47B" fill-rule="evenodd" d="M457.3,796.7c-2.2,15.2-3.5,31.8-3.8,43.8,0,3.2,2.5,6,5.7,6.1,3.2,0,6-2.5,6.1-5.7.3-11.7,1.6-27.7,3.7-42.4.5-3.2-1.8-6.2-5-6.7-3.2-.5-6.2,1.8-6.7,5h0Z"/>
      <path fill="#BFB47B" fill-rule="evenodd" d="M606.5,1242.5c-12.3-.6-38.2-.3-40.5,0-1.6.2-4.6,1.5-5.9,5.8-1.3,4.2-2,15.7-2.2,28.9-.3,21.4.5,47.4,1.2,52.5.7,5.3,5.3,5.9,6,5.9,3.3,0,88.5-.3,120.2-.3,116.3,0,461.8-.9,485.6-1.7,1.1,0,2.3-.4,3.4-1.2.5-.4,2.2-2,2.7-5.5,1.1-8.8,1.2-53.3.2-72.2-.2-4.2-.6-7.3-.9-8.7-.3-1.4-.8-2.2-1.2-2.7-1.7-2.4-3.8-2.7-5.6-2.5-8.8,1.1-528.8,3.2-562.9,1.6h0ZM1165.1,1252.8c-57.7,1.1-526.9,3-559.2,1.5-9.5-.4-27.5-.4-35.1-.2-2.1,13.3-1.4,54.9-.5,69.7,19.5,0,87.3-.3,114.9-.3,111.1,0,431.4-.8,480.2-1.6.8-14.3.7-54.6-.3-69.1h0ZM1170.1,1252.7c.2,0,.5,0,.7,0-.1,0-.4,0-.7,0h0Z"/>
      <path fill="#BFB47B" fill-rule="evenodd" d="M538.1,1323.9c-15.3-.6-47.5-.3-50.4,0-1.4.2-2.9.7-4.1,2.1-1.1,1.2-2.6,4.1-3.3,8.7-2.3,14.6-1.8,52-.8,69,.3,5.9,1.1,9.9,1.4,10.6,1.5,3.1,3.9,3.4,5.4,3.4,4.2,0,111.1-.3,150.9-.3,146,0,579.9-.9,609.7-1.7,1.1,0,5.2-.8,6.1-6,1.3-6.9,1.6-42.3.8-64.3-.3-7.8-.7-14-1.2-16.8-.3-1.6-.8-2.7-1.1-3.2-1.7-2.9-4.1-3.3-5.9-3.1-11,1.1-664.6,3.2-707.4,1.6h0ZM1241.3,1334.2c-63.6,1.1-662.7,3-703.7,1.5-12.6-.5-36.9-.4-45.6-.1-2.7,13-1.8,55.6-.6,70.5,22.3,0,110.4-.3,145.8-.3,140.6,0,548.4-.9,604.6-1.6,1.1-14.3.9-55.5-.4-69.9h0Z"/>
    </g>
  </g>
</svg>