<?xml version='1.0' encoding='UTF-8'?>
<!DOCTYPE svg PUBLIC "-//W3C//DTD SVG 1.1//EN" "http://www.w3.org/Graphics/SVG/1.1/DTD/svg11.dtd">
<svg xmlns="http://www.w3.org/2000/svg" xmlns:xlink="http://www.w3.org/1999/xlink" version="1.1" viewBox="0 0 1024 1024" width="1024" height="1024">
<path d="M 302.07 691.27 C 299.65 691.77 297.27 692.14 294.90 692.86 C 284.40 696.00 275.72 704.74 272.52 715.21 C 270.00 722.83 270.50 731.12 270.46 739.06 C 270.56 749.10 273.83 758.94 280.26 766.71 C 286.24 773.29 294.20 776.56 302.80 778.19 C 296.58 792.01 291.03 806.12 284.95 820.00 C 279.30 820.04 273.65 819.95 267.99 819.99 C 249.55 820.56 232.48 835.67 229.85 853.96 C 229.28 856.95 228.96 859.95 228.98 862.99 C 229.04 874.67 228.92 886.36 229.07 898.04 C 229.41 906.59 233.15 914.80 240.67 919.30 C 244.77 921.93 249.24 922.38 253.98 922.64 C 423.65 922.66 593.33 922.63 763.00 922.65 C 769.87 922.75 776.37 923.09 782.60 919.62 C 790.85 915.20 795.01 906.10 795.03 897.01 C 795.01 884.34 794.99 871.67 795.03 859.00 C 795.60 842.91 784.32 827.83 769.34 822.51 C 759.17 818.79 749.88 820.29 739.24 820.01 C 733.50 806.07 727.64 792.16 721.57 778.36 C 730.86 776.33 740.27 771.99 745.86 764.00 C 750.60 757.26 753.06 749.20 753.30 740.99 C 753.44 729.54 754.18 718.95 748.27 708.64 C 743.06 698.90 733.00 692.78 722.14 691.54 C 733.38 682.90 743.88 672.90 753.79 662.78 C 764.56 652.19 774.23 640.46 783.38 628.45 C 819.63 579.05 841.37 519.04 845.86 457.98 C 846.20 448.28 847.35 438.76 846.84 429.03 C 846.23 418.69 845.83 408.37 844.55 398.08 C 841.28 373.78 836.22 349.97 828.07 326.82 C 817.83 296.98 803.58 268.38 785.65 242.42 C 774.68 226.62 762.11 212.06 748.70 198.30 C 731.10 181.16 712.22 165.75 691.40 152.67 C 667.91 137.69 642.52 125.86 616.03 117.24 C 589.80 108.87 562.46 103.88 535.02 102.01 C 528.34 101.97 521.72 101.12 515.04 101.14 C 496.40 101.68 477.91 102.50 459.48 105.53 C 423.97 111.08 389.21 122.93 357.17 139.14 C 332.74 152.01 309.80 167.83 289.20 186.22 C 276.93 196.81 265.57 208.68 255.24 221.16 C 235.30 244.78 219.19 271.35 206.68 299.59 C 193.27 329.56 184.43 361.42 180.11 393.96 C 179.08 402.24 177.90 410.63 177.91 419.00 C 177.53 427.70 177.06 436.29 177.73 445.00 C 178.39 474.35 183.36 503.73 192.06 531.77 C 205.90 577.08 230.91 619.30 262.52 654.49 C 268.98 661.95 276.25 668.76 283.52 675.45 C 289.54 680.86 295.51 686.51 302.07 691.27 Z M 515.04 101.14 C 521.72 101.12 528.34 101.97 535.02 102.01 C 562.46 103.88 589.80 108.87 616.03 117.24 C 642.52 125.86 667.91 137.69 691.40 152.67 C 712.22 165.75 731.10 181.16 748.70 198.30 C 762.11 212.06 774.68 226.62 785.65 242.42 C 803.58 268.38 817.83 296.98 828.07 326.82 C 836.22 349.97 841.28 373.78 844.55 398.08 C 845.83 408.37 846.23 418.69 846.84 429.03 C 847.35 438.76 846.20 448.28 845.86 457.98 C 841.37 519.04 819.63 579.05 783.38 628.45 C 774.23 640.46 764.56 652.19 753.79 662.78 C 743.88 672.90 733.38 682.90 722.14 691.54 C 733.00 692.78 743.06 698.90 748.27 708.64 C 754.18 718.95 753.44 729.54 753.30 740.99 C 753.06 749.20 750.60 757.26 745.86 764.00 C 740.27 771.99 730.86 776.33 721.57 778.36 C 727.64 792.16 733.50 806.07 739.24 820.01 C 749.88 820.29 759.17 818.79 769.34 822.51 C 784.32 827.83 795.60 842.91 795.03 859.00 C 794.99 871.67 795.01 884.34 795.03 897.01 C 795.01 906.10 790.85 915.20 782.60 919.62 C 776.37 923.09 769.87 922.75 763.00 922.65 C 593.33 922.63 423.65 922.66 253.98 922.64 C 249.24 922.38 244.77 921.93 240.67 919.30 C 233.15 914.80 229.41 906.59 229.07 898.04 C 228.92 886.36 229.04 874.67 228.98 862.99 C 228.96 859.95 229.28 856.95 229.85 853.96 C 232.48 835.67 249.55 820.56 267.99 819.99 C 273.65 819.95 279.30 820.04 284.95 820.00 C 291.03 806.12 296.58 792.01 302.80 778.19 C 294.20 776.56 286.24 773.29 280.26 766.71 C 273.83 758.94 270.56 749.10 270.46 739.06 C 270.50 731.12 270.00 722.83 272.52 715.21 C 275.72 704.74 284.40 696.00 294.90 692.86 C 297.27 692.14 299.65 691.77 302.07 691.27 C 295.51 686.51 289.54 680.86 283.52 675.45 C 276.25 668.76 268.98 661.95 262.52 654.49 C 230.91 619.30 205.90 577.08 192.06 531.77 C 183.36 503.73 178.39 474.35 177.73 445.00 C 177.06 436.29 177.53 427.70 177.91 419.00 C 177.90 410.63 179.08 402.24 180.11 393.96 C 184.43 361.42 193.27 329.56 206.68 299.59 C 219.19 271.35 235.30 244.78 255.24 221.16 C 265.57 208.68 276.93 196.81 289.20 186.22 C 309.80 167.83 332.74 152.01 357.17 139.14 C 389.21 122.93 423.97 111.08 459.48 105.53 C 477.91 102.50 496.40 101.68 515.04 101.14 Z M 349.65 691.00 C 458.26 691.02 566.87 691.02 675.48 691.00 C 690.22 680.51 704.51 670.10 717.96 657.91 C 724.43 652.46 730.25 646.21 736.24 640.24 C 745.25 630.36 753.97 620.53 761.55 609.48 C 772.80 593.46 783.09 576.89 790.87 558.88 C 799.94 539.77 805.95 519.62 810.82 499.09 C 813.61 485.86 815.53 472.48 816.92 459.04 C 816.98 451.65 818.28 444.41 817.99 437.00 C 818.28 427.03 817.41 417.14 816.54 407.23 C 815.07 389.70 811.42 372.14 806.98 355.12 C 792.34 301.17 762.55 251.45 721.98 213.00 C 701.04 193.24 677.18 176.46 651.57 163.33 C 616.86 145.18 578.00 134.12 539.00 130.96 C 526.33 129.47 513.69 130.09 500.96 130.03 C 489.35 130.87 477.78 131.85 466.24 133.45 C 433.45 138.20 401.46 148.93 371.97 163.96 C 350.25 175.04 330.30 188.98 311.74 204.75 C 277.38 234.49 249.90 272.04 231.80 313.72 C 226.34 326.90 221.12 339.81 217.49 353.64 C 209.19 383.34 205.16 414.15 206.15 445.00 C 206.95 458.39 207.99 471.48 210.40 484.71 C 214.29 508.71 221.84 532.17 231.54 554.43 C 238.91 570.82 247.47 586.62 257.76 601.37 C 265.23 612.96 273.87 623.71 283.19 633.85 C 292.33 644.81 303.38 654.50 314.20 663.76 C 325.61 673.39 337.75 682.01 349.65 691.00 Z M 313.00 720.09 C 310.07 720.12 307.07 719.93 304.17 720.30 C 301.74 720.73 300.01 723.45 300.04 725.82 C 299.89 730.57 299.97 735.33 299.99 740.08 C 300.08 744.50 301.82 749.00 306.33 750.53 C 311.25 751.86 316.91 751.33 322.00 751.49 C 451.34 751.51 580.68 751.49 710.02 751.50 C 713.08 751.36 717.03 751.65 719.62 749.78 C 722.23 747.79 724.22 744.42 724.02 741.07 C 724.04 735.99 724.20 730.89 723.95 725.82 C 723.80 723.21 722.36 720.80 719.64 720.28 C 716.46 719.90 713.19 720.12 710.00 720.07 C 577.67 720.09 445.33 720.06 313.00 720.09 Z M 332.38 780.98 C 326.92 794.01 321.45 807.04 315.87 820.02 C 446.68 819.96 577.49 820.02 708.29 819.99 C 702.76 806.99 697.13 794.02 691.64 781.00 C 571.89 780.98 452.14 781.01 332.38 780.98 Z M 258.04 893.66 C 413.03 893.67 568.01 893.64 723.00 893.65 C 737.34 893.67 751.68 893.60 766.01 893.74 C 765.94 881.80 766.12 869.84 766.01 857.90 C 766.20 854.35 763.90 851.47 760.75 850.11 C 757.87 848.74 755.10 848.99 752.00 848.92 C 597.00 848.92 442.00 848.92 287.00 848.93 C 280.64 849.00 274.26 848.82 267.90 849.01 C 264.09 849.12 260.76 851.79 259.05 855.07 C 257.78 857.66 258.04 860.20 257.97 863.00 C 258.03 873.22 257.94 883.44 258.04 893.66 Z M 500.96 130.03 C 513.69 130.09 526.33 129.47 539.00 130.96 C 578.00 134.12 616.86 145.18 651.57 163.33 C 677.18 176.46 701.04 193.24 721.98 213.00 C 762.55 251.45 792.34 301.17 806.98 355.12 C 811.42 372.14 815.07 389.70 816.54 407.23 C 817.41 417.14 818.28 427.03 817.99 437.00 C 818.28 444.41 816.98 451.65 816.92 459.04 C 815.53 472.48 813.61 485.86 810.82 499.09 C 805.95 519.62 799.94 539.77 790.87 558.88 C 783.09 576.89 772.80 593.46 761.55 609.48 C 753.97 620.53 745.25 630.36 736.24 640.24 C 730.25 646.21 724.43 652.46 717.96 657.91 C 704.51 670.10 690.22 680.51 675.48 691.00 C 566.87 691.02 458.26 691.02 349.65 691.00 C 337.75 682.01 325.61 673.39 314.20 663.76 C 303.38 654.50 292.33 644.81 283.19 633.85 C 273.87 623.71 265.23 612.96 257.76 601.37 C 247.47 586.62 238.91 570.82 231.54 554.43 C 221.84 532.17 214.29 508.71 210.40 484.71 C 207.99 471.48 206.95 458.39 206.15 445.00 C 205.16 414.15 209.19 383.34 217.49 353.64 C 221.12 339.81 226.34 326.90 231.80 313.72 C 249.90 272.04 277.38 234.49 311.74 204.75 C 330.30 188.98 350.25 175.04 371.97 163.96 C 401.46 148.93 433.45 138.20 466.24 133.45 C 477.78 131.85 489.35 130.87 500.96 130.03 Z M 620.42 217.81 C 617.98 219.39 615.63 220.50 614.14 223.14 C 611.62 227.06 612.07 231.95 610.81 236.69 C 605.49 259.58 586.24 278.57 563.79 284.90 C 558.58 286.42 552.54 286.19 548.88 290.88 C 544.76 296.01 547.57 304.31 553.39 306.78 C 556.95 308.39 561.05 308.68 564.74 310.00 C 588.08 317.65 606.30 339.08 611.00 363.07 C 611.88 367.11 613.07 370.90 616.18 373.81 C 618.25 375.87 621.74 377.67 624.70 376.85 C 627.93 375.68 630.43 372.53 631.48 369.34 C 632.60 365.89 632.98 362.20 633.95 358.70 C 639.81 336.94 656.42 318.50 677.59 310.68 C 682.59 308.66 688.53 307.82 693.04 305.02 C 696.69 302.82 698.62 298.13 697.04 294.07 C 696.13 290.82 693.58 289.58 690.67 288.47 C 685.98 286.85 681.24 285.40 676.64 283.53 C 655.53 274.72 638.18 256.79 632.82 234.22 C 631.53 229.36 631.49 223.06 627.29 219.65 C 625.29 217.63 623.03 218.12 620.42 217.81 Z M 344.99 256.45 C 345.22 253.67 345.58 251.02 344.98 248.24 C 343.31 241.99 337.36 237.77 330.92 238.07 C 327.99 238.48 324.95 239.62 322.80 241.71 C 293.63 269.46 270.61 303.83 256.29 341.47 C 247.99 363.82 242.64 387.19 241.04 410.99 C 240.77 421.60 239.94 432.56 240.69 443.15 C 242.23 452.31 253.56 457.00 261.41 452.33 C 265.84 449.91 268.53 445.08 268.35 440.04 C 268.37 429.01 268.45 418.06 269.46 407.07 C 274.73 358.58 296.83 312.40 329.00 275.99 C 334.33 269.58 340.69 263.63 344.99 256.45 Z M 706.10 389.23 C 705.41 396.85 704.66 404.11 700.92 410.96 C 694.77 422.94 682.33 431.49 668.98 433.09 C 665.09 433.85 661.57 433.59 659.27 437.40 C 656.72 442.11 657.54 449.67 662.30 452.79 C 664.79 454.26 668.16 454.30 670.96 454.89 C 681.90 456.49 692.01 462.67 698.25 471.82 C 702.40 477.84 704.47 484.78 705.06 492.02 C 705.27 499.35 713.79 504.51 720.42 501.54 C 724.46 499.42 726.40 495.54 726.86 491.13 C 727.79 476.54 737.70 462.93 751.06 457.17 C 755.85 455.02 760.71 454.53 765.80 453.62 C 769.24 453.01 771.90 450.45 772.87 447.13 C 773.28 443.70 773.31 439.81 770.93 437.04 C 768.87 434.84 764.88 434.54 762.07 433.83 C 753.73 432.13 746.06 428.02 740.14 421.88 C 733.09 415.18 728.31 406.20 727.39 396.45 C 726.80 391.26 725.49 386.01 720.19 383.82 C 714.75 381.34 708.97 384.42 706.10 389.23 Z M 377.07 647.58 C 378.30 643.59 378.86 638.25 376.49 634.58 C 374.84 631.59 371.88 629.72 369.17 627.79 C 362.16 622.89 355.45 617.64 348.96 612.07 C 318.68 584.84 294.96 550.73 281.78 512.08 C 279.94 506.62 278.26 501.74 272.56 499.28 C 265.46 495.70 256.78 499.82 253.92 506.92 C 252.19 511.13 252.90 515.62 254.49 519.74 C 266.14 554.97 286.02 587.60 311.23 614.77 C 324.47 629.07 339.27 641.81 355.59 652.49 C 358.57 654.38 361.50 655.41 365.09 655.02 C 370.36 654.72 374.05 651.64 377.07 647.58 Z M 620.42 217.81 C 623.03 218.12 625.29 217.63 627.29 219.65 C 631.49 223.06 631.53 229.36 632.82 234.22 C 638.18 256.79 655.53 274.72 676.64 283.53 C 681.24 285.40 685.98 286.85 690.67 288.47 C 693.58 289.58 696.13 290.82 697.04 294.07 C 698.62 298.13 696.69 302.82 693.04 305.02 C 688.53 307.82 682.59 308.66 677.59 310.68 C 656.42 318.50 639.81 336.94 633.95 358.70 C 632.98 362.20 632.60 365.89 631.48 369.34 C 630.43 372.53 627.93 375.68 624.70 376.85 C 621.74 377.67 618.25 375.87 616.18 373.81 C 613.07 370.90 611.88 367.11 611.00 363.07 C 606.30 339.08 588.08 317.65 564.74 310.00 C 561.05 308.68 556.95 308.39 553.39 306.78 C 547.57 304.31 544.76 296.01 548.88 290.88 C 552.54 286.19 558.58 286.42 563.79 284.90 C 586.24 278.57 605.49 259.58 610.81 236.69 C 612.07 231.95 611.62 227.06 614.14 223.14 C 615.63 220.50 617.98 219.39 620.42 217.81 Z M 620.52 274.55 C 614.03 283.32 606.00 291.27 596.79 297.16 C 606.90 304.11 615.50 313.37 621.98 323.77 C 628.37 313.15 637.20 304.36 647.45 297.43 C 637.36 290.42 629.19 282.27 622.20 272.16 C 621.64 272.96 621.08 273.75 620.52 274.55 Z M 330.92 238.07 C 337.36 237.77 343.31 241.99 344.98 248.24 C 345.58 251.02 345.22 253.67 344.99 256.45 C 340.69 263.63 334.33 269.58 329.00 275.99 C 296.83 312.40 274.73 358.58 269.46 407.07 C 268.45 418.06 268.37 429.01 268.35 440.04 C 268.53 445.08 265.84 449.91 261.41 452.33 C 253.56 457.00 242.23 452.31 240.69 443.15 C 239.94 432.56 240.77 421.60 241.04 410.99 C 242.64 387.19 247.99 363.82 256.29 341.47 C 270.61 303.83 293.63 269.46 322.80 241.71 C 324.95 239.62 327.99 238.48 330.92 238.07 Z M 622.20 272.16 C 629.19 282.27 637.36 290.42 647.45 297.43 C 637.20 304.36 628.37 313.15 621.98 323.77 C 615.50 313.37 606.90 304.11 596.79 297.16 C 606.00 291.27 614.03 283.32 620.52 274.55 C 621.08 273.75 621.64 272.96 622.20 272.16 Z M 720.19 383.82 C 725.49 386.01 726.80 391.26 727.39 396.45 C 728.31 406.20 733.09 415.18 740.14 421.88 C 746.06 428.02 753.73 432.13 762.07 433.83 C 764.88 434.54 768.87 434.84 770.93 437.04 C 773.31 439.81 773.28 443.70 772.87 447.13 C 771.90 450.45 769.24 453.01 765.80 453.62 C 760.71 454.53 755.85 455.02 751.06 457.17 C 737.70 462.93 727.79 476.54 726.86 491.13 C 726.40 495.54 724.46 499.42 720.42 501.54 C 713.79 504.51 705.27 499.35 705.06 492.02 C 704.47 484.78 702.40 477.84 698.25 471.82 C 692.01 462.67 681.90 456.49 670.96 454.89 C 668.16 454.30 664.79 454.26 662.30 452.79 C 657.54 449.67 656.72 442.11 659.27 437.40 C 661.57 433.59 665.09 433.85 668.98 433.09 C 682.33 431.49 694.77 422.94 700.92 410.96 C 704.66 404.11 705.41 396.85 706.10 389.23 C 708.97 384.42 714.75 381.34 720.19 383.82 Z M 714.44 433.52 C 711.38 437.49 707.56 440.55 703.63 443.59 C 707.97 447.40 712.48 451.42 715.81 456.16 C 719.62 451.60 724.01 447.50 728.23 443.33 C 723.90 439.68 720.12 435.52 716.07 431.58 C 715.52 432.22 714.97 432.87 714.44 433.52 Z M 716.07 431.58 C 720.12 435.52 723.90 439.68 728.23 443.33 C 724.01 447.50 719.62 451.60 715.81 456.16 C 712.48 451.42 707.97 447.40 703.63 443.59 C 707.56 440.55 711.38 437.49 714.44 433.52 C 714.97 432.87 715.52 432.22 716.07 431.58 Z M 272.56 499.28 C 278.26 501.74 279.94 506.62 281.78 512.08 C 294.96 550.73 318.68 584.84 348.96 612.07 C 355.45 617.64 362.16 622.89 369.17 627.79 C 371.88 629.72 374.84 631.59 376.49 634.58 C 378.86 638.25 378.30 643.59 377.07 647.58 C 374.05 651.64 370.36 654.72 365.09 655.02 C 361.50 655.41 358.57 654.38 355.59 652.49 C 339.27 641.81 324.47 629.07 311.23 614.77 C 286.02 587.60 266.14 554.97 254.49 519.74 C 252.90 515.62 252.19 511.13 253.92 506.92 C 256.78 499.82 265.46 495.70 272.56 499.28 Z M 304.17 720.30 C 307.07 719.93 310.07 720.12 313.00 720.09 C 445.33 720.06 577.67 720.09 710.00 720.07 C 713.19 720.12 716.46 719.90 719.64 720.28 C 722.36 720.80 723.80 723.21 723.95 725.82 C 724.20 730.89 724.04 735.99 724.02 741.07 C 724.22 744.42 722.23 747.79 719.62 749.78 C 717.03 751.65 713.08 751.36 710.02 751.50 C 580.68 751.49 451.34 751.51 322.00 751.49 C 316.91 751.33 311.25 751.86 306.33 750.53 C 301.82 749.00 300.08 744.50 299.99 740.08 C 299.97 735.33 299.89 730.57 300.04 725.82 C 300.01 723.45 301.74 720.73 304.17 720.30 Z M 332.38 780.98 C 452.14 781.01 571.89 780.98 691.64 781.00 C 697.13 794.02 702.76 806.99 708.29 819.99 C 577.49 820.02 446.68 819.96 315.87 820.02 C 321.45 807.04 326.92 794.01 332.38 780.98 Z M 267.90 849.01 C 274.26 848.82 280.64 849.00 287.00 848.93 C 442.00 848.92 597.00 848.92 752.00 848.92 C 755.10 848.99 757.87 848.74 760.75 850.11 C 763.90 851.47 766.20 854.35 766.01 857.90 C 766.12 869.84 765.94 881.80 766.01 893.74 C 751.68 893.60 737.34 893.67 723.00 893.65 C 568.01 893.64 413.03 893.67 258.04 893.66 C 257.94 883.44 258.03 873.22 257.97 863.00 C 258.04 860.20 257.78 857.66 259.05 855.07 C 260.76 851.79 264.09 849.12 267.90 849.01 Z M 515.04 101.14 C 521.72 101.12 528.34 101.97 535.02 102.01 C 562.46 103.88 589.80 108.87 616.03 117.24 C 642.52 125.86 667.91 137.69 691.40 152.67 C 712.22 165.75 731.10 181.16 748.70 198.30 C 762.11 212.06 774.68 226.62 785.65 242.42 C 803.58 268.38 817.83 296.98 828.07 326.82 C 836.22 349.97 841.28 373.78 844.55 398.08 C 845.83 408.37 846.23 418.69 846.84 429.03 C 847.35 438.76 846.20 448.28 845.86 457.98 C 841.37 519.04 819.63 579.05 783.38 628.45 C 774.23 640.46 764.56 652.19 753.79 662.78 C 743.88 672.90 733.38 682.90 722.14 691.54 C 733.00 692.78 743.06 698.90 748.27 708.64 C 754.18 718.95 753.44 729.54 753.30 740.99 C 753.06 749.20 750.60 757.26 745.86 764.00 C 740.27 771.99 730.86 776.33 721.57 778.36 C 727.64 792.16 733.50 806.07 739.24 820.01 C 749.88 820.29 759.17 818.79 769.34 822.51 C 784.32 827.83 795.60 842.91 795.03 859.00 C 794.99 871.67 795.01 884.34 795.03 897.01 C 795.01 906.10 790.85 915.20 782.60 919.62 C 776.37 923.09 769.87 922.75 763.00 922.65 C 593.33 922.63 423.65 922.66 253.98 922.64 C 249.24 922.38 244.77 921.93 240.67 919.30 C 233.15 914.80 229.41 906.59 229.07 898.04 C 228.92 886.36 229.04 874.67 228.98 862.99 C 228.96 859.95 229.28 856.95 229.85 853.96 C 232.48 835.67 249.55 820.56 267.99 819.99 C 273.65 819.95 279.30 820.04 284.95 820.00 C 291.03 806.12 296.58 792.01 302.80 778.19 C 294.20 776.56 286.24 773.29 280.26 766.71 C 273.83 758.94 270.56 749.10 270.46 739.06 C 270.50 731.12 270.00 722.83 272.52 715.21 C 275.72 704.74 284.40 696.00 294.90 692.86 C 297.27 692.14 299.65 691.77 302.07 691.27 C 295.51 686.51 289.54 680.86 283.52 675.45 C 276.25 668.76 268.98 661.95 262.52 654.49 C 230.91 619.30 205.90 577.08 192.06 531.77 C 183.36 503.73 178.39 474.35 177.73 445.00 C 177.06 436.29 177.53 427.70 177.91 419.00 C 177.90 410.63 179.08 402.24 180.11 393.96 C 184.43 361.42 193.27 329.56 206.68 299.59 C 219.19 271.35 235.30 244.78 255.24 221.16 C 265.57 208.68 276.93 196.81 289.20 186.22 C 309.80 167.83 332.74 152.01 357.17 139.14 C 389.21 122.93 423.97 111.08 459.48 105.53 C 477.91 102.50 496.40 101.68 515.04 101.14 Z M 349.65 691.00 C 458.26 691.02 566.87 691.02 675.48 691.00 C 690.22 680.51 704.51 670.10 717.96 657.91 C 724.43 652.46 730.25 646.21 736.24 640.24 C 745.25 630.36 753.97 620.53 761.55 609.48 C 772.80 593.46 783.09 576.89 790.87 558.88 C 799.94 539.77 805.95 519.62 810.82 499.09 C 813.61 485.86 815.53 472.48 816.92 459.04 C 816.98 451.65 818.28 444.41 817.99 437.00 C 818.28 427.03 817.41 417.14 816.54 407.23 C 815.07 389.70 811.42 372.14 806.98 355.12 C 792.34 301.17 762.55 251.45 721.98 213.00 C 701.04 193.24 677.18 176.46 651.57 163.33 C 616.86 145.18 578.00 134.12 539.00 130.96 C 526.33 129.47 513.69 130.09 500.96 130.03 C 489.35 130.87 477.78 131.85 466.24 133.45 C 433.45 138.20 401.46 148.93 371.97 163.96 C 350.25 175.04 330.30 188.98 311.74 204.75 C 277.38 234.49 249.90 272.04 231.80 313.72 C 226.34 326.90 221.12 339.81 217.49 353.64 C 209.19 383.34 205.16 414.15 206.15 445.00 C 206.95 458.39 207.99 471.48 210.40 484.71 C 214.29 508.71 221.84 532.17 231.54 554.43 C 238.91 570.82 247.47 586.62 257.76 601.37 C 265.23 612.96 273.87 623.71 283.19 633.85 C 292.33 644.81 303.38 654.50 314.20 663.76 C 325.61 673.39 337.75 682.01 349.65 691.00 Z M 313.00 720.09 C 310.07 720.12 307.07 719.93 304.17 720.30 C 301.74 720.73 300.01 723.45 300.04 725.82 C 299.89 730.57 299.97 735.33 299.99 740.08 C 300.08 744.50 301.82 749.00 306.33 750.53 C 311.25 751.86 316.91 751.33 322.00 751.49 C 451.34 751.51 580.68 751.49 710.02 751.50 C 713.08 751.36 717.03 751.65 719.62 749.78 C 722.23 747.79 724.22 744.42 724.02 741.07 C 724.04 735.99 724.20 730.89 723.95 725.82 C 723.80 723.21 722.36 720.80 719.64 720.28 C 716.46 719.90 713.19 720.12 710.00 720.07 C 577.67 720.09 445.33 720.06 313.00 720.09 Z M 332.38 780.98 C 326.92 794.01 321.45 807.04 315.87 820.02 C 446.68 819.96 577.49 820.02 708.29 819.99 C 702.76 806.99 697.13 794.02 691.64 781.00 C 571.89 780.98 452.14 781.01 332.38 780.98 Z M 258.04 893.66 C 413.03 893.67 568.01 893.64 723.00 893.65 C 737.34 893.67 751.68 893.60 766.01 893.74 C 765.94 881.80 766.12 869.84 766.01 857.90 C 766.20 854.35 763.90 851.47 760.75 850.11 C 757.87 848.74 755.10 848.99 752.00 848.92 C 597.00 848.92 442.00 848.92 287.00 848.93 C 280.64 849.00 274.26 848.82 267.90 849.01 C 264.09 849.12 260.76 851.79 259.05 855.07 C 257.78 857.66 258.04 860.20 257.97 863.00 C 258.03 873.22 257.94 883.44 258.04 893.66 Z M 620.42 217.81 C 623.03 218.12 625.29 217.63 627.29 219.65 C 631.49 223.06 631.53 229.36 632.82 234.22 C 638.18 256.79 655.53 274.72 676.64 283.53 C 681.24 285.40 685.98 286.85 690.67 288.47 C 693.58 289.58 696.13 290.82 697.04 294.07 C 698.62 298.13 696.69 302.82 693.04 305.02 C 688.53 307.82 682.59 308.66 677.59 310.68 C 656.42 318.50 639.81 336.94 633.95 358.70 C 632.98 362.20 632.60 365.89 631.48 369.34 C 630.43 372.53 627.93 375.68 624.70 376.85 C 621.74 377.67 618.25 375.87 616.18 373.81 C 613.07 370.90 611.88 367.11 611.00 363.07 C 606.30 339.08 588.08 317.65 564.74 310.00 C 561.05 308.68 556.95 308.39 553.39 306.78 C 547.57 304.31 544.76 296.01 548.88 290.88 C 552.54 286.19 558.58 286.42 563.79 284.90 C 586.24 278.57 605.49 259.58 610.81 236.69 C 612.07 231.95 611.62 227.06 614.14 223.14 C 615.63 220.50 617.98 219.39 620.42 217.81 Z M 620.52 274.55 C 614.03 283.32 606.00 291.27 596.79 297.16 C 606.90 304.11 615.50 313.37 621.98 323.77 C 628.37 313.15 637.20 304.36 647.45 297.43 C 637.36 290.42 629.19 282.27 622.20 272.16 C 621.64 272.96 621.08 273.75 620.52 274.55 Z M 330.92 238.07 C 337.36 237.77 343.31 241.99 344.98 248.24 C 345.58 251.02 345.22 253.67 344.99 256.45 C 340.69 263.63 334.33 269.58 329.00 275.99 C 296.83 312.40 274.73 358.58 269.46 407.07 C 268.45 418.06 268.37 429.01 268.35 440.04 C 268.53 445.08 265.84 449.91 261.41 452.33 C 253.56 457.00 242.23 452.31 240.69 443.15 C 239.94 432.56 240.77 421.60 241.04 410.99 C 242.64 387.19 247.99 363.82 256.29 341.47 C 270.61 303.83 293.63 269.46 322.80 241.71 C 324.95 239.62 327.99 238.48 330.92 238.07 Z M 720.19 383.82 C 725.49 386.01 726.80 391.26 727.39 396.45 C 728.31 406.20 733.09 415.18 740.14 421.88 C 746.06 428.02 753.73 432.13 762.07 433.83 C 764.88 434.54 768.87 434.84 770.93 437.04 C 773.31 439.81 773.28 443.70 772.87 447.13 C 771.90 450.45 769.24 453.01 765.80 453.62 C 760.71 454.53 755.85 455.02 751.06 457.17 C 737.70 462.93 727.79 476.54 726.86 491.13 C 726.40 495.54 724.46 499.42 720.42 501.54 C 713.79 504.51 705.27 499.35 705.06 492.02 C 704.47 484.78 702.40 477.84 698.25 471.82 C 692.01 462.67 681.90 456.49 670.96 454.89 C 668.16 454.30 664.79 454.26 662.30 452.79 C 657.54 449.67 656.72 442.11 659.27 437.40 C 661.57 433.59 665.09 433.85 668.98 433.09 C 682.33 431.49 694.77 422.94 700.92 410.96 C 704.66 404.11 705.41 396.85 706.10 389.23 C 708.97 384.42 714.75 381.34 720.19 383.82 Z M 714.44 433.52 C 711.38 437.49 707.56 440.55 703.63 443.59 C 707.97 447.40 712.48 451.42 715.81 456.16 C 719.62 451.60 724.01 447.50 728.23 443.33 C 723.90 439.68 720.12 435.52 716.07 431.58 C 715.52 432.22 714.97 432.87 714.44 433.52 Z M 272.56 499.28 C 278.26 501.74 279.94 506.62 281.78 512.08 C 294.96 550.73 318.68 584.84 348.96 612.07 C 355.45 617.64 362.16 622.89 369.17 627.79 C 371.88 629.72 374.84 631.59 376.49 634.58 C 378.86 638.25 378.30 643.59 377.07 647.58 C 374.05 651.64 370.36 654.72 365.09 655.02 C 361.50 655.41 358.57 654.38 355.59 652.49 C 339.27 641.81 324.47 629.07 311.23 614.77 C 286.02 587.60 266.14 554.97 254.49 519.74 C 252.90 515.62 252.19 511.13 253.92 506.92 C 256.78 499.82 265.46 495.70 272.56 499.28 Z" fill="#000000" transform="translate(-126.3800,-126.0601) scale(1.246397)"/></svg>
