<?xml version="1.0" encoding="UTF-8"?>
<svg id="Layer_2" data-name="Layer 2" xmlns="http://www.w3.org/2000/svg" viewBox="0 0 951.79 1024.59">
  <g id="Layer_2-2" data-name="Layer 2">
    <g id="OBJESCT">
      <g>
        <path fill="#BFB47B" fill-rule="evenodd" d="M300.58,241.95c-2,.84-3.39,2.71-3.61,4.87-.21,2.16.78,4.27,2.58,5.47,24.39,16.39,32.5,19.81,45.56,38.57,5.61,8.05,10.33,21.23,11.63,23.74,2.01,3.9,5.5,3.66,6.26,3.57,1.01-.12,3.15-.58,4.72-3.25,1.37-2.3,5.1-14.13,14.53-29.17,11.49-18.35,35.43-33.05,39.47-36.07,4.04-3,2.77-6.99,2.53-7.55-.57-1.35-1.57-2.58-3.38-3.26-12.23-4.61-24.8-11.47-33.18-18.68-17.84-15.35-22.71-39.15-23.7-43.09-.79-3.15-2.77-4.16-3.04-4.31-1.76-.97-3.42-.94-4.95-.36-1.04.39-2.96,1.27-3.65,4.15-4.68,19.3-8.68,26.46-15.97,37.07-8.83,12.83-19.75,21.66-35.82,28.33h0l.02-.03ZM358.32,197.89c-3.35,8.93-7.05,14.88-12.21,22.4-8.22,11.97-18.02,20.94-31.31,28,19.6,12.96,27.64,18.11,39.99,35.82,2.59,3.74,5.3,8.99,7.52,13.74,2.43-5.18,5.77-11.68,9.96-18.36,8.97-14.33,24.83-26.74,34.59-33.76-10.16-4.71-19.82-10.58-26.85-16.63-10.84-9.33-17.58-21.34-21.69-31.21h0Z"/>
        <path fill="#BFB47B" fill-rule="evenodd" d="M517.85,673.22c-2,.84-3.38,2.7-3.61,4.85-.21,2.17.78,4.27,2.58,5.48,24.4,16.39,32.5,19.81,45.56,38.57,5.61,8.05,10.35,21.23,11.63,23.73,2.01,3.91,5.5,3.68,6.27,3.58,1-.13,3.13-.59,4.71-3.25,1.37-2.3,5.1-14.13,14.53-29.17,11.49-18.36,35.43-33.06,39.48-36.07,4.03-3,2.76-6.99,2.52-7.55-.57-1.37-1.57-2.58-3.37-3.26-12.24-4.62-24.8-11.46-33.19-18.68-17.84-15.36-22.71-39.17-23.7-43.09-.79-3.16-2.77-4.17-3.04-4.32-1.76-.97-3.42-.93-4.94-.35-1.04.39-2.97,1.27-3.66,4.15-4.68,19.29-8.68,26.46-15.97,37.07-8.81,12.83-19.75,21.66-35.82,28.33h0l.02-.02ZM575.58,629.15c-3.35,8.94-7.05,14.89-12.21,22.41-8.22,11.97-18.02,20.94-31.31,27.98,19.6,12.97,27.64,18.12,39.99,35.83,2.59,3.72,5.3,8.99,7.52,13.74,2.44-5.18,5.77-11.69,9.96-18.37,8.97-14.32,24.83-26.74,34.59-33.76-10.16-4.7-19.82-10.57-26.84-16.61-10.84-9.33-17.59-21.34-21.7-31.22h0Z"/>
        <path fill="#BFB47B" fill-rule="evenodd" d="M644.65,313.23c-2,.84-3.39,2.7-3.61,4.87-.21,2.16.78,4.25,2.58,5.47,24.39,16.39,32.5,19.81,45.56,38.57,5.61,8.05,10.33,21.23,11.63,23.74,2.01,3.9,5.5,3.66,6.26,3.57,1.01-.13,3.15-.59,4.73-3.25,1.37-2.3,5.1-14.13,14.53-29.17,11.49-18.35,35.43-33.05,39.47-36.07,4.04-3,2.77-6.99,2.53-7.55-.57-1.35-1.57-2.58-3.38-3.26-12.23-4.61-24.8-11.46-33.18-18.68-17.84-15.35-22.72-39.15-23.7-43.09-.79-3.15-2.77-4.16-3.05-4.31-1.74-.98-3.41-.94-4.94-.36-1.04.39-2.96,1.27-3.65,4.15-4.68,19.3-8.68,26.46-15.97,37.07-8.83,12.83-19.75,21.66-35.82,28.33h0v-.03ZM702.39,269.17c-3.35,8.93-7.05,14.88-12.21,22.4-8.22,11.97-18.02,20.94-31.31,27.98,19.59,12.97,27.64,18.12,39.99,35.83,2.59,3.74,5.3,8.99,7.52,13.74,2.43-5.18,5.77-11.69,9.96-18.36,8.97-14.33,24.83-26.74,34.59-33.76-10.16-4.71-19.82-10.58-26.85-16.63-10.84-9.33-17.58-21.34-21.69-31.21h0Z"/>
        <path fill="#BFB47B" fill-rule="evenodd" d="M388.98,478.3c-2,.84-3.39,2.71-3.61,4.87-.21,2.16.78,4.27,2.58,5.47,24.39,16.39,32.5,19.81,45.56,38.57,5.61,8.05,10.33,21.23,11.63,23.74,2.01,3.9,5.5,3.66,6.26,3.57,1.01-.13,3.15-.59,4.72-3.25,1.35-2.3,5.1-14.13,14.52-29.17,11.49-18.35,35.44-33.05,39.48-36.07,4.03-3,2.77-6.99,2.53-7.55-.57-1.36-1.57-2.58-3.38-3.26-12.23-4.61-24.8-11.46-33.19-18.68-17.84-15.35-22.71-39.15-23.68-43.09-.79-3.15-2.78-4.16-3.05-4.31-1.74-.98-3.41-.94-4.94-.36-1.04.39-2.96,1.27-3.66,4.15-4.68,19.3-8.68,26.46-15.97,37.07-8.81,12.83-19.74,21.66-35.81,28.33h0v-.03ZM446.71,434.25c-3.35,8.93-7.05,14.88-12.21,22.4-8.22,11.97-18.02,20.94-31.31,27.98,19.6,12.97,27.64,18.12,39.98,35.83,2.6,3.73,5.3,8.99,7.53,13.74,2.43-5.18,5.77-11.69,9.96-18.36,8.97-14.33,24.83-26.74,34.59-33.76-10.16-4.71-19.82-10.58-26.85-16.63-10.84-9.33-17.58-21.34-21.69-31.21h0Z"/>
        <path fill="#BFB47B" fill-rule="evenodd" d="M426.48,135.73c-2.01.82-3.41,2.7-3.62,4.85-.21,2.17.78,4.28,2.59,5.48,14.27,9.56,19.05,11.5,26.7,22.42,3.29,4.71,6.04,12.44,6.81,13.92,1.96,3.78,5.39,3.48,6.13,3.39.98-.13,3.05-.52,4.57-3.09.81-1.37,3.04-8.41,8.67-17.37,6.7-10.66,20.71-19.15,23.07-20.9,3.9-2.89,2.52-6.79,2.3-7.33-.57-1.35-1.57-2.58-3.37-3.26-7.08-2.65-14.35-6.57-19.19-10.73-10.18-8.72-12.89-22.28-13.46-24.51-.75-3.02-2.72-3.94-2.98-4.08-1.74-.97-3.39-.93-4.91-.35-1.05.39-2.97,1.26-3.66,4.14-2.71,11.11-5.01,15.24-9.21,21.34-5.03,7.29-11.28,12.29-20.43,16.08h-.01ZM462.2,117.13c-1.58,3.23-3.37,5.99-5.58,9.2-4.42,6.41-9.56,11.44-16.19,15.52,9.83,6.52,14.5,10.04,21.39,19.88.86,1.23,1.73,2.72,2.57,4.3,1.14-2.19,2.47-4.56,3.98-6.96,4.37-6.95,12.28-13.84,18.23-18.46-4.97-2.56-9.58-5.53-13.11-8.55-4.93-4.22-8.61-9.73-11.28-14.92h0Z"/>
        <path fill="#BFB47B" fill-rule="evenodd" d="M476.56,261.55c-2,.84-3.39,2.7-3.61,4.87-.21,2.16.78,4.27,2.58,5.48,14.28,9.54,19.05,11.49,26.7,22.42,3.3,4.7,6.06,12.44,6.81,13.9,1.97,3.79,5.4,3.49,6.14,3.39.97-.12,3.04-.52,4.57-3.08.81-1.38,3.04-8.41,8.67-17.38,6.69-10.66,20.71-19.15,23.07-20.89,3.9-2.9,2.52-6.8,2.3-7.34-.57-1.36-1.57-2.58-3.38-3.25-7.07-2.66-14.34-6.59-19.19-10.75-10.17-8.72-12.89-22.27-13.44-24.51-.77-3-2.72-3.92-2.98-4.08-1.74-.95-3.39-.93-4.91-.35-1.05.39-2.97,1.27-3.66,4.14-2.71,11.11-5.01,15.25-9.23,21.35-5.02,7.28-11.26,12.28-20.43,16.07h-.01ZM512.27,242.95c-1.58,3.23-3.36,5.99-5.57,9.2-4.42,6.41-9.57,11.44-16.19,15.52,9.83,6.53,14.5,10.04,21.39,19.88.86,1.23,1.73,2.72,2.57,4.3,1.14-2.18,2.47-4.55,3.98-6.96,4.37-6.95,12.27-13.84,18.23-18.45-4.97-2.57-9.58-5.53-13.13-8.55-4.93-4.23-8.6-9.74-11.28-14.93h0Z"/>
        <path fill="#BFB47B" fill-rule="evenodd" d="M200.79,580.85c-2,.84-3.39,2.7-3.61,4.87s.78,4.27,2.58,5.48c14.27,9.56,19.05,11.49,26.7,22.42,3.3,4.71,6.06,12.44,6.81,13.9,1.97,3.79,5.4,3.49,6.13,3.39.98-.12,3.05-.52,4.57-3.08.81-1.37,3.05-8.41,8.67-17.37,6.7-10.66,20.73-19.16,23.08-20.9,3.9-2.9,2.52-6.8,2.29-7.34-.57-1.35-1.57-2.57-3.37-3.25-7.07-2.65-14.35-6.59-19.19-10.73-10.18-8.73-12.89-22.28-13.46-24.51-.75-3.02-2.71-3.94-2.97-4.08-1.74-.97-3.41-.93-4.93-.37-1.04.39-2.96,1.27-3.66,4.14-2.7,11.11-5.01,15.25-9.21,21.35-5.03,7.29-11.26,12.29-20.43,16.07h0ZM236.51,562.27c-1.58,3.23-3.36,5.97-5.59,9.2-4.42,6.4-9.56,11.43-16.19,15.51,9.83,6.53,14.5,10.05,21.4,19.89.85,1.23,1.73,2.72,2.57,4.29,1.13-2.18,2.46-4.55,3.98-6.96,4.37-6.95,12.27-13.83,18.22-18.45-4.97-2.57-9.58-5.53-13.11-8.55-4.93-4.23-8.61-9.74-11.28-14.92h0Z"/>
        <path fill="#BFB47B" fill-rule="evenodd" d="M703.11,615.98c-2,.82-3.39,2.7-3.61,4.87-.22,2.16.78,4.27,2.58,5.47,14.27,9.56,19.05,11.5,26.7,22.42,3.3,4.71,6.06,12.45,6.81,13.92,1.97,3.79,5.4,3.49,6.13,3.39.98-.12,3.05-.52,4.57-3.08.81-1.38,3.05-8.41,8.67-17.38,6.7-10.66,20.73-19.15,23.08-20.89,3.9-2.9,2.52-6.8,2.29-7.34-.57-1.35-1.57-2.58-3.37-3.25-7.07-2.66-14.35-6.59-19.19-10.75-10.18-8.72-12.89-22.27-13.46-24.51-.75-3-2.71-3.94-2.97-4.08-1.74-.95-3.41-.93-4.93-.35-1.04.39-2.96,1.26-3.66,4.14-2.7,11.11-5.01,15.25-9.21,21.35-5.03,7.28-11.26,12.28-20.43,16.07h0ZM738.82,597.38c-1.58,3.23-3.36,5.99-5.59,9.2-4.42,6.41-9.56,11.44-16.19,15.52,9.83,6.52,14.5,10.04,21.4,19.88.85,1.23,1.73,2.72,2.57,4.3,1.13-2.18,2.46-4.55,3.98-6.96,4.37-6.95,12.27-13.85,18.22-18.46-4.97-2.56-9.58-5.51-13.11-8.55-4.93-4.22-8.61-9.73-11.28-14.92h0Z"/>
        <path fill="#BFB47B" fill-rule="evenodd" d="M255.7,474.7c-2.01.84-3.41,2.7-3.62,4.87-.21,2.16.78,4.27,2.59,5.48,14.27,9.54,19.05,11.49,26.7,22.42,3.3,4.7,6.04,12.44,6.81,13.9,1.97,3.79,5.38,3.49,6.13,3.39.98-.12,3.05-.52,4.57-3.08.81-1.38,3.04-8.41,8.67-17.38,6.7-10.66,20.71-19.15,23.08-20.89,3.9-2.9,2.51-6.8,2.29-7.34-.57-1.36-1.57-2.58-3.37-3.25-7.07-2.66-14.35-6.59-19.19-10.75-10.18-8.72-12.89-22.27-13.46-24.51-.75-3-2.72-3.92-2.98-4.08-1.74-.95-3.39-.93-4.91-.35-1.04.39-2.97,1.27-3.66,4.14-2.71,11.11-5.01,15.25-9.21,21.35-5.03,7.28-11.28,12.28-20.43,16.07h-.01ZM291.41,456.12c-1.58,3.22-3.37,5.97-5.59,9.19-4.42,6.41-9.56,11.44-16.19,15.52,9.83,6.53,14.5,10.04,21.39,19.88.86,1.23,1.73,2.72,2.57,4.3,1.14-2.18,2.47-4.55,3.98-6.96,4.37-6.95,12.28-13.83,18.23-18.45-4.97-2.57-9.58-5.53-13.11-8.55-4.93-4.23-8.61-9.74-11.28-14.92h0Z"/>
        <path fill="#BFB47B" fill-rule="evenodd" d="M356.87,752.41c-2.01.84-3.39,2.71-3.62,4.87-.21,2.17.79,4.27,2.59,5.48,14.27,9.56,19.05,11.49,26.7,22.42,3.3,4.71,6.04,12.44,6.81,13.9,1.97,3.79,5.4,3.49,6.13,3.39.98-.12,3.05-.52,4.57-3.08.81-1.37,3.04-8.41,8.67-17.37,6.7-10.66,20.73-19.15,23.08-20.9,3.9-2.9,2.52-6.8,2.29-7.34-.57-1.35-1.57-2.57-3.37-3.25-7.07-2.65-14.35-6.59-19.19-10.73-10.18-8.73-12.89-22.28-13.46-24.51-.75-3.02-2.71-3.94-2.97-4.08-1.74-.97-3.41-.93-4.93-.37-1.04.39-2.97,1.27-3.66,4.14-2.7,11.11-5.01,15.25-9.21,21.35-5.03,7.29-11.26,12.29-20.43,16.07h0ZM392.58,733.83c-1.58,3.23-3.36,5.97-5.59,9.2-4.42,6.41-9.56,11.44-16.19,15.51,9.83,6.53,14.5,10.05,21.39,19.89.86,1.23,1.74,2.72,2.58,4.29,1.13-2.18,2.46-4.55,3.98-6.95,4.37-6.96,12.27-13.85,18.22-18.46-4.97-2.56-9.58-5.53-13.11-8.55-4.93-4.22-8.61-9.73-11.28-14.92h0Z"/>
        <path fill="#BFB47B" d="M652.62,458.26c-8.54-.77-12.42,2.78-15,5.34-4.71,4.68-5.63,13.82-2.2,20.14,5.2,9.56,16.74,9.79,23.95,3.62,5.51-4.72,7.01-11.65,4.85-18.56-.85-2.72-3.64-9.82-11.61-10.53h.01Z"/>
<path fill="#BFB47B" d="M585.21,486.92c-8.54-.77-12.42,2.78-14.99,5.34-4.71,4.68-5.64,13.82-2.22,20.14,5.2,9.56,16.74,9.79,23.95,3.62,5.51-4.72,7.01-11.65,4.85-18.56-.85-2.72-3.64-9.82-11.61-10.53h.02Z"/>
<path fill="#BFB47B" d="M562.93,377.9c-8.54-.77-12.42,2.78-14.99,5.34-4.71,4.68-5.64,13.82-2.2,20.14,5.2,9.56,16.74,9.8,23.94,3.62,5.51-4.72,7.01-11.64,4.87-18.56-.85-2.72-3.64-9.82-11.62-10.53h0Z"/>
<path fill="#BFB47B" d="M610.61,209.19c-8.54-.77-12.42,2.79-14.99,5.35-4.71,4.68-5.64,13.82-2.22,20.13,5.2,9.56,16.74,9.8,23.95,3.62,5.51-4.72,7.01-11.64,4.85-18.56-.85-2.71-3.64-9.82-11.61-10.53h.02Z"/>
<path fill="#BFB47B" d="M447.81,640.12c-8.54-.77-12.42,2.79-14.99,5.35-4.71,4.68-5.64,13.82-2.2,20.13,5.18,9.56,16.74,9.8,23.94,3.63,5.51-4.74,7.01-11.65,4.85-18.57-.84-2.71-3.64-9.82-11.61-10.53h.01Z"/>
<path fill="#BFB47B" d="M598.59,134.82c-8.54-.77-12.42,2.79-14.99,5.35-4.71,4.68-5.64,13.82-2.22,20.12,5.2,9.56,16.74,9.8,23.95,3.62,5.51-4.72,7.01-11.64,4.85-18.56-.85-2.71-3.64-9.82-11.61-10.53h.02Z"/>
<path fill="#BFB47B" d="M360.34,376.06c-8.54-.78-12.42,2.78-14.99,5.34-4.71,4.68-5.64,13.82-2.22,20.14,5.2,9.56,16.74,9.79,23.95,3.62,5.51-4.72,7.01-11.65,4.85-18.56-.85-2.72-3.64-9.82-11.61-10.53h.02Z"/>
<path fill="#BFB47B" d="M208.03,439.83c-8.54-.77-12.42,2.79-15,5.35-4.7,4.68-5.63,13.82-2.2,20.13,5.2,9.56,16.74,9.8,23.95,3.63,5.51-4.73,7.01-11.65,4.85-18.57-.85-2.71-3.64-9.82-11.61-10.53h.01Z"/>
<path fill="#BFB47B" d="M347.1,595.38c-8.54-.77-12.42,2.78-14.99,5.34-4.71,4.68-5.64,13.82-2.22,20.14,5.2,9.56,16.74,9.79,23.95,3.62,5.51-4.72,7.01-11.65,4.85-18.56-.85-2.72-3.64-9.82-11.61-10.53h.02Z"/>
<path fill="#BFB47B" d="M388.43,85.71c-8.54-.77-12.42,2.78-14.99,5.34-4.71,4.68-5.64,13.82-2.22,20.14,5.2,9.56,16.74,9.79,23.95,3.62,5.51-4.73,7.01-11.64,4.85-18.56-.85-2.72-3.64-9.82-11.61-10.53h.02Z"/>
<path fill="#BFB47B" d="M249.47,292.19c-8.54-.77-12.41,2.78-14.99,5.34-4.71,4.68-5.64,13.82-2.2,20.14,5.2,9.56,16.74,9.79,23.94,3.62,5.53-4.73,7.02-11.64,4.87-18.56-.85-2.72-3.64-9.82-11.62-10.53h0Z"/>
<path fill="#BFB47B" d="M326.79,649.17c-8.54-.78-12.42,2.78-15,5.34-4.71,4.68-5.63,13.82-2.2,20.14,5.2,9.56,16.74,9.79,23.95,3.62,5.51-4.73,7.01-11.65,4.85-18.56-.85-2.72-3.64-9.82-11.61-10.53h.01Z"/>
<path fill="#BFB47B" d="M679.72,732.98c-8.54-.77-12.42,2.79-15,5.35-4.71,4.68-5.63,13.82-2.2,20.13,5.2,9.56,16.74,9.8,23.95,3.63,5.51-4.74,7.01-11.65,4.85-18.57-.85-2.71-3.64-9.81-11.61-10.53h.01Z"/>
<path fill="#BFB47B" d="M257.69,145.7c-8.54-.77-12.41,2.79-14.99,5.35-4.71,4.68-5.64,13.82-2.2,20.14,5.2,9.54,16.74,9.79,23.94,3.62,5.51-4.72,7.01-11.65,4.87-18.57-.85-2.71-3.64-9.81-11.62-10.53h0Z"/>
<path fill="#BFB47B" d="M801.66,248.47c-8.54-.77-12.42,2.79-14.99,5.35-4.71,4.68-5.64,13.82-2.21,20.14,5.2,9.56,16.74,9.79,23.95,3.62,5.51-4.72,7.01-11.65,4.85-18.57-.85-2.71-3.64-9.82-11.61-10.53h.01Z"/>
<path fill="#BFB47B" d="M792.88,505.71c-8.54-.77-12.42,2.78-14.99,5.34-4.71,4.68-5.64,13.82-2.2,20.14,5.18,9.56,16.74,9.79,23.94,3.62,5.51-4.72,7.01-11.65,4.85-18.56-.84-2.72-3.63-9.82-11.61-10.53h.01Z"/>
<path fill="#BFB47B" d="M797.1,415.89c-8.54-.78-12.42,2.78-15,5.34-4.71,4.68-5.63,13.82-2.2,20.14,5.2,9.56,16.74,9.79,23.95,3.62,5.51-4.73,7.01-11.65,4.85-18.56-.85-2.72-3.64-9.83-11.61-10.53h.01Z"/>
<path fill="#BFB47B" fill-rule="evenodd" d="M134.18,239.43c-25.3,39.81-42.95,87.17-52.34,136.48-.61,3.19,1.5,6.28,4.69,6.89,3.19.6,6.28-1.5,6.88-4.69,9.12-47.82,26.18-93.76,50.71-132.37,1.74-2.75.93-6.39-1.81-8.13-2.75-1.74-6.39-.93-8.13,1.81h0Z"/>
<path fill="#BFB47B" fill-rule="evenodd" d="M74.75,486.13c4.57,72.58,28.09,140.3,71.97,185.38,2.26,2.33,6,2.38,8.33.12,2.33-2.27,2.38-6.01.12-8.33-42.08-43.23-64.28-108.31-68.66-177.91-.2-3.24-3-5.71-6.24-5.5-3.25.2-5.71,3-5.51,6.25h0Z"/>
<path fill="#BFB47B" fill-rule="evenodd" d="M167.03,1016.18c-.7-4.27-.44-34.34-.58-78.6-.01-3.25-2.66-5.88-5.91-5.87s-5.88,2.66-5.87,5.9c.15,45.32.02,76.09.73,80.45.53,3.22,3.56,5.4,6.76,4.88,3.22-.53,5.4-3.56,4.87-6.76h0Z"/>
<path fill="#BFB47B" fill-rule="evenodd" d="M298.08,1015.89c-.7-4.27-.44-34.34-.59-78.6-.01-3.25-2.66-5.88-5.9-5.87-3.25.01-5.89,2.66-5.88,5.92.15,45.31.04,76.08.74,80.45.52,3.2,3.56,5.38,6.76,4.87,3.2-.53,5.38-3.56,4.87-6.76h0Z"/>
<path fill="#BFB47B" fill-rule="evenodd" d="M429.13,1015.59c-.7-4.27-.44-34.34-.59-78.6-.01-3.25-2.66-5.88-5.91-5.87s-5.88,2.66-5.87,5.91c.15,45.31.02,76.08.74,80.45.52,3.2,3.55,5.38,6.76,4.87,3.2-.53,5.38-3.56,4.87-6.76h0Z"/>
<path fill="#BFB47B" fill-rule="evenodd" d="M560.17,1015.3c-.7-4.27-.44-34.34-.58-78.6-.01-3.25-2.66-5.88-5.92-5.87-3.25.01-5.88,2.66-5.87,5.91.15,45.31.02,76.08.73,80.45.53,3.2,3.56,5.38,6.76,4.87,3.22-.52,5.4-3.56,4.87-6.76h.01Z"/>
<path fill="#BFB47B" fill-rule="evenodd" d="M691.22,1015c-.7-4.27-.44-34.34-.59-78.59-.01-3.25-2.66-5.89-5.91-5.88s-5.88,2.66-5.87,5.91c.15,45.31.04,76.08.74,80.45.52,3.21,3.55,5.38,6.76,4.87,3.2-.52,5.38-3.56,4.87-6.76h0Z"/>
<path fill="#BFB47B" fill-rule="evenodd" d="M822.27,1014.71c-.7-4.27-.44-34.34-.59-78.59-.01-3.25-2.66-5.89-5.92-5.88-3.25.01-5.88,2.66-5.87,5.92.15,45.3.02,76.09.74,80.45.52,3.2,3.55,5.38,6.75,4.87,3.22-.52,5.4-3.55,4.88-6.76h.01Z"/>
<path fill="#BFB47B" fill-rule="evenodd" d="M228.74,1016.05c-.7-4.26-.44-34.34-.59-78.6-.01-3.25-2.66-5.88-5.91-5.87s-5.88,2.66-5.87,5.92c.15,45.31.02,76.08.74,80.45.52,3.21,3.55,5.39,6.76,4.87,3.2-.53,5.38-3.56,4.87-6.76h0Z"/>
<path fill="#BFB47B" fill-rule="evenodd" d="M359.78,1015.76c-.7-4.27-.44-34.34-.58-78.6-.01-3.25-2.66-5.88-5.91-5.87s-5.88,2.66-5.87,5.92c.15,45.31.02,76.08.73,80.45.53,3.2,3.56,5.38,6.76,4.87,3.22-.53,5.4-3.56,4.87-6.76h0Z"/>
<path fill="#BFB47B" fill-rule="evenodd" d="M490.83,1015.46c-.7-4.27-.44-34.34-.59-78.6-.01-3.25-2.65-5.88-5.9-5.87s-5.89,2.66-5.88,5.91c.15,45.31.04,76.08.74,80.45.52,3.2,3.56,5.38,6.76,4.87s5.38-3.56,4.87-6.76h0Z"/>
<path fill="#BFB47B" fill-rule="evenodd" d="M621.88,1015.17c-.7-4.27-.44-34.34-.59-78.59-.01-3.25-2.66-5.89-5.91-5.88s-5.88,2.66-5.87,5.91c.15,45.31.02,76.09.74,80.45.52,3.2,3.55,5.38,6.76,4.87,3.2-.52,5.38-3.55,4.87-6.76h0Z"/>
<path fill="#BFB47B" fill-rule="evenodd" d="M752.92,1014.87c-.7-4.27-.44-34.34-.58-78.59-.01-3.25-2.66-5.89-5.92-5.88-3.25.01-5.88,2.66-5.87,5.91.15,45.31.02,76.09.73,80.45.53,3.2,3.56,5.38,6.76,4.87,3.22-.52,5.4-3.55,4.87-6.76h.01Z"/>
        <path fill="#BFB47B" fill-rule="evenodd" d="M236.35,860c.82.42,1.73.66,2.66.66,97.7.91,477.93.24,498.25-1.54,1.6-.14,3.72-.78,6.24-2.1,4.07-2.14,9.8-6.36,16.66-12.28,37.06-31.93,109.85-114.77,135.03-163.83,110.89-216.1,60.1-492.4-163.71-621.97C559.54-40.6,311.12-9.11,162.6,116.17,85.75,180.99,22.62,287.87,7.41,382.9c-55.27,345.44,216.16,470.47,228.93,477.1h0ZM240.49,848.89c99.6.9,475.56.26,495.75-1.52,1.48-.13,3.69-1.76,6.79-3.98,6.3-4.54,14.75-11.98,24.45-21.37,38.29-37.14,95.67-104.43,117.24-146.49,108.1-210.64,59.04-480.08-159.13-606.4C557.73-28.06,315.21,2.86,170.2,125.18,95.4,188.27,33.86,292.26,19.06,384.76c-52.56,328.5,198,452.45,221.42,464.13h.01Z"/>
        <path fill="#BFB47B" fill-rule="evenodd" d="M77.66,403.52c-2.2,15.18-3.48,31.76-3.82,43.8-.08,3.25,2.47,5.96,5.73,6.06,3.25.08,5.96-2.47,6.06-5.73.33-11.68,1.57-27.73,3.7-42.43.46-3.22-1.77-6.21-4.98-6.68-3.22-.46-6.21,1.77-6.68,4.98h-.01Z"/>
        <path fill="#BFB47B" fill-rule="evenodd" d="M226.87,849.25c-12.31-.58-38.18-.26-40.55.06-1.64.22-4.57,1.46-5.87,5.75-1.26,4.21-2,15.68-2.22,28.89-.33,21.39.48,47.45,1.17,52.46.74,5.3,5.29,5.91,6,5.91,3.31.05,88.49-.28,120.21-.28,116.27,0,461.82-.92,485.56-1.69,1.13-.04,2.27-.36,3.38-1.19.52-.39,2.24-1.99,2.67-5.46,1.11-8.75,1.2-53.34.19-72.18-.22-4.23-.55-7.29-.87-8.66-.33-1.37-.84-2.24-1.19-2.71-1.71-2.36-3.84-2.69-5.62-2.47-8.78,1.08-528.85,3.16-562.87,1.57h0ZM785.49,859.56c-57.68,1.13-526.87,2.97-559.18,1.46-9.5-.45-27.49-.39-35.07-.19-2.12,13.28-1.38,54.87-.51,69.71,19.49-.04,87.33-.28,114.87-.28,111.07,0,431.44-.82,480.21-1.58.82-14.3.73-54.63-.33-69.12h.01ZM790.48,859.43c.24-.01.47-.02.71-.05-.13.01-.37.02-.71.05h0Z"/>
        <path fill="#BFB47B" fill-rule="evenodd" d="M158.51,930.72c-15.32-.58-47.5-.27-50.43.05-1.41.15-2.86.73-4.15,2.07-1.12,1.15-2.57,4.12-3.3,8.72-2.31,14.56-1.78,52-.81,69,.34,5.95,1.07,9.86,1.41,10.59,1.47,3.05,3.92,3.43,5.35,3.44,4.17.04,111.11-.28,150.94-.28,146.03,0,579.92-.93,609.74-1.71,1.11-.04,5.15-.84,6.08-6,1.26-6.89,1.58-42.28.79-64.3-.28-7.82-.72-14.01-1.25-16.83-.31-1.59-.75-2.66-1.1-3.24-1.68-2.93-4.12-3.29-5.92-3.11-11.04,1.1-664.6,3.21-707.36,1.59h.01ZM861.72,941.01c-63.58,1.13-662.73,3.03-703.65,1.48-12.56-.47-36.87-.38-45.65-.14-2.73,13.02-1.76,55.59-.65,70.46,22.33-.04,110.44-.28,145.75-.28,140.64,0,548.44-.86,604.61-1.63,1.06-14.29.93-55.46-.41-69.9h0Z"/>
      </g>
    </g>
  </g>
</svg>