<?xml version="1.0" encoding="UTF-8"?>
<svg id="Layer_2" data-name="Layer 2" xmlns="http://www.w3.org/2000/svg" viewBox="0 0 951.79 1024.59">
  <g id="Layer_2-2" data-name="Layer 2">
    <g id="OBJESCT">
      <g>
        <path fill="#BFB47B" fill-rule="evenodd" d="M134.18,239.43c-25.3,39.81-42.95,87.17-52.34,136.48-.61,3.19,1.5,6.28,4.69,6.89,3.19.6,6.28-1.5,6.88-4.69,9.12-47.82,26.18-93.76,50.71-132.37,1.74-2.75.93-6.39-1.81-8.13-2.75-1.74-6.39-.93-8.13,1.81h0Z"/>
        <path fill="#BFB47B" fill-rule="evenodd" d="M74.75,486.13c4.57,72.58,28.09,140.3,71.97,185.38,2.26,2.33,6,2.38,8.33.12,2.33-2.27,2.38-6.01.12-8.33-42.08-43.23-64.28-108.31-68.66-177.91-.2-3.24-3-5.71-6.24-5.5-3.25.2-5.71,3-5.51,6.25h0Z"/>
        <path fill="#BFB47B" fill-rule="evenodd" d="M167.03,1016.18c-.7-4.27-.44-34.34-.58-78.6-.01-3.25-2.66-5.88-5.91-5.87s-5.88,2.66-5.87,5.9c.15,45.32.02,76.09.73,80.45.53,3.22,3.56,5.4,6.76,4.88,3.22-.53,5.4-3.56,4.87-6.76h0Z"/>
        <path fill="#BFB47B" fill-rule="evenodd" d="M298.08,1015.89c-.7-4.27-.44-34.34-.59-78.6-.01-3.25-2.66-5.88-5.9-5.87-3.25.01-5.89,2.66-5.88,5.92.15,45.31.04,76.08.74,80.45.52,3.2,3.56,5.38,6.76,4.87,3.2-.53,5.38-3.56,4.87-6.76h0Z"/>
        <path fill="#BFB47B" fill-rule="evenodd" d="M429.13,1015.59c-.7-4.27-.44-34.34-.59-78.6-.01-3.25-2.66-5.88-5.91-5.87s-5.88,2.66-5.87,5.91c.15,45.31.02,76.08.74,80.45.52,3.2,3.55,5.38,6.76,4.87,3.2-.53,5.38-3.56,4.87-6.76h0Z"/>
        <path fill="#BFB47B" fill-rule="evenodd" d="M560.17,1015.3c-.7-4.27-.44-34.34-.58-78.6-.01-3.25-2.66-5.88-5.92-5.87-3.25.01-5.88,2.66-5.87,5.91.15,45.31.02,76.08.73,80.45.53,3.2,3.56,5.38,6.76,4.87,3.22-.52,5.4-3.56,4.87-6.76h.01Z"/>
        <path fill="#BFB47B" fill-rule="evenodd" d="M691.22,1015c-.7-4.27-.44-34.34-.59-78.59-.01-3.25-2.66-5.89-5.91-5.88s-5.88,2.66-5.87,5.91c.15,45.31.04,76.08.74,80.45.52,3.21,3.55,5.38,6.76,4.87,3.2-.52,5.38-3.56,4.87-6.76h0Z"/>
        <path fill="#BFB47B" fill-rule="evenodd" d="M822.27,1014.71c-.7-4.27-.44-34.34-.59-78.59-.01-3.25-2.66-5.89-5.92-5.88-3.25.01-5.88,2.66-5.87,5.92.15,45.3.02,76.09.74,80.45.52,3.2,3.55,5.38,6.75,4.87,3.22-.52,5.4-3.55,4.88-6.76h.01Z"/>
        <path fill="#BFB47B" fill-rule="evenodd" d="M228.74,1016.05c-.7-4.26-.44-34.34-.59-78.6-.01-3.25-2.66-5.88-5.91-5.87s-5.88,2.66-5.87,5.92c.15,45.31.02,76.08.74,80.45.52,3.21,3.55,5.39,6.76,4.87,3.2-.53,5.38-3.56,4.87-6.76h0Z"/>
        <path fill="#BFB47B" fill-rule="evenodd" d="M359.78,1015.76c-.7-4.27-.44-34.34-.58-78.6-.01-3.25-2.66-5.88-5.91-5.87s-5.88,2.66-5.87,5.92c.15,45.31.02,76.08.73,80.45.53,3.2,3.56,5.38,6.76,4.87,3.22-.53,5.4-3.56,4.87-6.76h0Z"/>
        <path fill="#BFB47B" fill-rule="evenodd" d="M490.83,1015.46c-.7-4.27-.44-34.34-.59-78.6-.01-3.25-2.65-5.88-5.9-5.87s-5.89,2.66-5.88,5.91c.15,45.31.04,76.08.74,80.45.52,3.2,3.56,5.38,6.76,4.87s5.38-3.56,4.87-6.76h0Z"/>
        <path fill="#BFB47B" fill-rule="evenodd" d="M621.88,1015.17c-.7-4.27-.44-34.34-.59-78.59-.01-3.25-2.66-5.89-5.91-5.88s-5.88,2.66-5.87,5.91c.15,45.31.02,76.09.74,80.45.52,3.2,3.55,5.38,6.76,4.87,3.2-.52,5.38-3.55,4.87-6.76h0Z"/>
        <path fill="#BFB47B" fill-rule="evenodd" d="M752.92,1014.87c-.7-4.27-.44-34.34-.58-78.59-.01-3.25-2.66-5.89-5.92-5.88-3.25.01-5.88,2.66-5.87,5.91.15,45.31.02,76.09.73,80.45.53,3.2,3.56,5.38,6.76,4.87,3.22-.52,5.4-3.55,4.87-6.76h.01Z"/>
        <path fill="#BFB47B" fill-rule="evenodd" d="M236.35,860c.82.42,1.73.66,2.66.66,97.7.91,477.93.24,498.25-1.54,1.6-.14,3.72-.78,6.24-2.1,4.07-2.14,9.8-6.36,16.66-12.28,37.06-31.93,109.85-114.77,135.03-163.83,110.89-216.1,60.1-492.4-163.71-621.97C559.54-40.6,311.12-9.11,162.6,116.17,85.75,180.99,22.62,287.87,7.41,382.9c-55.27,345.44,216.16,470.47,228.93,477.1h0ZM240.49,848.89c99.6.9,475.56.26,495.75-1.52,1.48-.13,3.69-1.76,6.79-3.98,6.3-4.54,14.75-11.98,24.45-21.37,38.29-37.14,95.67-104.43,117.24-146.49,108.1-210.64,59.04-480.08-159.13-606.4C557.73-28.06,315.21,2.86,170.2,125.18,95.4,188.27,33.86,292.26,19.06,384.76c-52.56,328.5,198,452.45,221.42,464.13h.01Z"/>
        <path fill="#BFB47B" fill-rule="evenodd" d="M77.66,403.52c-2.2,15.18-3.48,31.76-3.82,43.8-.08,3.25,2.47,5.96,5.73,6.06,3.25.08,5.96-2.47,6.06-5.73.33-11.68,1.57-27.73,3.7-42.43.46-3.22-1.77-6.21-4.98-6.68-3.22-.46-6.21,1.77-6.68,4.98h-.01Z"/>
        <path fill="#BFB47B" fill-rule="evenodd" d="M226.87,849.25c-12.31-.58-38.18-.26-40.55.06-1.64.22-4.57,1.46-5.87,5.75-1.26,4.21-2,15.68-2.22,28.89-.33,21.39.48,47.45,1.17,52.46.74,5.3,5.29,5.91,6,5.91,3.31.05,88.49-.28,120.21-.28,116.27,0,461.82-.92,485.56-1.69,1.13-.04,2.27-.36,3.38-1.19.52-.39,2.24-1.99,2.67-5.46,1.11-8.75,1.2-53.34.19-72.18-.22-4.23-.55-7.29-.87-8.66-.33-1.37-.84-2.24-1.19-2.71-1.71-2.36-3.84-2.69-5.62-2.47-8.78,1.08-528.85,3.16-562.87,1.57h0ZM785.49,859.56c-57.68,1.13-526.87,2.97-559.18,1.46-9.5-.45-27.49-.39-35.07-.19-2.12,13.28-1.38,54.87-.51,69.71,19.49-.04,87.33-.28,114.87-.28,111.07,0,431.44-.82,480.21-1.58.82-14.3.73-54.63-.33-69.12h.01ZM790.48,859.43c.24-.01.47-.02.71-.05-.13.01-.37.02-.71.05h0Z"/>
        <path fill="#BFB47B" fill-rule="evenodd" d="M158.51,930.72c-15.32-.58-47.5-.27-50.43.05-1.41.15-2.86.73-4.15,2.07-1.12,1.15-2.57,4.12-3.3,8.72-2.31,14.56-1.78,52-.81,69,.34,5.95,1.07,9.86,1.41,10.59,1.47,3.05,3.92,3.43,5.35,3.44,4.17.04,111.11-.28,150.94-.28,146.03,0,579.92-.93,609.74-1.71,1.11-.04,5.15-.84,6.08-6,1.26-6.89,1.58-42.28.79-64.3-.28-7.82-.72-14.01-1.25-16.83-.31-1.59-.75-2.66-1.1-3.24-1.68-2.93-4.12-3.29-5.92-3.11-11.04,1.1-664.6,3.21-707.36,1.59h.01ZM861.72,941.01c-63.58,1.13-662.73,3.03-703.65,1.48-12.56-.47-36.87-.38-45.65-.14-2.73,13.02-1.76,55.59-.65,70.46,22.33-.04,110.44-.28,145.75-.28,140.64,0,548.44-.86,604.61-1.63,1.06-14.29.93-55.46-.41-69.9h0Z"/>
      </g>
    </g>
  </g>
</svg>